<?xml version="1.0" encoding="UTF-8" standalone="no"?>
<!-- Created with Inkscape (http://www.inkscape.org/) -->

<svg
   xmlns:dc="http://purl.org/dc/elements/1.1/"
   xmlns:cc="http://creativecommons.org/ns#"
   xmlns:rdf="http://www.w3.org/1999/02/22-rdf-syntax-ns#"
   xmlns:svg="http://www.w3.org/2000/svg"
   xmlns="http://www.w3.org/2000/svg"
   xmlns:sodipodi="http://sodipodi.sourceforge.net/DTD/sodipodi-0.dtd"
   xmlns:inkscape="http://www.inkscape.org/namespaces/inkscape"
   id="svg2"
   version="1.1"
   inkscape:version="0.48.5 r10040"
   width="640"
   height="640"
   xml:space="preserve"
   sodipodi:docname="1.svg"><metadata
     id="metadata8"><rdf:RDF><cc:Work
         rdf:about=""><dc:format>image/svg+xml</dc:format><dc:type
           rdf:resource="http://purl.org/dc/dcmitype/StillImage" /><dc:title /></cc:Work></rdf:RDF></metadata><defs
     id="defs6"><clipPath
       clipPathUnits="userSpaceOnUse"
       id="clipPath16"><path
         d="M 0,512 512,512 512,0 0,0 0,512 z"
         id="path18" /></clipPath><clipPath
       clipPathUnits="userSpaceOnUse"
       id="clipPath28"><path
         d="M 0,512 512,512 512,0 0,0 0,512 z"
         id="path30" /></clipPath><clipPath
       clipPathUnits="userSpaceOnUse"
       id="clipPath40"><path
         d="M 0,512 512,512 512,0 0,0 0,512 z"
         id="path42" /></clipPath></defs><sodipodi:namedview
     pagecolor="#ffffff"
     bordercolor="#666666"
     borderopacity="1"
     objecttolerance="10"
     gridtolerance="10"
     guidetolerance="10"
     inkscape:pageopacity="0"
     inkscape:pageshadow="2"
     inkscape:window-width="1920"
     inkscape:window-height="1026"
     id="namedview4"
     showgrid="false"
     inkscape:zoom="0.36875"
     inkscape:cx="320"
     inkscape:cy="320"
     inkscape:window-x="0"
     inkscape:window-y="25"
     inkscape:window-maximized="1"
     inkscape:current-layer="g10" /><g
     id="g10"
     inkscape:groupmode="layer"
     inkscape:label="人物"
     transform="matrix(1.25,0,0,-1.25,0,640)"><g
       id="g12"><g
         id="g14"
         clip-path="url(#clipPath16)"><path
           d="m 1024,0 -512,0 0,512 512,0 0,-512 z"
           style="fill:#ffffff;fill-opacity:1;fill-rule:nonzero;stroke:none"
           id="path20" /></g></g><path
       d="M 0,0 512,0 512,512 0,512 0,0 z"
       style="fill:#9bc969;fill-opacity:1;fill-rule:nonzero;stroke:none"
       id="path22" /><g
       id="g24"><g
         id="g26"
         clip-path="url(#clipPath28)"><path
           d="m 1024,-512 -512,0 0,512 512,0 0,-512 z"
           style="fill:#ffffff;fill-opacity:1;fill-rule:nonzero;stroke:none"
           id="path32" /></g></g><path
       d="M 0,0 512,0 0,0 z"
       style="fill:#ffffff;fill-opacity:1;fill-rule:nonzero;stroke:none"
       id="path34" /><g
       id="g36"><g
         id="g38"
         clip-path="url(#clipPath40)"><g
           id="g44"
           transform="translate(456,256)"><path
             d="m 0,0 c 0,-110.457 -89.543,-200 -200,-200 -110.457,0 -200,89.543 -200,200 0,110.457 89.543,200 200,200 C -89.543,200 0,110.457 0,0"
             style="fill:#8cc152;fill-opacity:1;fill-rule:nonzero;stroke:none"
             id="path46" /></g><g
           id="g48"
           transform="translate(372.668,153.2109)"><path
             d="m 0,0 c -7.353,6.355 -19.364,14.563 -30.666,15.666 -7.257,0.709 -86.002,13 -86.002,13 0,0 -78.744,-12.291 -86.001,-13 -11.303,-1.103 -23.314,-9.311 -30.667,-15.666 -13.417,-11.598 -20.781,-25.84 -24.795,-38.711 36.196,-36.219 86.213,-58.621 141.463,-58.621 55.25,0 105.268,22.402 141.463,58.621 C 20.781,-25.84 13.417,-11.598 0,0"
             style="fill:#434a54;fill-opacity:1;fill-rule:nonzero;stroke:none"
             id="path50" /></g><g
           id="g52"
           transform="translate(372.668,153.2109)"><path
             d="m 0,0 c -7.353,6.355 -19.364,14.563 -30.666,15.666 -3.878,0.379 -28.173,4.066 -49.956,7.417 l 0,0.001 c -16.484,2.535 -31.524,4.877 -35.191,5.449 -0.054,0.008 -0.098,0.016 -0.147,0.024 -0.193,0.029 -0.346,0.052 -0.46,0.071 -0.161,0.024 -0.248,0.038 -0.248,0.038 0,0 -0.097,-0.015 -0.27,-0.041 -0.092,-0.016 -0.209,-0.033 -0.349,-0.055 -0.097,-0.015 -0.2,-0.031 -0.319,-0.05 -0.327,-0.051 -0.733,-0.114 -1.218,-0.19 -0.075,-0.012 -0.153,-0.023 -0.232,-0.035 -5.332,-0.831 -18.917,-2.943 -33.658,-5.211 l 0,-0.001 c -21.782,-3.351 -46.077,-7.038 -49.955,-7.417 -11.303,-1.103 -23.314,-9.311 -30.667,-15.666 -13.417,-11.598 -20.781,-25.84 -24.795,-38.711 2.251,-2.252 4.556,-4.451 6.912,-6.594 4.249,7.805 10.021,15.51 17.883,22.305 7.353,6.355 19.364,14.562 30.667,15.666 4.306,0.421 33.78,4.92 57.04,8.508 5.563,-9.906 14.759,-18.506 28.961,-18.506 14.202,0 23.398,8.6 28.961,18.506 23.26,-3.588 52.735,-8.087 57.041,-8.508 C -19.364,-8.438 -7.353,-16.645 0,-23 c 7.862,-6.795 13.635,-14.5 17.884,-22.305 2.355,2.143 4.66,4.342 6.911,6.594 C 20.781,-25.84 13.417,-11.598 0,0"
             style="fill:#656d78;fill-opacity:1;fill-rule:nonzero;stroke:none"
             id="path54" /></g><g
           id="g56"
           transform="translate(256,259.8789)"><path
             d="m 0,0 -42.25,5.5 16.308,-88.734 c 0,0 3.665,-30.766 25.942,-30.766 22.277,0 25.943,30.766 25.943,30.766 L 42.25,5.5 0,0 z"
             style="fill:#f9e0a8;fill-opacity:1;fill-rule:nonzero;stroke:none"
             id="path58" /></g><g
           id="g60"
           transform="translate(289.7275,249.3789)"><path
             d="m 0,0 -69.525,-21.592 7.086,-38.556 c 10.661,-13.145 26.918,-25.186 50.957,-26.264 2.709,6.691 3.425,12.678 3.425,12.678 L 4.07,-7.744 C 1.686,-2.947 0,0 0,0"
             style="fill:#d9c392;fill-opacity:1;fill-rule:nonzero;stroke:none"
             id="path62" /></g><g
           id="g64"
           transform="translate(193,296.3789)"><path
             d="M 0,0 C 0,0 -21.309,13.5 -19.104,-14.5 -16.9,-42.5 0,-40.5 0,-40.5 L 0,0 z"
             style="fill:#f9e0a8;fill-opacity:1;fill-rule:nonzero;stroke:none"
             id="path66" /></g><g
           id="g68"
           transform="translate(319,296.3789)"><path
             d="M 0,0 C 0,0 21.31,13.5 19.104,-14.5 16.9,-42.5 0,-40.5 0,-40.5 L 0,0 z"
             style="fill:#f9e0a8;fill-opacity:1;fill-rule:nonzero;stroke:none"
             id="path70" /></g><g
           id="g72"
           transform="translate(256,368.6172)"><path
             d="m 0,0 c -63,0 -63,-34.738 -63,-34.738 l 0,-80 c 0,-20.5 19.237,-36.287 35.226,-50 13.408,-11.5 27.774,-11 27.774,-11 0,0 14.366,-0.5 27.774,11 15.989,13.713 35.226,29.5 35.226,50 l 0,80 C 63,-34.738 63,0 0,0"
             style="fill:#ffe9ba;fill-opacity:1;fill-rule:nonzero;stroke:none"
             id="path74" /></g><g
           id="g76"
           transform="translate(373.4727,389.7187)"><path
             d="m 0,0 c -1.779,-11.568 -34.843,-17.91 -42.099,-19.184 22.197,4.475 24.599,45.304 24.599,45.304 -8.5,-18 -36,-17.979 -36,-17.979 18,11 0,36.009 0,36.009 -23.5,-42 -44.5,-20.996 -90,-22.496 -45.5,-1.5 -36.5,-53.498 -36.5,-53.498 0,0 -11.042,-33.369 -2.021,-60.308 l 2.623,-1.116 -0.075,0.612 0,-1.184 0,-9.879 4.973,0 3.5,13.694 c 8,13.754 4.5,44.617 4.5,44.617 8,-8.598 50.5,-11.667 50.5,-11.667 0,0 42.5,3.048 50.5,11.645 0,0 -3.5,-30.838 4.5,-44.591 l 3.5,-13.698 4.027,0 0,9.879 0,1.184 0.399,-0.612 2.977,0.957 c 5.705,17.038 3.045,36.592 0.275,48.592 l 0.031,0 C -3.791,-43.719 0,0 0,0"
             style="fill:#434a54;fill-opacity:1;fill-rule:nonzero;stroke:none"
             id="path78" /></g><g
           id="g80"
           transform="translate(319.9727,386.8516)"><path
             d="M 0,0 C -1.945,0 25.329,2.655 33.687,14.107 35.608,22.328 36,28.973 36,28.973 30.418,17.152 16.644,13.105 7.843,11.721 7.271,7.285 5.056,3.09 0,0"
             style="fill:#656d78;fill-opacity:1;fill-rule:nonzero;stroke:none"
             id="path82" /></g><g
           id="g84"
           transform="translate(331.374,360.5039)"><path
             d="m 0,0 c 5.574,0.979 26.369,4.936 36.521,11.959 4.834,9.584 5.578,18.195 5.578,18.195 C 41.01,23.078 28.219,17.973 16.787,14.779 13.121,7.604 7.776,1.568 0,0"
             style="fill:#656d78;fill-opacity:1;fill-rule:nonzero;stroke:none"
             id="path86" /></g><g
           id="g88"
           transform="translate(229.9727,401.3711)"><path
             d="m 0,0 c 45.5,1.5 66.5,-19.506 90,22.494 0,0 5.319,-7.406 7.279,-15.93 C 100.817,18.449 90,33.494 90,33.494 66.5,-8.506 45.5,12.5 0,11 -35.847,9.818 -38.244,-22.701 -37.224,-36.449 -36.039,-21.141 -28.121,-0.926 0,0"
             style="fill:#656d78;fill-opacity:1;fill-rule:nonzero;stroke:none"
             id="path90" /></g><g
           id="g92"
           transform="translate(194.4727,346.875)"><path
             d="M 0,0 C 0,0 -1.643,3.348 -1.86,8.367 -3.797,2.092 -7.254,-14.574 -6.207,-31.984 -5.208,-14.438 0,0 0,0"
             style="fill:#656d78;fill-opacity:1;fill-rule:nonzero;stroke:none"
             id="path94" /></g><g
           id="g96"
           transform="translate(271.4727,359.8711)"><path
             d="M 0,0 C 29.7,1.994 36.5,24.006 36.5,24.006 18.866,4.625 -15.666,11.34 -27,4.051 c -11.333,-7.287 14,-18.377 7,-24.045 -7,-5.666 -44.5,4.404 -44.5,4.404 l 2.611,-1.996 c 12.049,-7.08 47.889,-9.656 47.889,-9.656 0,0 34.019,2.445 46.912,9.119 L 36.5,-15.59 C 5.333,-21.52 -29.7,-1.992 0,0"
             style="fill:#656d78;fill-opacity:1;fill-rule:nonzero;stroke:none"
             id="path98" /></g></g></g></g></svg>