<?xml version="1.0" encoding="UTF-8" standalone="no"?>
<!-- Created with Inkscape (http://www.inkscape.org/) -->

<svg
   xmlns:dc="http://purl.org/dc/elements/1.1/"
   xmlns:cc="http://creativecommons.org/ns#"
   xmlns:rdf="http://www.w3.org/1999/02/22-rdf-syntax-ns#"
   xmlns:svg="http://www.w3.org/2000/svg"
   xmlns="http://www.w3.org/2000/svg"
   xmlns:sodipodi="http://sodipodi.sourceforge.net/DTD/sodipodi-0.dtd"
   xmlns:inkscape="http://www.inkscape.org/namespaces/inkscape"
   id="svg2"
   version="1.1"
   inkscape:version="0.48.5 r10040"
   width="640"
   height="640"
   xml:space="preserve"
   sodipodi:docname="人物.ai"><metadata
     id="metadata8"><rdf:RDF><cc:Work
         rdf:about=""><dc:format>image/svg+xml</dc:format><dc:type
           rdf:resource="http://purl.org/dc/dcmitype/StillImage" /><dc:title></dc:title></cc:Work></rdf:RDF></metadata><defs
     id="defs6"><clipPath
       clipPathUnits="userSpaceOnUse"
       id="clipPath20"><path
         d="M 0,512 512,512 512,0 0,0 0,512 z"
         id="path22" /></clipPath><clipPath
       clipPathUnits="userSpaceOnUse"
       id="clipPath36"><path
         d="M 0,512 512,512 512,0 0,0 0,512 z"
         id="path38" /></clipPath></defs><sodipodi:namedview
     pagecolor="#ffffff"
     bordercolor="#666666"
     borderopacity="1"
     objecttolerance="10"
     gridtolerance="10"
     guidetolerance="10"
     inkscape:pageopacity="0"
     inkscape:pageshadow="2"
     inkscape:window-width="684"
     inkscape:window-height="480"
     id="namedview4"
     showgrid="false"
     inkscape:zoom="0.36875"
     inkscape:cx="320"
     inkscape:cy="320"
     inkscape:window-x="0"
     inkscape:window-y="25"
     inkscape:window-maximized="0"
     inkscape:current-layer="g10" /><g
     id="g10"
     inkscape:groupmode="layer"
     inkscape:label="人物"
     transform="matrix(1.25,0,0,-1.25,0,640)"><path
       d="M 0,0 512,0 0,0 z"
       style="fill:#ffffff;fill-opacity:1;fill-rule:nonzero;stroke:none"
       id="path12" /><path
       d="M 0,0 512,0 512,512 0,512 0,0 z"
       style="fill:#ffffff;fill-opacity:1;fill-rule:nonzero;stroke:none"
       id="path14" /><g
       id="g16"><g
         id="g18"
         clip-path="url(#clipPath20)"><path
           d="m 512,512 -512,0 0,512 512,0 0,-512 z"
           style="fill:#ffffff;fill-opacity:1;fill-rule:nonzero;stroke:none"
           id="path24" /><path
           d="m 0,512 -512,0 0,512 512,0 0,-512 z"
           style="fill:#ffffff;fill-opacity:1;fill-rule:nonzero;stroke:none"
           id="path26" /></g></g><g
       id="g28"
       transform="translate(0,512.0001)"><path
         d="M 0,0 0,-512 0,0 z"
         style="fill:#ffffff;fill-opacity:1;fill-rule:nonzero;stroke:none"
         id="path30" /></g><g
       id="g32"><g
         id="g34"
         clip-path="url(#clipPath36)"><g
           id="g40"
           transform="translate(456,256)"><path
             d="m 0,0 c 0,-110.457 -89.543,-200 -200,-200 -110.457,0 -200,89.543 -200,200 0,110.457 89.543,200 200,200 C -89.543,200 0,110.457 0,0"
             style="fill:#aab2bd;fill-opacity:1;fill-rule:nonzero;stroke:none"
             id="path42" /></g><g
           id="g44"
           transform="translate(256,259.8789)"><path
             d="m 0,0 -42.25,5.5 16.307,-88.734 c 0,0 3.666,-30.766 25.943,-30.766 22.277,0 25.943,30.766 25.943,30.766 L 42.25,5.5 0,0 z"
             style="fill:#f9e0a8;fill-opacity:1;fill-rule:nonzero;stroke:none"
             id="path46" /></g><g
           id="g48"
           transform="translate(290,250.3789)"><path
             d="m 0,0 -69.525,-21.592 7.086,-38.556 c 10.66,-13.145 26.918,-25.186 50.957,-26.264 2.709,6.691 3.425,12.678 3.425,12.678 L 4.07,-7.744 C 1.686,-2.947 0,0 0,0"
             style="fill:#d9c392;fill-opacity:1;fill-rule:nonzero;stroke:none"
             id="path50" /></g><g
           id="g52"
           transform="translate(372.668,153.2109)"><path
             d="m 0,0 c -7.353,6.355 -19.364,14.563 -30.666,15.666 -4.147,0.406 -31.615,4.59 -54.412,8.104 l -3.96,8.675 c -2.667,-2.668 -6.026,-4.845 -9.475,-6.599 -8.786,-4.469 -18.155,-6.178 -18.155,-6.178 0,0 -9.369,1.709 -18.155,6.178 -3.448,1.754 -6.808,3.931 -9.475,6.599 l -3.96,-8.675 c -22.797,-3.514 -50.265,-7.698 -54.412,-8.104 -11.302,-1.103 -23.313,-9.311 -30.666,-15.666 -13.417,-11.598 -20.781,-25.84 -24.795,-38.711 36.195,-36.219 86.213,-58.621 141.463,-58.621 55.25,0 105.268,22.402 141.463,58.621 C 20.781,-25.84 13.417,-11.598 0,0"
             style="fill:#da4453;fill-opacity:1;fill-rule:nonzero;stroke:none"
             id="path54" /></g><g
           id="g56"
           transform="translate(253,55.916)"><path
             d="m 0,0 c 1,-0.014 1.997,-0.037 3,-0.037 0.669,0 2,0.017 2,0.025 l 0,116.096 -5,0 L 0,0 z"
             style="fill:#c93f4d;fill-opacity:1;fill-rule:nonzero;stroke:none"
             id="path58" /></g><g
           id="g60"
           transform="translate(283.6299,185.6562)"><path
             d="m 0,0 c -11.37,-10.223 -27.63,-10.777 -27.63,-10.777 0,0 -16.26,0.554 -27.63,10.777 l -3.96,-8.676 20.256,-21.767 11.334,13.513 11.334,-13.513 L 3.96,-8.676 0,0 z"
             style="fill:#c93f4d;fill-opacity:1;fill-rule:nonzero;stroke:none"
             id="path62" /></g><g
           id="g64"
           transform="translate(193,296.3789)"><path
             d="M 0,0 C 0,0 -21.309,13.5 -19.104,-14.5 -16.9,-42.5 0,-40.5 0,-40.5 L 0,0 z"
             style="fill:#f9e0a8;fill-opacity:1;fill-rule:nonzero;stroke:none"
             id="path66" /></g><g
           id="g68"
           transform="translate(319,296.3789)"><path
             d="M 0,0 C 0,0 21.31,13.5 19.104,-14.5 16.9,-42.5 0,-40.5 0,-40.5 L 0,0 z"
             style="fill:#f9e0a8;fill-opacity:1;fill-rule:nonzero;stroke:none"
             id="path70" /></g><g
           id="g72"
           transform="translate(256,368.6172)"><path
             d="m 0,0 c -63,0 -63,-34.738 -63,-34.738 l 0,-80 c 0,-20.5 19.237,-36.287 35.226,-50 13.408,-11.5 27.774,-11 27.774,-11 0,0 14.366,-0.5 27.774,11 15.989,13.713 35.226,29.5 35.226,50 l 0,80 C 63,-34.738 63,0 0,0"
             style="fill:#ffe9ba;fill-opacity:1;fill-rule:nonzero;stroke:none"
             id="path74" /></g><g
           id="g76"
           transform="translate(266,197.4609)"><path
             d="M 0,0 C 0,0 -0.204,-2.828 -4.505,-2.984 L -9,7.293 -13.495,-2.984 C -17.796,-2.828 -18,0 -18,0 -24.277,-1.064 -36.774,5.418 -36.774,5.418 -19.217,-8.248 -14.422,-5.104 -14.422,-5.104 -10.511,-10.291 -9,-9.582 -9,-9.582 c 0,0 1.511,-0.709 5.422,4.478 0,0 4.795,-3.144 22.352,10.522 C 18.774,5.418 6.277,-1.064 0,0"
             style="fill:#f6bb42;fill-opacity:1;fill-rule:nonzero;stroke:none"
             id="path78" /></g><g
           id="g80"
           transform="translate(319.083,299.127)"><path
             d="m 0,0 -11.791,-12.348 c -3.444,6.934 -10.579,11.711 -18.848,11.711 -10.335,0 -18.915,-7.453 -20.698,-17.275 -3.114,2.83 -7.689,4.082 -11.746,4.164 -4.057,-0.082 -8.632,-1.334 -11.746,-4.164 -1.783,9.822 -10.363,17.275 -20.698,17.275 -8.269,0 -15.404,-4.777 -18.848,-11.711 L -126.166,0 l 0.083,-2.748 c 0,0 8.049,-13.236 9.767,-15.756 -0.16,-1.043 -0.267,-2.101 -0.267,-3.189 0,-11.629 9.427,-21.055 21.056,-21.055 11.441,0 20.731,9.131 21.028,20.502 2.223,3.904 7.231,5.414 11.416,5.498 4.185,-0.084 9.193,-1.594 11.416,-5.498 0.297,-11.371 9.587,-20.502 21.028,-20.502 11.629,0 21.056,9.426 21.056,21.055 0,1.088 -0.107,2.146 -0.267,3.189 1.718,2.52 9.767,15.756 9.767,15.756 L 0,0 z"
             style="fill:#434a54;fill-opacity:1;fill-rule:nonzero;stroke:none"
             id="path82" /></g><g
           id="g84"
           transform="translate(241.8613,277.4336)"><path
             d="m 0,0 c 0,-10.109 -8.196,-18.305 -18.306,-18.305 -10.11,0 -18.305,8.196 -18.305,18.305 0,10.111 8.195,18.307 18.305,18.307 C -8.196,18.307 0,10.111 0,0"
             style="fill:#f5f7fa;fill-opacity:1;fill-rule:nonzero;stroke:none"
             id="path86" /></g><g
           id="g88"
           transform="translate(270.1387,277.4336)"><path
             d="m 0,0 c 0,-10.109 8.196,-18.305 18.306,-18.305 10.11,0 18.305,8.196 18.305,18.305 0,10.111 -8.195,18.307 -18.305,18.307 C 8.196,18.307 0,10.111 0,0"
             style="fill:#f5f7fa;fill-opacity:1;fill-rule:nonzero;stroke:none"
             id="path90" /></g><g
           id="g92"
           transform="translate(223.5557,295.7402)"><path
             d="m 0,0 c -1.727,0 -3.391,-0.256 -4.975,-0.703 l -10.266,-27.736 c 2.349,-3.528 5.891,-6.186 10.051,-7.415 L 7.485,-1.611 C 5.198,-0.584 2.669,0 0,0"
             style="fill:#e8eaed;fill-opacity:1;fill-rule:nonzero;stroke:none"
             id="path94" /></g><g
           id="g96"
           transform="translate(232.8281,293.1992)"><path
             d="m 0,0 -12.5,-33.77 c 1.05,-0.187 2.125,-0.3 3.228,-0.3 1.492,0 2.934,0.197 4.323,0.535 L 5.579,-5.092 C 4.096,-3.031 2.196,-1.295 0,0"
             style="fill:#e8eaed;fill-opacity:1;fill-rule:nonzero;stroke:none"
             id="path98" /></g><g
           id="g100"
           transform="translate(288.6387,295.7402)"><path
             d="M 0,0 C -1.727,0 -3.391,-0.256 -4.975,-0.703 L -15.24,-28.439 c 2.349,-3.528 5.89,-6.186 10.051,-7.415 L 7.486,-1.611 C 5.199,-0.584 2.67,0 0,0"
             style="fill:#e8eaed;fill-opacity:1;fill-rule:nonzero;stroke:none"
             id="path102" /></g><g
           id="g104"
           transform="translate(297.9121,293.1992)"><path
             d="m 0,0 -12.5,-33.77 c 1.049,-0.187 2.125,-0.3 3.227,-0.3 1.492,0 2.935,0.197 4.324,0.535 L 5.578,-5.092 C 4.096,-3.031 2.195,-1.295 0,0"
             style="fill:#e8eaed;fill-opacity:1;fill-rule:nonzero;stroke:none"
             id="path106" /></g><g
           id="g108"
           transform="translate(196.1836,295.7402)"><path
             d="m 0,0 -1.351,-3.279 3,-4.674 3,3.508 L 0,0 z"
             style="fill:#f5f7fa;fill-opacity:1;fill-rule:nonzero;stroke:none"
             id="path110" /></g><g
           id="g112"
           transform="translate(315.8164,295.7402)"><path
             d="m 0,0 1.351,-3.279 -3,-4.674 -3,3.508 L 0,0 z"
             style="fill:#f5f7fa;fill-opacity:1;fill-rule:nonzero;stroke:none"
             id="path114" /></g><g
           id="g116"
           transform="translate(256.3828,392.6172)"><path
             d="m 0,0 c -37.334,0 -68,-12.344 -68,-49.227 0,-38.179 5,-47.011 5,-47.011 0,0 5,20.832 13.666,23.832 8.666,3 7.084,18.334 7.084,18.334 0,0 28.916,-4 42.25,-4 13.332,0 42.25,4 42.25,4 0,0 -1.584,-15.334 7.082,-18.334 8.666,-3 13.668,-23.832 13.668,-23.832 0,0 5,8.832 5,47.011 C 68,-12.344 37.332,0 0,0"
             style="fill:#f6bb42;fill-opacity:1;fill-rule:nonzero;stroke:none"
             id="path118" /></g><g
           id="g120"
           transform="translate(321.0332,389.8789)"><path
             d="m 0,0 c -0.443,17.389 -13.648,32.594 -58.15,33 -105.028,0.959 -48.75,-84.334 -48.75,-84.334 50.25,-21.834 84.5,0 84.5,0 0,0 13.177,15.861 19.324,33.826 19.683,-7.443 29.926,3.492 29.926,3.492 C 4.373,-23.52 0.01,-0.049 0,0"
             style="fill:#ffce54;fill-opacity:1;fill-rule:nonzero;stroke:none"
             id="path122" /></g><g
           id="g124"
           transform="translate(318.2734,401.7754)"><path
             d="m 0,0 c -0.795,1.641 -1.77,3.227 -2.967,4.738 -108.355,17.209 -54.814,-70.619 -50.504,-77.455 0.844,0.057 1.674,0.125 2.491,0.201 0.042,0.006 0.085,0.008 0.126,0.012 0.807,0.078 1.6,0.164 2.379,0.26 0.051,0.006 0.1,0.012 0.151,0.019 1.549,0.192 3.043,0.416 4.482,0.666 0.076,0.014 0.154,0.202 0.233,0.215 0.709,0.126 1.408,0.569 2.088,0.569 l 0.005,0 c 0.67,0 1.323,0.103 1.965,0.248 0.076,0.017 0.153,-0.053 0.229,-0.036 0.623,0.143 1.232,0.247 1.828,0.396 0.09,0.022 0.178,0.024 0.265,0.048 0.571,0.144 1.131,0.281 1.676,0.431 0.026,0.008 0.049,0.01 0.074,0.016 C -44.994,-51.449 -63.645,8.299 0,0"
             style="fill:#f6bb42;fill-opacity:1;fill-rule:nonzero;stroke:none"
             id="path126" /></g><g
           id="g128"
           transform="translate(285.6387,421.0098)"><path
             d="m 0,0 c -5.152,0.898 -10.984,1.494 -17.564,1.74 -88.832,-3.385 -55.313,-70.994 -45.836,-87.404 6.75,-2.402 13.168,-4.029 19.209,-5.053 C -54.469,-72.637 -86.578,-5.467 0,0"
             style="fill:#ffd56b;fill-opacity:1;fill-rule:nonzero;stroke:none"
             id="path130" /></g><g
           id="g132"
           transform="translate(291.9395,335.2402)"><path
             d="m 0,0 c 4.352,1.812 6.693,3.305 6.693,3.305 0,0 0.715,0.863 1.883,2.4 C 4.525,16.91 -2.322,43.324 26.018,37.131 26.018,37.131 -21.418,70.273 0,0"
             style="fill:#ffd56b;fill-opacity:1;fill-rule:nonzero;stroke:none"
             id="path134" /></g></g></g></g></svg>