<?xml version="1.0" encoding="UTF-8" standalone="no"?>
<!-- Created with Inkscape (http://www.inkscape.org/) -->

<svg
   xmlns:dc="http://purl.org/dc/elements/1.1/"
   xmlns:cc="http://creativecommons.org/ns#"
   xmlns:rdf="http://www.w3.org/1999/02/22-rdf-syntax-ns#"
   xmlns:svg="http://www.w3.org/2000/svg"
   xmlns="http://www.w3.org/2000/svg"
   xmlns:sodipodi="http://sodipodi.sourceforge.net/DTD/sodipodi-0.dtd"
   xmlns:inkscape="http://www.inkscape.org/namespaces/inkscape"
   id="svg2"
   version="1.1"
   inkscape:version="0.48.5 r10040"
   width="640"
   height="640"
   xml:space="preserve"
   sodipodi:docname="人物.ai"><metadata
     id="metadata8"><rdf:RDF><cc:Work
         rdf:about=""><dc:format>image/svg+xml</dc:format><dc:type
           rdf:resource="http://purl.org/dc/dcmitype/StillImage" /><dc:title></dc:title></cc:Work></rdf:RDF></metadata><defs
     id="defs6"><clipPath
       clipPathUnits="userSpaceOnUse"
       id="clipPath16"><path
         d="M 0,512 512,512 512,0 0,0 0,512 z"
         id="path18" /></clipPath><clipPath
       clipPathUnits="userSpaceOnUse"
       id="clipPath28"><path
         d="M 0,512 512,512 512,0 0,0 0,512 z"
         id="path30" /></clipPath><clipPath
       clipPathUnits="userSpaceOnUse"
       id="clipPath44"><path
         d="M 0,512 512,512 512,0 0,0 0,512 z"
         id="path46" /></clipPath></defs><sodipodi:namedview
     pagecolor="#ffffff"
     bordercolor="#666666"
     borderopacity="1"
     objecttolerance="10"
     gridtolerance="10"
     guidetolerance="10"
     inkscape:pageopacity="0"
     inkscape:pageshadow="2"
     inkscape:window-width="684"
     inkscape:window-height="480"
     id="namedview4"
     showgrid="false"
     inkscape:zoom="0.36875"
     inkscape:cx="320"
     inkscape:cy="320"
     inkscape:window-x="0"
     inkscape:window-y="25"
     inkscape:window-maximized="0"
     inkscape:current-layer="g10" /><g
     id="g10"
     inkscape:groupmode="layer"
     inkscape:label="人物"
     transform="matrix(1.25,0,0,-1.25,0,640)"><g
       id="g12"><g
         id="g14"
         clip-path="url(#clipPath16)"><path
           d="m 1024,0 -512,0 0,512 512,0 0,-512 z"
           style="fill:#ffffff;fill-opacity:1;fill-rule:nonzero;stroke:none"
           id="path20" /></g></g><path
       d="M 0,0 512,0 512,512 0,512 0,0 z"
       style="fill:#ffffff;fill-opacity:1;fill-rule:nonzero;stroke:none"
       id="path22" /><g
       id="g24"><g
         id="g26"
         clip-path="url(#clipPath28)"><path
           d="m 1024,512 -512,0 0,512 512,0 0,-512 z"
           style="fill:#ffffff;fill-opacity:1;fill-rule:nonzero;stroke:none"
           id="path32" /><path
           d="m 512,512 -512,0 0,512 512,0 0,-512 z"
           style="fill:#ffffff;fill-opacity:1;fill-rule:nonzero;stroke:none"
           id="path34" /><path
           d="m 1024,-512 -512,0 0,512 512,0 0,-512 z"
           style="fill:#ffffff;fill-opacity:1;fill-rule:nonzero;stroke:none"
           id="path36" /></g></g><path
       d="M 0,0 512,0 0,0 z"
       style="fill:#ffffff;fill-opacity:1;fill-rule:nonzero;stroke:none"
       id="path38" /><g
       id="g40"><g
         id="g42"
         clip-path="url(#clipPath44)"><g
           id="g48"
           transform="translate(456,256)"><path
             d="m 0,0 c 0,-110.457 -89.543,-200 -200,-200 -110.457,0 -200,89.543 -200,200 0,110.457 89.543,200 200,200 C -89.543,200 0,110.457 0,0"
             style="fill:#f6bb42;fill-opacity:1;fill-rule:nonzero;stroke:none"
             id="path50" /></g><g
           id="g52"
           transform="translate(372.668,153.2109)"><path
             d="m 0,0 c -7.353,6.355 -19.364,14.563 -30.666,15.666 -7.258,0.709 -86.002,13 -86.002,13 0,0 -78.744,-12.291 -86.002,-13 -11.302,-1.103 -23.313,-9.311 -30.666,-15.666 -13.417,-11.598 -20.781,-25.84 -24.795,-38.711 36.195,-36.219 86.213,-58.621 141.463,-58.621 55.25,0 105.268,22.402 141.463,58.621 C 20.781,-25.84 13.417,-11.598 0,0"
             style="fill:#434a54;fill-opacity:1;fill-rule:nonzero;stroke:none"
             id="path54" /></g><g
           id="g56"
           transform="translate(256,259.8789)"><path
             d="m 0,0 -42.25,5.5 16.308,-88.734 c 0,0 3.665,-30.766 25.942,-30.766 22.277,0 25.943,30.766 25.943,30.766 L 42.25,5.5 0,0 z"
             style="fill:#f9e0a8;fill-opacity:1;fill-rule:nonzero;stroke:none"
             id="path58" /></g><g
           id="g60"
           transform="translate(290,250.3789)"><path
             d="m 0,0 -69.525,-21.592 7.086,-38.556 c 10.661,-13.145 26.918,-25.186 50.957,-26.264 2.709,6.691 3.425,12.678 3.425,12.678 L 4.07,-7.744 C 1.686,-2.947 0,0 0,0"
             style="fill:#d9c392;fill-opacity:1;fill-rule:nonzero;stroke:none"
             id="path62" /></g><g
           id="g64"
           transform="translate(283.6299,185.6562)"><path
             d="m 0,0 c -9.463,-9.463 -27.63,-12.777 -27.63,-12.777 0,0 -18.167,3.314 -27.63,12.777 L -59.261,-8.766 -27.63,-125.49 4.001,-8.766 0,0 z"
             style="fill:#f5f7fa;fill-opacity:1;fill-rule:nonzero;stroke:none"
             id="path66" /></g><g
           id="g68"
           transform="translate(284.4512,183.8555)"><path
             d="M 0,0 3.18,-6.965 -28.451,-123.689 -60.082,-6.965 -56.902,0 c -34.549,-6.977 -12.299,-68.477 -12.299,-68.477 l 10,3.5 -6.375,-10.25 37.125,-50.462 37.125,50.462 -6.375,10.25 10,-3.5 c 0,0 22.25,61.5 -12.299,68.477"
             style="fill:#656d78;fill-opacity:1;fill-rule:nonzero;stroke:none"
             id="path70" /></g><g
           id="g72"
           transform="translate(235.4668,135.9375)"><path
             d="M 0,0 20.533,-23.309 41.066,0 20.533,-75.771 0,0 z"
             style="fill:#aab2bd;fill-opacity:1;fill-rule:nonzero;stroke:none"
             id="path74" /></g><g
           id="g76"
           transform="translate(281.0869,172.873)"><path
             d="m 0,0 c 0.071,2.75 -1.848,3.924 -4.264,2.611 l -7.113,-3.865 c -2.416,-1.312 -4.352,-1.956 -4.302,-1.503 0.051,0.453 -2.158,0.884 -4.908,0.884 l -9,0 c -2.75,0 -4.959,-0.431 -4.908,-0.884 0.051,-0.453 -1.886,0.22 -4.302,1.534 l -7.113,3.849 c -2.416,1.313 -4.335,0.132 -4.264,-2.618 l 0.608,-23.494 c 0.071,-2.748 2.048,-3.825 4.393,-2.389 l 8.132,4.979 c 2.346,1.437 4.307,2.287 4.359,1.817 0.052,-0.47 2.345,-0.794 5.095,-0.794 l 5,0 c 2.75,0 5.043,0.324 5.095,0.794 0.053,0.47 2.014,-0.351 4.359,-1.788 l 8.132,-4.994 c 2.346,-1.437 4.322,-0.369 4.394,2.379 L 0,0 z"
             style="fill:#da4453;fill-opacity:1;fill-rule:nonzero;stroke:none"
             id="path78" /></g><g
           id="g80"
           transform="translate(193,296.3789)"><path
             d="M 0,0 C 0,0 -21.309,13.5 -19.104,-14.5 -16.9,-42.5 0,-40.5 0,-40.5 L 0,0 z"
             style="fill:#f9e0a8;fill-opacity:1;fill-rule:nonzero;stroke:none"
             id="path82" /></g><g
           id="g84"
           transform="translate(319,296.3789)"><path
             d="M 0,0 C 0,0 21.31,13.5 19.104,-14.5 16.9,-42.5 0,-40.5 0,-40.5 L 0,0 z"
             style="fill:#f9e0a8;fill-opacity:1;fill-rule:nonzero;stroke:none"
             id="path86" /></g><g
           id="g88"
           transform="translate(256,368.6172)"><path
             d="m 0,0 c -63,0 -63,-34.738 -63,-34.738 l 0,-80 c 0,-20.5 19.237,-36.287 35.226,-50 13.408,-11.5 27.774,-11 27.774,-11 0,0 14.366,-0.5 27.774,11 15.989,13.713 35.226,29.5 35.226,50 l 0,80 C 63,-34.738 63,0 0,0"
             style="fill:#ffe9ba;fill-opacity:1;fill-rule:nonzero;stroke:none"
             id="path90" /></g><g
           id="g92"
           transform="translate(290.917,264.1289)"><path
             d="m 0,0 c -11.196,0 -20.306,9.109 -20.306,20.305 0,11.197 9.11,20.306 20.306,20.306 11.197,0 20.306,-9.109 20.306,-20.306 C 20.306,9.109 11.197,0 0,0"
             style="fill:#f6bb42;fill-opacity:1;fill-rule:nonzero;stroke:none"
             id="path94" /></g><g
           id="g96"
           transform="translate(290.167,264.1289)"><path
             d="m 0,0 c 0.741,-9.39 2.116,-18.775 3.973,-28.004 1.373,-6.829 3.129,-13.631 5.851,-20.055 1.655,-3.906 4.262,-9.051 8.536,-10.654 18.524,-6.948 15.104,41.832 14.27,50.463 -0.092,0.953 -1.593,0.963 -1.5,0 0.79,-8.17 0.939,-16.455 0.521,-24.648 -0.303,-5.954 -2.464,-31.067 -14.116,-23.678 -4.208,2.669 -6.338,8.742 -7.921,13.156 -2.17,6.053 -3.557,12.391 -4.76,18.693 C 3.299,-16.568 2.153,-8.281 1.5,0 1.424,0.957 -0.076,0.965 0,0"
             style="fill:#f6bb42;fill-opacity:1;fill-rule:nonzero;stroke:none"
             id="path98" /></g><g
           id="g100"
           transform="translate(272.6113,284.4336)"><path
             d="m 0,0 c 0,-10.109 8.196,-18.305 18.306,-18.305 10.11,0 18.305,8.196 18.305,18.305 0,10.111 -8.195,18.307 -18.305,18.307 C 8.196,18.307 0,10.111 0,0"
             style="fill:#f5f7fa;fill-opacity:1;fill-rule:nonzero;stroke:none"
             id="path102" /></g><g
           id="g104"
           transform="translate(291.1113,302.7402)"><path
             d="M 0,0 C -1.727,0 -3.391,-0.256 -4.975,-0.703 L -15.24,-28.439 c 2.349,-3.528 5.89,-6.186 10.051,-7.415 L 7.486,-1.611 C 5.199,-0.584 2.67,0 0,0"
             style="fill:#e8eaed;fill-opacity:1;fill-rule:nonzero;stroke:none"
             id="path106" /></g><g
           id="g108"
           transform="translate(300.3848,300.1992)"><path
             d="m 0,0 -12.5,-33.77 c 1.049,-0.187 2.125,-0.3 3.227,-0.3 1.492,0 2.935,0.197 4.324,0.535 L 5.578,-5.092 C 4.096,-3.031 2.195,-1.295 0,0"
             style="fill:#e8eaed;fill-opacity:1;fill-rule:nonzero;stroke:none"
             id="path110" /></g><g
           id="g112"
           transform="translate(324.0791,353.752)"><path
             d="m 0,0 c -0.25,17.5 -19.234,13.291 -19.234,13.291 0,0 -27.501,54.385 -82.432,29.836 -34.216,-15.291 -34.396,-29.297 -29.053,-37.969 -0.091,-0.338 -0.36,-0.679 -0.36,-1.031 l 0,-62 0,-8 6.236,8 c 0,0 9.318,11 3.483,54 0,0 31.194,-5 54.694,-5 23.5,0 52.667,5.078 52.667,5.078 -6.887,-42.328 3.142,-54.039 3.142,-54.039 l 5.778,-8.039 0,8 0,34.92 C -2.079,-19.15 0.166,-11.588 0,0"
             style="fill:#434a54;fill-opacity:1;fill-rule:nonzero;stroke:none"
             id="path114" /></g><g
           id="g116"
           transform="translate(293.9492,347.5879)"><path
             d="m 0,0 c -1.867,12.242 -9.948,45.926 -42.31,45.123 0,0 32.166,-11.834 31,-38 0,0 -30.471,33.836 -56.5,31.334 0,0 32.5,-8.332 36.167,-33.5 0,0 -26.5,32.832 -65.334,21.666 0,0 43.334,-4.334 48.75,-25.5 0,0 -29.443,21.242 -53.164,12.182 0.222,-0.475 0.462,-0.936 0.718,-1.385 7.753,-0.309 25.633,-2.244 37.228,-13.109 8.747,-0.85 18.367,-1.52 26.968,-1.52 12.276,0 26.081,1.385 36.477,2.709"
             style="fill:#656d78;fill-opacity:1;fill-rule:nonzero;stroke:none"
             id="path118" /></g><g
           id="g120"
           transform="translate(306.4727,357.5449)"><path
             d="M 0,0 C 0,0 13.35,5.432 16.758,-15.951 16.758,-15.951 15.167,12.5 0,0"
             style="fill:#656d78;fill-opacity:1;fill-rule:nonzero;stroke:none"
             id="path122" /></g></g></g></g></svg>