<?xml version="1.0" encoding="UTF-8" standalone="no"?>
<!-- Created with Inkscape (http://www.inkscape.org/) -->

<svg
   xmlns:dc="http://purl.org/dc/elements/1.1/"
   xmlns:cc="http://creativecommons.org/ns#"
   xmlns:rdf="http://www.w3.org/1999/02/22-rdf-syntax-ns#"
   xmlns:svg="http://www.w3.org/2000/svg"
   xmlns="http://www.w3.org/2000/svg"
   xmlns:sodipodi="http://sodipodi.sourceforge.net/DTD/sodipodi-0.dtd"
   xmlns:inkscape="http://www.inkscape.org/namespaces/inkscape"
   id="svg2"
   version="1.1"
   inkscape:version="0.48.5 r10040"
   width="640"
   height="640"
   xml:space="preserve"
   sodipodi:docname="人物.ai"><metadata
     id="metadata8"><rdf:RDF><cc:Work
         rdf:about=""><dc:format>image/svg+xml</dc:format><dc:type
           rdf:resource="http://purl.org/dc/dcmitype/StillImage" /><dc:title></dc:title></cc:Work></rdf:RDF></metadata><defs
     id="defs6"><clipPath
       clipPathUnits="userSpaceOnUse"
       id="clipPath16"><path
         d="M 0,512 512,512 512,0 0,0 0,512 z"
         id="path18" /></clipPath><clipPath
       clipPathUnits="userSpaceOnUse"
       id="clipPath32"><path
         d="M 0,512 512,512 512,0 0,0 0,512 z"
         id="path34" /></clipPath><clipPath
       clipPathUnits="userSpaceOnUse"
       id="clipPath50"><path
         d="M 0,512 512,512 512,0 0,0 0,512 z"
         id="path52" /></clipPath></defs><sodipodi:namedview
     pagecolor="#ffffff"
     bordercolor="#666666"
     borderopacity="1"
     objecttolerance="10"
     gridtolerance="10"
     guidetolerance="10"
     inkscape:pageopacity="0"
     inkscape:pageshadow="2"
     inkscape:window-width="684"
     inkscape:window-height="480"
     id="namedview4"
     showgrid="false"
     inkscape:zoom="0.36875"
     inkscape:cx="320"
     inkscape:cy="320"
     inkscape:window-x="0"
     inkscape:window-y="25"
     inkscape:window-maximized="0"
     inkscape:current-layer="g10" /><g
     id="g10"
     inkscape:groupmode="layer"
     inkscape:label="人物"
     transform="matrix(1.25,0,0,-1.25,0,640)"><g
       id="g12"><g
         id="g14"
         clip-path="url(#clipPath16)"><path
           d="m 1024,0 -512,0 0,512 512,0 0,-512 z"
           style="fill:#ffffff;fill-opacity:1;fill-rule:nonzero;stroke:none"
           id="path20" /></g></g><path
       d="M 0,0 512,0 512,512 0,512 0,0 z"
       style="fill:#ffffff;fill-opacity:1;fill-rule:nonzero;stroke:none"
       id="path22" /><g
       id="g24"
       transform="translate(0,512.0001)"><path
         d="M 0,0 0,-512 0,0 z"
         style="fill:#ffffff;fill-opacity:1;fill-rule:nonzero;stroke:none"
         id="path26" /></g><g
       id="g28"><g
         id="g30"
         clip-path="url(#clipPath32)"><path
           d="m 1024,512 -512,0 0,512 512,0 0,-512 z"
           style="fill:#ffffff;fill-opacity:1;fill-rule:nonzero;stroke:none"
           id="path36" /><path
           d="m 512,512 -512,0 0,512 512,0 0,-512 z"
           style="fill:#ffffff;fill-opacity:1;fill-rule:nonzero;stroke:none"
           id="path38" /><path
           d="m 0,512 -512,0 0,512 512,0 0,-512 z"
           style="fill:#ffffff;fill-opacity:1;fill-rule:nonzero;stroke:none"
           id="path40" /><path
           d="m 1024,-512 -512,0 0,512 512,0 0,-512 z"
           style="fill:#ffffff;fill-opacity:1;fill-rule:nonzero;stroke:none"
           id="path42" /></g></g><path
       d="M 0,0 512,0 0,0 z"
       style="fill:#ffffff;fill-opacity:1;fill-rule:nonzero;stroke:none"
       id="path44" /><g
       id="g46"><g
         id="g48"
         clip-path="url(#clipPath50)"><g
           id="g54"
           transform="translate(456,256)"><path
             d="m 0,0 c 0,-110.457 -89.543,-200 -200,-200 -110.457,0 -200,89.543 -200,200 0,110.457 89.543,200 200,200 C -89.543,200 0,110.457 0,0"
             style="fill:#434a54;fill-opacity:1;fill-rule:nonzero;stroke:none"
             id="path56" /></g><g
           id="g58"
           transform="translate(256,55)"><path
             d="m 0,0 c 55.25,0 105.267,22.403 141.463,58.621 -4.014,12.872 -11.378,27.114 -24.795,38.712 -4.934,4.265 -11.967,9.353 -19.473,12.579 -3.681,1.582 -7.474,2.724 -11.193,3.087 -2.043,0.199 -9.75,1.317 -19.771,2.819 C 40.652,119.653 0,125.999 0,125.999 c 0,0 -40.652,-6.346 -66.231,-10.181 -10.021,-1.502 -17.728,-2.62 -19.771,-2.819 -3.719,-0.363 -7.512,-1.505 -11.193,-3.087 -7.506,-3.226 -14.539,-8.314 -19.473,-12.579 -13.417,-11.598 -20.781,-25.84 -24.795,-38.712 C -105.267,22.403 -55.25,0 0,0"
             style="fill:#ffe9ba;fill-opacity:1;fill-rule:nonzero;stroke:none"
             id="path60" /></g><g
           id="g62"
           transform="translate(353.1953,164.9121)"><path
             d="m 0,0 c -3.682,1.582 -7.475,2.724 -11.193,3.087 -2.043,0.199 -9.75,1.317 -19.771,2.819 -7.291,-32.898 -34.17,-57.318 -66.231,-57.318 -32.062,0 -58.941,24.42 -66.232,57.318 -10.02,-1.502 -17.727,-2.62 -19.77,-2.819 -3.719,-0.363 -7.512,-1.505 -11.194,-3.087 15.12,-15.305 24.563,-36.933 24.563,-60.929 0,-11.646 -2.224,-22.737 -6.238,-32.819 24.201,-10.397 50.861,-16.164 78.871,-16.164 28.009,0 54.67,5.767 78.871,16.164 -4.015,10.082 -6.238,21.173 -6.238,32.819 0,23.996 9.443,45.624 24.562,60.929"
             style="fill:#f5f7fa;fill-opacity:1;fill-rule:nonzero;stroke:none"
             id="path64" /></g><g
           id="g66"
           transform="translate(256,55)"><path
             d="m 0,0 c 22.691,0 44.496,3.787 64.826,10.753 -1.454,8.339 -2.193,16.892 -2.193,25.588 0,24.558 5.816,47.819 16.624,67.269 -1.498,0.259 -3.377,0.591 -5.747,1.018 C 62.433,63.549 33.327,46.564 0,46.564 c -33.327,0 -62.433,16.985 -73.51,58.064 -2.37,-0.427 -4.249,-0.759 -5.747,-1.018 10.808,-19.45 16.624,-42.711 16.624,-67.269 0,-8.696 -0.739,-17.249 -2.193,-25.588 C -44.496,3.787 -22.691,0 0,0"
             style="fill:#ffffff;fill-opacity:1;fill-rule:nonzero;stroke:none"
             id="path68" /></g><g
           id="g70"
           transform="translate(256,113.5)"><path
             d="M 0,0 C 32.062,0 58.94,24.42 66.231,57.318 40.652,61.153 0,67.499 0,67.499 0,67.499 -40.652,61.153 -66.231,57.318 -58.94,24.42 -32.062,0 0,0"
             style="fill:#f9e0a8;fill-opacity:1;fill-rule:nonzero;stroke:none"
             id="path72" /></g><g
           id="g74"
           transform="translate(256,259)"><path
             d="m 0,0 -42.25,5.5 16.307,-88.734 c 0,0 3.666,-30.766 25.943,-30.766 22.277,0 25.943,30.766 25.943,30.766 L 42.25,5.5 0,0 z"
             style="fill:#f9e0a8;fill-opacity:1;fill-rule:nonzero;stroke:none"
             id="path76" /></g><g
           id="g78"
           transform="translate(290,249.5)"><path
             d="m 0,0 -69.525,-21.592 7.086,-38.555 c 10.66,-13.146 26.918,-25.187 50.957,-26.265 2.709,6.691 3.425,12.678 3.425,12.678 L 4.07,-7.744 C 1.686,-2.947 0,0 0,0"
             style="fill:#d9c392;fill-opacity:1;fill-rule:nonzero;stroke:none"
             id="path80" /></g><g
           id="g82"
           transform="translate(193,296.3789)"><path
             d="M 0,0 C 0,0 -21.309,13.5 -19.104,-14.5 -16.9,-42.5 0,-40.5 0,-40.5 L 0,0 z"
             style="fill:#f9e0a8;fill-opacity:1;fill-rule:nonzero;stroke:none"
             id="path84" /></g><g
           id="g86"
           transform="translate(319,296.3789)"><path
             d="M 0,0 C 0,0 21.31,13.5 19.104,-14.5 16.9,-42.5 0,-40.5 0,-40.5 L 0,0 z"
             style="fill:#f9e0a8;fill-opacity:1;fill-rule:nonzero;stroke:none"
             id="path88" /></g><g
           id="g90"
           transform="translate(256,368.6172)"><path
             d="m 0,0 c -63,0 -63,-34.738 -63,-34.738 l 0,-80 c 0,-20.5 19.237,-36.287 35.226,-50 13.408,-11.5 27.774,-11 27.774,-11 0,0 14.366,-0.5 27.774,11 15.989,13.713 35.226,29.5 35.226,50 l 0,80 C 63,-34.738 63,0 0,0"
             style="fill:#ffe9ba;fill-opacity:1;fill-rule:nonzero;stroke:none"
             id="path92" /></g><g
           id="g94"
           transform="translate(266,197.4609)"><path
             d="M 0,0 C 0,0 -0.204,-2.828 -4.505,-2.984 L -9,7.293 -13.495,-2.984 C -17.796,-2.828 -18,0 -18,0 -24.277,-1.064 -36.774,5.418 -36.774,5.418 -19.217,-8.248 -14.422,-5.104 -14.422,-5.104 -10.511,-10.291 -9,-9.582 -9,-9.582 c 0,0 1.511,-0.709 5.422,4.478 0,0 4.795,-3.144 22.352,10.522 C 18.774,5.418 6.277,-1.064 0,0"
             style="fill:#f6bb42;fill-opacity:1;fill-rule:nonzero;stroke:none"
             id="path96" /></g><g
           id="g98"
           transform="translate(264.333,230.877)"><path
             d="M 0,0 20.666,-5.666 -3.605,-4.332 0,0 z"
             style="fill:#f6bb42;fill-opacity:1;fill-rule:nonzero;stroke:none"
             id="path100" /></g><g
           id="g102"
           transform="translate(249.667,230.877)"><path
             d="M 0,0 -20.666,-5.666 3.605,-4.332 0,0 z"
             style="fill:#f6bb42;fill-opacity:1;fill-rule:nonzero;stroke:none"
             id="path104" /></g><g
           id="g106"
           transform="translate(230.1191,176.9824)"><path
             d="M 0,0 -5.661,30.125 C -20.75,43.086 -37.119,57.984 -37.119,76.896 l 0,8.962 -19.265,9.288 c 0,0 0.587,-56.392 8.863,-102.376 2.203,0.324 4.61,0.682 7.17,1.066 C -28.303,-4.357 -12.913,-1.995 0,0"
             style="fill:#f6bb42;fill-opacity:1;fill-rule:nonzero;stroke:none"
             id="path108" /></g><g
           id="g110"
           transform="translate(329.4014,169.752)"><path
             d="m 0,0 c 8.276,45.984 8.863,102.377 8.863,102.377 l -19.264,-9.288 0,-8.962 c 0,-18.912 -16.37,-33.811 -31.459,-46.772 L -47.521,7.23 C -34.607,5.235 -19.217,2.873 -7.17,1.066 -4.609,0.683 -2.203,0.324 0,0"
             style="fill:#f6bb42;fill-opacity:1;fill-rule:nonzero;stroke:none"
             id="path112" /></g><g
           id="g114"
           transform="translate(320.7383,135.6211)"><path
             d="m 0,0 c 10.86,18.598 67.615,123.402 23.762,213.258 -40.363,82.701 -77.399,69.101 -88.5,62.383 -11.102,6.718 -48.138,20.318 -88.5,-62.383 -43.854,-89.856 12.901,-194.66 23.761,-213.258 -10.627,19.166 -10.847,51.889 -7.773,82.463 1.31,-59.809 30.377,-100.205 30.377,-100.205 -13.08,88.15 30.152,184.129 42.135,208.57 11.982,-24.441 55.215,-120.42 42.134,-208.57 0,0 29.068,40.396 30.377,100.205 C 10.848,51.889 10.627,19.166 0,0"
             style="fill:#ffce54;fill-opacity:1;fill-rule:nonzero;stroke:none"
             id="path116" /></g><g
           id="g118"
           transform="translate(256,326.4492)"><path
             d="M 0,0 C -10.766,-21.957 -46.744,-101.656 -44.461,-181.545 -42.34,-106.896 -10.091,-35.582 0,-15 10.091,-35.582 42.34,-106.896 44.461,-181.545 46.744,-101.656 10.766,-21.957 0,0"
             style="fill:#f6bb42;fill-opacity:1;fill-rule:nonzero;stroke:none"
             id="path120" /></g><g
           id="g122"
           transform="translate(256,396.2617)"><path
             d="m 0,0 c 11.102,6.719 48.138,20.318 88.5,-62.383 10.726,-21.976 15.422,-44.846 16.255,-67.131 0.991,26.905 -3.106,55.188 -16.255,82.131 C 48.138,35.318 11.102,21.719 0,15 c -11.102,6.719 -48.138,20.318 -88.5,-62.383 -13.149,-26.943 -17.246,-55.226 -16.255,-82.131 0.833,22.285 5.529,45.155 16.255,67.131 C -48.138,20.318 -11.102,6.719 0,0"
             style="fill:#ffd56b;fill-opacity:1;fill-rule:nonzero;stroke:none"
             id="path124" /></g><g
           id="g126"
           transform="translate(256.6025,376.5654)"><path
             d="m 0,0 c 0.225,0.103 0.445,0.21 0.67,0.312 0,0 -0.445,-0.055 -1.273,-0.202 C -1.43,0.257 -1.875,0.312 -1.875,0.312 -1.65,0.21 -1.43,0.103 -1.205,0 -15.793,-2.759 -110.172,-26.804 -90.695,-184.69 l 4.091,-23.998 c 0,0 -17.44,160.133 86.001,208.407 103.442,-48.274 86.002,-208.407 86.002,-208.407 l 4.091,23.998 C 108.967,-26.804 14.588,-2.759 0,0"
             style="fill:#f6bb42;fill-opacity:1;fill-rule:nonzero;stroke:none"
             id="path128" /></g><g
           id="g130"
           transform="translate(256.2583,356.6221)"><path
             d="m 0,0 c 0.337,0.504 0.673,1.009 1.014,1.511 0,0 -0.458,-0.426 -1.272,-1.25 -0.814,0.824 -1.273,1.25 -1.273,1.25 0.342,-0.502 0.677,-1.007 1.014,-1.511 -11.757,-12.013 -86.471,-96.011 -51.407,-258.411 0,0 -15.921,156.548 51.666,258.026 C 67.329,-101.863 51.408,-258.411 51.408,-258.411 86.471,-96.011 11.757,-12.013 0,0"
             style="fill:#ffd56b;fill-opacity:1;fill-rule:nonzero;stroke:none"
             id="path132" /></g></g></g></g></svg>