<?xml version="1.0" encoding="UTF-8" standalone="no"?>
<!-- Created with Inkscape (http://www.inkscape.org/) -->

<svg
   xmlns:dc="http://purl.org/dc/elements/1.1/"
   xmlns:cc="http://creativecommons.org/ns#"
   xmlns:rdf="http://www.w3.org/1999/02/22-rdf-syntax-ns#"
   xmlns:svg="http://www.w3.org/2000/svg"
   xmlns="http://www.w3.org/2000/svg"
   xmlns:sodipodi="http://sodipodi.sourceforge.net/DTD/sodipodi-0.dtd"
   xmlns:inkscape="http://www.inkscape.org/namespaces/inkscape"
   id="svg2"
   version="1.1"
   inkscape:version="0.48.5 r10040"
   width="640"
   height="640"
   xml:space="preserve"
   sodipodi:docname="人物.ai"><metadata
     id="metadata8"><rdf:RDF><cc:Work
         rdf:about=""><dc:format>image/svg+xml</dc:format><dc:type
           rdf:resource="http://purl.org/dc/dcmitype/StillImage" /><dc:title></dc:title></cc:Work></rdf:RDF></metadata><defs
     id="defs6"><clipPath
       clipPathUnits="userSpaceOnUse"
       id="clipPath16"><path
         d="M 0,512 512,512 512,0 0,0 0,512 z"
         id="path18" /></clipPath><clipPath
       clipPathUnits="userSpaceOnUse"
       id="clipPath32"><path
         d="M 0,512 512,512 512,0 0,0 0,512 z"
         id="path34" /></clipPath><clipPath
       clipPathUnits="userSpaceOnUse"
       id="clipPath48"><path
         d="M 0,512 512,512 512,0 0,0 0,512 z"
         id="path50" /></clipPath><clipPath
       clipPathUnits="userSpaceOnUse"
       id="clipPath58"><path
         d="M 0,512 512,512 512,0 0,0 0,512 z"
         id="path60" /></clipPath></defs><sodipodi:namedview
     pagecolor="#ffffff"
     bordercolor="#666666"
     borderopacity="1"
     objecttolerance="10"
     gridtolerance="10"
     guidetolerance="10"
     inkscape:pageopacity="0"
     inkscape:pageshadow="2"
     inkscape:window-width="684"
     inkscape:window-height="480"
     id="namedview4"
     showgrid="false"
     inkscape:zoom="0.36875"
     inkscape:cx="320"
     inkscape:cy="320"
     inkscape:window-x="0"
     inkscape:window-y="25"
     inkscape:window-maximized="0"
     inkscape:current-layer="g10" /><g
     id="g10"
     inkscape:groupmode="layer"
     inkscape:label="人物"
     transform="matrix(1.25,0,0,-1.25,0,640)"><g
       id="g12"><g
         id="g14"
         clip-path="url(#clipPath16)"><path
           d="m 1024,0 -512,0 0,512 512,0 0,-512 z"
           style="fill:#ffffff;fill-opacity:1;fill-rule:nonzero;stroke:none"
           id="path20" /></g></g><path
       d="M 0,0 512,0 512,512 0,512 0,0 z"
       style="fill:#ffffff;fill-opacity:1;fill-rule:nonzero;stroke:none"
       id="path22" /><g
       id="g24"
       transform="translate(0,512.0001)"><path
         d="M 0,0 0,-512 0,0 z"
         style="fill:#ffffff;fill-opacity:1;fill-rule:nonzero;stroke:none"
         id="path26" /></g><g
       id="g28"><g
         id="g30"
         clip-path="url(#clipPath32)"><path
           d="m 1024,512 -512,0 0,512 512,0 0,-512 z"
           style="fill:#ffffff;fill-opacity:1;fill-rule:nonzero;stroke:none"
           id="path36" /><path
           d="m 512,512 -512,0 0,512 512,0 0,-512 z"
           style="fill:#ffffff;fill-opacity:1;fill-rule:nonzero;stroke:none"
           id="path38" /><path
           d="m 0,512 -512,0 0,512 512,0 0,-512 z"
           style="fill:#ffffff;fill-opacity:1;fill-rule:nonzero;stroke:none"
           id="path40" /></g></g><path
       d="M 0,0 512,0 0,0 z"
       style="fill:#ffffff;fill-opacity:1;fill-rule:nonzero;stroke:none"
       id="path42" /><g
       id="g44"><g
         id="g46"
         clip-path="url(#clipPath48)"><path
           d="m 1024,-512 -512,0 0,512 512,0 0,-512 z"
           style="fill:#ffffff;fill-opacity:1;fill-rule:nonzero;stroke:none"
           id="path52" /></g></g><g
       id="g54"><g
         id="g56"
         clip-path="url(#clipPath58)"><g
           id="g62"
           transform="translate(456,256)"><path
             d="m 0,0 c 0,-110.457 -89.543,-200 -200,-200 -110.457,0 -200,89.543 -200,200 0,110.457 89.543,200 200,200 C -89.543,200 0,110.457 0,0"
             style="fill:#3db093;fill-opacity:1;fill-rule:nonzero;stroke:none"
             id="path64" /></g><g
           id="g66"
           transform="translate(256,258.8789)"><path
             d="m 0,0 -42.25,5.5 16.307,-88.734 c 0,0 3.666,-30.766 25.943,-30.766 22.277,0 25.943,30.766 25.943,30.766 L 42.25,5.5 0,0 z"
             style="fill:#f9e0a8;fill-opacity:1;fill-rule:nonzero;stroke:none"
             id="path68" /></g><g
           id="g70"
           transform="translate(290,249.3789)"><path
             d="m 0,0 -69.525,-21.592 7.086,-38.556 c 10.66,-13.145 26.918,-25.186 50.957,-26.264 2.709,6.691 3.425,12.678 3.425,12.678 L 4.07,-7.744 C 1.686,-2.947 0,0 0,0"
             style="fill:#d9c392;fill-opacity:1;fill-rule:nonzero;stroke:none"
             id="path72" /></g><g
           id="g74"
           transform="translate(372.668,152.2109)"><path
             d="m 0,0 c -7.353,6.355 -19.364,14.563 -30.666,15.666 -4.147,0.406 -31.615,4.59 -54.412,8.104 l -3.96,8.675 c -2.667,-2.668 -6.026,-4.845 -9.475,-6.599 -8.786,-4.469 -18.155,-6.178 -18.155,-6.178 0,0 -9.369,1.709 -18.155,6.178 -3.448,1.754 -6.808,3.931 -9.475,6.599 l -3.96,-8.675 c -22.797,-3.514 -50.265,-7.698 -54.412,-8.104 -11.302,-1.103 -23.313,-9.311 -30.666,-15.666 -13.417,-11.598 -20.781,-25.84 -24.795,-38.711 36.195,-36.219 86.213,-58.621 141.463,-58.621 55.25,0 105.268,22.402 141.463,58.621 C 20.781,-25.84 13.417,-11.598 0,0"
             style="fill:#f5f7fa;fill-opacity:1;fill-rule:nonzero;stroke:none"
             id="path76" /></g><g
           id="g78"
           transform="translate(256,0.2109)"><path
             d="M 0,0 13.492,16.131 7.597,153.168 13.855,158.92 0,171.668 -13.73,159.045 -7.307,153.168 -13.273,16.117 0,0 z"
             style="fill:#434a54;fill-opacity:1;fill-rule:nonzero;stroke:none"
             id="path80" /></g><g
           id="g82"
           transform="translate(316.666,115)"><path
             d="m 0,0 -20.666,0 0,-27.969 c 0,-15.98 20.5,-15.154 20.5,-15.154 0,0 20.5,-0.826 20.5,15.154 L 20.334,0 0,0 z"
             style="fill:#e6e9ed;fill-opacity:1;fill-rule:nonzero;stroke:none"
             id="path84" /></g><g
           id="g86"
           transform="translate(228.3701,184.6562)"><path
             d="M 0,0 -3.96,-8.676 9.297,-31.445 27.63,-12.777 0,0 z"
             style="fill:#e6e9ed;fill-opacity:1;fill-rule:nonzero;stroke:none"
             id="path88" /></g><g
           id="g90"
           transform="translate(283.6299,184.6562)"><path
             d="M 0,0 3.96,-8.676 -9.297,-31.445 -27.63,-12.777 0,0 z"
             style="fill:#e6e9ed;fill-opacity:1;fill-rule:nonzero;stroke:none"
             id="path92" /></g><g
           id="g94"
           transform="translate(193,296.3789)"><path
             d="M 0,0 C 0,0 -21.309,13.5 -19.104,-14.5 -16.9,-42.5 0,-40.5 0,-40.5 L 0,0 z"
             style="fill:#f9e0a8;fill-opacity:1;fill-rule:nonzero;stroke:none"
             id="path96" /></g><g
           id="g98"
           transform="translate(319,296.3789)"><path
             d="M 0,0 C 0,0 21.31,13.5 19.104,-14.5 16.9,-42.5 0,-40.5 0,-40.5 L 0,0 z"
             style="fill:#f9e0a8;fill-opacity:1;fill-rule:nonzero;stroke:none"
             id="path100" /></g><g
           id="g102"
           transform="translate(256,368.6172)"><path
             d="m 0,0 c -63,0 -63,-34.738 -63,-34.738 l 0,-80 c 0,-20.5 19.237,-36.287 35.226,-50 13.408,-11.5 27.774,-11 27.774,-11 0,0 14.366,-0.5 27.774,11 15.989,13.713 35.226,29.5 35.226,50 l 0,80 C 63,-34.738 63,0 0,0"
             style="fill:#ffe9ba;fill-opacity:1;fill-rule:nonzero;stroke:none"
             id="path104" /></g><g
           id="g106"
           transform="translate(319,296.3789)"><path
             d="m 0,0 -0.902,3.254 -13.228,-7.67 c -0.433,1.741 -1.995,3.037 -3.87,3.037 l -34,0 c -2.209,0 -4,-1.791 -4,-4 l 0,-4 -14,0 0,4 c 0,2.209 -1.791,4 -4,4 l -34,0 c -1.875,0 -3.438,-1.296 -3.87,-3.037 L -125.098,3.254 -126,0 l 14,-15.273 0,-7.106 c 0,-2.209 1.791,-4 4,-4 l 34,0 c 2.209,0 4,1.791 4,4 l 0,10 14,0 0,-10 c 0,-2.209 1.791,-4 4,-4 l 34,0 c 2.209,0 4,1.791 4,4 l 0,7.106 L 0,0 z"
             style="fill:#434a54;fill-opacity:1;fill-rule:nonzero;stroke:none"
             id="path108" /></g><g
           id="g110"
           transform="translate(246,274)"><path
             d="m 0,0 c 0,-0.553 -0.448,-1 -1,-1 l -34,0 c -0.552,0 -1,0.447 -1,1 l 0,17 c 0,0.553 0.448,1 1,1 l 34,0 c 0.552,0 1,-0.447 1,-1 L 0,0 z"
             style="fill:#f5f7fa;fill-opacity:1;fill-rule:nonzero;stroke:none"
             id="path112" /></g><g
           id="g114"
           transform="translate(218.5,273)"><path
             d="M 0,0 -6,0 -1,19 5,19 0,0 z"
             style="fill:#e6e9ed;fill-opacity:1;fill-rule:nonzero;stroke:none"
             id="path116" /></g><g
           id="g118"
           transform="translate(227.5,273)"><path
             d="M 0,0 -6,0 -1,19 5,19 0,0 z"
             style="fill:#e6e9ed;fill-opacity:1;fill-rule:nonzero;stroke:none"
             id="path120" /></g><g
           id="g122"
           transform="translate(302,274)"><path
             d="m 0,0 c 0,-0.553 -0.448,-1 -1,-1 l -34,0 c -0.552,0 -1,0.447 -1,1 l 0,17 c 0,0.553 0.448,1 1,1 l 34,0 c 0.552,0 1,-0.447 1,-1 L 0,0 z"
             style="fill:#f5f7fa;fill-opacity:1;fill-rule:nonzero;stroke:none"
             id="path124" /></g><g
           id="g126"
           transform="translate(274.5,273)"><path
             d="M 0,0 -6,0 -1,19 5,19 0,0 z"
             style="fill:#e6e9ed;fill-opacity:1;fill-rule:nonzero;stroke:none"
             id="path128" /></g><g
           id="g130"
           transform="translate(283.5,273)"><path
             d="M 0,0 -6,0 -1,19 5,19 0,0 z"
             style="fill:#e6e9ed;fill-opacity:1;fill-rule:nonzero;stroke:none"
             id="path132" /></g><g
           id="g134"
           transform="translate(256.4727,392.6172)"><path
             d="m 0,0 c -37.333,0 -68,-12.344 -68,-49.227 0,-38.179 5,-47.011 5,-47.011 0,0 5.001,20.832 13.667,23.832 8.666,3 7.083,18.334 7.083,18.334 0,0 28.917,-4 42.25,-4 13.333,0 42.25,4 42.25,4 0,0 -1.583,-15.334 7.083,-18.334 8.666,-3 13.667,-23.832 13.667,-23.832 0,0 5,8.832 5,47.011 C 68,-12.344 37.333,0 0,0"
             style="fill:#434a54;fill-opacity:1;fill-rule:nonzero;stroke:none"
             id="path136" /></g><g
           id="g138"
           transform="translate(256.4727,376.6172)"><path
             d="M 0,0 C 35.799,0 65.449,-11.365 67.827,-44.816 67.936,-41.287 68,-37.445 68,-33.227 68,3.656 37.333,16 0,16 -37.333,16 -68,3.656 -68,-33.227 c 0,-4.218 0.064,-8.06 0.173,-11.589 C -65.449,-11.365 -35.799,0 0,0"
             style="fill:#656d78;fill-opacity:1;fill-rule:nonzero;stroke:none"
             id="path140" /></g></g></g></g></svg>