<?xml version="1.0" encoding="UTF-8" standalone="no"?>
<!-- Created with Inkscape (http://www.inkscape.org/) -->

<svg
   xmlns:dc="http://purl.org/dc/elements/1.1/"
   xmlns:cc="http://creativecommons.org/ns#"
   xmlns:rdf="http://www.w3.org/1999/02/22-rdf-syntax-ns#"
   xmlns:svg="http://www.w3.org/2000/svg"
   xmlns="http://www.w3.org/2000/svg"
   xmlns:sodipodi="http://sodipodi.sourceforge.net/DTD/sodipodi-0.dtd"
   xmlns:inkscape="http://www.inkscape.org/namespaces/inkscape"
   id="svg2"
   version="1.1"
   inkscape:version="0.48.5 r10040"
   width="640"
   height="640"
   xml:space="preserve"
   sodipodi:docname="人物.ai"><metadata
     id="metadata8"><rdf:RDF><cc:Work
         rdf:about=""><dc:format>image/svg+xml</dc:format><dc:type
           rdf:resource="http://purl.org/dc/dcmitype/StillImage" /><dc:title></dc:title></cc:Work></rdf:RDF></metadata><defs
     id="defs6"><clipPath
       clipPathUnits="userSpaceOnUse"
       id="clipPath22"><path
         d="M 0,512 512,512 512,0 0,0 0,512 z"
         id="path24" /></clipPath><clipPath
       clipPathUnits="userSpaceOnUse"
       id="clipPath36"><path
         d="M 0,512 512,512 512,0 0,0 0,512 z"
         id="path38" /></clipPath></defs><sodipodi:namedview
     pagecolor="#ffffff"
     bordercolor="#666666"
     borderopacity="1"
     objecttolerance="10"
     gridtolerance="10"
     guidetolerance="10"
     inkscape:pageopacity="0"
     inkscape:pageshadow="2"
     inkscape:window-width="684"
     inkscape:window-height="480"
     id="namedview4"
     showgrid="false"
     inkscape:zoom="0.36875"
     inkscape:cx="320"
     inkscape:cy="320"
     inkscape:window-x="0"
     inkscape:window-y="25"
     inkscape:window-maximized="0"
     inkscape:current-layer="g10" /><g
     id="g10"
     inkscape:groupmode="layer"
     inkscape:label="人物"
     transform="matrix(1.25,0,0,-1.25,0,640)"><path
       d="M 0,0 512,0 512,512 0,512 0,0 z"
       style="fill:#ffffff;fill-opacity:1;fill-rule:nonzero;stroke:none"
       id="path12" /><g
       id="g14"
       transform="translate(0,512.0001)"><path
         d="M 0,0 0,-512 0,0 z"
         style="fill:#ffffff;fill-opacity:1;fill-rule:nonzero;stroke:none"
         id="path16" /></g><g
       id="g18"><g
         id="g20"
         clip-path="url(#clipPath22)"><path
           d="m 512,512 -512,0 0,512 512,0 0,-512 z"
           style="fill:#ffffff;fill-opacity:1;fill-rule:nonzero;stroke:none"
           id="path26" /><path
           d="m 0,512 -512,0 0,512 512,0 0,-512 z"
           style="fill:#ffffff;fill-opacity:1;fill-rule:nonzero;stroke:none"
           id="path28" /></g></g><path
       d="M 0,0 512,0 0,0 z"
       style="fill:#ffffff;fill-opacity:1;fill-rule:nonzero;stroke:none"
       id="path30" /><g
       id="g32"><g
         id="g34"
         clip-path="url(#clipPath36)"><g
           id="g40"
           transform="translate(456,256)"><path
             d="m 0,0 c 0,-110.457 -89.543,-200 -200,-200 -110.457,0 -200,89.543 -200,200 0,110.457 89.543,200 200,200 C -89.543,200 0,110.457 0,0"
             style="fill:#967adc;fill-opacity:1;fill-rule:nonzero;stroke:none"
             id="path42" /></g><g
           id="g44"
           transform="translate(372.668,152.2109)"><path
             d="m 0,0 c -7.353,6.355 -19.364,14.563 -30.666,15.666 -7.258,0.709 -86.002,13 -86.002,13 0,0 -78.744,-12.291 -86.002,-13 -11.302,-1.103 -23.313,-9.311 -30.666,-15.666 -13.417,-11.598 -20.781,-25.84 -24.795,-38.711 36.195,-36.219 86.213,-58.621 141.463,-58.621 55.25,0 105.268,22.402 141.463,58.621 C 20.781,-25.84 13.417,-11.598 0,0"
             style="fill:#434a54;fill-opacity:1;fill-rule:nonzero;stroke:none"
             id="path46" /></g><g
           id="g48"
           transform="translate(256,258.8789)"><path
             d="m 0,0 -42.25,5.5 16.307,-88.734 c 0,0 3.666,-30.766 25.943,-30.766 22.277,0 25.943,30.766 25.943,30.766 L 42.25,5.5 0,0 z"
             style="fill:#f9e0a8;fill-opacity:1;fill-rule:nonzero;stroke:none"
             id="path50" /></g><g
           id="g52"
           transform="translate(290,249.3789)"><path
             d="m 0,0 -69.525,-21.592 7.086,-38.556 c 10.66,-13.145 26.918,-25.186 50.957,-26.264 2.709,6.691 3.425,12.678 3.425,12.678 L 4.07,-7.744 C 1.686,-2.947 0,0 0,0"
             style="fill:#d9c392;fill-opacity:1;fill-rule:nonzero;stroke:none"
             id="path54" /></g><g
           id="g56"
           transform="translate(283.6299,184.6562)"><path
             d="m 0,0 c -9.463,-9.463 -27.63,-12.777 -27.63,-12.777 0,0 -18.167,3.314 -27.63,12.777 L -59.261,-8.766 -27.63,-125.49 4.001,-8.766 0,0 z"
             style="fill:#f5f7fa;fill-opacity:1;fill-rule:nonzero;stroke:none"
             id="path58" /></g><g
           id="g60"
           transform="translate(231.9287,147.9941)"><path
             d="M 0,0 24.071,23.885 48.143,0 24.071,-88.828 0,0 z"
             style="fill:#e6e9ed;fill-opacity:1;fill-rule:nonzero;stroke:none"
             id="path62" /></g><g
           id="g64"
           transform="translate(248.6934,137.3789)"><path
             d="M 0,0 -7.308,-34.281 7.307,-78.213 22.014,-33.941 14.903,0 21.162,20.752 7.307,34.5 -6.424,20.877 0,0 z"
             style="fill:#c93f4d;fill-opacity:1;fill-rule:nonzero;stroke:none"
             id="path66" /></g><g
           id="g68"
           transform="translate(284.4512,182.8555)"><path
             d="M 0,0 3.18,-6.965 -28.451,-123.689 -60.082,-6.965 -56.902,0 c -34.549,-6.977 -12.299,-68.477 -12.299,-68.477 l 10,3.5 -6.375,-10.25 37.125,-50.462 37.125,50.462 -6.375,10.25 10,-3.5 c 0,0 22.25,61.5 -12.299,68.477"
             style="fill:#656d78;fill-opacity:1;fill-rule:nonzero;stroke:none"
             id="path70" /></g><g
           id="g72"
           transform="translate(193,296.3789)"><path
             d="M 0,0 C 0,0 -21.309,13.5 -19.104,-14.5 -16.9,-42.5 0,-40.5 0,-40.5 L 0,0 z"
             style="fill:#f9e0a8;fill-opacity:1;fill-rule:nonzero;stroke:none"
             id="path74" /></g><g
           id="g76"
           transform="translate(319,296.3789)"><path
             d="M 0,0 C 0,0 21.31,13.5 19.104,-14.5 16.9,-42.5 0,-40.5 0,-40.5 L 0,0 z"
             style="fill:#f9e0a8;fill-opacity:1;fill-rule:nonzero;stroke:none"
             id="path78" /></g><g
           id="g80"
           transform="translate(256,368.6172)"><path
             d="m 0,0 c -63,0 -63,-34.738 -63,-34.738 l 0,-80 c 0,-20.5 19.237,-36.287 35.226,-50 13.408,-11.5 27.774,-11 27.774,-11 0,0 14.366,-0.5 27.774,11 15.989,13.713 35.226,29.5 35.226,50 l 0,80 C 63,-34.738 63,0 0,0"
             style="fill:#ffe9ba;fill-opacity:1;fill-rule:nonzero;stroke:none"
             id="path82" /></g><g
           id="g84"
           transform="translate(249,296.4395)"><path
             d="m 0,0 0,-23.439 -44,0 0,22.119 L 0,0 z"
             style="fill:#f5f7fa;fill-opacity:1;fill-rule:nonzero;stroke:none"
             id="path86" /></g><g
           id="g88"
           transform="translate(221.1797,273)"><path
             d="M 0,0 -4.316,0 -1.438,20 2.878,20 0,0 z"
             style="fill:#e6e9ed;fill-opacity:1;fill-rule:nonzero;stroke:none"
             id="path90" /></g><g
           id="g92"
           transform="translate(225.4971,273)"><path
             d="M 0,0 4.317,0 7.111,20 2.779,20 0,0 z"
             style="fill:#e6e9ed;fill-opacity:1;fill-rule:nonzero;stroke:none"
             id="path94" /></g><g
           id="g96"
           transform="translate(263,296.4395)"><path
             d="m 0,0 0,-23.439 44,0 L 44,-1.32 0,0 z"
             style="fill:#f5f7fa;fill-opacity:1;fill-rule:nonzero;stroke:none"
             id="path98" /></g><g
           id="g100"
           transform="translate(263,296.4395)"><path
             d="m 0,0 0,-23.439 44,0 L 44,-1.32 0,0 z"
             style="fill:#f5f7fa;fill-opacity:1;fill-rule:nonzero;stroke:none"
             id="path102" /></g><g
           id="g104"
           transform="translate(284.6523,273)"><path
             d="M 0,0 -4.316,0 -1.438,20 2.878,20 0,0 z"
             style="fill:#e6e9ed;fill-opacity:1;fill-rule:nonzero;stroke:none"
             id="path106" /></g><g
           id="g108"
           transform="translate(288.9697,273)"><path
             d="M 0,0 4.317,0 7.111,20 2.779,20 0,0 z"
             style="fill:#e6e9ed;fill-opacity:1;fill-rule:nonzero;stroke:none"
             id="path110" /></g><g
           id="g112"
           transform="translate(319,296.3789)"><path
             d="m 0,0 -8.527,1.621 -48.877,0 -0.596,-5.566 0,0.566 -10,0 0,-0.566 0.35,5.566 -48.877,0 L -126,0 l 0,-3.5 10.458,-2.939 0.694,-2.94 1.199,0 1.438,6 40.343,0 2.828,-8.834 1.68,0.97 -0.042,1.864 9.75,0 -0.042,-1.894 1.679,-0.91 2.828,8.804 40.343,0 1.439,-6 1.198,0 0.222,2.94 L 0,-3.5 0,0 z"
             style="fill:#656d78;fill-opacity:1;fill-rule:nonzero;stroke:none"
             id="path114" /></g><g
           id="g116"
           transform="translate(304.7227,428.6289)"><path
             d="m 0,0 c -47,12.25 -59.25,-25.75 -59.25,-25.75 0,0 -11.75,12.75 -42,4.25 -30.25,-8.5 -9,-44.25 -9,-44.25 l 3.166,2.166 5.167,-2.166 c 0,0 -3.166,11.75 16.334,11.75 15.555,0 23.68,-7.473 26.333,-10.496 0.085,-0.098 0.165,-0.192 0.239,-0.277 2.402,4.556 13.865,23.648 37.424,23.648 26.75,0 25.337,-10.73 25.337,-10.73 0,0 3.333,-1.819 2.166,-4.151 0,0 4.76,-20.576 9.834,-9.744 0,0 31.25,53.5 -15.75,65.75"
             style="fill:#ffd56b;fill-opacity:1;fill-rule:nonzero;stroke:none"
             id="path118" /></g><g
           id="g120"
           transform="translate(282.1357,378.5039)"><path
             d="m 0,0 c -23.559,0 -35.022,-20.092 -37.424,-24.648 -0.095,-0.18 -7.489,12.335 -26.572,11.773 -19.703,-0.581 -16.78,-11.379 -16.376,-12.629 l -8.291,0 c -18,-18 0,-61.53 0,-61.53 0,0 0,1.469 5.667,9.469 5.491,7.752 2.843,49.372 2.675,51.936 0.175,-0.064 16.968,-6.172 52.158,-6.172 35.375,0 48.625,6.176 48.625,6.176 C 20.462,-25.625 26.75,0 0,0"
             style="fill:#f6bb42;fill-opacity:1;fill-rule:nonzero;stroke:none"
             id="path122" /></g><g
           id="g124"
           transform="translate(319.4727,353)"><path
             d="m 0,0 -8.333,0 c 0,0 -3.001,-44.062 2.666,-52.062 C 0,-60.062 0,-61.53 0,-61.53 0,-61.53 18,-18 0,0"
             style="fill:#f6bb42;fill-opacity:1;fill-rule:nonzero;stroke:none"
             id="path126" /></g><g
           id="g128"
           transform="translate(303.7227,418.6289)"><path
             d="m 0,0 c -47,12.25 -59.25,-25.75 -59.25,-25.75 0,0 -11.75,12.75 -42,4.25 -30.25,-8.5 -9,-44.25 -9,-44.25 l 8.675,-6.176 -0.342,6.176 c 0,0 -3.166,11.75 16.334,11.75 15.555,0 23.68,-7.473 26.333,-10.496 0.085,-0.098 0.165,-0.192 0.239,-0.277 2.402,4.556 13.865,23.648 37.424,23.648 26.75,0 18.67,-24.625 18.67,-24.625 0,0 -3.333,-14.002 -4.5,-16.334 0,0 18.093,5.502 23.167,16.334 0,0 31.25,53.5 -15.75,65.75"
             style="fill:#ffce54;fill-opacity:1;fill-rule:nonzero;stroke:none"
             id="path130" /></g><g
           id="g132"
           transform="translate(296.0811,392.877)"><path
             d="m 0,0 c -31.608,14.334 -51.608,-26 -51.608,-26 0,0 23.807,34 50.07,19.668 26.263,-14.334 8.697,-47.258 8.697,-47.258 0,0 24.449,39.256 -7.159,53.59"
             style="fill:#f6bb42;fill-opacity:1;fill-rule:nonzero;stroke:none"
             id="path134" /></g><g
           id="g136"
           transform="translate(202.5996,378.5039)"><path
             d="m 0,0 c -16.873,-3.041 -7.721,-26.627 -7.721,-26.627 l 2.951,-2.1 c -3.626,41.336 46.643,17.846 46.643,17.846 0,0 -25,13.922 -41.873,10.881"
             style="fill:#f6bb42;fill-opacity:1;fill-rule:nonzero;stroke:none"
             id="path138" /></g><g
           id="g140"
           transform="translate(294.543,414.1016)"><path
             d="m 0,0 c -26.278,3.104 -49.831,-37.557 -49.831,-37.557 0,0 25.106,32.334 51.369,23.666 26.263,-8.666 21.392,-48.334 21.392,-48.334 0,0 10,58.334 -22.93,62.225"
             style="fill:#f6bb42;fill-opacity:1;fill-rule:nonzero;stroke:none"
             id="path142" /></g><g
           id="g144"
           transform="translate(198.4805,395.7285)"><path
             d="M 0,0 C -9.108,-3.918 -12.087,-10.928 -12.252,-18.16 2.9,10.982 46.231,-19.184 46.231,-19.184 33.941,-3.031 15.309,0.457 0,0"
             style="fill:#f6bb42;fill-opacity:1;fill-rule:nonzero;stroke:none"
             id="path146" /></g></g></g></g></svg>