<?xml version="1.0" encoding="UTF-8" standalone="no"?>
<!-- Created with Inkscape (http://www.inkscape.org/) -->

<svg
   xmlns:dc="http://purl.org/dc/elements/1.1/"
   xmlns:cc="http://creativecommons.org/ns#"
   xmlns:rdf="http://www.w3.org/1999/02/22-rdf-syntax-ns#"
   xmlns:svg="http://www.w3.org/2000/svg"
   xmlns="http://www.w3.org/2000/svg"
   xmlns:sodipodi="http://sodipodi.sourceforge.net/DTD/sodipodi-0.dtd"
   xmlns:inkscape="http://www.inkscape.org/namespaces/inkscape"
   id="svg2"
   version="1.1"
   inkscape:version="0.48.5 r10040"
   width="640"
   height="640"
   xml:space="preserve"
   sodipodi:docname="人物.ai"><metadata
     id="metadata8"><rdf:RDF><cc:Work
         rdf:about=""><dc:format>image/svg+xml</dc:format><dc:type
           rdf:resource="http://purl.org/dc/dcmitype/StillImage" /><dc:title></dc:title></cc:Work></rdf:RDF></metadata><defs
     id="defs6"><clipPath
       clipPathUnits="userSpaceOnUse"
       id="clipPath22"><path
         d="M 0,512 512,512 512,0 0,0 0,512 z"
         id="path24" /></clipPath><clipPath
       clipPathUnits="userSpaceOnUse"
       id="clipPath46"><path
         d="M 0,512 512,512 512,0 0,0 0,512 z"
         id="path48" /></clipPath></defs><sodipodi:namedview
     pagecolor="#ffffff"
     bordercolor="#666666"
     borderopacity="1"
     objecttolerance="10"
     gridtolerance="10"
     guidetolerance="10"
     inkscape:pageopacity="0"
     inkscape:pageshadow="2"
     inkscape:window-width="684"
     inkscape:window-height="480"
     id="namedview4"
     showgrid="false"
     inkscape:zoom="0.36875"
     inkscape:cx="320"
     inkscape:cy="320"
     inkscape:window-x="0"
     inkscape:window-y="25"
     inkscape:window-maximized="0"
     inkscape:current-layer="g10" /><g
     id="g10"
     inkscape:groupmode="layer"
     inkscape:label="人物"
     transform="matrix(1.25,0,0,-1.25,0,640)"><path
       d="M 0,0 512,0 512,1 0,1 0,0 z"
       style="fill:#ffffff;fill-opacity:1;fill-rule:nonzero;stroke:none"
       id="path12" /><g
       id="g14"
       transform="translate(0,0.9999)"><path
         d="M 0,0 0,-1 0,0 z"
         style="fill:#ffffff;fill-opacity:1;fill-rule:nonzero;stroke:none"
         id="path16" /></g><g
       id="g18"><g
         id="g20"
         clip-path="url(#clipPath22)"><path
           d="m 1024,-511 -512,0 0,512 512,0 0,-512 z"
           style="fill:#ffffff;fill-opacity:1;fill-rule:nonzero;stroke:none"
           id="path26" /><path
           d="m 1024,512 -512,0 0,512 512,0 0,-512 z"
           style="fill:#ffffff;fill-opacity:1;fill-rule:nonzero;stroke:none"
           id="path28" /><path
           d="m 512,512 -512,0 0,512 512,0 0,-512 z"
           style="fill:#ffffff;fill-opacity:1;fill-rule:nonzero;stroke:none"
           id="path30" /><path
           d="m 0,512 -512,0 0,512 512,0 0,-512 z"
           style="fill:#ffffff;fill-opacity:1;fill-rule:nonzero;stroke:none"
           id="path32" /><path
           d="m 1024,0 -512,0 0,512 512,0 0,-512 z"
           style="fill:#ffffff;fill-opacity:1;fill-rule:nonzero;stroke:none"
           id="path34" /></g></g><path
       d="M 0,0 512,0 512,512 0,512 0,0 z"
       style="fill:#ffffff;fill-opacity:1;fill-rule:nonzero;stroke:none"
       id="path36" /><g
       id="g38"
       transform="translate(0,512.0001)"><path
         d="M 0,0 0,-512 0,0 z"
         style="fill:#ffffff;fill-opacity:1;fill-rule:nonzero;stroke:none"
         id="path40" /></g><g
       id="g42"><g
         id="g44"
         clip-path="url(#clipPath46)"><g
           id="g50"
           transform="translate(457,256)"><path
             d="m 0,0 c 0,-110.457 -89.543,-200 -200,-200 -110.457,0 -200,89.543 -200,200 0,110.457 89.543,200 200,200 C -89.543,200 0,110.457 0,0"
             style="fill:#8cc152;fill-opacity:1;fill-rule:nonzero;stroke:none"
             id="path52" /></g><g
           id="g54"
           transform="translate(252.8174,129.5234)"><path
             d="m 0,0 c -17.326,24.144 -27.659,52.198 -27.021,82.095 0.189,8.831 1.431,17.598 3.646,26.145 0.634,2.446 1.374,4.864 2.208,7.248 0.283,0.807 1.598,3.951 0.667,1.844 1.47,3.328 -0.623,7.984 -4.51,7.582 0.064,0.045 0.126,0.094 0.191,0.139 4.774,3.376 1.766,10.031 -3.853,9.138 -30.758,-4.882 -53.975,-25.721 -66.861,-53.419 -6.82,-14.658 -11.628,-31.126 -12.784,-47.329 -0.46,-6.438 9.544,-6.393 10,0 0.314,4.401 0.754,6.666 1.786,11.874 1.949,9.839 4.857,19.582 8.892,28.771 8.113,18.469 20.824,33.527 37.672,42.493 -7.546,-7.575 -14.408,-15.86 -20.483,-24.437 -20.598,-29.086 -28.786,-65.278 -14.689,-98.997 2.45,-5.858 12.13,-3.29 9.643,2.659 -6.731,16.1 -8.778,33.219 -5.161,50.342 3.213,15.215 10.517,29.194 19.447,41.803 4.018,5.674 8.489,11.032 13.246,16.123 -0.859,-1.634 -1.66,-3.299 -2.391,-4.981 -6.014,-13.833 -8.754,-28.798 -10.665,-43.679 -2.577,-20.078 -3.36,-40.707 -2.297,-60.937 0.337,-6.415 10.338,-6.448 10,0 -0.961,18.277 -0.272,36.797 1.609,54.986 1.459,14.1 3.956,28.295 8.842,41.641 2.018,5.511 4.851,11.605 8.888,16.399 -1.833,-7.989 -2.693,-16.262 -3.008,-24.269 -1.251,-31.781 9.972,-62.67 28.351,-88.281 C -4.912,-10.235 3.768,-5.251 0,0"
             style="fill:#272b30;fill-opacity:1;fill-rule:nonzero;stroke:none"
             id="path56" /></g><g
           id="g58"
           transform="translate(367.5,162.9668)"><path
             d="m 0,0 c -1.14,15.969 -5.904,31.976 -12.41,46.51 -12.582,28.101 -36.311,49.33 -67.236,54.238 -5.619,0.893 -8.626,-5.763 -3.852,-9.139 0.064,-0.046 0.127,-0.093 0.191,-0.138 -3.888,0.402 -5.981,-4.254 -4.51,-7.582 -0.912,2.065 0.253,-0.698 0.538,-1.483 0.828,-2.285 1.525,-4.617 2.164,-6.961 2.286,-8.378 3.442,-16.986 3.783,-25.654 1.188,-30.175 -9.545,-58.932 -26.985,-83.234 -3.768,-5.251 4.911,-10.236 8.634,-5.047 18.281,25.474 29.059,55.618 28.386,87.141 -0.178,8.317 -1.053,16.987 -2.988,25.329 3.793,-4.554 6.493,-10.255 8.515,-15.475 5.115,-13.201 7.51,-27.484 9.054,-41.497 2.039,-18.488 2.693,-37.385 1.716,-55.975 -0.339,-6.447 9.663,-6.414 10,0 1.047,19.92 0.218,40.156 -2.174,59.944 -1.805,14.927 -4.571,29.949 -10.446,43.863 -0.824,1.952 -1.735,3.886 -2.728,5.776 4.738,-5.097 9.186,-10.464 13.241,-16.108 8.825,-12.286 15.693,-25.912 19.194,-40.673 4.114,-17.345 1.925,-35.128 -4.908,-51.473 -2.487,-5.948 7.193,-8.516 9.642,-2.658 14.17,33.894 5.749,69.713 -14.689,98.996 -5.98,8.57 -12.84,16.836 -20.382,24.39 16.513,-8.834 28.954,-23.547 37.205,-41.627 4.207,-9.219 7.093,-19.091 9.14,-28.999 0.372,-1.802 0.701,-3.612 1.004,-5.428 0.127,-0.76 0.244,-1.52 0.357,-2.282 0.201,-1.347 0.111,-0.753 0.141,-0.982 C -10.241,2.52 -10.09,1.261 -10,0 -9.544,-6.394 0.459,-6.438 0,0"
             style="fill:#272b30;fill-opacity:1;fill-rule:nonzero;stroke:none"
             id="path60" /></g><g
           id="g62"
           transform="translate(377.3213,188.3291)"><path
             d="m 0,0 c -4.423,18.868 -13.285,36.26 -26.894,50.15 -11.365,11.602 -25.624,19.862 -40.692,25.653 -15.95,6.13 -33.754,9.666 -51.068,9.956 -16.942,0.538 -34.635,-2.703 -50.594,-7.899 -33.669,-10.96 -60.131,-34.992 -71.029,-69.094 -0.922,-2.884 -1.675,-5.82 -2.366,-8.766 -1.47,-6.272 8.172,-8.936 9.643,-2.658 4.288,18.292 12.865,34.827 26.503,47.869 10.997,10.516 24.752,17.867 39.082,22.731 0.286,0.098 0.577,0.188 0.863,0.284 -1.181,-1.136 -2.315,-2.325 -3.395,-3.567 -10.741,-7.298 -20.322,-16.343 -28.279,-27.206 -7.901,-10.788 -14.966,-24.137 -17.417,-37.453 -1.16,-6.303 8.477,-8.995 9.643,-2.658 2.238,12.162 8.387,23.581 15.408,33.663 1.801,2.586 3.719,5.05 5.735,7.406 -1.351,-3.477 -2.56,-6.969 -3.658,-10.387 -4.262,-13.281 -7.228,-27.253 -8.658,-41.142 -0.66,-6.413 9.347,-6.35 10,0 0.354,3.436 0.665,5.287 1.375,9.486 1.427,8.449 3.335,16.818 5.721,25.047 2.756,9.502 6.607,21.077 12.681,30.566 -8.199,-23.4 -8.118,-50.169 1.003,-72.639 2.393,-5.894 12.07,-3.32 9.643,2.658 -10.61,26.138 -8.26,57.816 6.081,82.384 9.279,4.516 19.19,7.863 29.347,10.16 10.214,-2.311 20.116,-5.674 29.375,-10.206 14.317,-24.561 16.658,-56.216 6.054,-82.338 -2.426,-5.978 7.25,-8.552 9.643,-2.658 9.109,22.44 9.202,49.168 1.035,72.548 5.835,-9.188 9.581,-20.29 12.359,-29.492 2.506,-8.304 4.397,-16.797 5.893,-25.339 0.26,-1.485 0.499,-2.973 0.729,-4.462 0.084,-0.542 0.164,-1.084 0.243,-1.627 0.019,-0.127 0.126,-0.895 0.173,-1.227 0.127,-0.953 0.25,-1.906 0.348,-2.861 0.654,-6.35 10.66,-6.413 10,0 -1.397,13.572 -4.335,27.128 -8.346,40.15 -1.126,3.654 -2.385,7.397 -3.818,11.123 1.952,-2.278 3.819,-4.658 5.583,-7.15 7.077,-9.992 13.179,-21.551 15.408,-33.663 1.166,-6.337 10.803,-3.645 9.643,2.658 -2.461,13.372 -9.575,26.565 -17.417,37.453 -7.895,10.962 -17.562,20.063 -28.426,27.384 -1.037,1.18 -2.12,2.31 -3.248,3.392 0.013,-0.003 0.026,-0.007 0.038,-0.011 14.392,-4.686 27.983,-12.067 39.17,-22.317 C -22.766,32.967 -13.979,15.844 -9.643,-2.658 -8.171,-8.936 1.471,-6.272 0,0"
             style="fill:#434a54;fill-opacity:1;fill-rule:nonzero;stroke:none"
             id="path64" /></g><g
           id="g66"
           transform="translate(219.9448,175)"><path
             d="M 0,0 C 0,0 -2.278,15.992 36.055,15.992 74.389,15.992 72.11,0 72.11,0 L 0,0 z"
             style="fill:#ba4632;fill-opacity:1;fill-rule:nonzero;stroke:none"
             id="path68" /></g><g
           id="g70"
           transform="translate(257,55)"><path
             d="m 0,0 c 55.25,0 105.267,22.403 141.463,58.621 -4.014,12.872 -11.378,27.114 -24.795,38.712 -4.934,4.265 -11.967,9.353 -19.473,12.579 -3.681,1.582 -7.474,2.724 -11.193,3.087 -2.043,0.199 -9.75,1.317 -19.771,2.819 C 40.652,119.653 0,125.999 0,125.999 c 0,0 -40.652,-6.346 -66.231,-10.181 -10.021,-1.502 -17.728,-2.62 -19.771,-2.819 -3.719,-0.363 -7.512,-1.505 -11.193,-3.087 -7.506,-3.226 -14.539,-8.314 -19.473,-12.579 -13.417,-11.598 -20.781,-25.84 -24.795,-38.712 C -105.267,22.403 -55.25,0 0,0"
             style="fill:#e9573f;fill-opacity:1;fill-rule:nonzero;stroke:none"
             id="path72" /></g><g
           id="g74"
           transform="translate(335.1909,128.9355)"><path
             d="m 0,0 c 0,0 -6.629,13.905 -3.216,23.89 0,0 2.916,-2.441 5.334,-6.652 l -0.756,-2.869 1.684,0.966 c 0,0 1.332,-5.57 0.391,-6.857 l 2.667,1.815 C 9.445,4.186 0,0 0,0"
             style="fill:#ff5f45;fill-opacity:1;fill-rule:nonzero;stroke:none"
             id="path76" /></g><g
           id="g78"
           transform="translate(330.7466,152.1201)"><path
             d="m 0,0 c 0,0 -0.913,-15.64 3.761,-21.914 0,0 -4.021,-1.002 -6.476,2.627 l 1.44,0.071 c 0,0 -3.849,1.729 -3.867,4.116 l 2.105,1.208 -2.997,1.648 c 0,0 1.267,6.894 6.034,12.244"
             style="fill:#ff5f45;fill-opacity:1;fill-rule:nonzero;stroke:none"
             id="path80" /></g><g
           id="g82"
           transform="translate(316.8975,74.5039)"><path
             d="m 0,0 c 0,0 -22.045,22.817 -21.913,44.548 0,0 7.033,-2.624 14.509,-9.266 l 0.139,-5.865 2.657,2.99 c 0,0 6.508,-10.241 5.512,-13.368 l 4.152,5.174 C 15.577,14.475 0,0 0,0"
             style="fill:#ba4632;fill-opacity:1;fill-rule:nonzero;stroke:none"
             id="path84" /></g><g
           id="g86"
           transform="translate(293.0479,116.8711)"><path
             d="m 0,0 c 0,0 8.452,-31.14 21.686,-40.333 0,0 -7.196,-4.587 -14.367,0.892 l 2.505,1.314 c 0,0 -8.872,1.056 -10.507,5.739 l 3.321,3.738 -6.672,1.023 c 0,0 -1.775,14.062 4.034,27.627"
             style="fill:#ba4632;fill-opacity:1;fill-rule:nonzero;stroke:none"
             id="path88" /></g><g
           id="g90"
           transform="translate(352.2471,111.0771)"><path
             d="m 0,0 c 0,0 17.498,13.7 32.627,12.029 0,0 -2.52,-4.873 -7.691,-9.599 l -4.277,0.163 1.89,-2.068 c 0,0 -7.425,-3.624 -9.532,-2.704 L 16.41,-5.363 C 8.861,-11.986 0,0 0,0"
             style="fill:#ba4632;fill-opacity:1;fill-rule:nonzero;stroke:none"
             id="path92" /></g><g
           id="g94"
           transform="translate(383.4951,124.6143)"><path
             d="m 0,0 c 0,0 -22.308,-3.625 -29.674,-12.177 0,0 -2.673,5.346 1.665,9.944 l 0.553,-2.006 c 0,0 1.225,5.962 4.581,6.737 l 2.362,-2.585 1.378,4.738 c 0,0 10.106,0.381 19.135,-4.651"
             style="fill:#ba4632;fill-opacity:1;fill-rule:nonzero;stroke:none"
             id="path96" /></g><g
           id="g98"
           transform="translate(174.313,125.248)"><path
             d="m 0,0 c 0,0 5.993,14.191 15.724,18.271 0,0 0.112,-3.801 -1.43,-8.406 L 11.647,8.524 13.488,7.907 c 0,0 -3.28,-4.695 -4.867,-4.846 L 11.749,2.272 C 9.403,-4.281 0,0 0,0"
             style="fill:#ff5f45;fill-opacity:1;fill-rule:nonzero;stroke:none"
             id="path100" /></g><g
           id="g102"
           transform="translate(188.6943,143.9687)"><path
             d="m 0,0 c 0,0 -12.299,-9.705 -13.885,-17.366 0,0 -3.42,2.341 -2.338,6.586 l 1.01,-1.03 c 0,0 -1.264,4.026 0.509,5.625 l 2.302,-0.771 -0.76,3.335 c 0,0 5.996,3.632 13.162,3.621"
             style="fill:#ff5f45;fill-opacity:1;fill-rule:nonzero;stroke:none"
             id="path104" /></g><g
           id="g106"
           transform="translate(256,180.999)"><path
             d="m 0,0 c 0,0 -17.075,-2.665 -36.055,-5.585 6.75,-18.833 17.254,-93.53 20.821,-119.841 5.028,-0.378 10.109,-0.573 15.234,-0.573 5.125,0 10.206,0.195 15.234,0.573 3.567,26.311 14.071,101.008 20.821,119.841 C 17.075,-2.665 0,0 0,0"
             style="fill:#ab7049;fill-opacity:1;fill-rule:nonzero;stroke:none"
             id="path108" /></g><g
           id="g110"
           transform="translate(256,259)"><path
             d="m 0,0 -42.25,5.5 16.307,-88.734 c 0,0 3.666,-30.766 25.943,-30.766 22.277,0 25.943,30.766 25.943,30.766 L 42.25,5.5 0,0 z"
             style="fill:#ab7049;fill-opacity:1;fill-rule:nonzero;stroke:none"
             id="path112" /></g><g
           id="g114"
           transform="translate(290,249.5)"><path
             d="m 0,0 -69.525,-21.592 7.086,-38.555 c 10.66,-13.146 26.918,-25.187 50.957,-26.265 2.709,6.691 3.425,12.678 3.425,12.678 L 4.07,-7.744 C 1.686,-2.947 0,0 0,0"
             style="fill:#8c5c3c;fill-opacity:1;fill-rule:nonzero;stroke:none"
             id="path116" /></g><g
           id="g118"
           transform="translate(226.9131,192.876)"><path
             d="m 0,0 c -0.913,-0.543 -30.584,-18.877 -30.58,-56.543 0,0 -1,-10 16,3 0,0 -7.175,-29.666 1.246,-33 8.421,-3.334 20.971,-7.302 20.971,-7.302 2.45,10.968 -14.605,76.383 -14.605,76.383 0,0 1.25,4.957 8.319,10.105 L 0,0 z"
             style="fill:#ff5f45;fill-opacity:1;fill-rule:nonzero;stroke:none"
             id="path120" /></g><g
           id="g122"
           transform="translate(285.0869,192.876)"><path
             d="m 0,0 c 0.913,-0.543 30.584,-18.877 30.58,-56.543 0,0 1,-10 -16,3 0,0 7.175,-29.666 -1.246,-33 -8.421,-3.334 -20.971,-7.302 -20.971,-7.302 -2.45,10.968 14.605,76.383 14.605,76.383 0,0 -1.25,4.957 -8.319,10.105 L 0,0 z"
             style="fill:#ff5f45;fill-opacity:1;fill-rule:nonzero;stroke:none"
             id="path124" /></g><g
           id="g126"
           transform="translate(136.833,99.0313)"><path
             d="m 0,0 c 0,0 2.417,31.636 18.75,45.969 0,0 2.709,-7 2.709,-17 l -4.292,-4 4,0 c 0,0 -3.334,-11.667 -6.334,-13 l 6.626,0.333 C 21.167,-2.031 0,0 0,0"
             style="fill:#ba4632;fill-opacity:1;fill-rule:nonzero;stroke:none"
             id="path128" /></g><g
           id="g130"
           transform="translate(152.6665,145)"><path
             d="m 0,0 c 0,0 -17.667,-27 -15.75,-43 0,0 -8.208,2.333 -8.875,11.333 l 2.646,-1 c 0,0 -5.103,7.334 -2.688,11.667 l 5,0 -3.666,5.667 c 0,0 9.333,10.666 23.333,15.333"
             style="fill:#ba4632;fill-opacity:1;fill-rule:nonzero;stroke:none"
             id="path132" /></g><g
           id="g134"
           transform="translate(187.6528,96.8945)"><path
             d="m 0,0 c 0,0 21.863,-3.981 30.662,-16.402 0,0 -5.317,-1.353 -12.285,-0.626 l -2.718,3.305 -0.29,-2.786 c 0,0 -7.642,3.145 -8.353,5.331 L 6.889,-15.83 C -3.077,-14.585 0,0 0,0"
             style="fill:#ba4632;fill-opacity:1;fill-rule:nonzero;stroke:none"
             id="path136" /></g><g
           id="g138"
           transform="translate(218.5264,82.5244)"><path
             d="m 0,0 c 0,0 -17.526,14.27 -28.812,14.097 0,0 2.222,5.549 8.54,5.359 l -1.132,-1.745 c 0,0 5.27,3.044 8.079,1.05 l -0.363,-3.484 4.458,2.118 c 0,0 6.996,-7.302 9.23,-17.395"
             style="fill:#ba4632;fill-opacity:1;fill-rule:nonzero;stroke:none"
             id="path140" /></g><g
           id="g142"
           transform="translate(193,296.3789)"><path
             d="M 0,0 C 0,0 -21.309,13.5 -19.104,-14.5 -16.9,-42.5 0,-40.5 0,-40.5 L 0,0 z"
             style="fill:#ab7049;fill-opacity:1;fill-rule:nonzero;stroke:none"
             id="path144" /></g><g
           id="g146"
           transform="translate(319,296.3789)"><path
             d="M 0,0 C 0,0 21.31,13.5 19.104,-14.5 16.9,-42.5 0,-40.5 0,-40.5 L 0,0 z"
             style="fill:#ab7049;fill-opacity:1;fill-rule:nonzero;stroke:none"
             id="path148" /></g><g
           id="g150"
           transform="translate(256,368.6172)"><path
             d="m 0,0 c -63,0 -63,-34.738 -63,-34.738 l 0,-80 c 0,-20.5 19.237,-36.287 35.226,-50 13.408,-11.5 27.774,-11 27.774,-11 0,0 14.366,-0.5 27.774,11 15.989,13.713 35.226,29.5 35.226,50 l 0,80 C 63,-34.738 63,0 0,0"
             style="fill:#ba7a50;fill-opacity:1;fill-rule:nonzero;stroke:none"
             id="path152" /></g><g
           id="g154"
           transform="translate(260.6694,294.9551)"><path
             d="m 0,0 c -0.034,-0.044 -0.055,-0.085 -0.088,-0.129 -0.139,0.721 -0.416,1.475 -0.939,2.133 -0.944,1.188 -2.453,1.791 -4.486,1.791 -2.035,0 -3.561,-0.605 -4.533,-1.797 -0.509,-0.624 -0.803,-1.334 -0.965,-2.018 -0.006,0.006 -0.009,0.013 -0.014,0.02 -1.252,1.616 -3.543,3.441 -7.707,4.989 C -15.065,6.357 -5.772,8.77 7.403,4.873 3.434,3.35 1.221,1.576 0,0 m 57.607,-12.343 c -0.002,0.126 -1.259,20.744 -27.828,20.744 -1.06,0 -2.162,-0.033 -3.276,-0.099 -7.819,-0.46 -13.456,-1.534 -17.524,-2.87 -15.88,5.102 -26.327,1.341 -29.165,0.06 -4.055,1.308 -9.641,2.358 -17.343,2.81 -1.113,0.066 -2.215,0.099 -3.275,0.099 -26.57,0 -27.826,-20.618 -27.828,-20.744 -0.08,-0.595 -1.871,-14.71 5.669,-23.728 3.702,-4.427 9.01,-6.826 15.778,-7.129 0.58,-0.027 1.149,-0.039 1.712,-0.039 30.72,0 35.916,38.272 35.955,38.594 0.035,0.178 0.233,1.524 -0.668,3.305 0.038,0.835 0.242,1.881 0.915,2.706 0.773,0.948 2.038,1.429 3.758,1.429 1.71,0 2.954,-0.474 3.7,-1.409 0.723,-0.908 0.863,-2.101 0.846,-2.976 -0.763,-1.656 -0.574,-2.885 -0.54,-3.055 0.039,-0.322 5.235,-38.594 35.955,-38.594 0.563,0 1.133,0.012 1.712,0.039 6.768,0.303 12.076,2.702 15.778,7.129 7.541,9.018 5.749,23.133 5.669,23.728"
             style="fill:#f6bb42;fill-opacity:1;fill-rule:nonzero;stroke:none"
             id="path156" /></g><g
           id="g158"
           transform="translate(192.978,282.4863)"><path
             d="M 0,0 C 0,0 0.991,21.537 30.107,19.823 59.225,18.111 57.242,8.008 57.242,8.008 c 0,0 -4.958,-39.213 -36.693,-37.791 C -3.845,-28.689 0,0 0,0"
             style="fill:#434a54;fill-opacity:1;fill-rule:nonzero;stroke:none"
             id="path160" /></g><g
           id="g162"
           transform="translate(250.2197,290.4941)"><path
             d="m 0,0 c 0,0 1.983,10.104 -27.134,11.815 -6.75,0.398 -11.972,-0.463 -16.037,-2.008 -2.488,-4.376 -2.678,-8.321 -2.678,-8.321 0,0 -3.844,-28.688 20.549,-29.783 5.864,-0.262 10.812,0.865 14.985,2.874 C -1.822,-14.394 0,0 0,0"
             style="fill:#656d78;fill-opacity:1;fill-rule:nonzero;stroke:none"
             id="path164" /></g><g
           id="g166"
           transform="translate(317.3359,282.4863)"><path
             d="M 0,0 C 0,0 -0.991,21.537 -30.107,19.823 -59.225,18.111 -57.242,8.008 -57.242,8.008 c 0,0 4.958,-39.213 36.693,-37.791 C 3.845,-28.689 0,0 0,0"
             style="fill:#434a54;fill-opacity:1;fill-rule:nonzero;stroke:none"
             id="path168" /></g><g
           id="g170"
           transform="translate(260.0942,290.4941)"><path
             d="m 0,0 c 0,0 -1.983,10.104 27.134,11.815 6.75,0.398 11.972,-0.463 16.037,-2.008 2.488,-4.376 2.677,-8.321 2.677,-8.321 0,0 3.845,-28.688 -20.549,-29.783 -5.863,-0.262 -10.811,0.865 -14.984,2.874 C 1.822,-14.394 0,0 0,0"
             style="fill:#656d78;fill-opacity:1;fill-rule:nonzero;stroke:none"
             id="path172" /></g><g
           id="g174"
           transform="translate(331.5,338.5498)"><path
             d="m 0,0 c 3.379,11.585 -5.063,16.915 -5.652,17.271 0.593,1.369 8.983,21.261 -5.181,18.519 0,0 4.458,16.781 -9.604,13.721 0,0 -0.563,15.039 -12.813,9.239 0,0 -3.752,13.556 -15.251,5.628 0,0 -5.024,11.462 -14.63,2.452 -0.416,0.04 2.298,8.954 -13.369,9.12 -13,0.5 -10.953,-9.08 -11.369,-9.12 -9.606,9.01 -14.63,-2.452 -14.63,-2.452 -11.499,7.928 -15.251,-5.628 -15.251,-5.628 -12.25,5.8 -12.812,-9.239 -12.812,-9.239 -14.063,3.06 -9.605,-13.721 -9.605,-13.721 -14.164,2.742 -5.774,-17.15 -5.181,-18.519 -0.589,-0.356 -9.031,-5.686 -5.652,-17.271 0,0 -7.608,-7.024 2.446,-20.024 0,0 -5.946,-12.768 10.054,-22.147 l 0,9.121 c 8,-0.5 8,10 8,10 8,-1 10,11 10,11 4.5,-2.5 9.475,9.5 9.475,9.5 8.474,-3 8.526,8.498 8.526,8.498 9.501,-5.002 16.999,8.502 16.999,8.502 4.964,-4.609 8.41,-4.691 10,-4.349 1.59,-0.342 5.036,-0.26 10,4.349 0,0 7.498,-13.504 16.999,-8.502 0,0 0.052,-11.498 8.526,-8.498 0,0 4.975,-12 9.475,-9.5 0,0 2,-12 10,-11 0,0 0,-10.5 8,-10 l 0,-9.121 c 16,9.379 10.054,22.147 10.054,22.147 C 7.608,-7.024 0,0 0,0"
             style="fill:#434a54;fill-opacity:1;fill-rule:nonzero;stroke:none"
             id="path176" /></g><g
           id="g178"
           transform="translate(329.0542,308.5254)"><path
             d="M 0,0 C 0,0 0.114,-0.248 0.266,-0.687 0.455,-0.122 0.607,0.434 0.724,0.976 0.491,0.653 0.255,0.33 0,0"
             style="fill:#656d78;fill-opacity:1;fill-rule:nonzero;stroke:none"
             id="path180" /></g><g
           id="g182"
           transform="translate(325.8477,345.8203)"><path
             d="M 0,0 C 0.38,-0.229 4.024,-2.532 5.659,-7.245 7.888,0.43 4.928,5.354 2.51,7.902 1.721,4.062 0.237,0.548 0,0"
             style="fill:#656d78;fill-opacity:1;fill-rule:nonzero;stroke:none"
             id="path184" /></g><g
           id="g186"
           transform="translate(182.9458,308.5254)"><path
             d="M 0,0 C -0.255,0.33 -0.491,0.653 -0.724,0.976 -0.607,0.434 -0.455,-0.122 -0.266,-0.687 -0.114,-0.248 0,0 0,0"
             style="fill:#656d78;fill-opacity:1;fill-rule:nonzero;stroke:none"
             id="path188" /></g><g
           id="g190"
           transform="translate(331.5234,338.5273)"><path
             d="m 0,0 c 0.887,-2.586 1.168,-5.891 -0.023,-9.978 0,0 0.977,-0.907 1.768,-2.665 C 4.605,-4.713 0.354,-0.344 0,0"
             style="fill:#656d78;fill-opacity:1;fill-rule:nonzero;stroke:none"
             id="path192" /></g><g
           id="g194"
           transform="translate(180.5,328.5498)"><path
             d="M 0,0 C -1.192,4.087 -0.91,7.392 -0.023,9.978 -0.377,9.634 -4.629,5.265 -1.768,-2.665 -0.977,-0.907 0,0 0,0"
             style="fill:#656d78;fill-opacity:1;fill-rule:nonzero;stroke:none"
             id="path196" /></g><g
           id="g198"
           transform="translate(186.1523,345.8203)"><path
             d="M 0,0 C -0.237,0.548 -1.721,4.062 -2.51,7.902 -4.928,5.354 -7.888,0.43 -5.659,-7.245 -4.024,-2.532 -0.38,-0.229 0,0"
             style="fill:#656d78;fill-opacity:1;fill-rule:nonzero;stroke:none"
             id="path200" /></g><g
           id="g202"
           transform="translate(191.333,364.3398)"><path
             d="m 0,0 c 0,0 -4.458,16.781 9.604,13.721 0,0 0.563,15.039 12.813,9.239 0,0 3.752,13.556 15.251,5.628 0,0 5.024,11.462 14.63,2.452 0.416,0.04 -1.631,9.62 11.369,9.12 15.666,-0.166 12.953,-9.08 13.369,-9.12 9.606,9.01 14.63,-2.452 14.63,-2.452 11.499,7.928 15.251,-5.628 15.251,-5.628 12.25,5.8 12.812,-9.239 12.812,-9.239 C 133.792,16.781 129.334,0 129.334,0 c 4.044,0.783 6.245,-0.283 7.318,-2.232 1.558,6.066 1.987,14.034 -7.318,12.232 0,0 4.458,16.781 -9.605,13.721 0,0 -0.562,15.039 -12.812,9.239 0,0 -3.752,13.556 -15.251,5.628 0,0 -5.024,11.462 -14.63,2.452 -0.416,0.04 2.297,8.954 -13.369,9.12 -13,0.5 -10.953,-9.08 -11.369,-9.12 -9.606,9.01 -14.63,-2.452 -14.63,-2.452 C 26.169,46.516 22.417,32.96 22.417,32.96 10.167,38.76 9.604,23.721 9.604,23.721 -4.458,26.781 0,10 0,10 -9.305,11.802 -8.876,3.834 -7.318,-2.232 -6.245,-0.283 -4.044,0.783 0,0"
             style="fill:#656d78;fill-opacity:1;fill-rule:nonzero;stroke:none"
             id="path204" /></g><g
           id="g206"
           transform="translate(187.4873,353.7227)"><path
             d="m 0,0 c 0,0 0.294,-0.51 0.75,-1.419 0.456,-0.909 1.087,-2.214 1.764,-3.806 0.696,-1.584 1.43,-3.458 2.185,-5.475 0.741,-2.022 1.475,-4.196 2.156,-6.385 0.675,-2.192 1.3,-4.399 1.831,-6.486 0.517,-2.091 0.969,-4.052 1.288,-5.753 0.34,-1.696 0.555,-3.13 0.691,-4.138 0.137,-1.009 0.181,-1.595 0.181,-1.595 0,0 -0.294,0.509 -0.751,1.418 -0.457,0.91 -1.09,2.214 -1.766,3.805 -0.698,1.585 -1.432,3.459 -2.185,5.477 -0.742,2.021 -1.472,4.195 -2.153,6.385 -0.674,2.193 -1.297,4.401 -1.826,6.488 -0.517,2.09 -0.969,4.051 -1.29,5.754 C 0.536,-4.035 0.319,-2.602 0.183,-1.594 0.045,-0.586 0,0 0,0"
             style="fill:#272b30;fill-opacity:1;fill-rule:nonzero;stroke:none"
             id="path208" /></g><g
           id="g210"
           transform="translate(211,328.666)"><path
             d="m 0,0 c 0,0 -0.353,0.593 -0.913,1.65 -0.277,0.53 -0.623,1.17 -0.984,1.916 -0.356,0.753 -0.858,1.546 -1.314,2.451 -0.48,0.894 -0.998,1.86 -1.505,2.895 -0.517,1.031 -1.098,2.129 -1.644,3.274 -1.113,2.287 -2.244,4.751 -3.327,7.236 -1.066,2.492 -2.077,5.009 -2.974,7.389 -0.885,2.386 -1.681,4.626 -2.297,6.572 -0.636,1.939 -1.1,3.582 -1.411,4.738 -0.311,1.156 -0.457,1.83 -0.457,1.83 0,0 0.387,-0.572 1.007,-1.597 0.62,-1.024 1.486,-2.497 2.446,-4.295 0.98,-1.791 2.046,-3.913 3.157,-6.2 1.1,-2.292 2.211,-4.762 3.283,-7.25 1.074,-2.487 2.098,-4.995 3.007,-7.369 0.9,-2.366 1.7,-4.638 2.312,-6.6 0.31,-0.978 0.616,-1.869 0.789,-2.681 0.2,-0.807 0.344,-1.521 0.47,-2.105 C -0.108,0.682 0,0 0,0"
             style="fill:#272b30;fill-opacity:1;fill-rule:nonzero;stroke:none"
             id="path212" /></g><g
           id="g214"
           transform="translate(219.3335,338.5752)"><path
             d="m 0,0 c 0,0 -0.362,0.624 -0.938,1.737 -0.577,1.113 -1.38,2.709 -2.265,4.655 -0.447,0.97 -0.931,2.022 -1.403,3.148 -0.481,1.124 -1.003,2.304 -1.486,3.544 -0.486,1.239 -1.029,2.506 -1.507,3.819 -0.487,1.309 -0.983,2.639 -1.479,3.97 -0.472,1.339 -0.948,2.676 -1.388,4.003 -0.459,1.319 -0.849,2.641 -1.259,3.907 -0.8,2.54 -1.487,4.934 -2.024,7.003 -0.552,2.064 -0.945,3.808 -1.207,5.033 -0.261,1.227 -0.377,1.939 -0.377,1.939 0,0 0.362,-0.624 0.939,-1.737 0.578,-1.112 1.382,-2.708 2.267,-4.653 0.901,-1.939 1.892,-4.223 2.888,-6.693 0.489,-1.238 1.027,-2.507 1.512,-3.818 0.503,-1.303 0.985,-2.638 1.472,-3.972 0.462,-1.342 0.925,-2.685 1.38,-4.005 0.466,-1.318 0.851,-2.641 1.264,-3.906 0.415,-1.265 0.762,-2.507 1.105,-3.68 0.351,-1.17 0.646,-2.29 0.917,-3.324 0.553,-2.064 0.947,-3.807 1.21,-5.033 C -0.117,0.712 0,0 0,0"
             style="fill:#272b30;fill-opacity:1;fill-rule:nonzero;stroke:none"
             id="path216" /></g><g
           id="g218"
           transform="translate(246,356.9541)"><path
             d="m 0,0 c 0,0 -0.121,0.573 -0.273,1.571 -0.144,1.004 -0.439,2.4 -0.652,4.053 -0.243,1.647 -0.485,3.635 -0.689,5.73 -0.197,2.104 -0.364,4.353 -0.469,6.604 -0.101,2.25 -0.158,4.504 -0.149,6.62 0.019,2.116 0.065,4.094 0.177,5.793 0.09,1.697 0.234,3.116 0.351,4.11 0.115,0.994 0.216,1.564 0.216,1.564 0,0 0.16,-0.556 0.38,-1.532 0.218,-0.977 0.511,-2.373 0.774,-4.054 C -0.051,28.78 0.197,26.816 0.425,24.71 0.637,22.603 0.805,20.352 0.914,18.098 1.01,15.843 1.061,13.586 1.037,11.466 1.031,10.405 0.983,9.38 0.948,8.407 0.922,7.434 0.863,6.522 0.79,5.648 0.65,3.92 0.508,2.498 0.319,1.528 0.138,0.554 0,0 0,0"
             style="fill:#272b30;fill-opacity:1;fill-rule:nonzero;stroke:none"
             id="path220" /></g><g
           id="g222"
           transform="translate(228.3335,348.6416)"><path
             d="m 0,0 c 0,0 -0.292,0.605 -0.746,1.681 -0.453,1.075 -1.08,2.616 -1.75,4.486 -0.691,1.865 -1.417,4.062 -2.162,6.426 -0.733,2.365 -1.455,4.904 -2.126,7.457 -0.663,2.554 -1.277,5.122 -1.795,7.544 -0.505,2.425 -0.946,4.697 -1.254,6.662 -0.33,1.96 -0.535,3.611 -0.664,4.77 -0.129,1.161 -0.17,1.831 -0.17,1.831 0,0 0.294,-0.605 0.748,-1.68 0.454,-1.074 1.082,-2.615 1.752,-4.487 0.692,-1.864 1.418,-4.061 2.163,-6.424 0.732,-2.367 1.452,-4.906 2.122,-7.458 0.662,-2.555 1.273,-5.123 1.79,-7.545 0.505,-2.426 0.946,-4.698 1.255,-6.662 0.329,-1.96 0.536,-3.611 0.666,-4.77 C -0.041,0.671 0,0 0,0"
             style="fill:#272b30;fill-opacity:1;fill-rule:nonzero;stroke:none"
             id="path224" /></g><g
           id="g226"
           transform="translate(185.1484,316.666)"><path
             d="m 0,0 c 0,0 0.203,-0.063 0.509,-0.209 0.309,-0.144 0.719,-0.37 1.166,-0.674 0.893,-0.608 1.871,-1.568 2.646,-2.671 0.774,-1.102 1.345,-2.347 1.61,-3.396 0.132,-0.525 0.204,-0.987 0.233,-1.327 0.032,-0.338 0.021,-0.551 0.021,-0.551 0,0 -0.204,0.062 -0.51,0.208 -0.31,0.143 -0.721,0.369 -1.168,0.673 C 3.612,-7.341 2.636,-6.379 1.864,-5.274 1.093,-4.17 0.524,-2.923 0.258,-1.876 0.125,-1.352 0.052,-0.889 0.022,-0.55 -0.01,-0.213 0,0 0,0"
             style="fill:#272b30;fill-opacity:1;fill-rule:nonzero;stroke:none"
             id="path228" /></g><g
           id="g230"
           transform="translate(324.5127,353.7227)"><path
             d="m 0,0 c 0,0 -0.045,-0.586 -0.183,-1.594 -0.136,-1.008 -0.353,-2.441 -0.692,-4.136 -0.321,-1.703 -0.773,-3.664 -1.29,-5.754 -0.529,-2.087 -1.152,-4.295 -1.826,-6.488 -0.681,-2.19 -1.411,-4.364 -2.153,-6.385 -0.753,-2.018 -1.487,-3.892 -2.185,-5.477 -0.676,-1.591 -1.309,-2.895 -1.766,-3.805 -0.457,-0.909 -0.751,-1.418 -0.751,-1.418 0,0 0.044,0.586 0.181,1.595 0.136,1.008 0.351,2.442 0.691,4.138 0.319,1.701 0.771,3.662 1.288,5.753 0.531,2.087 1.156,4.294 1.831,6.486 0.681,2.189 1.415,4.363 2.156,6.385 0.755,2.017 1.489,3.891 2.185,5.475 0.677,1.592 1.308,2.897 1.764,3.806 C -0.294,-0.51 0,0 0,0"
             style="fill:#272b30;fill-opacity:1;fill-rule:nonzero;stroke:none"
             id="path232" /></g><g
           id="g234"
           transform="translate(301,328.666)"><path
             d="m 0,0 c 0,0 0.108,0.682 0.355,1.854 0.126,0.584 0.27,1.298 0.47,2.105 0.173,0.812 0.479,1.703 0.789,2.681 0.612,1.962 1.412,4.234 2.312,6.6 0.909,2.374 1.933,4.882 3.007,7.369 1.072,2.488 2.183,4.958 3.283,7.25 1.111,2.287 2.177,4.409 3.157,6.2 0.96,1.798 1.826,3.271 2.446,4.295 0.62,1.025 1.007,1.597 1.007,1.597 0,0 -0.146,-0.674 -0.457,-1.83 C 16.058,36.965 15.594,35.322 14.958,33.383 14.342,31.437 13.546,29.197 12.661,26.811 11.764,24.431 10.753,21.914 9.687,19.422 8.604,16.937 7.473,14.473 6.36,12.186 5.814,11.041 5.233,9.943 4.716,8.912 4.209,7.877 3.691,6.911 3.211,6.017 2.755,5.112 2.253,4.319 1.897,3.566 1.536,2.82 1.19,2.18 0.913,1.65 0.353,0.593 0,0 0,0"
             style="fill:#272b30;fill-opacity:1;fill-rule:nonzero;stroke:none"
             id="path236" /></g><g
           id="g238"
           transform="translate(292.6665,338.5752)"><path
             d="m 0,0 c 0,0 0.117,0.712 0.379,1.937 0.263,1.226 0.657,2.969 1.21,5.033 0.271,1.034 0.566,2.154 0.917,3.324 0.343,1.173 0.69,2.415 1.105,3.68 0.413,1.265 0.798,2.588 1.264,3.906 0.455,1.32 0.918,2.663 1.38,4.005 0.487,1.334 0.969,2.669 1.472,3.972 0.485,1.311 1.023,2.58 1.512,3.818 0.996,2.47 1.987,4.754 2.888,6.693 0.885,1.945 1.689,3.541 2.267,4.653 0.577,1.113 0.939,1.737 0.939,1.737 0,0 -0.116,-0.712 -0.377,-1.939 -0.262,-1.225 -0.655,-2.969 -1.207,-5.033 -0.537,-2.069 -1.224,-4.463 -2.024,-7.003 -0.41,-1.266 -0.8,-2.588 -1.259,-3.907 C 10.026,23.549 9.55,22.212 9.078,20.873 8.582,19.542 8.086,18.212 7.599,16.903 7.121,15.59 6.578,14.323 6.092,13.084 5.609,11.844 5.087,10.664 4.606,9.54 4.134,8.414 3.65,7.362 3.203,6.392 2.318,4.446 1.515,2.85 0.938,1.737 0.362,0.624 0,0 0,0"
             style="fill:#272b30;fill-opacity:1;fill-rule:nonzero;stroke:none"
             id="path240" /></g><g
           id="g242"
           transform="translate(266,356.9541)"><path
             d="m 0,0 c 0,0 -0.138,0.554 -0.319,1.528 -0.189,0.97 -0.331,2.392 -0.471,4.12 -0.073,0.874 -0.132,1.786 -0.158,2.759 -0.035,0.973 -0.083,1.998 -0.089,3.059 -0.024,2.12 0.027,4.377 0.123,6.632 0.109,2.254 0.277,4.505 0.489,6.612 0.228,2.106 0.476,4.07 0.759,5.749 0.263,1.681 0.556,3.077 0.774,4.054 0.22,0.976 0.38,1.532 0.38,1.532 0,0 0.101,-0.57 0.216,-1.564 0.117,-0.994 0.261,-2.413 0.351,-4.11 C 2.167,28.672 2.213,26.694 2.232,24.578 2.241,22.462 2.184,20.208 2.083,17.958 1.978,15.707 1.811,13.458 1.614,11.354 1.41,9.259 1.168,7.271 0.925,5.624 0.712,3.971 0.417,2.575 0.273,1.571 0.121,0.573 0,0 0,0"
             style="fill:#272b30;fill-opacity:1;fill-rule:nonzero;stroke:none"
             id="path244" /></g><g
           id="g246"
           transform="translate(283.6665,348.6416)"><path
             d="m 0,0 c 0,0 0.041,0.671 0.171,1.831 0.13,1.159 0.337,2.81 0.666,4.77 0.309,1.964 0.75,4.236 1.255,6.662 0.517,2.422 1.128,4.99 1.79,7.545 0.67,2.552 1.39,5.091 2.122,7.458 0.745,2.363 1.471,4.56 2.163,6.424 0.67,1.872 1.298,3.413 1.752,4.487 0.454,1.075 0.748,1.68 0.748,1.68 0,0 -0.041,-0.67 -0.17,-1.831 -0.129,-1.159 -0.334,-2.81 -0.664,-4.77 C 9.525,32.291 9.084,30.019 8.579,27.594 8.061,25.172 7.447,22.604 6.784,20.05 6.113,17.497 5.391,14.958 4.658,12.593 3.913,10.229 3.187,8.032 2.496,6.167 1.826,4.297 1.199,2.756 0.746,1.681 0.292,0.605 0,0 0,0"
             style="fill:#272b30;fill-opacity:1;fill-rule:nonzero;stroke:none"
             id="path248" /></g><g
           id="g250"
           transform="translate(326.8516,316.666)"><path
             d="m 0,0 c 0,0 0.01,-0.213 -0.022,-0.55 -0.03,-0.339 -0.103,-0.802 -0.236,-1.326 -0.266,-1.047 -0.835,-2.294 -1.606,-3.398 -0.772,-1.105 -1.748,-2.067 -2.643,-2.673 -0.447,-0.304 -0.858,-0.53 -1.168,-0.673 -0.306,-0.146 -0.51,-0.208 -0.51,-0.208 0,0 -0.011,0.213 0.021,0.551 0.029,0.34 0.101,0.802 0.233,1.327 0.265,1.049 0.836,2.294 1.61,3.396 0.775,1.103 1.753,2.063 2.646,2.671 0.447,0.304 0.857,0.53 1.166,0.674 C -0.203,-0.063 0,0 0,0"
             style="fill:#272b30;fill-opacity:1;fill-rule:nonzero;stroke:none"
             id="path252" /></g></g></g></g></svg>