<?xml version="1.0" encoding="UTF-8" standalone="no"?>
<!-- Created with Inkscape (http://www.inkscape.org/) -->

<svg
   xmlns:dc="http://purl.org/dc/elements/1.1/"
   xmlns:cc="http://creativecommons.org/ns#"
   xmlns:rdf="http://www.w3.org/1999/02/22-rdf-syntax-ns#"
   xmlns:svg="http://www.w3.org/2000/svg"
   xmlns="http://www.w3.org/2000/svg"
   xmlns:sodipodi="http://sodipodi.sourceforge.net/DTD/sodipodi-0.dtd"
   xmlns:inkscape="http://www.inkscape.org/namespaces/inkscape"
   id="svg2"
   version="1.1"
   inkscape:version="0.48.5 r10040"
   width="640"
   height="640"
   xml:space="preserve"
   sodipodi:docname="人物.ai"><metadata
     id="metadata8"><rdf:RDF><cc:Work
         rdf:about=""><dc:format>image/svg+xml</dc:format><dc:type
           rdf:resource="http://purl.org/dc/dcmitype/StillImage" /><dc:title></dc:title></cc:Work></rdf:RDF></metadata><defs
     id="defs6"><clipPath
       clipPathUnits="userSpaceOnUse"
       id="clipPath20"><path
         d="M 0,512 512,512 512,0 0,0 0,512 z"
         id="path22" /></clipPath><clipPath
       clipPathUnits="userSpaceOnUse"
       id="clipPath32"><path
         d="M 0,512 512,512 512,0 0,0 0,512 z"
         id="path34" /></clipPath><clipPath
       clipPathUnits="userSpaceOnUse"
       id="clipPath48"><path
         d="M 0,512 512,512 512,0 0,0 0,512 z"
         id="path50" /></clipPath><clipPath
       clipPathUnits="userSpaceOnUse"
       id="clipPath62"><path
         d="M 0,512 512,512 512,0 0,0 0,512 z"
         id="path64" /></clipPath></defs><sodipodi:namedview
     pagecolor="#ffffff"
     bordercolor="#666666"
     borderopacity="1"
     objecttolerance="10"
     gridtolerance="10"
     guidetolerance="10"
     inkscape:pageopacity="0"
     inkscape:pageshadow="2"
     inkscape:window-width="684"
     inkscape:window-height="480"
     id="namedview4"
     showgrid="false"
     inkscape:zoom="0.36875"
     inkscape:cx="320"
     inkscape:cy="320"
     inkscape:window-x="0"
     inkscape:window-y="25"
     inkscape:window-maximized="0"
     inkscape:current-layer="g10" /><g
     id="g10"
     inkscape:groupmode="layer"
     inkscape:label="人物"
     transform="matrix(1.25,0,0,-1.25,0,640)"><g
       id="g12"
       transform="translate(0,0.9999)"><path
         d="M 0,0 0,-1 0,0 z"
         style="fill:#ffffff;fill-opacity:1;fill-rule:nonzero;stroke:none"
         id="path14" /></g><g
       id="g16"><g
         id="g18"
         clip-path="url(#clipPath20)"><path
           d="m 1024,-511 -512,0 0,512 512,0 0,-512 z"
           style="fill:#ffffff;fill-opacity:1;fill-rule:nonzero;stroke:none"
           id="path24" /></g></g><path
       d="M 0,0 512,0 512,1 0,1 0,0 z"
       style="fill:#ffffff;fill-opacity:1;fill-rule:nonzero;stroke:none"
       id="path26" /><g
       id="g28"><g
         id="g30"
         clip-path="url(#clipPath32)"><path
           d="m 1024,512 -512,0 0,512 512,0 0,-512 z"
           style="fill:#ffffff;fill-opacity:1;fill-rule:nonzero;stroke:none"
           id="path36" /><path
           d="m 512,512 -512,0 0,512 512,0 0,-512 z"
           style="fill:#ffffff;fill-opacity:1;fill-rule:nonzero;stroke:none"
           id="path38" /><path
           d="m 0,512 -512,0 0,512 512,0 0,-512 z"
           style="fill:#ffffff;fill-opacity:1;fill-rule:nonzero;stroke:none"
           id="path40" /></g></g><path
       d="M 0,0 512,0 512,512 0,512 0,0 z"
       style="fill:#ffffff;fill-opacity:1;fill-rule:nonzero;stroke:none"
       id="path42" /><g
       id="g44"><g
         id="g46"
         clip-path="url(#clipPath48)"><path
           d="m 1024,0 -512,0 0,512 512,0 0,-512 z"
           style="fill:#ffffff;fill-opacity:1;fill-rule:nonzero;stroke:none"
           id="path52" /></g></g><g
       id="g54"
       transform="translate(0,512.0001)"><path
         d="M 0,0 0,-512 0,0 z"
         style="fill:#ffffff;fill-opacity:1;fill-rule:nonzero;stroke:none"
         id="path56" /></g><g
       id="g58"><g
         id="g60"
         clip-path="url(#clipPath62)"><g
           id="g66"
           transform="translate(456,256)"><path
             d="m 0,0 c 0,-110.457 -89.543,-200 -200,-200 -110.457,0 -200,89.543 -200,200 0,110.457 89.543,200 200,200 C -89.543,200 0,110.457 0,0"
             style="fill:#da4453;fill-opacity:1;fill-rule:nonzero;stroke:none"
             id="path68" /></g><g
           id="g70"
           transform="translate(256,55)"><path
             d="m 0,0 c 55.25,0 105.267,22.403 141.463,58.621 -4.014,12.872 -11.378,27.114 -24.795,38.712 -4.934,4.265 -11.967,9.353 -19.473,12.579 -3.681,1.582 -7.474,2.724 -11.193,3.087 -2.043,0.199 -9.75,1.317 -19.771,2.819 C 40.652,119.653 0,125.999 0,125.999 c 0,0 -40.652,-6.346 -66.231,-10.181 -10.021,-1.502 -17.728,-2.62 -19.771,-2.819 -3.719,-0.363 -7.512,-1.505 -11.193,-3.087 -7.506,-3.226 -14.539,-8.314 -19.473,-12.579 -13.417,-11.598 -20.781,-25.84 -24.795,-38.712 C -105.267,22.403 -55.25,0 0,0"
             style="fill:#434a54;fill-opacity:1;fill-rule:nonzero;stroke:none"
             id="path72" /></g><g
           id="g74"
           transform="translate(255.6357,180.9424)"><path
             d="m 0,0 c -0.216,-0.034 -0.526,-0.082 -0.926,-0.145 -0.052,-0.007 -0.105,-0.016 -0.159,-0.024 -6.328,-0.986 -32.216,-5.016 -53.794,-8.295 0.87,-14.101 12.994,-41.44 84.577,-44.478 41.652,-1.768 60.414,17.812 70.468,35.705 -0.861,0.423 -1.729,0.83 -2.606,1.207 -3.682,1.582 -7.475,2.723 -11.194,3.087 -2.043,0.199 -9.75,1.317 -19.77,2.819 C 41.017,-6.289 0.364,0.057 0.364,0.057 0.364,0.057 0.286,0.044 0.145,0.022 0.099,0.015 0.062,0.01 0,0"
             style="fill:#f9e0a8;fill-opacity:1;fill-rule:nonzero;stroke:none"
             id="path76" /></g><g
           id="g78"
           transform="translate(256,258.8789)"><path
             d="m 0,0 -42.25,5.5 16.307,-88.734 c 0,0 3.666,-30.766 25.943,-30.766 22.277,0 25.943,30.766 25.943,30.766 L 42.25,5.5 0,0 z"
             style="fill:#f9e0a8;fill-opacity:1;fill-rule:nonzero;stroke:none"
             id="path80" /></g><g
           id="g82"
           transform="translate(290,249.3789)"><path
             d="m 0,0 -69.525,-21.592 7.086,-38.556 c 10.66,-13.145 26.918,-25.186 50.957,-26.264 2.709,6.691 3.425,12.678 3.425,12.678 L 4.07,-7.744 C 1.686,-2.947 0,0 0,0"
             style="fill:#d9c392;fill-opacity:1;fill-rule:nonzero;stroke:none"
             id="path84" /></g><g
           id="g86"
           transform="translate(223,189)"><path
             d="M 0,0 0,-12 -15.25,-6 0,0 z"
             style="fill:#ffffff;fill-opacity:1;fill-rule:nonzero;stroke:none"
             id="path88" /></g><g
           id="g90"
           transform="translate(289,189)"><path
             d="M 0,0 0,-12 15.25,-6 0,0 z"
             style="fill:#ffffff;fill-opacity:1;fill-rule:nonzero;stroke:none"
             id="path92" /></g><g
           id="g94"
           transform="translate(295,183)"><path
             d="m 0,0 c 0,-3.866 -3.134,-7 -7,-7 l -63,0 c -3.866,0 -7,3.134 -7,7 0,3.866 3.134,7 7,7 L -7,7 C -3.134,7 0,3.866 0,0"
             style="fill:#434a54;fill-opacity:1;fill-rule:nonzero;stroke:none"
             id="path96" /></g><g
           id="g98"
           transform="translate(262.5,183)"><path
             d="m 0,0 c 0,-3.129 -2.537,-5.666 -5.667,-5.666 -3.129,0 -5.666,2.537 -5.666,5.666 0,3.129 2.537,5.666 5.666,5.666 C -2.537,5.666 0,3.129 0,0"
             style="fill:#ffffff;fill-opacity:1;fill-rule:nonzero;stroke:none"
             id="path100" /></g><g
           id="g102"
           transform="translate(121.5,130.5)"><path
             d="m 0,0 c 0,0 -0.644,10 -3.822,11.25 0,0 5.572,2 7.572,-1.75 0,0 2,8.5 0,11.25 0,0 14.25,-21.035 17.25,-34.018 0,0 -13.537,-8.353 -20.75,-5.982 0,0 3.75,1.5 6,4.5 0,0 -13.75,-0.75 -17.5,2.25 l 7.428,4.192 c 0,0 11.072,5.558 3.822,8.308"
             style="fill:#656d78;fill-opacity:1;fill-rule:nonzero;stroke:none"
             id="path104" /></g><g
           id="g106"
           transform="translate(117.6782,122.1924)"><path
             d="M 0,0 24.822,-4.96 6.618,12.667 C 3.958,8.479 1.779,4.217 0,0"
             style="fill:#f9e0a8;fill-opacity:1;fill-rule:nonzero;stroke:none"
             id="path108" /></g><g
           id="g110"
           transform="translate(293.833,98)"><path
             d="M 0,0 C -0.333,1 23.749,75.92 23.749,75.92 L 34.799,74.333 33.834,0 0,0 z"
             style="fill:#434a54;fill-opacity:1;fill-rule:nonzero;stroke:none"
             id="path112" /></g><g
           id="g114"
           transform="translate(305.1338,134.918)"><path
             d="m 0,0 c -0.668,-2.106 -1.333,-4.208 -1.987,-6.28 9.896,1.223 18.125,3.877 25.015,7.434 l 0.078,6.042 C 16.669,3.861 9.048,1.325 0,0"
             style="fill:#272b30;fill-opacity:1;fill-rule:nonzero;stroke:none"
             id="path116" /></g><g
           id="g118"
           transform="translate(205.3335,131.0381)"><path
             d="M 0,0 C 0,0 88,-39.371 146.333,9.295 146.333,9.295 123.667,-59.628 0,0"
             style="fill:#656d78;fill-opacity:1;fill-rule:nonzero;stroke:none"
             id="path120" /></g><g
           id="g122"
           transform="translate(193,296.3789)"><path
             d="M 0,0 C 0,0 -21.309,13.5 -19.104,-14.5 -16.9,-42.5 0,-40.5 0,-40.5 L 0,0 z"
             style="fill:#f9e0a8;fill-opacity:1;fill-rule:nonzero;stroke:none"
             id="path124" /></g><g
           id="g126"
           transform="translate(319,296.3789)"><path
             d="M 0,0 C 0,0 21.31,13.5 19.104,-14.5 16.9,-42.5 0,-40.5 0,-40.5 L 0,0 z"
             style="fill:#f9e0a8;fill-opacity:1;fill-rule:nonzero;stroke:none"
             id="path128" /></g><g
           id="g130"
           transform="translate(256,368.6172)"><path
             d="m 0,0 c -63,0 -63,-34.738 -63,-34.738 l 0,-80 c 0,-20.5 19.237,-36.287 35.226,-50 13.408,-11.5 27.774,-11 27.774,-11 0,0 14.366,-0.5 27.774,11 15.989,13.713 35.226,29.5 35.226,50 l 0,80 C 63,-34.738 63,0 0,0"
             style="fill:#ffe9ba;fill-opacity:1;fill-rule:nonzero;stroke:none"
             id="path132" /></g><g
           id="g134"
           transform="translate(192.1523,260.9238)"><path
             d="m 0,0 c 0,-2.804 -2.272,-5.076 -5.076,-5.076 -2.804,0 -5.076,2.272 -5.076,5.076 0,2.804 2.272,5.076 5.076,5.076 C -2.272,5.076 0,2.804 0,0"
             style="fill:#434a54;fill-opacity:1;fill-rule:nonzero;stroke:none"
             id="path136" /></g><g
           id="g138"
           transform="translate(180,275.3652)"><path
             d="m 0,0 c 0,-1.312 -1.063,-2.375 -2.375,-2.375 -1.312,0 -2.375,1.063 -2.375,2.375 0,1.312 1.063,2.375 2.375,2.375 C -1.063,2.375 0,1.312 0,0"
             style="fill:#ffffff;fill-opacity:1;fill-rule:nonzero;stroke:none"
             id="path140" /></g><g
           id="g142"
           transform="translate(187.5928,294.7969)"><path
             d="m 0,0 c 0,-1.545 -1.252,-2.797 -2.796,-2.797 -1.545,0 -2.797,1.252 -2.797,2.797 0,1.544 1.252,2.796 2.797,2.796 C -1.252,2.796 0,1.544 0,0"
             style="fill:#ffffff;fill-opacity:1;fill-rule:nonzero;stroke:none"
             id="path144" /></g><g
           id="g146"
           transform="translate(170.4526,285.6074)"><path
             d="m 0,0 c 2.792,-1.167 5.583,-2.334 8.375,-3.5 1.512,-0.632 3.298,0.67 3.69,2.095 0.476,1.729 -0.587,3.06 -2.095,3.69 C 7.178,3.452 4.387,4.619 1.595,5.785 0.083,6.417 -1.703,5.115 -2.095,3.69 -2.571,1.961 -1.508,0.63 0,0"
             style="fill:#ffffff;fill-opacity:1;fill-rule:nonzero;stroke:none"
             id="path148" /></g><g
           id="g150"
           transform="translate(256.4727,392.6172)"><path
             d="m 0,0 c -37.333,0 -68,-12.344 -68,-49.227 0,-38.179 5,-47.011 5,-47.011 0,0 5.001,20.832 13.667,23.832 8.666,3 7.083,18.334 7.083,18.334 0,0 28.917,-4 42.25,-4 13.333,0 42.25,4 42.25,4 0,0 -1.583,-15.334 7.083,-18.334 8.666,-3 13.667,-23.832 13.667,-23.832 0,0 5,8.832 5,47.011 C 68,-12.344 37.333,0 0,0"
             style="fill:#272b30;fill-opacity:1;fill-rule:nonzero;stroke:none"
             id="path152" /></g><g
           id="g154"
           transform="translate(201.3335,331.8008)"><path
             d="m 0,0 c 0,0 32.666,-25.468 43.333,-47.801 0,0 -4.666,23 -6.333,26 0,0 21,-30 24,-48 0,0 0.211,34.333 -5.061,41.333 0,0 30.147,-65.962 30.317,-81 0,0 5.257,51.333 0,62 0,0 29.077,-50.666 31.411,-70.666 0,0 58,189.333 -42,202 -100,12.667 -84,-47.05 -84,-47.05 0,0 -23.334,-20.283 8.333,-36.816"
             style="fill:#434a54;fill-opacity:1;fill-rule:nonzero;stroke:none"
             id="path156" /></g><g
           id="g158"
           transform="translate(189.8491,340.1367)"><path
             d="m 0,0 c 2.361,4.64 5.84,7.666 5.84,7.666 0,0 -15.4,57.476 80.848,45.283 57.297,-7.258 60.7,-74.774 54.071,-128.232 9.563,57.048 12.428,142.449 -53.608,150.813 -100,12.667 -84,-47.05 -84,-47.05 C 3.151,28.48 -13.145,14.308 0,0"
             style="fill:#656d78;fill-opacity:1;fill-rule:nonzero;stroke:none"
             id="path160" /></g><g
           id="g162"
           transform="translate(202,360)"><path
             d="m 0,0 c 0,0 88.26,-39.818 98.333,-113.667 0,0 -19,141.334 -98.333,113.667"
             style="fill:#656d78;fill-opacity:1;fill-rule:nonzero;stroke:none"
             id="path164" /></g><g
           id="g166"
           transform="translate(205,344.498)"><path
             d="M 0,0 C 0,0 19.82,-13.165 19.41,-52.165 19.41,-52.165 7.333,-18.502 0,0"
             style="fill:#656d78;fill-opacity:1;fill-rule:nonzero;stroke:none"
             id="path168" /></g><g
           id="g170"
           transform="translate(205,370)"><path
             d="M 0,0 C 0,0 87.333,32.589 114,-65.039 114,-65.039 89.667,65 0,0"
             style="fill:#656d78;fill-opacity:1;fill-rule:nonzero;stroke:none"
             id="path172" /></g></g></g></g></svg>