<?xml version="1.0" encoding="UTF-8" standalone="no"?>
<!-- Created with Inkscape (http://www.inkscape.org/) -->

<svg
   xmlns:dc="http://purl.org/dc/elements/1.1/"
   xmlns:cc="http://creativecommons.org/ns#"
   xmlns:rdf="http://www.w3.org/1999/02/22-rdf-syntax-ns#"
   xmlns:svg="http://www.w3.org/2000/svg"
   xmlns="http://www.w3.org/2000/svg"
   xmlns:sodipodi="http://sodipodi.sourceforge.net/DTD/sodipodi-0.dtd"
   xmlns:inkscape="http://www.inkscape.org/namespaces/inkscape"
   id="svg2"
   version="1.1"
   inkscape:version="0.48.5 r10040"
   width="640"
   height="640"
   xml:space="preserve"
   sodipodi:docname="19.svg"><metadata
     id="metadata8"><rdf:RDF><cc:Work
         rdf:about=""><dc:format>image/svg+xml</dc:format><dc:type
           rdf:resource="http://purl.org/dc/dcmitype/StillImage" /><dc:title /></cc:Work></rdf:RDF></metadata><defs
     id="defs6"><clipPath
       clipPathUnits="userSpaceOnUse"
       id="clipPath22"><path
         d="M 0,512 512,512 512,0 0,0 0,512 z"
         id="path24" /></clipPath><clipPath
       clipPathUnits="userSpaceOnUse"
       id="clipPath46"><path
         d="M 0,512 512,512 512,0 0,0 0,512 z"
         id="path48" /></clipPath></defs><sodipodi:namedview
     pagecolor="#ffffff"
     bordercolor="#666666"
     borderopacity="1"
     objecttolerance="10"
     gridtolerance="10"
     guidetolerance="10"
     inkscape:pageopacity="0"
     inkscape:pageshadow="2"
     inkscape:window-width="684"
     inkscape:window-height="480"
     id="namedview4"
     showgrid="false"
     inkscape:zoom="0.36875"
     inkscape:cx="320"
     inkscape:cy="320"
     inkscape:window-x="0"
     inkscape:window-y="25"
     inkscape:window-maximized="0"
     inkscape:current-layer="g10" /><g
     id="g10"
     inkscape:groupmode="layer"
     inkscape:label="人物"
     transform="matrix(1.25,0,0,-1.25,0,640)"><path
       d="M 0,0 512,0 512,1 0,1 0,0 z"
       style="fill:#ffffff;fill-opacity:1;fill-rule:nonzero;stroke:none"
       id="path12" /><g
       id="g14"
       transform="translate(0,0.9999)"><path
         d="M 0,0 0,-1 0,0 z"
         style="fill:#ffffff;fill-opacity:1;fill-rule:nonzero;stroke:none"
         id="path16" /></g><g
       id="g18"><g
         id="g20"
         clip-path="url(#clipPath22)"><path
           d="m 1024,-511 -512,0 0,512 512,0 0,-512 z"
           style="fill:#ffffff;fill-opacity:1;fill-rule:nonzero;stroke:none"
           id="path26" /><path
           d="m 1024,512 -512,0 0,512 512,0 0,-512 z"
           style="fill:#ffffff;fill-opacity:1;fill-rule:nonzero;stroke:none"
           id="path28" /><path
           d="m 512,512 -512,0 0,512 512,0 0,-512 z"
           style="fill:#ffffff;fill-opacity:1;fill-rule:nonzero;stroke:none"
           id="path30" /><path
           d="m 0,512 -512,0 0,512 512,0 0,-512 z"
           style="fill:#ffffff;fill-opacity:1;fill-rule:nonzero;stroke:none"
           id="path32" /><path
           d="m 1024,0 -512,0 0,512 512,0 0,-512 z"
           style="fill:#ffffff;fill-opacity:1;fill-rule:nonzero;stroke:none"
           id="path34" /></g></g><g
       id="g36"
       transform="translate(0,512.0001)"><path
         d="M 0,0 0,-512 0,0 z"
         style="fill:#ffffff;fill-opacity:1;fill-rule:nonzero;stroke:none"
         id="path38" /></g><path
       d="M 0,0 512,0 512,512 0,512 0,0 z"
       style="fill:#dbc594;fill-opacity:1;fill-rule:nonzero;stroke:none"
       id="path40" /><g
       id="g42"><g
         id="g44"
         clip-path="url(#clipPath46)"><g
           id="g50"
           transform="translate(456,256)"><path
             d="m 0,0 c 0,-110.457 -89.543,-200 -200,-200 -110.457,0 -200,89.543 -200,200 0,110.457 89.543,200 200,200 C -89.543,200 0,110.457 0,0"
             style="fill:#3bafda;fill-opacity:1;fill-rule:nonzero;stroke:none"
             id="path52" /></g><g
           id="g54"
           transform="translate(372.668,153.2109)"><path
             d="m 0,0 c -7.353,6.355 -19.364,14.563 -30.666,15.666 -7.258,0.709 -86.002,13 -86.002,13 0,0 -78.744,-12.291 -86.002,-13 -11.302,-1.103 -23.313,-9.311 -30.666,-15.666 -13.417,-11.598 -20.781,-25.84 -24.795,-38.711 36.195,-36.219 86.213,-58.621 141.463,-58.621 55.25,0 105.268,22.402 141.463,58.621 C 20.781,-25.84 13.417,-11.598 0,0"
             style="fill:#434a54;fill-opacity:1;fill-rule:nonzero;stroke:none"
             id="path56" /></g><g
           id="g58"
           transform="translate(250,55.9766)"><path
             d="m 0,0 c 1.994,-0.06 3.992,-0.098 6,-0.098 2.008,0 4.006,0.038 6,0.098 l 0,91.023 -12,0 L 0,0 z"
             style="fill:#272b30;fill-opacity:1;fill-rule:nonzero;stroke:none"
             id="path60" /></g><g
           id="g62"
           transform="translate(139.332,153.2109)"><path
             d="m 0,0 c -5.514,-4.766 -9.991,-9.981 -13.647,-15.361 1.681,-10.084 2.227,-22.374 2.061,-35.425 25.243,-21.122 55.774,-36.126 89.32,-42.745 0.743,17.528 -0.127,32.972 -4.421,39.82 -12.855,20.5 3.355,59.25 3.355,59.25 L 57.461,19.544 C 44.143,17.527 33.166,15.91 30.666,15.666 19.364,14.563 7.353,6.355 0,0"
             style="fill:#bdaa80;fill-opacity:1;fill-rule:nonzero;stroke:none"
             id="path64" /></g><g
           id="g66"
           transform="translate(214.1968,63.3369)"><path
             d="m 0,0 c -30.498,6.598 -59.249,20.541 -83.436,40.483 0.115,13.167 -0.531,24.361 -1.923,33.317 3.603,5.131 7.79,9.771 12.456,13.804 4.752,4.108 17.09,13.788 28.996,14.951 2.206,0.215 10.86,1.464 25.732,3.713 L -1.837,94.354 C -5.153,85.586 -15.944,53.468 -4.093,34.569 -1.826,30.954 0.657,22.014 0,0"
             style="fill:#dec896;fill-opacity:1;fill-rule:nonzero;stroke:none"
             id="path68" /></g><g
           id="g70"
           transform="translate(372.668,153.2109)"><path
             d="m 0,0 c 5.514,-4.766 9.991,-9.981 13.647,-15.361 -1.681,-10.084 -2.227,-22.374 -2.061,-35.425 -25.243,-21.122 -55.774,-36.126 -89.32,-42.745 -0.743,17.528 0.127,32.972 4.421,39.82 12.855,20.5 -3.355,59.25 -3.355,59.25 l 19.207,14.005 C -44.143,17.527 -33.166,15.91 -30.666,15.666 -19.364,14.563 -7.353,6.355 0,0"
             style="fill:#bdaa80;fill-opacity:1;fill-rule:nonzero;stroke:none"
             id="path72" /></g><g
           id="g74"
           transform="translate(297.8032,63.3369)"><path
             d="m 0,0 c -0.657,22.014 1.826,30.954 4.093,34.569 11.851,18.899 1.06,51.017 -2.256,59.785 l 16.338,11.914 C 33.047,104.019 41.701,102.77 43.907,102.555 55.813,101.392 68.151,91.712 72.903,87.604 77.569,83.571 81.756,78.931 85.359,73.8 83.967,64.844 83.321,53.65 83.436,40.483 59.249,20.541 30.498,6.598 0,0"
             style="fill:#dec896;fill-opacity:1;fill-rule:nonzero;stroke:none"
             id="path76" /></g><g
           id="g78"
           transform="translate(256,259.8789)"><path
             d="m 0,0 -42.25,5.5 16.307,-88.734 c 0,0 3.666,-30.766 25.943,-30.766 22.277,0 25.943,30.766 25.943,30.766 L 42.25,5.5 0,0 z"
             style="fill:#f9e0a8;fill-opacity:1;fill-rule:nonzero;stroke:none"
             id="path80" /></g><g
           id="g82"
           transform="translate(290,250.3789)"><path
             d="m 0,0 -69.525,-21.592 7.086,-38.556 c 10.66,-13.145 26.918,-25.186 50.957,-26.264 2.709,6.691 3.425,12.678 3.425,12.678 L 4.07,-7.744 C 1.686,-2.947 0,0 0,0"
             style="fill:#d9c392;fill-opacity:1;fill-rule:nonzero;stroke:none"
             id="path84" /></g><g
           id="g86"
           transform="translate(193,296.3789)"><path
             d="M 0,0 C 0,0 -21.309,13.5 -19.104,-14.5 -16.9,-42.5 0,-40.5 0,-40.5 L 0,0 z"
             style="fill:#f9e0a8;fill-opacity:1;fill-rule:nonzero;stroke:none"
             id="path88" /></g><g
           id="g90"
           transform="translate(319,296.3789)"><path
             d="M 0,0 C 0,0 21.31,13.5 19.104,-14.5 16.9,-42.5 0,-40.5 0,-40.5 L 0,0 z"
             style="fill:#f9e0a8;fill-opacity:1;fill-rule:nonzero;stroke:none"
             id="path92" /></g><g
           id="g94"
           transform="translate(256,368.6172)"><path
             d="m 0,0 c -63,0 -63,-34.738 -63,-34.738 l 0,-80 c 0,-20.5 19.237,-36.287 35.226,-50 13.408,-11.5 27.774,-11 27.774,-11 0,0 14.366,-0.5 27.774,11 15.989,13.713 35.226,29.5 35.226,50 l 0,80 C 63,-34.738 63,0 0,0"
             style="fill:#ffe9ba;fill-opacity:1;fill-rule:nonzero;stroke:none"
             id="path96" /></g><g
           id="g98"
           transform="translate(296.5,192.876)"><path
             d="M 0,0 C -3.562,0.837 12.265,24.124 32.132,29.124 52,34.124 82,38.882 80.5,56.503 80.5,56.503 92,-21.624 0,0"
             style="fill:#9c313c;fill-opacity:1;fill-rule:nonzero;stroke:none"
             id="path100" /></g><g
           id="g102"
           transform="translate(299.25,193.6562)"><path
             d="M 0,0 C 0,0 56.176,-35.844 99.213,0 99.213,0 87.25,-8.402 70.25,-3.779 53.25,0.844 58.75,31.656 0,0"
             style="fill:#c93f4d;fill-opacity:1;fill-rule:nonzero;stroke:none"
             id="path104" /></g><g
           id="g106"
           transform="translate(310.5312,189.5)"><path
             d="m 0,0 c 10.15,14.481 -12.219,28.5 -12.219,28.5 0,0 -23.711,-4.397 -42.312,-25.121 -18.602,20.724 -42.313,25.121 -42.313,25.121 0,0 -22.369,-14.019 -12.219,-28.5 0,0 -23.073,-3.742 -10.56,-17.621 C -107.109,-31.5 -85.531,-90 -54.531,-90 c 31,0 52.578,58.5 65.091,72.379 C 23.073,-3.742 0,0 0,0"
             style="fill:#c93f4d;fill-opacity:1;fill-rule:nonzero;stroke:none"
             id="path108" /></g><g
           id="g110"
           transform="translate(256,181.877)"><path
             d="M 0,0 C 0,0 -40.392,18.375 -38.696,10.999 -37,3.623 0,-14.877 0,-14.877 c 0,0 37,18.5 38.696,25.876 C 40.392,18.375 0,0 0,0"
             style="fill:#e04656;fill-opacity:1;fill-rule:nonzero;stroke:none"
             id="path112" /></g><g
           id="g114"
           transform="translate(303,172.7549)"><path
             d="m 0,0 c -3.5,7.255 -47,-26.876 -47,-26.876 0,0 -43.5,34.131 -47,26.876 -3.5,-7.255 47.221,-51.866 47,-52.744 C -47.5,-54.733 3.5,-7.255 0,0"
             style="fill:#e04656;fill-opacity:1;fill-rule:nonzero;stroke:none"
             id="path116" /></g><g
           id="g118"
           transform="translate(365.4287,324.9219)"><path
             d="m 0,0 c -2.848,12.609 -9.899,-3.203 -52.883,26.693 l -56.546,24.971 -56.545,-24.971 C -208.958,-3.203 -216.01,12.609 -218.857,0 c -2.848,-12.611 40.761,-27.279 54.659,-45.193 29.955,-38.609 79.584,-38.609 109.538,0 C -40.762,-27.279 2.848,-12.611 0,0"
             style="fill:#dec896;fill-opacity:1;fill-rule:nonzero;stroke:none"
             id="path120" /></g><g
           id="g122"
           transform="translate(288.8955,419.0508)"><path
             d="m 0,0 c -26.544,1.068 -31.845,-14.72 -32.896,-14.72 -1.051,0 -6.351,15.788 -32.895,14.72 -30.337,-1.221 -27.413,-77.713 -27.413,-77.713 0,0 4.004,-43.18 60.308,-43.18 56.305,0 60.309,43.18 60.309,43.18 0,0 2.923,76.492 -27.413,77.713"
             style="fill:#dec896;fill-opacity:1;fill-rule:nonzero;stroke:none"
             id="path124" /></g><g
           id="g126"
           transform="translate(256,318.1582)"><path
             d="m 0,0 c -49.394,0 -58.537,33.228 -60.038,41.385 -0.563,-10.527 -0.271,-18.205 -0.271,-18.205 0,0 4.004,-43.18 60.309,-43.18 56.305,0 60.309,43.18 60.309,43.18 0,0 0.292,7.678 -0.272,18.204 C 58.536,33.225 49.392,0 0,0"
             style="fill:#8f8061;fill-opacity:1;fill-rule:nonzero;stroke:none"
             id="path128" /></g><g
           id="g130"
           transform="translate(212.645,268.0596)"><path
             d="m 0,0 c -8.611,12.11 -19.686,29.118 -26.7,40.041 -2.525,20.136 -9.792,54.968 -30.341,67.67 -29.612,18.306 -8.65,-54.918 -9.166,-56.139 L 0,0 z"
             style="fill:#bdaa80;fill-opacity:1;fill-rule:nonzero;stroke:none"
             id="path132" /></g><g
           id="g134"
           transform="translate(299.355,268.0596)"><path
             d="m 0,0 c 8.611,12.11 19.686,29.118 26.7,40.041 2.525,20.136 9.792,54.968 30.341,67.67 29.612,18.306 8.65,-54.918 9.167,-56.139 L 0,0 z"
             style="fill:#bdaa80;fill-opacity:1;fill-rule:nonzero;stroke:none"
             id="path136" /></g><g
           id="g138"
           transform="translate(270.25,382.75)"><path
             d="m 0,0 c 0,12.484 -2.1,23.6 -5.37,30.788 -6.342,-4.187 -8.287,-9.207 -8.88,-9.207 -0.587,0 -2.502,4.917 -8.69,9.077 -3.235,-7.192 -5.31,-18.249 -5.31,-30.658 0,-21.678 6.324,-26.25 14.125,-26.25 C -6.324,-26.25 0,-21.678 0,0"
             style="fill:#bdaa80;fill-opacity:1;fill-rule:nonzero;stroke:none"
             id="path140" /></g></g></g></g></svg>