<?xml version="1.0" encoding="UTF-8" standalone="no"?>
<!-- Created with Inkscape (http://www.inkscape.org/) -->

<svg
   xmlns:dc="http://purl.org/dc/elements/1.1/"
   xmlns:cc="http://creativecommons.org/ns#"
   xmlns:rdf="http://www.w3.org/1999/02/22-rdf-syntax-ns#"
   xmlns:svg="http://www.w3.org/2000/svg"
   xmlns="http://www.w3.org/2000/svg"
   xmlns:sodipodi="http://sodipodi.sourceforge.net/DTD/sodipodi-0.dtd"
   xmlns:inkscape="http://www.inkscape.org/namespaces/inkscape"
   id="svg2"
   version="1.1"
   inkscape:version="0.48.5 r10040"
   width="640"
   height="640"
   xml:space="preserve"
   sodipodi:docname="2.svg"><metadata
     id="metadata8"><rdf:RDF><cc:Work
         rdf:about=""><dc:format>image/svg+xml</dc:format><dc:type
           rdf:resource="http://purl.org/dc/dcmitype/StillImage" /><dc:title /></cc:Work></rdf:RDF></metadata><defs
     id="defs6"><clipPath
       clipPathUnits="userSpaceOnUse"
       id="clipPath16"><path
         d="M 0,512 512,512 512,0 0,0 0,512 z"
         id="path18" /></clipPath><clipPath
       clipPathUnits="userSpaceOnUse"
       id="clipPath32"><path
         d="M 0,512 512,512 512,0 0,0 0,512 z"
         id="path34" /></clipPath><clipPath
       clipPathUnits="userSpaceOnUse"
       id="clipPath44"><path
         d="M 0,512 512,512 512,0 0,0 0,512 z"
         id="path46" /></clipPath></defs><sodipodi:namedview
     pagecolor="#ffffff"
     bordercolor="#666666"
     borderopacity="1"
     objecttolerance="10"
     gridtolerance="10"
     guidetolerance="10"
     inkscape:pageopacity="0"
     inkscape:pageshadow="2"
     inkscape:window-width="958"
     inkscape:window-height="1024"
     id="namedview4"
     showgrid="false"
     inkscape:zoom="0.36875"
     inkscape:cx="320"
     inkscape:cy="320"
     inkscape:window-x="960"
     inkscape:window-y="25"
     inkscape:window-maximized="0"
     inkscape:current-layer="g10" /><g
     id="g10"
     inkscape:groupmode="layer"
     inkscape:label="人物"
     transform="matrix(1.25,0,0,-1.25,0,640)"><g
       id="g12"><g
         id="g14"
         clip-path="url(#clipPath16)"><path
           d="m 1024,0 -512,0 0,512 512,0 0,-512 z"
           style="fill:#ffffff;fill-opacity:1;fill-rule:nonzero;stroke:none"
           id="path20" /></g></g><path
       d="M 0,0 512,0 512,512 0,512 0,0 z"
       style="fill:#60bbc1;fill-opacity:1;fill-rule:nonzero;stroke:none"
       id="path22" /><g
       id="g24"
       transform="translate(0,512.0001)"><path
         d="M 0,0 0,-512 0,0 z"
         style="fill:#ffffff;fill-opacity:1;fill-rule:nonzero;stroke:none"
         id="path26" /></g><g
       id="g28"><g
         id="g30"
         clip-path="url(#clipPath32)"><path
           d="m 1024,-512 -512,0 0,512 512,0 0,-512 z"
           style="fill:#ffffff;fill-opacity:1;fill-rule:nonzero;stroke:none"
           id="path36" /></g></g><path
       d="M 0,0 512,0 0,0 z"
       style="fill:#ffffff;fill-opacity:1;fill-rule:nonzero;stroke:none"
       id="path38" /><g
       id="g40"><g
         id="g42"
         clip-path="url(#clipPath44)"><g
           id="g48"
           transform="translate(456,256)"><path
             d="m 0,0 c 0,-110.457 -89.543,-200 -200,-200 -110.457,0 -200,89.543 -200,200 0,110.457 89.543,200 200,200 C -89.543,200 0,110.457 0,0"
             style="fill:#3bafda;fill-opacity:1;fill-rule:nonzero;stroke:none"
             id="path50" /></g><g
           id="g52"
           transform="translate(372.668,153.2109)"><path
             d="m 0,0 c -7.353,6.355 -19.364,14.563 -30.666,15.666 -7.258,0.709 -86.002,13 -86.002,13 0,0 -78.744,-12.291 -86.002,-13 -11.302,-1.103 -23.313,-9.311 -30.666,-15.666 -13.417,-11.598 -20.781,-25.84 -24.795,-38.711 36.195,-36.219 86.213,-58.621 141.463,-58.621 55.25,0 105.268,22.402 141.463,58.621 C 20.781,-25.84 13.417,-11.598 0,0"
             style="fill:#8cc152;fill-opacity:1;fill-rule:nonzero;stroke:none"
             id="path54" /></g><g
           id="g56"
           transform="translate(139.332,128.2109)"><path
             d="m 0,0 c 7.353,6.355 19.364,14.563 30.666,15.666 7.258,0.709 86.002,13 86.002,13 0,0 78.744,-12.291 86.002,-13 11.302,-1.103 23.313,-9.311 30.666,-15.666 7.412,-6.406 12.97,-13.621 17.143,-20.965 2.612,2.354 5.167,4.768 7.652,7.254 -4.014,12.871 -11.378,27.113 -24.795,38.711 -7.353,6.355 -19.364,14.563 -30.666,15.666 -7.258,0.709 -86.002,13 -86.002,13 0,0 -78.744,-12.291 -86.002,-13 C 19.364,39.563 7.353,31.355 0,25 -13.417,13.402 -20.781,-0.84 -24.795,-13.711 c 2.484,-2.486 5.04,-4.9 7.652,-7.254 C -12.97,-13.621 -7.412,-6.406 0,0"
             style="fill:#a0d468;fill-opacity:1;fill-rule:nonzero;stroke:none"
             id="path58" /></g><g
           id="g60"
           transform="translate(256,259.8789)"><path
             d="m 0,0 -42.25,5.5 16.307,-88.734 c 0,0 3.666,-30.766 25.943,-30.766 22.277,0 25.943,30.766 25.943,30.766 L 42.25,5.5 0,0 z"
             style="fill:#f9e0a8;fill-opacity:1;fill-rule:nonzero;stroke:none"
             id="path62" /></g><g
           id="g64"
           transform="translate(290,250.3789)"><path
             d="m 0,0 -69.525,-21.592 7.086,-38.556 c 10.66,-13.145 26.918,-25.186 50.957,-26.264 2.709,6.691 3.425,12.678 3.425,12.678 L 4.07,-7.744 C 1.686,-2.947 0,0 0,0"
             style="fill:#d9c392;fill-opacity:1;fill-rule:nonzero;stroke:none"
             id="path66" /></g><g
           id="g68"
           transform="translate(293.5322,177.2129)"><path
             d="m 0,0 -9.002,9.348 -25.89,-23.016 -2.64,-14 -2.641,14 L -66.063,9.348 -75.064,0 c -1.169,-1.215 -0.001,-3.209 -0.001,-3.209 0,0 13.458,-34.875 13.958,-38.875 0.5,-4 2.874,-2.25 2.874,-2.25 0,0 9.265,13.043 11.496,14 1.75,0.75 1.577,-1.383 1.577,-1.383 l -0.042,-43.496 15.34,0 -0.041,43.496 c 0,0 -0.175,2.108 1.575,1.358 2.23,-0.955 11.498,-13.988 11.498,-13.988 0,0 2.372,-1.743 2.872,2.257 0.5,4 13.959,38.877 13.959,38.877 0,0 1.168,1.998 -0.001,3.213"
             style="fill:#a0d468;fill-opacity:1;fill-rule:nonzero;stroke:none"
             id="path70" /></g><g
           id="g72"
           transform="translate(193,296.3789)"><path
             d="M 0,0 C 0,0 -21.309,13.5 -19.104,-14.5 -16.9,-42.5 0,-40.5 0,-40.5 L 0,0 z"
             style="fill:#f9e0a8;fill-opacity:1;fill-rule:nonzero;stroke:none"
             id="path74" /></g><g
           id="g76"
           transform="translate(319,296.3789)"><path
             d="M 0,0 C 0,0 21.31,13.5 19.104,-14.5 16.9,-42.5 0,-40.5 0,-40.5 L 0,0 z"
             style="fill:#f9e0a8;fill-opacity:1;fill-rule:nonzero;stroke:none"
             id="path78" /></g><g
           id="g80"
           transform="translate(256,368.6172)"><path
             d="m 0,0 c -63,0 -63,-34.738 -63,-34.738 l 0,-80 c 0,-20.5 19.237,-36.287 35.226,-50 13.408,-11.5 27.774,-11 27.774,-11 0,0 14.366,-0.5 27.774,11 15.989,13.713 35.226,29.5 35.226,50 l 0,80 C 63,-34.738 63,0 0,0"
             style="fill:#ffe9ba;fill-opacity:1;fill-rule:nonzero;stroke:none"
             id="path82" /></g><g
           id="g84"
           transform="translate(267.7886,225.3789)"><path
             d="m 0,0 c -3.625,-4.125 -11.375,0.625 -11.375,4.625 0,-4 -7.75,-8.75 -11.375,-4.625 -3.625,4.125 -11.375,0.75 -10.75,5.25 0.625,4.5 6.875,3.5 6.875,3.5 7.786,-1.869 15.071,7.229 15.25,6.98 0.179,0.249 7.464,-8.849 15.25,-6.98 0,0 6.25,1 6.875,-3.5 C 11.375,0.75 3.625,4.125 0,0 m 51.211,30.5 0,47.998 c 0,0 -3.356,-38.414 -10.908,-61.873 C 39.92,16.27 39.636,15.922 39.244,15.586 39.242,15.584 39.292,15.582 39.29,15.58 38.525,14.926 37.772,14.316 36.986,13.771 36.935,13.736 36.896,13.701 36.843,13.666 36.517,13.443 36.195,13.232 35.866,13.033 35.794,12.99 35.726,12.945 35.655,12.904 34.907,12.465 34.157,12.096 33.408,11.807 33.309,11.77 33.21,11.736 33.11,11.699 32.833,11.602 32.558,11.516 32.283,11.443 32.176,11.414 32.07,11.383 31.964,11.359 31.6,11.273 31.235,11.205 30.875,11.166 c -9.583,-1 -3.584,17 -42.25,17 -38.666,0 -32.667,-18 -42.25,-17 -0.36,0.039 -0.725,0.107 -1.089,0.193 -0.106,0.024 -0.213,0.055 -0.319,0.084 -0.276,0.073 -0.551,0.159 -0.828,0.256 -0.1,0.037 -0.2,0.071 -0.299,0.108 -0.749,0.289 -1.5,0.658 -2.248,1.097 -0.071,0.041 -0.143,0.086 -0.214,0.129 -0.329,0.199 -0.657,0.41 -0.983,0.633 -0.053,0.035 -0.105,0.07 -0.157,0.105 -0.786,0.545 -1.565,1.155 -2.33,1.809 l -0.006,0.006 c -0.391,0.336 -0.985,0.684 -1.368,1.039 -7.552,23.459 -11.323,61.873 -11.323,61.873 l 0,-47.998 c -5,-59.334 55.667,-69 63,-69 7.333,0 69,9.666 63,69"
             style="fill:#434a54;fill-opacity:1;fill-rule:nonzero;stroke:none"
             id="path86" /></g><g
           id="g88"
           transform="translate(323.7227,368.3789)"><path
             d="m 0,0 c -5.725,13.902 -31.884,20.527 -49.292,23.447 -1.119,16.157 -6.353,33.326 -21.958,41.303 0,0 6.25,-29.25 -2.5,-37.75 0,0 -3.5,18.5 -10.75,22.5 0,0 3.836,-15.475 -3.207,-26.488 C -105.02,19.891 -129.044,13.25 -134.5,0 c -8.75,-21.25 -8.75,-57.268 -5.618,-68.76 0,0 6.395,-1.24 9.395,-3.24 l 0,7.623 c 0,0 2.987,13.189 10.487,13.189 7.5,0 6.368,13.469 6.118,18.969 -0.23,5.043 8.237,21.184 36.626,11.104 2.056,-4.399 5.367,-8.885 10.213,-8.885 5.012,0 8.925,4.803 11.49,9.34 27.359,9.148 35.507,-6.592 35.282,-11.559 -0.25,-5.5 -1.733,-18.969 5.767,-18.969 7.5,0 10.017,-13.189 10.017,-13.189 l 0,-7.623 c 3,2 9.869,3.24 9.869,3.24 C 8.277,-57.268 8.75,-21.25 0,0"
             style="fill:#434a54;fill-opacity:1;fill-rule:nonzero;stroke:none"
             id="path90" /></g><g
           id="g92"
           transform="translate(189.2227,354.3789)"><path
             d="m 0,0 c 5.456,13.25 29.48,19.891 46.793,23.012 5.294,8.277 4.441,19.074 3.691,23.927 C 49.898,43.574 48.777,40.115 46.793,37.012 29.48,33.891 5.456,27.25 0,14 -6.236,-1.146 -7.906,-23.789 -7.218,-39.711 -6.678,-26.172 -4.562,-11.08 0,0"
             style="fill:#656d78;fill-opacity:1;fill-rule:nonzero;stroke:none"
             id="path94" /></g><g
           id="g96"
           transform="translate(274.4307,377.8262)"><path
             d="m 0,0 c 17.408,-2.92 43.567,-9.545 49.292,-23.447 4.562,-11.08 6.678,-26.172 7.218,-39.711 0.688,15.922 -0.982,38.564 -7.218,53.711 C 43.567,4.455 17.408,11.08 0,14 c -1.119,16.156 -6.353,33.326 -21.958,41.303 0,0 1.488,-6.983 1.994,-15.114 C -5.907,31.811 -1.069,15.445 0,0"
             style="fill:#656d78;fill-opacity:1;fill-rule:nonzero;stroke:none"
             id="path98" /></g><g
           id="g100"
           transform="translate(240.002,403.377)"><path
             d="m 0,0 c 6.721,-4.832 9.971,-21.998 9.971,-21.998 4.919,4.777 5.097,16.113 4.31,25.123 -0.552,-4.617 -1.824,-8.709 -4.31,-11.123 0,0 -3.5,18.5 -10.75,22.5 0,0 1.67,-6.748 0.779,-14.502"
             style="fill:#656d78;fill-opacity:1;fill-rule:nonzero;stroke:none"
             id="path102" /></g></g></g></g></svg>