<?xml version="1.0" encoding="UTF-8" standalone="no"?>
<!-- Created with Inkscape (http://www.inkscape.org/) -->

<svg
   xmlns:dc="http://purl.org/dc/elements/1.1/"
   xmlns:cc="http://creativecommons.org/ns#"
   xmlns:rdf="http://www.w3.org/1999/02/22-rdf-syntax-ns#"
   xmlns:svg="http://www.w3.org/2000/svg"
   xmlns="http://www.w3.org/2000/svg"
   xmlns:sodipodi="http://sodipodi.sourceforge.net/DTD/sodipodi-0.dtd"
   xmlns:inkscape="http://www.inkscape.org/namespaces/inkscape"
   id="svg2"
   version="1.1"
   inkscape:version="0.48.5 r10040"
   width="640"
   height="640"
   xml:space="preserve"
   sodipodi:docname="人物.ai"><metadata
     id="metadata8"><rdf:RDF><cc:Work
         rdf:about=""><dc:format>image/svg+xml</dc:format><dc:type
           rdf:resource="http://purl.org/dc/dcmitype/StillImage" /><dc:title></dc:title></cc:Work></rdf:RDF></metadata><defs
     id="defs6"><clipPath
       clipPathUnits="userSpaceOnUse"
       id="clipPath22"><path
         d="M 0,512 512,512 512,0 0,0 0,512 z"
         id="path24" /></clipPath><clipPath
       clipPathUnits="userSpaceOnUse"
       id="clipPath40"><path
         d="M 0,512 512,512 512,0 0,0 0,512 z"
         id="path42" /></clipPath></defs><sodipodi:namedview
     pagecolor="#ffffff"
     bordercolor="#666666"
     borderopacity="1"
     objecttolerance="10"
     gridtolerance="10"
     guidetolerance="10"
     inkscape:pageopacity="0"
     inkscape:pageshadow="2"
     inkscape:window-width="684"
     inkscape:window-height="480"
     id="namedview4"
     showgrid="false"
     inkscape:zoom="0.36875"
     inkscape:cx="320"
     inkscape:cy="320"
     inkscape:window-x="0"
     inkscape:window-y="25"
     inkscape:window-maximized="0"
     inkscape:current-layer="g10" /><g
     id="g10"
     inkscape:groupmode="layer"
     inkscape:label="人物"
     transform="matrix(1.25,0,0,-1.25,0,640)"><g
       id="g12"
       transform="translate(0,0.9999)"><path
         d="M 0,0 0,-1 0,0 z"
         style="fill:#ffffff;fill-opacity:1;fill-rule:nonzero;stroke:none"
         id="path14" /></g><path
       d="M 0,0 512,0 512,1 0,1 0,0 z"
       style="fill:#ffffff;fill-opacity:1;fill-rule:nonzero;stroke:none"
       id="path16" /><g
       id="g18"><g
         id="g20"
         clip-path="url(#clipPath22)"><path
           d="m 512,512 -512,0 0,512 512,0 0,-512 z"
           style="fill:#ffffff;fill-opacity:1;fill-rule:nonzero;stroke:none"
           id="path26" /><path
           d="m 0,512 -512,0 0,512 512,0 0,-512 z"
           style="fill:#ffffff;fill-opacity:1;fill-rule:nonzero;stroke:none"
           id="path28" /></g></g><path
       d="M 0,0 512,0 512,512 0,512 0,0 z"
       style="fill:#ffffff;fill-opacity:1;fill-rule:nonzero;stroke:none"
       id="path30" /><g
       id="g32"
       transform="translate(0,512.0001)"><path
         d="M 0,0 0,-512 0,0 z"
         style="fill:#ffffff;fill-opacity:1;fill-rule:nonzero;stroke:none"
         id="path34" /></g><g
       id="g36"><g
         id="g38"
         clip-path="url(#clipPath40)"><g
           id="g44"
           transform="translate(456,256)"><path
             d="m 0,0 c 0,-110.457 -89.543,-200 -200,-200 -110.457,0 -200,89.543 -200,200 0,110.457 89.543,200 200,200 C -89.543,200 0,110.457 0,0"
             style="fill:#8cc152;fill-opacity:1;fill-rule:nonzero;stroke:none"
             id="path46" /></g><g
           id="g48"
           transform="translate(302.6348,177.834)"><path
             d="m 0,0 c 0,0 -29.507,1.602 -43.666,2.504 -0.48,0.225 -1.015,0.332 -1.613,0.289 -0.413,-0.029 -0.873,-0.061 -1.356,-0.094 -0.482,0.033 -0.942,0.065 -1.355,0.094 -0.599,0.043 -1.133,-0.064 -1.614,-0.289 C -63.763,1.602 -93.27,0 -93.27,0 l -14.365,-22.835 9,-20.999 49.574,0 4.852,0 49.574,0 9,20.999 L 0,0 z"
             style="fill:#b54331;fill-opacity:1;fill-rule:nonzero;stroke:none"
             id="path50" /></g><g
           id="g52"
           transform="translate(372.668,152.2109)"><path
             d="m 0,0 c -7.353,6.355 -19.364,14.563 -30.666,15.666 -7.258,0.709 -86.002,13 -86.002,13 0,0 -78.744,-12.291 -86.002,-13 -11.302,-1.103 -23.313,-9.311 -30.666,-15.666 -13.417,-11.598 -20.781,-25.84 -24.795,-38.711 36.195,-36.219 86.213,-58.621 141.463,-58.621 55.25,0 105.268,22.402 141.463,58.621 C 20.781,-25.84 13.417,-11.598 0,0"
             style="fill:#434a54;fill-opacity:1;fill-rule:nonzero;stroke:none"
             id="path54" /></g><g
           id="g56"
           transform="translate(256,258.8789)"><path
             d="m 0,0 -42.25,5.5 16.307,-88.734 c 0,0 3.666,-30.766 25.943,-30.766 22.277,0 25.943,30.766 25.943,30.766 L 42.25,5.5 0,0 z"
             style="fill:#ab7049;fill-opacity:1;fill-rule:nonzero;stroke:none"
             id="path58" /></g><g
           id="g60"
           transform="translate(290,249.3789)"><path
             d="m 0,0 -69.525,-21.592 7.086,-38.556 c 10.66,-13.145 26.918,-25.186 50.957,-26.264 2.709,6.691 3.425,12.678 3.425,12.678 L 4.07,-7.744 C 1.686,-2.947 0,0 0,0"
             style="fill:#8c5c3c;fill-opacity:1;fill-rule:nonzero;stroke:none"
             id="path62" /></g><g
           id="g64"
           transform="translate(302.8008,178)"><path
             d="m 0,0 c 3.836,-21.828 -4.028,-58.521 -46.801,-59.096 -42.772,0.575 -50.637,37.268 -46.801,59.096 -30.753,2.877 -65.199,-18.001 -65.199,-18.001 17.635,-31.495 20.495,-59.057 17.317,-81.202 28.185,-15.178 60.426,-23.797 94.683,-23.797 34.257,0 66.498,8.619 94.684,23.797 -3.179,22.145 -0.319,49.707 17.316,81.202 0,0 -34.445,20.878 -65.199,18.001"
             style="fill:#e9573f;fill-opacity:1;fill-rule:nonzero;stroke:none"
             id="path66" /></g><g
           id="g68"
           transform="translate(256,55)"><path
             d="m 0,0 c 32.624,0 63.411,7.831 90.617,21.686 -0.728,25.403 5.074,59.394 17.329,82.164 -7.713,4.222 -32.005,16.422 -55.163,16.422 -0.855,0 -1.706,-0.017 -2.547,-0.05 C 51.748,107.312 49.542,90.228 39.017,77.52 30.074,66.722 16.961,61.132 -0.04,60.904 c -16.921,0.228 -30.034,5.818 -38.977,16.616 -10.525,12.708 -12.731,29.792 -11.219,42.702 -0.841,0.033 -1.692,0.05 -2.547,0.05 -23.159,0 -47.45,-12.2 -55.163,-16.422 C -95.691,81.08 -89.889,47.089 -90.617,21.686 -63.411,7.831 -32.624,0 0,0"
             style="fill:#fc5e44;fill-opacity:1;fill-rule:nonzero;stroke:none"
             id="path70" /></g><g
           id="g72"
           transform="translate(242,94.999)"><path
             d="M 0,0 8.333,-13.666 46.333,2 9.333,-7.333 0,0 z"
             style="fill:#ffffff;fill-opacity:1;fill-rule:nonzero;stroke:none"
             id="path74" /></g><g
           id="g76"
           transform="translate(193,296.3789)"><path
             d="M 0,0 C 0,0 -21.309,13.5 -19.104,-14.5 -16.9,-42.5 0,-40.5 0,-40.5 L 0,0 z"
             style="fill:#ab7049;fill-opacity:1;fill-rule:nonzero;stroke:none"
             id="path78" /></g><g
           id="g80"
           transform="translate(319,296.3789)"><path
             d="M 0,0 C 0,0 21.31,13.5 19.104,-14.5 16.9,-42.5 0,-40.5 0,-40.5 L 0,0 z"
             style="fill:#ab7049;fill-opacity:1;fill-rule:nonzero;stroke:none"
             id="path82" /></g><g
           id="g84"
           transform="translate(256,375)"><path
             d="m 0,0 c -63,0 -63,-41.121 -63,-41.121 l 0,-80 c 0,-20.5 19.237,-36.287 35.226,-50 13.408,-11.5 27.774,-11 27.774,-11 0,0 14.366,-0.5 27.774,11 15.989,13.713 35.226,29.5 35.226,50 l 0,80 C 63,-41.121 63,0 0,0"
             style="fill:#ba7a50;fill-opacity:1;fill-rule:nonzero;stroke:none"
             id="path86" /></g><g
           id="g88"
           transform="translate(256,392.5)"><path
             d="m 0,0 c -64.557,0 -65,-42.137 -65,-42.137 l 0,-81.977 c 0,-3.99 0.723,-7.805 2,-11.465 l 0,63.474 62,28.105 64,-23.5 0,-68.065 c 1.277,3.656 2,7.465 2,11.451 l 0,81.977 C 65,-42.137 64.557,0 0,0"
             style="fill:#434a54;fill-opacity:1;fill-rule:nonzero;stroke:none"
             id="path90" /></g><g
           id="g92"
           transform="translate(314.6367,307.9814)"><path
             d="m 0,0 c -0.329,0.539 -0.225,0.379 0,0 m -117.273,0 c 0.224,0.379 0.329,0.539 0,0 M 18.224,11.873 c -4.671,8.97 -11.912,16.27 -19.109,21.796 -17.134,13.158 -37.35,18.083 -57.253,18.347 -0.1,0.002 -0.195,0.015 -0.299,0.015 -0.066,0 -0.133,-0.004 -0.2,-0.005 -0.067,10e-4 -0.134,0.005 -0.201,0.005 -0.102,0 -0.197,-0.013 -0.298,-0.015 -19.902,-0.264 -40.12,-5.189 -57.253,-18.347 -7.196,-5.526 -14.437,-12.826 -19.108,-21.796 -7.211,-13.849 10.491,-26.632 17.648,-12.888 0.006,0.013 0.014,0.025 0.02,0.036 0.585,0.875 1.188,1.727 1.812,2.554 1.349,1.789 2.803,3.447 4.296,5.043 0.358,0.379 0.72,0.753 1.085,1.122 0.01,0.009 0.014,0.014 0.023,0.023 0.088,0.08 0.191,0.174 0.318,0.293 1.126,1.043 2.292,2.013 3.466,2.967 13.899,11.289 30.882,15.303 48.192,15.467 17.311,-0.164 34.292,-4.178 48.193,-15.467 1.173,-0.954 2.34,-1.924 3.465,-2.967 0.127,-0.119 0.231,-0.213 0.319,-0.293 0.009,-0.009 0.013,-0.014 0.021,-0.023 0.366,-0.369 0.728,-0.743 1.086,-1.122 1.493,-1.596 2.948,-3.254 4.296,-5.043 0.623,-0.827 1.228,-1.679 1.812,-2.554 0.006,-0.011 0.014,-0.023 0.02,-0.036 7.157,-13.744 24.86,-0.961 17.649,12.888"
             style="fill:#e9573f;fill-opacity:1;fill-rule:nonzero;stroke:none"
             id="path94" /></g><g
           id="g96"
           transform="translate(179.1396,315.1211)"><path
             d="m 0,0 c 4.671,8.97 11.912,16.27 19.108,21.796 17.133,13.158 37.351,18.083 57.253,18.347 0.101,0.002 0.196,0.015 0.298,0.015 0.068,0 0.134,-0.004 0.201,-0.005 0.067,0.001 0.134,0.005 0.201,0.005 0.103,0 0.198,-0.013 0.298,-0.015 19.903,-0.264 40.12,-5.189 57.253,-18.347 C 141.809,16.27 149.05,8.97 153.721,0 c 0.525,-1.009 0.903,-2.01 1.178,-2.997 0.878,3.015 0.702,6.546 -1.178,10.156 -4.671,8.97 -11.912,16.27 -19.109,21.796 -17.133,13.158 -37.35,18.083 -57.253,18.347 -0.1,0.002 -0.195,0.015 -0.298,0.015 -0.067,0 -0.134,-0.004 -0.201,-0.004 -0.067,0 -0.133,0.004 -0.201,0.004 -0.102,0 -0.197,-0.013 -0.298,-0.015 C 56.459,47.038 36.241,42.113 19.108,28.955 11.912,23.429 4.671,16.129 0,7.159 -1.88,3.549 -2.057,0.018 -1.179,-2.997 -0.903,-2.01 -0.525,-1.009 0,0"
             style="fill:#fc5e44;fill-opacity:1;fill-rule:nonzero;stroke:none"
             id="path98" /></g></g></g></g></svg>