<?xml version="1.0" encoding="UTF-8" standalone="no"?>
<!-- Created with Inkscape (http://www.inkscape.org/) -->

<svg
   xmlns:dc="http://purl.org/dc/elements/1.1/"
   xmlns:cc="http://creativecommons.org/ns#"
   xmlns:rdf="http://www.w3.org/1999/02/22-rdf-syntax-ns#"
   xmlns:svg="http://www.w3.org/2000/svg"
   xmlns="http://www.w3.org/2000/svg"
   xmlns:sodipodi="http://sodipodi.sourceforge.net/DTD/sodipodi-0.dtd"
   xmlns:inkscape="http://www.inkscape.org/namespaces/inkscape"
   id="svg2"
   version="1.1"
   inkscape:version="0.48.5 r10040"
   width="640"
   height="640"
   xml:space="preserve"
   sodipodi:docname="21.svg"><metadata
     id="metadata8"><rdf:RDF><cc:Work
         rdf:about=""><dc:format>image/svg+xml</dc:format><dc:type
           rdf:resource="http://purl.org/dc/dcmitype/StillImage" /><dc:title /></cc:Work></rdf:RDF></metadata><defs
     id="defs6"><clipPath
       clipPathUnits="userSpaceOnUse"
       id="clipPath16"><path
         d="M 0,512 512,512 512,0 0,0 0,512 z"
         id="path18" /></clipPath><clipPath
       clipPathUnits="userSpaceOnUse"
       id="clipPath30"><path
         d="M 0,512 512,512 512,0 0,0 0,512 z"
         id="path32" /></clipPath><clipPath
       clipPathUnits="userSpaceOnUse"
       id="clipPath44"><path
         d="M 0,512 512,512 512,0 0,0 0,512 z"
         id="path46" /></clipPath></defs><sodipodi:namedview
     pagecolor="#ffffff"
     bordercolor="#666666"
     borderopacity="1"
     objecttolerance="10"
     gridtolerance="10"
     guidetolerance="10"
     inkscape:pageopacity="0"
     inkscape:pageshadow="2"
     inkscape:window-width="1912"
     inkscape:window-height="480"
     id="namedview4"
     showgrid="false"
     inkscape:zoom="0.36875"
     inkscape:cx="-141.01695"
     inkscape:cy="320"
     inkscape:window-x="0"
     inkscape:window-y="25"
     inkscape:window-maximized="0"
     inkscape:current-layer="g10" /><g
     id="g10"
     inkscape:groupmode="layer"
     inkscape:label="人物"
     transform="matrix(1.25,0,0,-1.25,0,640)"><g
       id="g12"><g
         id="g14"
         clip-path="url(#clipPath16)"><path
           d="m 1024,0 -512,0 0,512 512,0 0,-512 z"
           style="fill:#ffffff;fill-opacity:1;fill-rule:nonzero;stroke:none"
           id="path20" /></g></g><path
       d="M 0,0 512,0 512,512 0,512 0,0 z"
       style="fill:#9370db;fill-opacity:1;fill-rule:nonzero;stroke:none"
       id="path22" /><path
       d="M 0,0 512,0 0,0 z"
       style="fill:#ffffff;fill-opacity:1;fill-rule:nonzero;stroke:none"
       id="path24" /><g
       id="g26"><g
         id="g28"
         clip-path="url(#clipPath30)"><path
           d="m 1024,-512 -512,0 0,512 512,0 0,-512 z"
           style="fill:#ffffff;fill-opacity:1;fill-rule:nonzero;stroke:none"
           id="path34" /><path
           d="m 1024,511 -512,0 0,512 512,0 0,-512 z"
           style="fill:#ffffff;fill-opacity:1;fill-rule:nonzero;stroke:none"
           id="path36" /></g></g><path
       d="m 0,511 512,0 0,1 -512,0 0,-1 z"
       style="fill:#ffffff;fill-opacity:1;fill-rule:nonzero;stroke:none"
       id="path38" /><g
       id="g40"><g
         id="g42"
         clip-path="url(#clipPath44)"><g
           id="g48"
           transform="translate(456,256)"><path
             d="m 0,0 c 0,-110.457 -89.543,-200 -200,-200 -110.457,0 -200,89.543 -200,200 0,110.457 89.543,200 200,200 C -89.543,200 0,110.457 0,0"
             style="fill:#f6bb42;fill-opacity:1;fill-rule:nonzero;stroke:none"
             id="path50" /></g><path
           d="m 333,130 -153,0 0,170 153,0 0,-170 z"
           style="fill:#2d3138;fill-opacity:1;fill-rule:nonzero;stroke:none"
           id="path52" /><g
           id="g54"
           transform="translate(372.668,143.333)"><path
             d="m 0,0 c -7.353,6.355 -19.364,14.562 -30.666,15.666 -2.679,0.262 -15.099,3.464 -29.7,7.4 0.064,-0.017 0.13,-0.035 0.194,-0.052 -0.082,-30.811 -25.169,-55.853 -55.999,-55.853 -30.88,0 -56.003,25.123 -56.003,56.003 0,0.039 0.002,0.078 0.002,0.117 0.173,0.046 0.348,0.094 0.521,0.141 -15.167,-4.097 -28.259,-7.486 -31.019,-7.756 -11.302,-1.104 -23.313,-9.311 -30.666,-15.666 -13.235,-11.44 -10.854,-25.454 -14.641,-38.188 35.133,-30.606 81.055,-49.145 131.309,-49.145 50.254,0 96.176,18.539 131.309,49.145 C 10.854,-25.454 13.235,-11.44 0,0"
             style="fill:#ec87c0;fill-opacity:1;fill-rule:nonzero;stroke:none"
             id="path56" /></g><g
           id="g58"
           transform="translate(200.4941,166.4971)"><path
             d="m 0,0 c 0,-30.88 25.123,-56.003 56.003,-56.003 30.83,0 55.917,25.042 55.999,55.853 -0.064,0.017 -0.13,0.035 -0.194,0.052 -0.706,0.191 -1.415,0.382 -2.13,0.576 -0.018,0.003 -0.033,0.008 -0.051,0.013 -0.878,0.238 -1.762,0.477 -2.652,0.719 0.009,-0.404 0.031,-0.805 0.031,-1.21 0,-28.168 -22.835,-51.003 -51.003,-51.003 C 27.835,-51.003 5,-28.168 5,0 5,0.497 5.023,0.988 5.037,1.481 4.763,1.406 4.488,1.332 4.215,1.258 3.799,1.145 3.384,1.032 2.97,0.92 2.66,0.836 2.352,0.752 2.043,0.669 1.533,0.531 1.027,0.395 0.522,0.258 0.35,0.211 0.175,0.163 0.002,0.117 0.002,0.078 0,0.039 0,0"
             style="fill:#d770ad;fill-opacity:1;fill-rule:nonzero;stroke:none"
             id="path60" /></g><g
           id="g62"
           transform="translate(307.4687,167.707)"><path
             d="m 0,0 c -8.646,2.348 -17.734,4.857 -25.838,7.109 0.225,1.222 0.313,1.95 0.313,1.95 l 16.306,88.734 -42.25,-5.5 -42.25,5.5 16.307,-88.734 c 0,0 0.088,-0.727 0.312,-1.95 -0.095,-0.027 -0.191,-0.053 -0.287,-0.08 -0.136,-0.038 -0.274,-0.076 -0.412,-0.115 -0.037,-0.01 -0.073,-0.019 -0.109,-0.029 -0.249,-0.07 -0.494,-0.138 -0.745,-0.207 -0.323,-0.09 -0.65,-0.181 -0.975,-0.272 -0.044,-0.011 -0.088,-0.023 -0.132,-0.036 -0.271,-0.075 -0.541,-0.149 -0.812,-0.225 -0.211,-0.059 -0.424,-0.118 -0.637,-0.176 -0.529,-0.148 -1.062,-0.295 -1.598,-0.444 -0.22,-0.06 -0.442,-0.123 -0.664,-0.183 -0.468,-0.13 -0.938,-0.26 -1.41,-0.391 -0.275,-0.076 -0.551,-0.152 -0.828,-0.228 -0.539,-0.15 -1.082,-0.299 -1.625,-0.45 -0.241,-0.066 -0.482,-0.132 -0.725,-0.199 -0.125,-0.035 -0.25,-0.069 -0.376,-0.103 -0.026,-0.008 -0.052,-0.015 -0.079,-0.023 -0.474,-0.131 -0.951,-0.261 -1.427,-0.393 -0.323,-0.088 -0.646,-0.178 -0.969,-0.266 -0.428,-0.118 -0.857,-0.236 -1.285,-0.353 -0.311,-0.086 -0.621,-0.171 -0.933,-0.257 -0.438,-0.12 -0.876,-0.241 -1.313,-0.361 -0.292,-0.08 -0.583,-0.16 -0.874,-0.239 -0.652,-0.179 -1.301,-0.356 -1.951,-0.534 -0.074,-0.02 -0.146,-0.04 -0.22,-0.061 -0.73,-0.199 -1.458,-0.398 -2.186,-0.595 -0.243,-0.067 -0.485,-0.133 -0.728,-0.2 -0.479,-0.129 -0.957,-0.26 -1.434,-0.39 -0.035,-0.009 -0.068,-0.018 -0.104,-0.028 -0.013,-0.493 -0.037,-0.984 -0.037,-1.481 0,-28.168 22.835,-51.003 51.003,-51.003 28.168,0 51.003,22.835 51.003,51.003 C 0.031,-0.805 0.01,-0.404 0,0"
             style="fill:#f9e0a8;fill-opacity:1;fill-rule:nonzero;stroke:none"
             id="path64" /></g><g
           id="g66"
           transform="translate(290,250.5)"><path
             d="m 0,0 -69.525,-21.592 7.086,-38.555 c 10.66,-13.146 26.918,-25.187 50.957,-26.265 2.709,6.691 3.425,12.678 3.425,12.678 L 4.07,-7.744 C 1.686,-2.947 0,0 0,0"
             style="fill:#d9c392;fill-opacity:1;fill-rule:nonzero;stroke:none"
             id="path68" /></g><g
           id="g70"
           transform="translate(256,358)"><path
             d="m 0,0 -63,0 c 0,0 4.785,-94.465 11,-114 7,-22.001 14.237,-27.287 30.226,-41 C -8.366,-166.5 0,-165 0,-165 c 0,0 8.366,-1.5 21.774,10 C 37.763,-141.287 46,-136.001 53,-114 59.215,-94.465 63,0 63,0 L 0,0 z"
             style="fill:#ffe9ba;fill-opacity:1;fill-rule:nonzero;stroke:none"
             id="path72" /></g><g
           id="g74"
           transform="translate(197.75,297.5)"><path
             d="m 0,0 c 0,0 -22.743,10.911 -17.273,-16.638 5.467,-27.55 22.017,-23.583 22.017,-23.583 L 0,0 z"
             style="fill:#f9e0a8;fill-opacity:1;fill-rule:nonzero;stroke:none"
             id="path76" /></g><g
           id="g78"
           transform="translate(315.25,297.5)"><path
             d="M 0,0 C 0,0 22.743,10.911 17.273,-16.638 11.806,-44.188 -4.744,-40.221 -4.744,-40.221 L 0,0 z"
             style="fill:#f9e0a8;fill-opacity:1;fill-rule:nonzero;stroke:none"
             id="path80" /></g><g
           id="g82"
           transform="translate(256,410)"><path
             d="m 0,0 c -122,0 -77,-193.979 -82,-237 -5,-43.021 59.375,-57.506 59.375,-57.506 -45.764,58.169 -34.307,159.974 -34.307,159.974 53.823,10.346 78.465,30.924 89.733,47.022 4.609,-12.114 12.086,-27.633 24.131,-47.022 0,0 11.457,-101.805 -34.307,-159.974 0,0 64.375,14.485 59.375,57.506 C 77,-193.979 122,0 0,0"
             style="fill:#434a54;fill-opacity:1;fill-rule:nonzero;stroke:none"
             id="path84" /></g><g
           id="g86"
           transform="translate(314.0781,237.3496)"><path
             d="m 0,0 c -0.951,-34.939 -7.614,-86.471 -35.453,-121.855 0,0 6.217,1.399 14.634,4.617 C -1.086,-76.683 0.734,-26.766 0,0"
             style="fill:#656d78;fill-opacity:1;fill-rule:nonzero;stroke:none"
             id="path88" /></g><g
           id="g90"
           transform="translate(256,391)"><path
             d="M 0,0 C 69.291,0 84.71,-62.573 86.017,-124.524 87.311,-57.087 76.408,19 0,19 -76.408,19 -87.311,-57.087 -86.017,-124.524 -84.71,-62.573 -69.291,0 0,0"
             style="fill:#656d78;fill-opacity:1;fill-rule:nonzero;stroke:none"
             id="path92" /></g><g
           id="g94"
           transform="translate(218.7412,120.1113)"><path
             d="M 0,0 C 8.417,-3.218 14.634,-4.617 14.634,-4.617 -13.205,30.768 -19.868,82.299 -20.819,117.238 -21.554,90.473 -19.733,40.556 0,0"
             style="fill:#656d78;fill-opacity:1;fill-rule:nonzero;stroke:none"
             id="path96" /></g><g
           id="g98"
           transform="translate(288.8008,322.4902)"><path
             d="m 0,0 c 0,0 -12.665,-56.055 -89.732,-47.022 0,0 57.431,11.532 89.732,47.022"
             style="fill:#656d78;fill-opacity:1;fill-rule:nonzero;stroke:none"
             id="path100" /></g><g
           id="g102"
           transform="translate(283.5,367)"><path
             d="m 0,0 c 0,0 -15.879,-43 -92.439,-72.5 0,0 69.939,-2 92.439,72.5"
             style="fill:#656d78;fill-opacity:1;fill-rule:nonzero;stroke:none"
             id="path104" /></g></g></g></g></svg>