<?xml version="1.0" encoding="UTF-8" standalone="no"?>
<!-- Created with Inkscape (http://www.inkscape.org/) -->

<svg
   xmlns:dc="http://purl.org/dc/elements/1.1/"
   xmlns:cc="http://creativecommons.org/ns#"
   xmlns:rdf="http://www.w3.org/1999/02/22-rdf-syntax-ns#"
   xmlns:svg="http://www.w3.org/2000/svg"
   xmlns="http://www.w3.org/2000/svg"
   xmlns:sodipodi="http://sodipodi.sourceforge.net/DTD/sodipodi-0.dtd"
   xmlns:inkscape="http://www.inkscape.org/namespaces/inkscape"
   id="svg2"
   version="1.1"
   inkscape:version="0.48.5 r10040"
   width="640"
   height="640"
   xml:space="preserve"
   sodipodi:docname="人物.ai"><metadata
     id="metadata8"><rdf:RDF><cc:Work
         rdf:about=""><dc:format>image/svg+xml</dc:format><dc:type
           rdf:resource="http://purl.org/dc/dcmitype/StillImage" /><dc:title></dc:title></cc:Work></rdf:RDF></metadata><defs
     id="defs6"><clipPath
       clipPathUnits="userSpaceOnUse"
       id="clipPath22"><path
         d="M 0,512 512,512 512,0 0,0 0,512 z"
         id="path24" /></clipPath><clipPath
       clipPathUnits="userSpaceOnUse"
       id="clipPath32"><path
         d="M 0,512 512,512 512,0 0,0 0,512 z"
         id="path34" /></clipPath><clipPath
       clipPathUnits="userSpaceOnUse"
       id="clipPath44"><path
         d="M 0,512 512,512 512,0 0,0 0,512 z"
         id="path46" /></clipPath><clipPath
       clipPathUnits="userSpaceOnUse"
       id="clipPath60"><path
         d="M 0,512 512,512 512,0 0,0 0,512 z"
         id="path62" /></clipPath></defs><sodipodi:namedview
     pagecolor="#ffffff"
     bordercolor="#666666"
     borderopacity="1"
     objecttolerance="10"
     gridtolerance="10"
     guidetolerance="10"
     inkscape:pageopacity="0"
     inkscape:pageshadow="2"
     inkscape:window-width="684"
     inkscape:window-height="480"
     id="namedview4"
     showgrid="false"
     inkscape:zoom="0.36875"
     inkscape:cx="320"
     inkscape:cy="320"
     inkscape:window-x="0"
     inkscape:window-y="25"
     inkscape:window-maximized="0"
     inkscape:current-layer="g10" /><g
     id="g10"
     inkscape:groupmode="layer"
     inkscape:label="人物"
     transform="matrix(1.25,0,0,-1.25,0,640)"><path
       d="M 0,0 512,0 512,512 0,512 0,0 z"
       style="fill:#ffffff;fill-opacity:1;fill-rule:nonzero;stroke:none"
       id="path12" /><g
       id="g14"
       transform="translate(0,512.0001)"><path
         d="M 0,0 0,-512 0,0 z"
         style="fill:#ffffff;fill-opacity:1;fill-rule:nonzero;stroke:none"
         id="path16" /></g><g
       id="g18"><g
         id="g20"
         clip-path="url(#clipPath22)"><path
           d="m 1024,0 -512,0 0,512 512,0 0,-512 z"
           style="fill:#ffffff;fill-opacity:1;fill-rule:nonzero;stroke:none"
           id="path26" /></g></g><g
       id="g28"><g
         id="g30"
         clip-path="url(#clipPath32)"><path
           d="m 1024,-512 -512,0 0,512 512,0 0,-512 z"
           style="fill:#ffffff;fill-opacity:1;fill-rule:nonzero;stroke:none"
           id="path36" /></g></g><path
       d="M 0,0 512,0 0,0 z"
       style="fill:#ffffff;fill-opacity:1;fill-rule:nonzero;stroke:none"
       id="path38" /><g
       id="g40"><g
         id="g42"
         clip-path="url(#clipPath44)"><path
           d="m 1024,511 -512,0 0,512 512,0 0,-512 z"
           style="fill:#ffffff;fill-opacity:1;fill-rule:nonzero;stroke:none"
           id="path48" /></g></g><path
       d="m 0,511 512,0 0,1 -512,0 0,-1 z"
       style="fill:#ffffff;fill-opacity:1;fill-rule:nonzero;stroke:none"
       id="path50" /><g
       id="g52"
       transform="translate(0,512.0001)"><path
         d="M 0,0 0,-1 0,0 z"
         style="fill:#ffffff;fill-opacity:1;fill-rule:nonzero;stroke:none"
         id="path54" /></g><g
       id="g56"><g
         id="g58"
         clip-path="url(#clipPath60)"><g
           id="g64"
           transform="translate(456,256)"><path
             d="m 0,0 c 0,-110.457 -89.543,-200 -200,-200 -110.457,0 -200,89.543 -200,200 0,110.457 89.543,200 200,200 C -89.543,200 0,110.457 0,0"
             style="fill:#967adc;fill-opacity:1;fill-rule:nonzero;stroke:none"
             id="path66" /></g><g
           id="g68"
           transform="translate(359.334,190.2402)"><path
             d="M 0,0 C 1.334,30.333 -26.461,51.334 -26.461,51.334 L -101.834,38 l 0.449,-6.24 -3.898,0 0.449,6.24 -75.373,13.334 c 0,0 -27.795,-21.001 -26.461,-51.334 1.334,-30.333 -32,-22.666 -32,-22.666 0,0 9.334,-19 33.334,-7.667 0,0 -14.334,-12.999 5.666,-31.333 20,-18.334 87.667,0 87.667,0 l 3.41,47.426 10.514,0 3.41,-47.426 c 0,0 67.667,-18.334 87.667,0 20,18.334 5.666,31.333 5.666,31.333 24,-11.333 33.334,7.667 33.334,7.667 0,0 -33.334,-7.667 -32,22.666"
             style="fill:#f6bb42;fill-opacity:1;fill-rule:nonzero;stroke:none"
             id="path70" /></g><g
           id="g72"
           transform="translate(372.668,142.2109)"><path
             d="m 0,0 c -7.354,6.355 -19.364,14.563 -30.666,15.666 -4.515,0.441 -36.694,9.234 -60.372,15.818 0.226,1.221 0.313,1.95 0.313,1.95 l 16.307,88.734 -42.25,-5.5 -42.25,5.5 16.307,-88.734 c 0,0 0.087,-0.729 0.313,-1.95 C -165.976,24.9 -198.155,16.107 -202.67,15.666 -213.972,14.563 -225.983,6.355 -233.336,0 c -13.235,-11.439 -10.854,-25.453 -14.641,-38.188 35.133,-30.605 81.055,-49.144 131.309,-49.144 50.254,0 96.176,18.539 131.309,49.144 C 10.854,-25.453 13.235,-11.439 0,0"
             style="fill:#f9e0a8;fill-opacity:1;fill-rule:nonzero;stroke:none"
             id="path74" /></g><g
           id="g76"
           transform="translate(290,249.3789)"><path
             d="m 0,0 -69.525,-21.592 7.086,-38.556 c 10.66,-13.145 26.918,-25.186 50.957,-26.264 2.709,6.691 3.425,12.678 3.425,12.678 L 4.07,-7.744 C 1.686,-2.947 0,0 0,0"
             style="fill:#d9c392;fill-opacity:1;fill-rule:nonzero;stroke:none"
             id="path78" /></g><g
           id="g80"
           transform="translate(330.6387,160.4492)"><path
             d="m 0,0 c -1.641,0.416 -3.408,0.871 -5.285,1.359 -1.703,-22.322 -7.469,-66.48 -26.305,-61.097 -22.543,6.443 -40.01,-21.789 -43.311,-25.373 -3.21,3.584 -20.221,31.816 -42.765,25.373 -18.855,-5.387 -24.453,38.865 -26.07,61.166 -1.746,-0.457 -3.409,-0.885 -4.957,-1.28 l 0.464,-63.386 c 0,0 -6.882,-11.227 -16.24,-21.055 27.011,-13.605 57.522,-21.277 89.83,-21.277 32.381,0 62.957,7.707 90.014,21.369 -9.162,9.806 -15.838,20.963 -15.838,20.963 L 0,0 z"
             style="fill:#f5f7fa;fill-opacity:1;fill-rule:nonzero;stroke:none"
             id="path82" /></g><g
           id="g84"
           transform="translate(256,111.625)"><path
             d="m 0,0 c -32.198,0 -45.03,57.686 -45.156,58.269 l 0.978,0.21 C -44.054,57.904 -31.395,1 0,1 31.4,1 44.054,57.904 44.178,58.479 l 0.978,-0.21 C 45.03,57.686 32.198,0 0,0"
             style="fill:#f5f7fa;fill-opacity:1;fill-rule:nonzero;stroke:none"
             id="path86" /></g><g
           id="g88"
           transform="translate(257.4141,97.4287)"><path
             d="m 0,0 c -0.777,-0.777 -2.051,-0.777 -2.828,0 l -5.657,5.657 c -0.779,0.778 -0.779,2.051 0,2.828 l 5.657,5.658 c 0.777,0.777 2.051,0.777 2.828,0 L 5.657,8.485 c 0.779,-0.777 0.779,-2.05 0,-2.828 L 0,0 z"
             style="fill:#f5f7fa;fill-opacity:1;fill-rule:nonzero;stroke:none"
             id="path90" /></g><g
           id="g92"
           transform="translate(261.6572,105)"><path
             d="M 0,0 -5.657,5.157 -5.657,0 0,0 z"
             style="fill:#48cfad;fill-opacity:1;fill-rule:nonzero;stroke:none"
             id="path94" /></g><g
           id="g96"
           transform="translate(256,110.1572)"><path
             d="M 0,0 -5.657,-5.157 0,-5.157 0,0 z"
             style="fill:#52edc6;fill-opacity:1;fill-rule:nonzero;stroke:none"
             id="path98" /></g><g
           id="g100"
           transform="translate(256,105)"><path
             d="M 0,0 0,-5.157 5.657,0 0,0 z"
             style="fill:#39a68a;fill-opacity:1;fill-rule:nonzero;stroke:none"
             id="path102" /></g><g
           id="g104"
           transform="translate(250.3428,105)"><path
             d="M 0,0 5.657,-5.157 5.657,0 0,0 z"
             style="fill:#40b899;fill-opacity:1;fill-rule:nonzero;stroke:none"
             id="path106" /></g><g
           id="g108"
           transform="translate(256,358)"><path
             d="m 0,0 -63,0 c 0,0 4.785,-94.465 11,-114 7,-22.001 14.237,-27.287 30.226,-41 C -8.366,-166.5 0,-165 0,-165 c 0,0 8.366,-1.5 21.774,10 C 37.763,-141.287 46,-136.001 53,-114 59.215,-94.465 63,0 63,0 L 0,0 z"
             style="fill:#ffe9ba;fill-opacity:1;fill-rule:nonzero;stroke:none"
             id="path110" /></g><g
           id="g112"
           transform="translate(197.75,297.5)"><path
             d="m 0,0 c 0,0 -22.743,10.911 -17.273,-16.638 5.467,-27.55 22.017,-23.583 22.017,-23.583 L 0,0 z"
             style="fill:#f9e0a8;fill-opacity:1;fill-rule:nonzero;stroke:none"
             id="path114" /></g><g
           id="g116"
           transform="translate(315.25,297.5)"><path
             d="M 0,0 C 0,0 22.743,10.911 17.273,-16.638 11.806,-44.188 -4.744,-40.221 -4.744,-40.221 L 0,0 z"
             style="fill:#f9e0a8;fill-opacity:1;fill-rule:nonzero;stroke:none"
             id="path118" /></g><g
           id="g120"
           transform="translate(361.918,275.4678)"><path
             d="m 0,0 c -2,38.865 13.082,139.199 -105.918,139.199 -119,0 -103.919,-100.334 -105.919,-139.199 -2,-38.865 -25.085,-38.801 -25.085,-38.801 17,-10 31.663,20.414 31.663,20.414 -25.333,-54.586 40.658,-65.747 40.658,-65.747 -35.335,-18.666 -10.682,-56 -0.016,-76.667 10.667,-20.667 -2.863,-31.667 -2.863,-31.667 26.226,5.784 -7.563,67 12.77,73.667 20.333,6.667 8.542,159 16.542,181 8,22 32.25,6.333 32.25,6.333 0,0 24.25,15.667 32.25,-6.333 8,-22 -3.791,-174.333 16.542,-181 20.333,-6.667 -13.456,-67.883 12.771,-73.667 0,0 -13.532,11 -2.865,31.667 10.666,20.667 35.319,58.001 -0.016,76.667 0,0 65.992,11.161 40.659,65.747 0,0 14.663,-30.414 31.663,-20.414 C 25.086,-38.801 2,-38.865 0,0"
             style="fill:#ffce54;fill-opacity:1;fill-rule:nonzero;stroke:none"
             id="path122" /></g><g
           id="g124"
           transform="translate(256,401.665)"><path
             d="m 0,0 c 0,0 -96,18.667 -99.341,-144.584 0,0 -5.826,168.917 99.341,144.584"
             style="fill:#f6bb42;fill-opacity:1;fill-rule:nonzero;stroke:none"
             id="path126" /></g><g
           id="g128"
           transform="translate(195.9102,190.5596)"><path
             d="m 0,0 c 0,0 16.023,3.105 10.391,31.438 0,0 -8.3,-29.792 -21.634,-29.062 C -24.577,3.105 0,0 0,0"
             style="fill:#f6bb42;fill-opacity:1;fill-rule:nonzero;stroke:none"
             id="path130" /></g><g
           id="g132"
           transform="translate(256,401.665)"><path
             d="m 0,0 c 0,0 96,18.667 99.341,-144.584 0,0 5.826,168.917 -99.341,144.584"
             style="fill:#f6bb42;fill-opacity:1;fill-rule:nonzero;stroke:none"
             id="path134" /></g><g
           id="g136"
           transform="translate(316.0898,190.5596)"><path
             d="m 0,0 c 0,0 -16.024,3.105 -10.391,31.438 0,0 8.3,-29.792 21.634,-29.062 C 24.577,3.105 0,0 0,0"
             style="fill:#f6bb42;fill-opacity:1;fill-rule:nonzero;stroke:none"
             id="path138" /></g><g
           id="g140"
           transform="translate(255.5,366.333)"><path
             d="m 0,0 c 0,0 -62.5,23 -60.5,-57.667 2,-80.667 -22.001,-147.999 -74.334,-120.333 0,0 57.168,-11.263 61.667,116.332 C -69.5,42.332 0,0 0,0"
             style="fill:#ffd56b;fill-opacity:1;fill-rule:nonzero;stroke:none"
             id="path142" /></g><g
           id="g144"
           transform="translate(217.8799,190.5596)"><path
             d="m 0,0 c 0,0 -37.548,-0.193 -25.38,-47.229 0,0 -1.407,31.791 25.38,47.229"
             style="fill:#ffd56b;fill-opacity:1;fill-rule:nonzero;stroke:none"
             id="path146" /></g><g
           id="g148"
           transform="translate(256.5,366.333)"><path
             d="m 0,0 c 0,0 62.5,23 60.5,-57.667 -2,-80.667 22.001,-147.999 74.334,-120.333 0,0 -57.168,-11.263 -61.667,116.332 C 69.5,42.332 0,0 0,0"
             style="fill:#ffd56b;fill-opacity:1;fill-rule:nonzero;stroke:none"
             id="path150" /></g><g
           id="g152"
           transform="translate(294.1201,190.5596)"><path
             d="m 0,0 c 0,0 37.548,-0.193 25.38,-47.229 0,0 1.407,31.791 -25.38,47.229"
             style="fill:#ffd56b;fill-opacity:1;fill-rule:nonzero;stroke:none"
             id="path154" /></g></g></g></g></svg>