<?xml version="1.0" encoding="UTF-8" standalone="no"?>
<!-- Created with Inkscape (http://www.inkscape.org/) -->

<svg
   xmlns:dc="http://purl.org/dc/elements/1.1/"
   xmlns:cc="http://creativecommons.org/ns#"
   xmlns:rdf="http://www.w3.org/1999/02/22-rdf-syntax-ns#"
   xmlns:svg="http://www.w3.org/2000/svg"
   xmlns="http://www.w3.org/2000/svg"
   xmlns:sodipodi="http://sodipodi.sourceforge.net/DTD/sodipodi-0.dtd"
   xmlns:inkscape="http://www.inkscape.org/namespaces/inkscape"
   id="svg2"
   version="1.1"
   inkscape:version="0.48.5 r10040"
   width="640"
   height="640"
   xml:space="preserve"
   sodipodi:docname="23.svg"><metadata
     id="metadata8"><rdf:RDF><cc:Work
         rdf:about=""><dc:format>image/svg+xml</dc:format><dc:type
           rdf:resource="http://purl.org/dc/dcmitype/StillImage" /><dc:title /></cc:Work></rdf:RDF></metadata><defs
     id="defs6"><clipPath
       clipPathUnits="userSpaceOnUse"
       id="clipPath20"><path
         d="M 0,512 512,512 512,0 0,0 0,512 z"
         id="path22" /></clipPath><clipPath
       clipPathUnits="userSpaceOnUse"
       id="clipPath34"><path
         d="M 0,512 512,512 512,0 0,0 0,512 z"
         id="path36" /></clipPath><clipPath
       clipPathUnits="userSpaceOnUse"
       id="clipPath46"><path
         d="M 0,512 512,512 512,0 0,0 0,512 z"
         id="path48" /></clipPath><clipPath
       clipPathUnits="userSpaceOnUse"
       id="clipPath60"><path
         d="M 0,512 512,512 512,0 0,0 0,512 z"
         id="path62" /></clipPath></defs><sodipodi:namedview
     pagecolor="#ffffff"
     bordercolor="#666666"
     borderopacity="1"
     objecttolerance="10"
     gridtolerance="10"
     guidetolerance="10"
     inkscape:pageopacity="0"
     inkscape:pageshadow="2"
     inkscape:window-width="684"
     inkscape:window-height="480"
     id="namedview4"
     showgrid="false"
     inkscape:zoom="0.36875"
     inkscape:cx="320"
     inkscape:cy="320"
     inkscape:window-x="0"
     inkscape:window-y="25"
     inkscape:window-maximized="0"
     inkscape:current-layer="g10" /><g
     id="g10"
     inkscape:groupmode="layer"
     inkscape:label="人物"
     transform="matrix(1.25,0,0,-1.25,0,640)"><g
       id="g12"
       transform="translate(0,512.0001)"><path
         d="M 0,0 0,-512 0,0 z"
         style="fill:#ffffff;fill-opacity:1;fill-rule:nonzero;stroke:none"
         id="path14" /></g><g
       id="g16"><g
         id="g18"
         clip-path="url(#clipPath20)"><path
           d="m 1024,0 -512,0 0,512 512,0 0,-512 z"
           style="fill:#ffffff;fill-opacity:1;fill-rule:nonzero;stroke:none"
           id="path24" /></g></g><path
       d="M 0,0 512,0 512,512 0,512 0,0 z"
       style="fill:#8cc152;fill-opacity:1;fill-rule:nonzero;stroke:none"
       id="path26" /><path
       d="M 0,0 512,0 0,0 z"
       style="fill:#ffffff;fill-opacity:1;fill-rule:nonzero;stroke:none"
       id="path28" /><g
       id="g30"><g
         id="g32"
         clip-path="url(#clipPath34)"><path
           d="m 1024,-512 -512,0 0,512 512,0 0,-512 z"
           style="fill:#ffffff;fill-opacity:1;fill-rule:nonzero;stroke:none"
           id="path38" /></g></g><path
       d="m 0,511 512,0 0,1 -512,0 0,-1 z"
       style="fill:#ffffff;fill-opacity:1;fill-rule:nonzero;stroke:none"
       id="path40" /><g
       id="g42"><g
         id="g44"
         clip-path="url(#clipPath46)"><path
           d="m 1024,511 -512,0 0,512 512,0 0,-512 z"
           style="fill:#ffffff;fill-opacity:1;fill-rule:nonzero;stroke:none"
           id="path50" /></g></g><g
       id="g52"
       transform="translate(0,512.0001)"><path
         d="M 0,0 0,-1 0,0 z"
         style="fill:#ffffff;fill-opacity:1;fill-rule:nonzero;stroke:none"
         id="path54" /></g><g
       id="g56"><g
         id="g58"
         clip-path="url(#clipPath60)"><g
           id="g64"
           transform="translate(456,256)"><path
             d="m 0,0 c 0,-110.457 -89.543,-200 -200,-200 -110.457,0 -200,89.543 -200,200 0,110.457 89.543,200 200,200 C -89.543,200 0,110.457 0,0"
             style="fill:#8cc152;fill-opacity:1;fill-rule:nonzero;stroke:none"
             id="path66" /></g><g
           id="g68"
           transform="translate(203.7441,179.3535)"><path
             d="M 0,0 C 0,0 7.258,49.313 59.256,47.313 111.254,45.313 106.512,0 106.512,0 l 32.742,147.313 -96.998,26.667 -76,-45.834 L 0,0 z"
             style="fill:#f6bb42;fill-opacity:1;fill-rule:nonzero;stroke:none"
             id="path70" /></g><g
           id="g72"
           transform="translate(267.5,111.999)"><path
             d="m 0,0 c -30.955,60.62 -38.037,59.868 -37.65,62.672 -0.061,-0.017 -0.12,-0.032 -0.18,-0.05 -0.037,-0.01 -0.073,-0.019 -0.109,-0.029 -0.249,-0.07 -0.495,-0.138 -0.747,-0.207 -0.321,-0.09 -0.648,-0.181 -0.973,-0.272 -0.044,-0.011 -0.089,-0.023 -0.132,-0.036 -0.272,-0.075 -0.541,-0.149 -0.813,-0.225 -0.21,-0.059 -0.423,-0.118 -0.636,-0.176 -0.53,-0.148 -1.062,-0.295 -1.598,-0.444 -0.221,-0.06 -0.443,-0.123 -0.664,-0.183 -0.469,-0.13 -0.938,-0.26 -1.41,-0.391 -0.276,-0.076 -0.551,-0.152 -0.828,-0.228 -0.539,-0.15 -1.082,-0.299 -1.625,-0.45 -0.241,-0.066 -0.483,-0.132 -0.725,-0.199 -0.125,-0.035 -0.25,-0.069 -0.376,-0.103 -0.026,-0.008 -0.053,-0.015 -0.079,-0.023 -0.475,-0.131 -0.951,-0.261 -1.428,-0.393 -0.322,-0.088 -0.646,-0.178 -0.968,-0.266 -0.428,-0.118 -0.858,-0.236 -1.286,-0.353 -0.31,-0.086 -0.621,-0.171 -0.932,-0.257 -0.439,-0.12 -0.876,-0.241 -1.314,-0.361 -0.293,-0.08 -0.583,-0.16 -0.875,-0.239 -0.65,-0.179 -1.3,-0.356 -1.949,-0.534 -0.074,-0.02 -0.146,-0.04 -0.221,-0.061 -0.73,-0.199 -1.458,-0.398 -2.185,-0.595 -0.243,-0.067 -0.485,-0.133 -0.729,-0.2 -0.478,-0.129 -0.957,-0.26 -1.433,-0.39 -0.035,-0.009 -0.069,-0.018 -0.104,-0.028 -0.274,-0.075 -0.549,-0.149 -0.822,-0.223 -0.416,-0.113 -0.831,-0.226 -1.245,-0.338 -0.31,-0.084 -0.618,-0.168 -0.927,-0.251 -0.51,-0.138 -1.016,-0.274 -1.52,-0.411 C -81.65,50.659 -94.742,47.27 -97.502,47 c -11.302,-1.104 -23.313,-9.311 -30.666,-15.666 -13.235,-11.44 -10.854,-25.454 -14.641,-38.188 35.133,-30.606 81.055,-49.145 131.309,-49.145 50.254,0 96.176,18.539 131.309,49.145 C 116.022,5.88 118.402,19.894 105.168,31.334 97.814,37.689 85.804,45.896 74.502,47 c -2.679,0.262 -15.1,3.464 -29.701,7.4 -0.705,0.191 -1.414,0.382 -2.129,0.576 -0.018,0.003 -0.033,0.008 -0.051,0.013 -0.878,0.238 -1.762,0.477 -2.652,0.719 -8.923,2.422 -18.324,5.02 -26.62,7.326 -0.181,0.051 -0.363,0.102 -0.542,0.152 -0.467,0.129 -0.93,0.258 -1.389,0.386 L 0,0 z"
             style="fill:#da4453;fill-opacity:1;fill-rule:nonzero;stroke:none"
             id="path74" /></g><g
           id="g76"
           transform="translate(281.918,174.7363)"><path
             d="m 0,0 c -0.096,0.026 -0.191,0.053 -0.288,0.08 0.226,1.223 0.313,1.949 0.313,1.949 l 16.307,88.735 -42.25,-5.5 -42.25,5.5 16.307,-88.735 c 0,0 0.087,-0.726 0.313,-1.949 -0.097,-0.027 -0.192,-0.054 -0.288,-0.08 -0.077,-0.021 -0.155,-0.043 -0.232,-0.065 -0.387,-2.804 -4.805,-46.718 26.15,-107.338 C 5.037,-46.783 0.619,-2.869 0.232,-0.065 0.155,-0.043 0.077,-0.021 0,0"
             style="fill:#f9e0a8;fill-opacity:1;fill-rule:nonzero;stroke:none"
             id="path78" /></g><g
           id="g80"
           transform="translate(290,250.5)"><path
             d="m 0,0 -69.525,-21.592 7.086,-38.555 c 10.66,-13.146 26.918,-25.187 50.957,-26.265 2.709,6.691 3.425,12.678 3.425,12.678 L 4.07,-7.744 C 1.686,-2.947 0,0 0,0"
             style="fill:#d9c392;fill-opacity:1;fill-rule:nonzero;stroke:none"
             id="path82" /></g><g
           id="g84"
           transform="translate(198.6582,186.5215)"><path
             d="M 0,0 C 2.543,-4.598 4.086,-7.168 4.086,-7.168 0.158,14.452 -2.994,39.431 -3.683,63.813 -4.318,42.909 -2.709,20.746 0,0"
             style="fill:#ffd56b;fill-opacity:1;fill-rule:nonzero;stroke:none"
             id="path86" /></g><g
           id="g88"
           transform="translate(256,358)"><path
             d="m 0,0 -63,0 c 0,0 4.785,-94.465 11,-114 7,-22.001 14.237,-27.287 30.226,-41 C -8.366,-166.5 0,-165 0,-165 c 0,0 8.366,-1.5 21.774,10 C 37.763,-141.287 46,-136.001 53,-114 59.215,-94.465 63,0 63,0 L 0,0 z"
             style="fill:#ffe9ba;fill-opacity:1;fill-rule:nonzero;stroke:none"
             id="path90" /></g><g
           id="g92"
           transform="translate(197.75,297.5)"><path
             d="m 0,0 c 0,0 -22.743,10.911 -17.273,-16.638 5.467,-27.55 22.017,-23.583 22.017,-23.583 L 0,0 z"
             style="fill:#f9e0a8;fill-opacity:1;fill-rule:nonzero;stroke:none"
             id="path94" /></g><g
           id="g96"
           transform="translate(315.25,297.5)"><path
             d="M 0,0 C 0,0 22.743,10.911 17.273,-16.638 11.806,-44.188 -4.744,-40.221 -4.744,-40.221 L 0,0 z"
             style="fill:#f9e0a8;fill-opacity:1;fill-rule:nonzero;stroke:none"
             id="path98" /></g><g
           id="g100"
           transform="translate(318.2461,235.5615)"><path
             d="m 0,0 c -1.292,-16.302 -5.235,-35.537 -8.99,-56.208 0,0 1.968,3.276 5.127,9.061 C -0.716,-29.06 1.394,-12.907 0,0"
             style="fill:#ffd56b;fill-opacity:1;fill-rule:nonzero;stroke:none"
             id="path102" /></g><g
           id="g104"
           transform="translate(283.3809,179.3535)"><path
             d="m 0,0 c -2.324,0 -4.209,-1.885 -4.209,-4.209 0,-0.306 0.036,-0.602 0.098,-0.89 C -4.398,-5.036 -4.695,-5 -5,-5 c -2.32,0 -4.201,-1.879 -4.208,-4.197 -1.731,-0.522 -3.001,-2.111 -3.001,-4.012 0,-0.074 0.018,-0.144 0.021,-0.217 -0.55,0.265 -1.16,0.426 -1.812,0.426 -2.324,0 -4.209,-1.885 -4.209,-4.209 0,-0.074 0.018,-0.144 0.022,-0.217 -0.551,0.265 -1.161,0.426 -1.813,0.426 -1.407,0 -2.646,-0.697 -3.41,-1.758 -1.006,1.082 -2.412,1.758 -3.971,1.758 -1.558,0 -2.965,-0.676 -3.971,-1.758 -0.764,1.061 -2.002,1.758 -3.41,1.758 -0.652,0 -1.261,-0.161 -1.812,-0.426 0.004,0.073 0.021,0.143 0.021,0.217 0,2.324 -1.885,4.209 -4.209,4.209 -0.652,0 -1.261,-0.161 -1.812,-0.426 0.004,0.073 0.021,0.143 0.021,0.217 0,1.901 -1.269,3.49 -3.001,4.012 -0.007,2.318 -1.887,4.197 -4.208,4.197 -0.305,0 -0.601,-0.036 -0.888,-0.099 0.061,0.288 0.097,0.584 0.097,0.89 0,2.324 -1.885,4.209 -4.209,4.209 -2.324,0 -4.209,-1.885 -4.209,-4.209 0,-2.324 1.885,-4.209 4.209,-4.209 0.306,0 0.602,0.036 0.889,0.099 -0.062,-0.288 -0.098,-0.584 -0.098,-0.89 0,-1.901 1.27,-3.49 3.001,-4.012 0.007,-2.318 1.888,-4.197 4.208,-4.197 0.653,0 1.262,0.161 1.813,0.426 -0.004,-0.073 -0.022,-0.143 -0.022,-0.217 0,-2.324 1.885,-4.209 4.209,-4.209 0.653,0 1.262,0.161 1.813,0.426 -0.004,-0.073 -0.022,-0.143 -0.022,-0.217 0,-2.324 1.885,-4.209 4.209,-4.209 0.803,0 1.545,0.236 2.184,0.627 0.777,-2.217 2.808,-3.802 5.197,-3.802 2.389,0 4.42,1.585 5.197,3.802 0.639,-0.391 1.381,-0.627 2.184,-0.627 2.324,0 4.209,1.885 4.209,4.209 0,0.074 -0.018,0.144 -0.022,0.217 0.551,-0.265 1.161,-0.426 1.813,-0.426 2.324,0 4.209,1.885 4.209,4.209 0,0.074 -0.018,0.144 -0.022,0.217 0.551,-0.265 1.161,-0.426 1.813,-0.426 2.32,0 4.201,1.879 4.208,4.197 1.731,0.522 3.001,2.111 3.001,4.012 0,0.306 -0.036,0.602 -0.098,0.89 0.287,-0.063 0.583,-0.099 0.889,-0.099 2.324,0 4.209,1.885 4.209,4.209 C 4.209,-1.885 2.324,0 0,0"
             style="fill:#f5f7fa;fill-opacity:1;fill-rule:nonzero;stroke:none"
             id="path106" /></g><g
           id="g108"
           transform="translate(301.3398,282.7891)"><path
             d="m 0,0 -11.938,-16.459 c -3.259,-4.492 -8.324,-6.332 -13.119,-2.562 -2.683,2.112 -5.368,4.223 -8.052,6.335 -5.161,4.059 1.095,6.858 4.157,7.764 3.921,1.161 7.843,2.322 11.763,3.484 3.922,1.161 7.843,2.323 11.765,3.484 C -3.218,2.699 3.229,4.935 0,0 m -57.57,-12.686 c -2.684,-2.112 -5.369,-4.223 -8.054,-6.335 -4.794,-3.77 -9.858,-1.93 -13.118,2.562 -3.979,5.486 -7.958,10.973 -11.938,16.459 -3.229,4.935 3.218,2.699 5.424,2.046 3.922,-1.161 7.843,-2.323 11.765,-3.484 3.921,-1.162 7.843,-2.323 11.763,-3.484 3.062,-0.906 9.318,-3.705 4.158,-7.764 M -2.82,5.945 c -3.803,-1.126 -7.607,-2.252 -11.409,-3.378 -5.558,-1.646 -11.117,-3.292 -16.675,-4.938 -3.581,-1.061 -7.335,-2.313 -7.803,-6.418 l -13.266,0 c -0.467,4.105 -4.221,5.357 -7.802,6.418 -5.559,1.646 -11.118,3.292 -16.675,4.938 -3.803,1.126 -7.607,2.252 -11.409,3.378 -6.286,1.862 -8.817,-2.255 -5.411,-7.459 2.549,-3.514 5.098,-7.029 7.647,-10.545 2.629,-3.621 5.06,-8.007 8.803,-10.586 4.861,-3.35 10.318,-0.856 14.351,2.317 2.382,1.873 7.974,5.033 9.891,8.539 l 14.476,0 c 1.917,-3.506 7.509,-6.666 9.891,-8.539 4.033,-3.173 9.49,-5.667 14.352,-2.317 3.742,2.579 6.173,6.965 8.801,10.586 2.549,3.516 5.099,7.031 7.648,10.545 3.406,5.204 0.875,9.321 -5.41,7.459"
             style="fill:#da4453;fill-opacity:1;fill-rule:nonzero;stroke:none"
             id="path110" /></g><g
           id="g112"
           transform="translate(256,418.667)"><path
             d="m 0,0 c -197,0 -53.256,-239.313 -53.256,-239.313 -9.757,53.707 -14.744,128.146 11.006,162.646 4.25,-47 71.803,-49.662 90.583,-61.501 22.999,-14.499 13.467,-54.113 4.923,-101.145 C 53.256,-239.313 197,0 0,0"
             style="fill:#ffce54;fill-opacity:1;fill-rule:nonzero;stroke:none"
             id="path114" /></g><g
           id="g116"
           transform="translate(256,399.667)"><path
             d="M 0,0 C 74.785,0 100.459,-34.491 103.539,-77.282 106.859,-26.183 85.598,19 0,19 -85.598,19 -106.859,-26.183 -103.538,-77.282 -100.459,-34.491 -74.786,0 0,0"
             style="fill:#ffd56b;fill-opacity:1;fill-rule:nonzero;stroke:none"
             id="path118" /></g></g></g></g></svg>