<?xml version="1.0" encoding="UTF-8" standalone="no"?>
<!-- Created with Inkscape (http://www.inkscape.org/) -->

<svg
   xmlns:dc="http://purl.org/dc/elements/1.1/"
   xmlns:cc="http://creativecommons.org/ns#"
   xmlns:rdf="http://www.w3.org/1999/02/22-rdf-syntax-ns#"
   xmlns:svg="http://www.w3.org/2000/svg"
   xmlns="http://www.w3.org/2000/svg"
   xmlns:sodipodi="http://sodipodi.sourceforge.net/DTD/sodipodi-0.dtd"
   xmlns:inkscape="http://www.inkscape.org/namespaces/inkscape"
   id="svg2"
   version="1.1"
   inkscape:version="0.48.5 r10040"
   width="640"
   height="640"
   xml:space="preserve"
   sodipodi:docname="人物.ai"><metadata
     id="metadata8"><rdf:RDF><cc:Work
         rdf:about=""><dc:format>image/svg+xml</dc:format><dc:type
           rdf:resource="http://purl.org/dc/dcmitype/StillImage" /><dc:title></dc:title></cc:Work></rdf:RDF></metadata><defs
     id="defs6"><clipPath
       clipPathUnits="userSpaceOnUse"
       id="clipPath22"><path
         d="M 0,512 512,512 512,0 0,0 0,512 z"
         id="path24" /></clipPath><clipPath
       clipPathUnits="userSpaceOnUse"
       id="clipPath34"><path
         d="M 0,512 512,512 512,0 0,0 0,512 z"
         id="path36" /></clipPath><clipPath
       clipPathUnits="userSpaceOnUse"
       id="clipPath52"><path
         d="M 0,512 512,512 512,0 0,0 0,512 z"
         id="path54" /></clipPath></defs><sodipodi:namedview
     pagecolor="#ffffff"
     bordercolor="#666666"
     borderopacity="1"
     objecttolerance="10"
     gridtolerance="10"
     guidetolerance="10"
     inkscape:pageopacity="0"
     inkscape:pageshadow="2"
     inkscape:window-width="684"
     inkscape:window-height="480"
     id="namedview4"
     showgrid="false"
     inkscape:zoom="0.36875"
     inkscape:cx="320"
     inkscape:cy="320"
     inkscape:window-x="0"
     inkscape:window-y="25"
     inkscape:window-maximized="0"
     inkscape:current-layer="g10" /><g
     id="g10"
     inkscape:groupmode="layer"
     inkscape:label="人物"
     transform="matrix(1.25,0,0,-1.25,0,640)"><path
       d="M 0,0 512,0 512,512 0,512 0,0 z"
       style="fill:#ffffff;fill-opacity:1;fill-rule:nonzero;stroke:none"
       id="path12" /><g
       id="g14"
       transform="translate(0,512.0001)"><path
         d="M 0,0 0,-512 0,0 z"
         style="fill:#ffffff;fill-opacity:1;fill-rule:nonzero;stroke:none"
         id="path16" /></g><g
       id="g18"><g
         id="g20"
         clip-path="url(#clipPath22)"><path
           d="m 1024,0 -512,0 0,512 512,0 0,-512 z"
           style="fill:#ffffff;fill-opacity:1;fill-rule:nonzero;stroke:none"
           id="path26" /></g></g><path
       d="M 0,0 512,0 0,0 z"
       style="fill:#ffffff;fill-opacity:1;fill-rule:nonzero;stroke:none"
       id="path28" /><g
       id="g30"><g
         id="g32"
         clip-path="url(#clipPath34)"><path
           d="m 1024,-512 -512,0 0,512 512,0 0,-512 z"
           style="fill:#ffffff;fill-opacity:1;fill-rule:nonzero;stroke:none"
           id="path38" /><path
           d="m 1024,511 -512,0 0,512 512,0 0,-512 z"
           style="fill:#ffffff;fill-opacity:1;fill-rule:nonzero;stroke:none"
           id="path40" /></g></g><g
       id="g42"
       transform="translate(0,512.0001)"><path
         d="M 0,0 0,-1 0,0 z"
         style="fill:#ffffff;fill-opacity:1;fill-rule:nonzero;stroke:none"
         id="path44" /></g><path
       d="m 0,511 512,0 0,1 -512,0 0,-1 z"
       style="fill:#ffffff;fill-opacity:1;fill-rule:nonzero;stroke:none"
       id="path46" /><g
       id="g48"><g
         id="g50"
         clip-path="url(#clipPath52)"><g
           id="g56"
           transform="translate(456,256)"><path
             d="m 0,0 c 0,-110.457 -89.543,-200 -200,-200 -110.457,0 -200,89.543 -200,200 0,110.457 89.543,200 200,200 C -89.543,200 0,110.457 0,0"
             style="fill:#e9573f;fill-opacity:1;fill-rule:nonzero;stroke:none"
             id="path58" /></g><g
           id="g60"
           transform="translate(320.373,281.5078)"><path
             d="m 0,0 -74.373,-34.573 -5.333,25.065 -60.667,-12.692 c 0,0 7.141,-82.181 23.123,-102.286 6.475,-8.145 11.456,-12.045 15.16,-13.783 l -7.949,-29.739 c 0,0 57.666,-76.5 97.666,4.5 C 27.627,-82.508 0,0 0,0"
             style="fill:#2d3138;fill-opacity:1;fill-rule:nonzero;stroke:none"
             id="path62" /></g><g
           id="g64"
           transform="translate(305.5059,278.333)"><path
             d="M 0,0 C 0,0 25.16,-124.666 -9.173,-160.333 -43.506,-196 -30.839,-175 -30.839,-175 L -16.436,-1.667 0,0 z"
             style="fill:#434a54;fill-opacity:1;fill-rule:nonzero;stroke:none"
             id="path66" /></g><g
           id="g68"
           transform="translate(372.668,143.1621)"><path
             d="m 0,0 c -7.354,6.355 -19.364,14.563 -30.666,15.666 -2.679,0.262 -15.099,3.465 -29.701,7.4 -0.705,0.192 -1.414,0.383 -2.129,0.577 -0.018,0.003 -0.033,0.007 -0.051,0.013 -0.878,0.237 -1.762,0.477 -2.652,0.719 -8.923,2.422 -18.324,5.02 -26.62,7.326 -0.182,0.051 -0.363,0.102 -0.542,0.151 -0.467,0.13 -0.93,0.259 -1.389,0.386 -0.219,0.061 -0.436,0.121 -0.652,0.182 -0.409,0.113 -0.811,0.226 -1.211,0.338 -0.238,0.066 -0.475,0.133 -0.709,0.197 -0.354,0.1 -0.7,0.195 -1.047,0.293 -0.697,0.193 -1.381,0.385 -2.053,0.572 -0.121,0.035 -0.246,0.071 -0.367,0.104 -0.223,0.062 -0.44,0.123 -0.66,0.183 -0.387,0.11 -0.77,0.217 -1.147,0.323 -5.434,1.519 -9.816,2.754 -12.425,3.49 -0.016,0.004 -0.03,0.008 -0.045,0.012 -0.411,0.115 -0.766,0.216 -1.084,0.306 -0.106,0.03 -0.205,0.057 -0.301,0.084 -0.315,0.09 -0.555,0.157 -0.75,0.213 -0.297,0.084 -0.467,0.131 -0.467,0.131 0,0 -0.221,-0.062 -0.602,-0.17 -0.032,-0.008 -0.054,-0.016 -0.089,-0.025 -0.079,-0.022 -0.164,-0.047 -0.256,-0.073 -0.09,-0.025 -0.173,-0.048 -0.276,-0.078 -0.134,-0.037 -0.28,-0.078 -0.435,-0.123 -0.244,-0.068 -0.516,-0.144 -0.811,-0.228 -0.129,-0.035 -0.265,-0.074 -0.404,-0.114 -0.066,-0.019 -0.131,-0.037 -0.199,-0.056 -0.414,-0.117 -0.86,-0.242 -1.346,-0.379 -0.113,-0.031 -0.232,-0.066 -0.352,-0.1 -0.008,-0.002 -0.017,-0.004 -0.027,-0.007 -0.341,-0.096 -0.699,-0.196 -1.071,-0.301 -0.142,-0.039 -0.278,-0.078 -0.423,-0.119 -0.145,-0.041 -0.293,-0.082 -0.441,-0.123 -0.043,-0.014 -0.088,-0.026 -0.133,-0.038 -0.031,-0.009 -0.063,-0.019 -0.095,-0.027 -0.29,-0.082 -0.589,-0.166 -0.893,-0.252 -0.014,-0.004 -0.03,-0.008 -0.043,-0.012 -0.045,-0.013 -0.09,-0.025 -0.136,-0.039 -0.107,-0.029 -0.208,-0.056 -0.316,-0.088 -0.175,-0.048 -0.358,-0.101 -0.539,-0.152 -0.98,-0.275 -2.027,-0.568 -3.133,-0.879 -0.164,-0.045 -0.322,-0.09 -0.488,-0.137 -0.379,-0.105 -0.77,-0.214 -1.163,-0.324 -0.079,-0.023 -0.157,-0.045 -0.236,-0.066 -0.388,-0.11 -0.78,-0.219 -1.179,-0.33 -0.227,-0.065 -0.458,-0.129 -0.689,-0.194 -0.338,-0.093 -0.676,-0.189 -1.022,-0.285 -0.193,-0.054 -0.393,-0.111 -0.59,-0.166 -0.583,-0.162 -1.174,-0.328 -1.775,-0.496 -0.381,-0.105 -0.762,-0.213 -1.15,-0.32 -0.219,-0.061 -0.441,-0.123 -0.661,-0.184 -0.414,-0.115 -0.828,-0.232 -1.248,-0.347 -0.275,-0.079 -0.55,-0.155 -0.828,-0.233 -0.392,-0.109 -0.789,-0.219 -1.188,-0.33 -0.284,-0.078 -0.568,-0.158 -0.856,-0.238 -0.272,-0.076 -0.55,-0.153 -0.825,-0.229 -0.137,-0.039 -0.274,-0.076 -0.412,-0.115 -0.037,-0.01 -0.073,-0.019 -0.109,-0.029 -0.249,-0.071 -0.495,-0.139 -0.747,-0.207 -0.321,-0.09 -0.648,-0.182 -0.973,-0.272 -0.044,-0.011 -0.088,-0.023 -0.132,-0.037 -0.271,-0.074 -0.541,-0.148 -0.812,-0.224 -0.211,-0.059 -0.424,-0.118 -0.637,-0.176 -0.529,-0.149 -1.062,-0.295 -1.598,-0.444 -0.221,-0.06 -0.442,-0.123 -0.664,-0.183 -0.469,-0.131 -0.938,-0.26 -1.41,-0.391 -0.275,-0.076 -0.551,-0.152 -0.828,-0.228 -0.539,-0.151 -1.082,-0.299 -1.625,-0.45 -0.241,-0.066 -0.483,-0.132 -0.725,-0.199 -0.125,-0.035 -0.25,-0.07 -0.376,-0.103 l -0.079,-0.024 c -0.474,-0.131 -0.951,-0.261 -1.428,-0.392 -0.322,-0.088 -0.646,-0.178 -0.968,-0.266 -0.428,-0.119 -0.858,-0.236 -1.286,-0.353 -0.31,-0.086 -0.621,-0.172 -0.932,-0.258 -0.439,-0.119 -0.876,-0.241 -1.314,-0.36 -0.293,-0.08 -0.583,-0.16 -0.874,-0.24 -0.651,-0.178 -1.301,-0.355 -1.95,-0.533 -0.074,-0.02 -0.146,-0.041 -0.221,-0.061 -0.729,-0.199 -1.458,-0.398 -2.185,-0.595 -0.243,-0.067 -0.485,-0.133 -0.729,-0.2 -0.478,-0.13 -0.957,-0.261 -1.433,-0.39 -0.035,-0.01 -0.069,-0.018 -0.104,-0.028 -0.274,-0.076 -0.549,-0.15 -0.822,-0.224 -0.416,-0.113 -0.831,-0.225 -1.245,-0.338 -0.31,-0.084 -0.618,-0.168 -0.927,-0.25 -0.51,-0.139 -1.015,-0.275 -1.52,-0.412 -15.167,-4.096 -28.259,-7.486 -31.019,-7.756 -11.302,-1.103 -23.313,-9.311 -30.666,-15.666 -13.235,-11.439 -10.854,-25.453 -14.641,-38.188 35.133,-30.605 81.055,-49.144 131.309,-49.144 50.254,0 96.176,18.539 131.309,49.144 C 10.854,-25.453 13.235,-11.439 0,0"
             style="fill:#37bc9b;fill-opacity:1;fill-rule:nonzero;stroke:none"
             id="path70" /></g><g
           id="g72"
           transform="translate(230.0566,176.5957)"><path
             d="m 0,0 -3.025,16.465 c -4.22,1.055 -22.441,4.68 -23.031,-11.233 -0.667,-17.998 51.999,-58.998 51.999,-58.998 L 15.654,-28.129 C 2.475,-20.687 0,0 0,0"
             style="fill:#37bc9b;fill-opacity:1;fill-rule:nonzero;stroke:none"
             id="path74" /></g><g
           id="g76"
           transform="translate(281.9434,176.5957)"><path
             d="m 0,0 3.025,16.465 c 4.22,1.055 22.441,4.68 23.031,-11.233 0.667,-17.998 -51.999,-58.998 -51.999,-58.998 l 10.289,25.637 C -2.475,-20.687 0,0 0,0"
             style="fill:#37bc9b;fill-opacity:1;fill-rule:nonzero;stroke:none"
             id="path78" /></g><g
           id="g80"
           transform="translate(256,259.8301)"><path
             d="m 0,0 -42.25,5.5 16.307,-88.734 c 0,0 3.666,-30.766 25.943,-30.766 22.277,0 25.943,30.766 25.943,30.766 L 42.25,5.5 0,0 z"
             style="fill:#f9e0a8;fill-opacity:1;fill-rule:nonzero;stroke:none"
             id="path82" /></g><g
           id="g84"
           transform="translate(290,250.3301)"><path
             d="m 0,0 -69.525,-21.592 7.086,-38.556 c 10.66,-13.145 26.918,-25.186 50.957,-26.264 2.709,6.691 3.425,12.678 3.425,12.678 L 4.07,-7.744 C 1.686,-2.947 0,0 0,0"
             style="fill:#d9c392;fill-opacity:1;fill-rule:nonzero;stroke:none"
             id="path86" /></g><g
           id="g88"
           transform="translate(349,174.8301)"><path
             d="m 0,0 c -5.5,18.5 -27.955,10.777 -27.955,10.777 -10.543,22.401 -33.758,11.485 -35.492,10.631 l -0.584,-3.178 c 4.219,1.055 22.44,4.68 23.03,-11.232 C -40.334,-11 -93,-52 -93,-52 c 0,0 -52.666,41 -51.999,58.998 0.59,15.912 18.811,12.287 23.03,11.232 l -0.584,3.178 c -1.734,0.854 -24.949,11.77 -35.492,-10.631 0,0 -22.455,7.723 -27.955,-10.777 0,0 -17,2.745 -17.5,-11.343 -0.5,-14.088 110.445,-47.487 110.445,-47.487 l 0.11,0 c 0,0 110.945,33.399 110.445,47.487 C 17,2.745 0,0 0,0"
             style="fill:#48cfad;fill-opacity:1;fill-rule:nonzero;stroke:none"
             id="path90" /></g><g
           id="g92"
           transform="translate(244.375,125.4551)"><path
             d="m 0,0 c 0,-1.656 -1.344,-3 -3,-3 -1.656,0 -3,1.344 -3,3 0,1.656 1.344,3 3,3 1.656,0 3,-1.344 3,-3"
             style="fill:#434a54;fill-opacity:1;fill-rule:nonzero;stroke:none"
             id="path94" /></g><g
           id="g96"
           transform="translate(269.625,125.4551)"><path
             d="M 0,0 C 0,-1.656 1.344,-3 3,-3 4.656,-3 6,-1.656 6,0 6,1.656 4.656,3 3,3 1.344,3 0,1.656 0,0"
             style="fill:#434a54;fill-opacity:1;fill-rule:nonzero;stroke:none"
             id="path98" /></g><g
           id="g100"
           transform="translate(240,124)"><path
             d="m 0,0 0,-89 c 0,-2 3,-2 3,0 L 3,0 C 3,2 0,2 0,0 0,0 0,2 0,0"
             style="fill:#e6e9ed;fill-opacity:1;fill-rule:nonzero;stroke:none"
             id="path102" /></g><g
           id="g104"
           transform="translate(274,124)"><path
             d="m 0,0 0,-89 c 0,-2 -3,-2 -3,0 l 0,89 c 0,2 3,2 3,0 0,0 0,2 0,0"
             style="fill:#e6e9ed;fill-opacity:1;fill-rule:nonzero;stroke:none"
             id="path106" /></g><g
           id="g108"
           transform="translate(256,358)"><path
             d="m 0,0 -63,0 c 0,0 4.785,-94.465 11,-114 7,-22.001 14.237,-27.287 30.226,-41 C -8.366,-166.5 0,-165 0,-165 c 0,0 8.366,-1.5 21.774,10 C 37.763,-141.287 46,-136.001 53,-114 59.215,-94.465 63,0 63,0 L 0,0 z"
             style="fill:#ffe9ba;fill-opacity:1;fill-rule:nonzero;stroke:none"
             id="path110" /></g><g
           id="g112"
           transform="translate(197.75,297.5)"><path
             d="m 0,0 c 0,0 -22.743,10.911 -17.273,-16.638 5.467,-27.55 22.017,-23.583 22.017,-23.583 L 0,0 z"
             style="fill:#f9e0a8;fill-opacity:1;fill-rule:nonzero;stroke:none"
             id="path114" /></g><g
           id="g116"
           transform="translate(315.25,297.5)"><path
             d="M 0,0 C 0,0 22.743,10.911 17.273,-16.638 11.806,-44.188 -4.744,-40.221 -4.744,-40.221 L 0,0 z"
             style="fill:#f9e0a8;fill-opacity:1;fill-rule:nonzero;stroke:none"
             id="path118" /></g><g
           id="g120"
           transform="translate(315,262)"><path
             d="m 0,0 0,-31 c 0,-3.869 6,-3.869 6,0 L 6,0 C 6,3.869 0,3.869 0,0"
             style="fill:#f5f7fa;fill-opacity:1;fill-rule:nonzero;stroke:none"
             id="path122" /></g><g
           id="g124"
           transform="translate(203.9941,294.334)"><path
             d="m 0,0 c 0,0 -9.995,-31.667 5.339,-71.667 15.334,-40 0,-73.667 0,-73.667 l -28,101.5 8.334,52.5 L 0,0 z"
             style="fill:#656d78;fill-opacity:1;fill-rule:nonzero;stroke:none"
             id="path126" /></g><g
           id="g128"
           transform="translate(176.8437,296.1592)"><path
             d="m 0,0 c 0,0 -13,-38.413 4.823,-69.159 17.823,-30.746 6.666,-68.33 6.666,-68.33 0,0 19.667,24.997 4.667,74.997 -15,50 -1.939,57.1 -1.939,57.1 0,0 -6.706,16.551 -14.217,5.392"
             style="fill:#434a54;fill-opacity:1;fill-rule:nonzero;stroke:none"
             id="path130" /></g><g
           id="g132"
           transform="translate(298.125,286.7207)"><path
             d="m 0,0 c 0,0 -3.84,-11.222 3.645,-12.055 0,0 4.578,-18.903 11.363,-17.508 6.787,1.394 12.617,40.592 12.617,40.592 L 0,0 z"
             style="fill:#434a54;fill-opacity:1;fill-rule:nonzero;stroke:none"
             id="path134" /></g><g
           id="g136"
           transform="translate(325.417,333.1416)"><path
             d="m 0,0 c 1.544,12.231 6.352,56.463 -3.478,65.84 -9.325,8.895 -30.983,16.351 -64.46,16.351 -33.478,0 -55.136,-7.456 -64.461,-16.351 -9.83,-9.377 -5.022,-53.609 -3.478,-65.84 l -2.54,-3.142 2.957,0 135.043,0 2.957,0 L 0,0 z"
             style="fill:#37bc9b;fill-opacity:1;fill-rule:nonzero;stroke:none"
             id="path138" /></g><g
           id="g140"
           transform="translate(194.3477,332)"><path
             d="m 0,0 c -3.786,30.812 -2.932,55.543 2.121,60.363 3.682,3.512 18.961,14.97 61.01,14.97 42.049,0 57.328,-11.458 61.01,-14.97 5.052,-4.82 5.907,-29.551 2.121,-60.363 L 0,0 z"
             style="fill:#f5f7fa;fill-opacity:1;fill-rule:nonzero;stroke:none"
             id="path142" /></g><g
           id="g144"
           transform="translate(342.0244,311.2764)"><path
             d="m 0,0 -17.564,22.724 -67.46,0 -67.46,0 L -170.049,0 c -21.067,-34.146 77.437,-30.311 85.025,-29.966 C -77.437,-30.311 21.067,-34.146 0,0"
             style="fill:#48cfad;fill-opacity:1;fill-rule:nonzero;stroke:none"
             id="path146" /></g><g
           id="g148"
           transform="translate(257,288.3105)"><path
             d="M 0,0 C -6.524,-0.297 -80.266,-3.173 -87.414,17.734 -95.633,-10.767 -7.176,-7.326 0,-7 7.176,-7.326 95.633,-10.767 87.414,17.734 80.266,-3.173 6.524,-0.297 0,0"
             style="fill:#37bc9b;fill-opacity:1;fill-rule:nonzero;stroke:none"
             id="path150" /></g></g></g></g></svg>