<?xml version="1.0" encoding="UTF-8" standalone="no"?>
<!-- Created with Inkscape (http://www.inkscape.org/) -->

<svg
   xmlns:dc="http://purl.org/dc/elements/1.1/"
   xmlns:cc="http://creativecommons.org/ns#"
   xmlns:rdf="http://www.w3.org/1999/02/22-rdf-syntax-ns#"
   xmlns:svg="http://www.w3.org/2000/svg"
   xmlns="http://www.w3.org/2000/svg"
   xmlns:sodipodi="http://sodipodi.sourceforge.net/DTD/sodipodi-0.dtd"
   xmlns:inkscape="http://www.inkscape.org/namespaces/inkscape"
   id="svg2"
   version="1.1"
   inkscape:version="0.48.5 r10040"
   width="640"
   height="640"
   xml:space="preserve"
   sodipodi:docname="人物.ai"><metadata
     id="metadata8"><rdf:RDF><cc:Work
         rdf:about=""><dc:format>image/svg+xml</dc:format><dc:type
           rdf:resource="http://purl.org/dc/dcmitype/StillImage" /><dc:title></dc:title></cc:Work></rdf:RDF></metadata><defs
     id="defs6"><clipPath
       clipPathUnits="userSpaceOnUse"
       id="clipPath30"><path
         d="M 0,512 512,512 512,0 0,0 0,512 z"
         id="path32" /></clipPath></defs><sodipodi:namedview
     pagecolor="#ffffff"
     bordercolor="#666666"
     borderopacity="1"
     objecttolerance="10"
     gridtolerance="10"
     guidetolerance="10"
     inkscape:pageopacity="0"
     inkscape:pageshadow="2"
     inkscape:window-width="684"
     inkscape:window-height="480"
     id="namedview4"
     showgrid="false"
     inkscape:zoom="0.36875"
     inkscape:cx="320"
     inkscape:cy="320"
     inkscape:window-x="0"
     inkscape:window-y="25"
     inkscape:window-maximized="0"
     inkscape:current-layer="g10" /><g
     id="g10"
     inkscape:groupmode="layer"
     inkscape:label="人物"
     transform="matrix(1.25,0,0,-1.25,0,640)"><g
       id="g12"
       transform="translate(0,512.0001)"><path
         d="M 0,0 0,-512 0,0 z"
         style="fill:#ffffff;fill-opacity:1;fill-rule:nonzero;stroke:none"
         id="path14" /></g><path
       d="M 0,0 512,0 512,512 0,512 0,0 z"
       style="fill:#ffffff;fill-opacity:1;fill-rule:nonzero;stroke:none"
       id="path16" /><path
       d="M 0,0 512,0 0,0 z"
       style="fill:#ffffff;fill-opacity:1;fill-rule:nonzero;stroke:none"
       id="path18" /><path
       d="m 0,511 512,0 0,1 -512,0 0,-1 z"
       style="fill:#ffffff;fill-opacity:1;fill-rule:nonzero;stroke:none"
       id="path20" /><g
       id="g22"
       transform="translate(0,512.0001)"><path
         d="M 0,0 0,-1 0,0 z"
         style="fill:#ffffff;fill-opacity:1;fill-rule:nonzero;stroke:none"
         id="path24" /></g><g
       id="g26"><g
         id="g28"
         clip-path="url(#clipPath30)"><g
           id="g34"
           transform="translate(456,256)"><path
             d="m 0,0 c 0,-110.457 -89.543,-200 -200,-200 -110.457,0 -200,89.543 -200,200 0,110.457 89.543,200 200,200 C -89.543,200 0,110.457 0,0"
             style="fill:#3bafda;fill-opacity:1;fill-rule:nonzero;stroke:none"
             id="path36" /></g><g
           id="g38"
           transform="translate(340.332,300.6924)"><path
             d="m 0,0 c 15.649,91.813 -46,111.489 -84.332,111.489 -38.332,0 -99.982,-19.676 -84.332,-111.489 17.334,-101.692 -46.977,-53.692 -46.977,-53.692 0,0 68.903,-96.955 131.309,-30.408 62.406,-66.547 131.309,30.408 131.309,30.408 0,0 -64.31,-48 -46.977,53.692"
             style="fill:#434a54;fill-opacity:1;fill-rule:nonzero;stroke:none"
             id="path40" /></g><g
           id="g42"
           transform="translate(354.0645,213.1436)"><path
             d="m 0,0 c 20.059,15.304 33.244,33.856 33.244,33.856 0,0 -43.703,-32.609 -49.34,12.918 C -19.047,13.776 -10.658,2.283 0,0"
             style="fill:#656d78;fill-opacity:1;fill-rule:nonzero;stroke:none"
             id="path44" /></g><g
           id="g46"
           transform="translate(157.9355,213.1436)"><path
             d="M 0,0 C 10.658,2.283 19.047,13.776 16.095,46.774 10.459,1.247 -33.244,33.856 -33.244,33.856 -33.244,33.856 -20.059,15.304 0,0"
             style="fill:#656d78;fill-opacity:1;fill-rule:nonzero;stroke:none"
             id="path48" /></g><g
           id="g50"
           transform="translate(256,389.1816)"><path
             d="M 0,0 C 32.215,0 80.891,-13.904 86.32,-72.838 92.707,5.592 36.047,23 0,23 -36.047,23 -92.707,5.592 -86.32,-72.838 -80.891,-13.904 -32.215,0 0,0"
             style="fill:#656d78;fill-opacity:1;fill-rule:nonzero;stroke:none"
             id="path52" /></g><g
           id="g54"
           transform="translate(372.668,143.2109)"><path
             d="m 0,0 c -7.354,6.355 -19.365,14.563 -30.666,15.666 -7.258,0.709 -86.002,23 -86.002,23 0,0 -78.744,-22.291 -86.002,-23 -11.302,-1.103 -23.313,-9.311 -30.666,-15.666 -13.235,-11.439 -10.854,-25.453 -14.641,-38.188 35.133,-30.605 81.055,-49.144 131.309,-49.144 50.254,0 96.176,18.539 131.309,49.144 C 10.854,-25.453 13.234,-11.439 0,0"
             style="fill:#434a54;fill-opacity:1;fill-rule:nonzero;stroke:none"
             id="path56" /></g><g
           id="g58"
           transform="translate(228.002,189.3789)"><path
             d="m 0,0 c 0,0 -45.336,-6.252 -35.502,-45.584 9.834,-39.334 11.168,-53.291 11.168,-53.291 0,0 15.334,19.354 19.334,13.687 4,-5.667 -9.252,-21.656 -9.252,-21.656 L 9.369,-131.645 10.998,-94.25 2.367,-13.684 0,0 z"
             style="fill:#656d78;fill-opacity:1;fill-rule:nonzero;stroke:none"
             id="path60" /></g><g
           id="g62"
           transform="translate(283.999,189.3789)"><path
             d="m 0,0 c 0,0 45.335,-6.252 35.501,-45.584 -9.834,-39.334 -11.166,-53.291 -11.166,-53.291 0,0 -15.335,19.354 -19.335,13.687 -4,-5.667 9.251,-21.656 9.251,-21.656 L -9.37,-131.645 -10.999,-94.25 -2.368,-13.684 0,0 z"
             style="fill:#656d78;fill-opacity:1;fill-rule:nonzero;stroke:none"
             id="path64" /></g><g
           id="g66"
           transform="translate(256,259)"><path
             d="m 0,0 -42.25,5.5 16.307,-88.734 c 0,0 3.666,-30.766 25.943,-30.766 22.277,0 25.943,30.766 25.943,30.766 L 42.25,5.5 0,0 z"
             style="fill:#ab7049;fill-opacity:1;fill-rule:nonzero;stroke:none"
             id="path68" /></g><g
           id="g70"
           transform="translate(290,249.5)"><path
             d="m 0,0 -69.525,-21.592 7.086,-38.555 c 10.66,-13.146 26.918,-25.187 50.957,-26.265 2.709,6.691 3.425,12.678 3.425,12.678 L 4.07,-7.744 C 1.686,-2.947 0,0 0,0"
             style="fill:#8c5c3c;fill-opacity:1;fill-rule:nonzero;stroke:none"
             id="path72" /></g><g
           id="g74"
           transform="translate(284.665,169.5449)"><path
             d="M 0,0 C 0,0 3.084,4.176 2.667,13.332 2.294,21.527 -23.29,19.861 -28.665,19.42 -34.04,19.861 -59.624,21.527 -59.997,13.332 -60.413,4.176 -57.329,0 -57.329,0 l 4.807,-9.376 6.857,-65.04 -1.378,-38.414 c 6.052,-0.552 12.182,-0.836 18.378,-0.836 6.221,0 12.375,0.285 18.451,0.842 L -11.665,-74.416 -4.321,-8.43 0,0 z"
             style="fill:#ec87c0;fill-opacity:1;fill-rule:nonzero;stroke:none"
             id="path76" /></g><g
           id="g78"
           transform="translate(256,358)"><path
             d="m 0,0 -63,0 c 0,0 4.785,-94.465 11,-114 7,-22.001 14.237,-27.287 30.226,-41 C -8.366,-166.5 0,-165 0,-165 c 0,0 8.366,-1.5 21.774,10 C 37.763,-141.287 46,-136.001 53,-114 59.215,-94.465 63,0 63,0 L 0,0 z"
             style="fill:#ba7a50;fill-opacity:1;fill-rule:nonzero;stroke:none"
             id="path80" /></g><g
           id="g82"
           transform="translate(197.75,297.5)"><path
             d="m 0,0 c 0,0 -22.743,10.911 -17.273,-16.638 5.467,-27.55 22.017,-23.583 22.017,-23.583 L 0,0 z"
             style="fill:#ab7049;fill-opacity:1;fill-rule:nonzero;stroke:none"
             id="path84" /></g><g
           id="g86"
           transform="translate(315.25,297.5)"><path
             d="M 0,0 C 0,0 22.743,10.911 17.273,-16.638 11.806,-44.188 -4.744,-40.221 -4.744,-40.221 L 0,0 z"
             style="fill:#ab7049;fill-opacity:1;fill-rule:nonzero;stroke:none"
             id="path88" /></g><g
           id="g90"
           transform="translate(319,296.3789)"><path
             d="m 0,0 -0.902,3.254 -13.228,-7.67 c -0.433,1.741 -1.995,3.037 -3.87,3.037 l -34,0 c -2.209,0 -4,-1.791 -4,-4 l 0,-4 -14,0 0,4 c 0,2.209 -1.791,4 -4,4 l -34,0 c -1.875,0 -3.438,-1.296 -3.87,-3.037 L -125.098,3.254 -126,0 l 14,-15.273 0,-7.106 c 0,-2.209 1.791,-4 4,-4 l 34,0 c 2.209,0 4,1.791 4,4 l 0,10 14,0 0,-10 c 0,-2.209 1.791,-4 4,-4 l 34,0 c 2.209,0 4,1.791 4,4 l 0,7.106 L 0,0 z"
             style="fill:#434a54;fill-opacity:1;fill-rule:nonzero;stroke:none"
             id="path92" /></g><g
           id="g94"
           transform="translate(246,274)"><path
             d="m 0,0 c 0,-0.553 -0.447,-1 -1,-1 l -34,0 c -0.553,0 -1,0.447 -1,1 l 0,17 c 0,0.553 0.447,1 1,1 l 34,0 c 0.553,0 1,-0.447 1,-1 L 0,0 z"
             style="fill:#f5f7fa;fill-opacity:1;fill-rule:nonzero;stroke:none"
             id="path96" /></g><g
           id="g98"
           transform="translate(218.5,273)"><path
             d="M 0,0 -6,0 -1,19 5,19 0,0 z"
             style="fill:#e6e9ed;fill-opacity:1;fill-rule:nonzero;stroke:none"
             id="path100" /></g><g
           id="g102"
           transform="translate(227.5,273)"><path
             d="M 0,0 -6,0 -1,19 5,19 0,0 z"
             style="fill:#e6e9ed;fill-opacity:1;fill-rule:nonzero;stroke:none"
             id="path104" /></g><g
           id="g106"
           transform="translate(302,274)"><path
             d="m 0,0 c 0,-0.553 -0.447,-1 -1,-1 l -34,0 c -0.553,0 -1,0.447 -1,1 l 0,17 c 0,0.553 0.447,1 1,1 l 34,0 c 0.553,0 1,-0.447 1,-1 L 0,0 z"
             style="fill:#f5f7fa;fill-opacity:1;fill-rule:nonzero;stroke:none"
             id="path108" /></g><g
           id="g110"
           transform="translate(274.5,273)"><path
             d="M 0,0 -6,0 -1,19 5,19 0,0 z"
             style="fill:#e6e9ed;fill-opacity:1;fill-rule:nonzero;stroke:none"
             id="path112" /></g><g
           id="g114"
           transform="translate(283.5,273)"><path
             d="M 0,0 -6,0 -1,19 5,19 0,0 z"
             style="fill:#e6e9ed;fill-opacity:1;fill-rule:nonzero;stroke:none"
             id="path116" /></g><g
           id="g118"
           transform="translate(256,389)"><path
             d="M 0,0 C -99,0 -59.834,-92.066 -59.834,-92.066 -42.002,-25.799 0,-37.667 0,-37.667 c 0,0 42.002,11.868 59.834,-54.399 C 59.834,-92.066 99,0 0,0"
             style="fill:#434a54;fill-opacity:1;fill-rule:nonzero;stroke:none"
             id="path120" /></g><g
           id="g122"
           transform="translate(256,371.7578)"><path
             d="m 0,0 c -39.332,0 -57.428,-18.941 -63.5,-73.592 l 3.999,-1.278 c 0,0 11.022,41.53 59.501,42.099 48.479,-0.569 59.502,-42.099 59.502,-42.099 l 3.998,1.278 C 57.428,-18.941 39.334,0 0,0"
             style="fill:#ec87c0;fill-opacity:1;fill-rule:nonzero;stroke:none"
             id="path124" /></g><g
           id="g126"
           transform="translate(256,365.7578)"><path
             d="m 0,0 c 37.912,0 56.088,-17.61 62.789,-67.818 l 0.711,0.226 C 57.428,-12.941 39.334,6 0,6 -39.332,6 -57.428,-12.941 -63.5,-67.592 l 0.711,-0.226 C -56.088,-17.61 -37.912,0 0,0"
             style="fill:#ff92cf;fill-opacity:1;fill-rule:nonzero;stroke:none"
             id="path128" /></g></g></g></g></svg>