<?xml version="1.0" encoding="UTF-8" standalone="no"?>
<!-- Created with Inkscape (http://www.inkscape.org/) -->

<svg
   xmlns:dc="http://purl.org/dc/elements/1.1/"
   xmlns:cc="http://creativecommons.org/ns#"
   xmlns:rdf="http://www.w3.org/1999/02/22-rdf-syntax-ns#"
   xmlns:svg="http://www.w3.org/2000/svg"
   xmlns="http://www.w3.org/2000/svg"
   xmlns:sodipodi="http://sodipodi.sourceforge.net/DTD/sodipodi-0.dtd"
   xmlns:inkscape="http://www.inkscape.org/namespaces/inkscape"
   id="svg2"
   version="1.1"
   inkscape:version="0.48.5 r10040"
   width="640"
   height="640"
   xml:space="preserve"
   sodipodi:docname="人物.ai"><metadata
     id="metadata8"><rdf:RDF><cc:Work
         rdf:about=""><dc:format>image/svg+xml</dc:format><dc:type
           rdf:resource="http://purl.org/dc/dcmitype/StillImage" /><dc:title></dc:title></cc:Work></rdf:RDF></metadata><defs
     id="defs6"><clipPath
       clipPathUnits="userSpaceOnUse"
       id="clipPath16"><path
         d="M 0,512 512,512 512,0 0,0 0,512 z"
         id="path18" /></clipPath><clipPath
       clipPathUnits="userSpaceOnUse"
       id="clipPath30"><path
         d="M 0,512 512,512 512,0 0,0 0,512 z"
         id="path32" /></clipPath><clipPath
       clipPathUnits="userSpaceOnUse"
       id="clipPath42"><path
         d="M 0,512 512,512 512,0 0,0 0,512 z"
         id="path44" /></clipPath><clipPath
       clipPathUnits="userSpaceOnUse"
       id="clipPath52"><path
         d="M 0,512 512,512 512,0 0,0 0,512 z"
         id="path54" /></clipPath></defs><sodipodi:namedview
     pagecolor="#ffffff"
     bordercolor="#666666"
     borderopacity="1"
     objecttolerance="10"
     gridtolerance="10"
     guidetolerance="10"
     inkscape:pageopacity="0"
     inkscape:pageshadow="2"
     inkscape:window-width="684"
     inkscape:window-height="480"
     id="namedview4"
     showgrid="false"
     inkscape:zoom="0.36875"
     inkscape:cx="320"
     inkscape:cy="320"
     inkscape:window-x="0"
     inkscape:window-y="25"
     inkscape:window-maximized="0"
     inkscape:current-layer="g10" /><g
     id="g10"
     inkscape:groupmode="layer"
     inkscape:label="人物"
     transform="matrix(1.25,0,0,-1.25,0,640)"><g
       id="g12"><g
         id="g14"
         clip-path="url(#clipPath16)"><path
           d="m 1024,512 -512,0 0,512 512,0 0,-512 z"
           style="fill:#ffffff;fill-opacity:1;fill-rule:nonzero;stroke:none"
           id="path20" /><path
           d="m 512,512 -512,0 0,512 512,0 0,-512 z"
           style="fill:#ffffff;fill-opacity:1;fill-rule:nonzero;stroke:none"
           id="path22" /></g></g><path
       d="M 0,0 512,0 512,512 0,512 0,0 z"
       style="fill:#ffffff;fill-opacity:1;fill-rule:nonzero;stroke:none"
       id="path24" /><g
       id="g26"><g
         id="g28"
         clip-path="url(#clipPath30)"><path
           d="m 1024,0 -512,0 0,512 512,0 0,-512 z"
           style="fill:#ffffff;fill-opacity:1;fill-rule:nonzero;stroke:none"
           id="path34" /></g></g><path
       d="M 0,0 512,0 0,0 z"
       style="fill:#ffffff;fill-opacity:1;fill-rule:nonzero;stroke:none"
       id="path36" /><g
       id="g38"><g
         id="g40"
         clip-path="url(#clipPath42)"><path
           d="m 1024,-512 -512,0 0,512 512,0 0,-512 z"
           style="fill:#ffffff;fill-opacity:1;fill-rule:nonzero;stroke:none"
           id="path46" /></g></g><g
       id="g48"><g
         id="g50"
         clip-path="url(#clipPath52)"><g
           id="g56"
           transform="translate(456,256)"><path
             d="m 0,0 c 0,-110.457 -89.543,-200 -200,-200 -110.457,0 -200,89.543 -200,200 0,110.457 89.543,200 200,200 C -89.543,200 0,110.457 0,0"
             style="fill:#3db093;fill-opacity:1;fill-rule:nonzero;stroke:none"
             id="path58" /></g><g
           id="g60"
           transform="translate(364.5,305.5488)"><path
             d="m 0,0 c -9.207,-7.014 -17.717,-2.045 -23.584,3.984 6.02,8.891 9.553,19.601 9.553,31.148 0,7.175 -1.363,14.029 -3.834,20.327 6.002,4.283 7.834,12.992 7.834,12.992 -4.89,-3.834 -8.795,-4.992 -11.811,-4.877 -4.656,7.821 -11.169,14.406 -18.937,19.14 -8.693,23.943 -31.641,41.049 -58.588,41.049 -23.991,0 -44.802,-13.568 -55.216,-33.441 -17.267,-2.26 -32.036,-12.429 -40.568,-26.748 -3.017,-0.116 -6.924,1.039 -11.819,4.877 0,0 1.833,-8.709 7.835,-12.992 -2.472,-6.297 -3.835,-13.151 -3.835,-20.327 0,-11.548 3.522,-22.269 9.54,-31.161 -5.867,-6.024 -14.371,-10.98 -23.57,-3.971 0,0 10.441,-10.949 22.295,-12.945 -1.076,-3.196 -1.662,-6.616 -1.662,-10.173 0,-17.635 14.296,-31.931 31.93,-31.931 17.635,0 31.931,14.296 31.931,31.931 0,1.522 -0.113,3.018 -0.32,4.483 9.291,2.498 17.625,7.328 24.326,13.838 6.266,-6.088 13.955,-10.718 22.523,-13.334 -0.255,-1.626 -0.39,-3.291 -0.39,-4.987 0,-17.635 14.296,-31.931 31.93,-31.931 17.635,0 31.931,14.296 31.931,31.931 0,3.472 -0.562,6.811 -1.589,9.94 C -11.519,-12.082 0,0 0,0"
             style="fill:#f5f7fa;fill-opacity:1;fill-rule:nonzero;stroke:none"
             id="path62" /></g><g
           id="g64"
           transform="translate(372.668,142.333)"><path
             d="m 0,0 c -7.354,6.355 -19.364,14.562 -30.666,15.666 -7.258,0.709 -86.002,23 -86.002,23 0,0 -78.744,-22.291 -86.002,-23 -11.302,-1.104 -23.313,-9.311 -30.666,-15.666 -13.235,-11.44 -10.854,-25.454 -14.641,-38.188 35.133,-30.606 81.055,-49.145 131.309,-49.145 50.254,0 96.176,18.539 131.309,49.145 C 10.854,-25.454 13.234,-11.44 0,0"
             style="fill:#967adc;fill-opacity:1;fill-rule:nonzero;stroke:none"
             id="path66" /></g><g
           id="g68"
           transform="translate(278.3711,178.0908)"><path
             d="M 0,0 -22.371,-1.844 -44.742,0 -53.896,-11.759 c 0,0 3.525,-53.74 8.191,-64.74 3.079,-7.26 13.559,-10.592 20.334,-12.592 l 6,0 c 6.774,2 17.255,5.332 20.334,12.592 4.666,11 8.191,64.703 8.191,64.703 L 0,0 z"
             style="fill:#f9e0a8;fill-opacity:1;fill-rule:nonzero;stroke:none"
             id="path70" /></g><g
           id="g72"
           transform="translate(278.8066,90.666)"><path
             d="m 0,0 8.666,35.333 -31,-20.999 -31,20.999 8.666,-35.333 3.705,-34.81 c 6.134,-0.567 12.348,-0.856 18.629,-0.856 6.281,0 12.495,0.289 18.629,0.856 L 0,0 z"
             style="fill:#f5f7fa;fill-opacity:1;fill-rule:nonzero;stroke:none"
             id="path74" /></g><g
           id="g76"
           transform="translate(256.4727,259)"><path
             d="m 0,0 -42.25,5.5 16.307,-88.734 c 0,0 3.666,-30.766 25.943,-30.766 22.277,0 25.943,30.766 25.943,30.766 L 42.25,5.5 0,0 z"
             style="fill:#f9e0a8;fill-opacity:1;fill-rule:nonzero;stroke:none"
             id="path78" /></g><g
           id="g80"
           transform="translate(290.4727,249.5)"><path
             d="m 0,0 -69.525,-21.592 7.086,-38.555 c 10.66,-13.146 26.918,-25.187 50.957,-26.265 2.709,6.691 3.425,12.678 3.425,12.678 L 4.07,-7.744 C 1.686,-2.947 0,0 0,0"
             style="fill:#d9c392;fill-opacity:1;fill-rule:nonzero;stroke:none"
             id="path82" /></g><g
           id="g84"
           transform="translate(283.8535,166.3535)"><path
             d="m 0,0 c -2.324,0 -4.209,-1.885 -4.209,-4.209 0,-0.306 0.036,-0.602 0.098,-0.89 C -4.398,-5.036 -4.695,-5 -5,-5 c -2.32,0 -4.201,-1.879 -4.208,-4.197 -1.731,-0.522 -3.001,-2.111 -3.001,-4.012 0,-0.074 0.018,-0.144 0.021,-0.217 -0.55,0.265 -1.16,0.426 -1.812,0.426 -2.324,0 -4.209,-1.885 -4.209,-4.209 0,-0.074 0.018,-0.144 0.022,-0.217 -0.551,0.265 -1.161,0.426 -1.813,0.426 -1.407,0 -2.646,-0.697 -3.41,-1.758 -1.006,1.082 -2.412,1.758 -3.971,1.758 -1.558,0 -2.965,-0.676 -3.971,-1.758 -0.764,1.061 -2.002,1.758 -3.41,1.758 -0.652,0 -1.261,-0.161 -1.812,-0.426 0.004,0.073 0.021,0.143 0.021,0.217 0,2.324 -1.885,4.209 -4.209,4.209 -0.652,0 -1.261,-0.161 -1.812,-0.426 0.004,0.073 0.021,0.143 0.021,0.217 0,1.901 -1.269,3.49 -3.001,4.012 -0.007,2.318 -1.887,4.197 -4.208,4.197 -0.305,0 -0.601,-0.036 -0.888,-0.099 0.061,0.288 0.097,0.584 0.097,0.89 0,2.324 -1.885,4.209 -4.209,4.209 -2.324,0 -4.209,-1.885 -4.209,-4.209 0,-2.324 1.885,-4.209 4.209,-4.209 0.306,0 0.602,0.036 0.889,0.099 -0.062,-0.288 -0.098,-0.584 -0.098,-0.89 0,-1.901 1.27,-3.49 3.001,-4.012 0.007,-2.318 1.888,-4.197 4.208,-4.197 0.653,0 1.262,0.161 1.813,0.426 -0.004,-0.073 -0.022,-0.143 -0.022,-0.217 0,-2.324 1.885,-4.209 4.209,-4.209 0.653,0 1.262,0.161 1.813,0.426 -0.004,-0.073 -0.022,-0.143 -0.022,-0.217 0,-2.324 1.885,-4.209 4.209,-4.209 0.803,0 1.545,0.236 2.184,0.627 0.777,-2.217 2.808,-3.802 5.197,-3.802 2.389,0 4.42,1.585 5.197,3.802 0.639,-0.391 1.381,-0.627 2.184,-0.627 2.324,0 4.209,1.885 4.209,4.209 0,0.074 -0.018,0.144 -0.022,0.217 0.551,-0.265 1.161,-0.426 1.813,-0.426 2.324,0 4.209,1.885 4.209,4.209 0,0.074 -0.018,0.144 -0.022,0.217 0.551,-0.265 1.161,-0.426 1.813,-0.426 2.32,0 4.201,1.879 4.208,4.197 1.731,0.522 3.001,2.111 3.001,4.012 0,0.306 -0.036,0.602 -0.098,0.89 0.287,-0.063 0.583,-0.099 0.889,-0.099 2.324,0 4.209,1.885 4.209,4.209 C 4.209,-1.885 2.324,0 0,0"
             style="fill:#f5f7fa;fill-opacity:1;fill-rule:nonzero;stroke:none"
             id="path86" /></g><g
           id="g88"
           transform="translate(228.002,187.5)"><path
             d="m 0,0 c 0,0 -45.336,-6.251 -35.502,-45.584 9.834,-39.333 11.167,-53.291 11.167,-53.291 0,0 15.335,19.354 19.335,13.687 4,-5.666 -9.252,-21.656 -9.252,-21.656 l 23.621,-24.8 1.629,37.394 L 2.367,-13.684 0,0 z"
             style="fill:#ac92ec;fill-opacity:1;fill-rule:nonzero;stroke:none"
             id="path90" /></g><g
           id="g92"
           transform="translate(283.999,187.5)"><path
             d="m 0,0 c 0,0 45.335,-6.251 35.501,-45.584 -9.834,-39.333 -11.167,-53.291 -11.167,-53.291 0,0 -15.334,19.354 -19.334,13.687 -4,-5.666 9.251,-21.656 9.251,-21.656 l -23.621,-24.8 -1.629,37.394 8.631,80.566 L 0,0 z"
             style="fill:#ac92ec;fill-opacity:1;fill-rule:nonzero;stroke:none"
             id="path94" /></g><g
           id="g96"
           transform="translate(256,358)"><path
             d="m 0,0 -63,0 c 0,0 4.785,-94.465 11,-114 7,-22.001 14.237,-27.287 30.226,-41 C -8.366,-166.5 0,-165 0,-165 c 0,0 8.366,-1.5 21.774,10 C 37.763,-141.287 46,-136.001 53,-114 59.215,-94.465 63,0 63,0 L 0,0 z"
             style="fill:#ffe9ba;fill-opacity:1;fill-rule:nonzero;stroke:none"
             id="path98" /></g><g
           id="g100"
           transform="translate(197.75,297.5)"><path
             d="m 0,0 c 0,0 -22.743,10.911 -17.273,-16.638 5.467,-27.55 22.017,-23.583 22.017,-23.583 L 0,0 z"
             style="fill:#f9e0a8;fill-opacity:1;fill-rule:nonzero;stroke:none"
             id="path102" /></g><g
           id="g104"
           transform="translate(315.25,297.5)"><path
             d="M 0,0 C 0,0 22.743,10.911 17.273,-16.638 11.806,-44.188 -4.744,-40.221 -4.744,-40.221 L 0,0 z"
             style="fill:#f9e0a8;fill-opacity:1;fill-rule:nonzero;stroke:none"
             id="path106" /></g><g
           id="g108"
           transform="translate(314.5688,297.127)"><path
             d="m 0,0 -22.082,-8.784 c -2.448,4.932 -7.523,8.332 -13.406,8.332 -7.352,0 -13.456,-5.301 -14.726,-12.288 -2.215,2.01 -5.469,2.902 -8.355,2.959 -2.887,-0.057 -6.141,-0.949 -8.355,-2.959 -1.27,6.987 -7.373,12.288 -14.725,12.288 -5.882,0 -10.959,-3.4 -13.409,-8.332 l -22.08,8.784 0.058,-1.955 c 0,0 19.42,-9.414 20.642,-11.208 -0.113,-0.742 -0.189,-1.495 -0.189,-2.268 0,-8.273 6.705,-14.979 14.978,-14.979 8.14,0 14.746,6.496 14.96,14.585 1.581,2.777 5.143,3.851 8.12,3.911 2.978,-0.06 6.54,-1.134 8.121,-3.911 0.211,-8.089 6.82,-14.585 14.96,-14.585 8.273,0 14.978,6.706 14.978,14.979 0,0.773 -0.077,1.526 -0.189,2.268 1.221,1.794 20.639,11.208 20.639,11.208 L 0,0 z"
             style="fill:#656d78;fill-opacity:1;fill-rule:nonzero;stroke:none"
             id="path110" /></g><g
           id="g112"
           transform="translate(245.9424,281.6963)"><path
             d="m 0,0 c 0,-7.193 -5.832,-13.022 -13.022,-13.022 -7.194,0 -13.023,5.829 -13.023,13.022 0,7.192 5.829,13.022 13.023,13.022 C -5.832,13.022 0,7.192 0,0"
             style="fill:#f5f7fa;fill-opacity:1;fill-rule:nonzero;stroke:none"
             id="path114" /></g><g
           id="g116"
           transform="translate(266.0581,281.6963)"><path
             d="m 0,0 c 0,-7.193 5.831,-13.022 13.022,-13.022 7.193,0 13.024,5.829 13.024,13.022 0,7.192 -5.831,13.022 -13.024,13.022 C 5.831,13.022 0,7.192 0,0"
             style="fill:#f5f7fa;fill-opacity:1;fill-rule:nonzero;stroke:none"
             id="path118" /></g><g
           id="g120"
           transform="translate(232.9199,294.7187)"><path
             d="m 0,0 c -1.229,0 -2.412,-0.183 -3.54,-0.5 l -7.304,-19.73 c 1.671,-2.511 4.192,-4.401 7.151,-5.276 l 9.019,24.36 C 3.697,-0.415 1.897,0 0,0"
             style="fill:#e8eaed;fill-opacity:1;fill-rule:nonzero;stroke:none"
             id="path122" /></g><g
           id="g124"
           transform="translate(239.5146,292.9102)"><path
             d="m 0,0 -8.892,-24.023 c 0.747,-0.131 1.512,-0.213 2.297,-0.213 1.061,0 2.087,0.138 3.076,0.38 L 3.97,-3.624 C 2.916,-2.155 1.564,-0.92 0,0"
             style="fill:#e8eaed;fill-opacity:1;fill-rule:nonzero;stroke:none"
             id="path126" /></g><g
           id="g128"
           transform="translate(279.2183,294.7187)"><path
             d="m 0,0 c -1.228,0 -2.411,-0.183 -3.538,-0.5 l -7.303,-19.73 c 1.673,-2.511 4.19,-4.401 7.151,-5.276 l 9.015,24.36 C 3.7,-0.415 1.9,0 0,0"
             style="fill:#e8eaed;fill-opacity:1;fill-rule:nonzero;stroke:none"
             id="path130" /></g><g
           id="g132"
           transform="translate(285.8159,292.9102)"><path
             d="m 0,0 -8.892,-24.023 c 0.746,-0.131 1.512,-0.213 2.294,-0.213 1.062,0 2.09,0.138 3.077,0.38 L 3.967,-3.624 C 2.914,-2.155 1.562,-0.92 0,0"
             style="fill:#e8eaed;fill-opacity:1;fill-rule:nonzero;stroke:none"
             id="path134" /></g><g
           id="g136"
           transform="translate(185,312.5)"><path
             d="m 0,0 c 0,0 21.5,-8 38.5,29 0,0 -1.25,12.121 14.75,8.561 16,-3.561 2.781,-84.518 98.781,-38.29 l -4.142,53.726 c 0,0 -5.889,42.837 -76.389,42.837 C 1,95.834 0,44.833 0,44.833 L 0,0 z"
             style="fill:#f5f7fa;fill-opacity:1;fill-rule:nonzero;stroke:none"
             id="path138" /></g></g></g></g></svg>