<?xml version="1.0" encoding="UTF-8" standalone="no"?>
<!-- Created with Inkscape (http://www.inkscape.org/) -->

<svg
   xmlns:dc="http://purl.org/dc/elements/1.1/"
   xmlns:cc="http://creativecommons.org/ns#"
   xmlns:rdf="http://www.w3.org/1999/02/22-rdf-syntax-ns#"
   xmlns:svg="http://www.w3.org/2000/svg"
   xmlns="http://www.w3.org/2000/svg"
   xmlns:sodipodi="http://sodipodi.sourceforge.net/DTD/sodipodi-0.dtd"
   xmlns:inkscape="http://www.inkscape.org/namespaces/inkscape"
   id="svg2"
   version="1.1"
   inkscape:version="0.48.5 r10040"
   width="640"
   height="640"
   xml:space="preserve"
   sodipodi:docname="人物.ai"><metadata
     id="metadata8"><rdf:RDF><cc:Work
         rdf:about=""><dc:format>image/svg+xml</dc:format><dc:type
           rdf:resource="http://purl.org/dc/dcmitype/StillImage" /><dc:title></dc:title></cc:Work></rdf:RDF></metadata><defs
     id="defs6"><clipPath
       clipPathUnits="userSpaceOnUse"
       id="clipPath16"><path
         d="M 0,512 512,512 512,0 0,0 0,512 z"
         id="path18" /></clipPath><clipPath
       clipPathUnits="userSpaceOnUse"
       id="clipPath34"><path
         d="M 0,512 512,512 512,0 0,0 0,512 z"
         id="path36" /></clipPath><clipPath
       clipPathUnits="userSpaceOnUse"
       id="clipPath48"><path
         d="M 0,512 512,512 512,0 0,0 0,512 z"
         id="path50" /></clipPath><clipPath
       clipPathUnits="userSpaceOnUse"
       id="clipPath58"><path
         d="M 0,512 512,512 512,0 0,0 0,512 z"
         id="path60" /></clipPath></defs><sodipodi:namedview
     pagecolor="#ffffff"
     bordercolor="#666666"
     borderopacity="1"
     objecttolerance="10"
     gridtolerance="10"
     guidetolerance="10"
     inkscape:pageopacity="0"
     inkscape:pageshadow="2"
     inkscape:window-width="684"
     inkscape:window-height="480"
     id="namedview4"
     showgrid="false"
     inkscape:zoom="0.36875"
     inkscape:cx="320"
     inkscape:cy="320"
     inkscape:window-x="0"
     inkscape:window-y="25"
     inkscape:window-maximized="0"
     inkscape:current-layer="g10" /><g
     id="g10"
     inkscape:groupmode="layer"
     inkscape:label="人物"
     transform="matrix(1.25,0,0,-1.25,0,640)"><g
       id="g12"><g
         id="g14"
         clip-path="url(#clipPath16)"><path
           d="m 512,512 -512,0 0,512 512,0 0,-512 z"
           style="fill:#ffffff;fill-opacity:1;fill-rule:nonzero;stroke:none"
           id="path20" /><path
           d="m 0,512 -512,0 0,512 512,0 0,-512 z"
           style="fill:#ffffff;fill-opacity:1;fill-rule:nonzero;stroke:none"
           id="path22" /><path
           d="m 1024,512 -512,0 0,512 512,0 0,-512 z"
           style="fill:#ffffff;fill-opacity:1;fill-rule:nonzero;stroke:none"
           id="path24" /></g></g><g
       id="g26"
       transform="translate(0,512.0001)"><path
         d="M 0,0 0,-512 0,0 z"
         style="fill:#ffffff;fill-opacity:1;fill-rule:nonzero;stroke:none"
         id="path28" /></g><g
       id="g30"><g
         id="g32"
         clip-path="url(#clipPath34)"><path
           d="m 1024,0 -512,0 0,512 512,0 0,-512 z"
           style="fill:#ffffff;fill-opacity:1;fill-rule:nonzero;stroke:none"
           id="path38" /></g></g><path
       d="M 0,0 512,0 512,512 0,512 0,0 z"
       style="fill:#ffffff;fill-opacity:1;fill-rule:nonzero;stroke:none"
       id="path40" /><path
       d="M 0,0 512,0 0,0 z"
       style="fill:#ffffff;fill-opacity:1;fill-rule:nonzero;stroke:none"
       id="path42" /><g
       id="g44"><g
         id="g46"
         clip-path="url(#clipPath48)"><path
           d="m 1024,-512 -512,0 0,512 512,0 0,-512 z"
           style="fill:#ffffff;fill-opacity:1;fill-rule:nonzero;stroke:none"
           id="path52" /></g></g><g
       id="g54"><g
         id="g56"
         clip-path="url(#clipPath58)"><g
           id="g62"
           transform="translate(456,256)"><path
             d="m 0,0 c 0,-110.457 -89.543,-200 -200,-200 -110.457,0 -200,89.543 -200,200 0,110.457 89.543,200 200,200 C -89.543,200 0,110.457 0,0"
             style="fill:#d770ad;fill-opacity:1;fill-rule:nonzero;stroke:none"
             id="path64" /></g><g
           id="g66"
           transform="translate(372.668,143.2109)"><path
             d="m 0,0 c -7.353,6.355 -19.364,14.563 -30.666,15.666 -4.516,0.441 -36.694,9.234 -60.371,15.818 0.224,1.222 0.312,1.95 0.312,1.95 l 16.307,88.734 -42.25,-5.5 -42.25,5.5 16.307,-88.734 c 0,0 0.088,-0.728 0.312,-1.95 C -165.976,24.9 -198.154,16.107 -202.67,15.666 -213.972,14.563 -225.983,6.355 -233.336,0 c -13.235,-11.439 -10.854,-25.453 -14.641,-38.188 35.133,-30.605 81.055,-49.144 131.309,-49.144 50.254,0 96.176,18.539 131.309,49.144 C 10.854,-25.453 13.235,-11.439 0,0"
             style="fill:#f9e0a8;fill-opacity:1;fill-rule:nonzero;stroke:none"
             id="path68" /></g><g
           id="g70"
           transform="translate(290,250.3789)"><path
             d="m 0,0 -69.525,-21.592 7.086,-38.556 c 10.66,-13.145 26.918,-25.186 50.957,-26.264 2.709,6.691 3.425,12.678 3.425,12.678 L 4.07,-7.744 C 1.686,-2.947 0,0 0,0"
             style="fill:#d9c392;fill-opacity:1;fill-rule:nonzero;stroke:none"
             id="path72" /></g><g
           id="g74"
           transform="translate(167.3164,158.4746)"><path
             d="m 0,0 c -0.445,-0.086 -0.891,-0.172 -1.337,-0.277 -0.265,-0.061 -0.53,-0.131 -0.795,-0.2 -0.409,-0.105 -0.819,-0.214 -1.228,-0.335 -0.276,-0.081 -0.551,-0.167 -0.827,-0.252 -0.401,-0.129 -0.801,-0.262 -1.202,-0.401 -0.273,-0.096 -0.546,-0.193 -0.818,-0.293 -0.41,-0.152 -0.817,-0.312 -1.225,-0.476 -0.256,-0.104 -0.514,-0.205 -0.77,-0.313 -0.446,-0.189 -0.889,-0.387 -1.331,-0.588 -0.212,-0.097 -0.425,-0.189 -0.636,-0.287 -0.648,-0.305 -1.292,-0.619 -1.931,-0.947 3.813,-18.201 0.33,-43.967 -5.07,-67.934 2.72,-1.699 5.484,-3.334 8.289,-4.904 l 0.566,-0.316 c 0.877,-0.487 1.756,-0.971 2.641,-1.444 l 0.041,-0.023 c 2.84,-1.52 5.721,-2.973 8.639,-4.36 0.159,-0.076 0.317,-0.15 0.476,-0.226 0.936,-0.44 1.873,-0.875 2.816,-1.303 0.013,-0.006 0.024,-0.01 0.036,-0.016 2.988,-1.351 6.017,-2.63 9.081,-3.837 0.089,-0.036 -0.046,-0.071 0.044,-0.106 21.866,-8.578 46.225,-13.414 70.225,-13.725 l 0,-0.003 c 1,-0.012 1.923,-0.03 2.777,-0.03 0.334,0 0.777,0.01 1.111,0.012 2.305,0.012 4.656,0.064 6.941,0.152 0.123,0.004 0.274,0.008 0.395,0.012 1.008,0.041 2.026,0.094 3.028,0.149 0.316,0.017 0.639,0.035 0.956,0.054 0.996,0.061 1.995,0.125 2.985,0.199 0.176,0.014 0.351,0.03 0.525,0.043 3.227,0.25 6.434,0.58 9.617,0.983 0.291,0.035 0.581,0.072 0.872,0.109 0.97,0.127 1.942,0.262 2.91,0.403 0.25,0.037 0.499,0.076 0.748,0.113 3.123,0.467 6.222,1.008 9.295,1.617 0.244,0.049 0.488,0.096 0.732,0.145 0.953,0.193 1.904,0.394 2.853,0.599 0.276,0.061 0.551,0.123 0.827,0.184 3.099,0.689 6.173,1.449 9.217,2.281 0.148,0.039 0.297,0.078 0.445,0.119 0.943,0.26 1.884,0.529 2.822,0.803 0.274,0.08 0.547,0.16 0.82,0.24 0.945,0.281 1.888,0.565 2.828,0.858 0.061,0.019 0.124,0.041 0.186,0.06 3.076,0.963 6.119,2.002 9.13,3.109 0.253,0.094 0.507,0.186 0.76,0.282 0.911,0.338 1.819,0.683 2.724,1.035 0.171,0.066 0.34,0.135 0.51,0.201 2.911,1.143 5.788,2.352 8.631,3.625 0.202,0.09 0.403,0.18 0.606,0.27 0.89,0.402 1.778,0.812 2.662,1.226 0.198,0.094 0.395,0.188 0.592,0.281 2.844,1.348 5.653,2.76 8.42,4.237 0.118,0.062 0.235,0.123 0.352,0.185 0.878,0.471 1.75,0.947 2.62,1.43 0.191,0.107 0.382,0.213 0.573,0.32 2.837,1.588 5.633,3.239 8.383,4.957 -5.4,23.967 -8.883,49.733 -5.07,67.934 -0.639,0.328 -1.283,0.642 -1.931,0.947 -0.21,0.098 -0.423,0.19 -0.634,0.285 -0.443,0.201 -0.886,0.401 -1.334,0.59 -0.256,0.108 -0.512,0.209 -0.769,0.313 -0.406,0.164 -0.815,0.324 -1.224,0.476 -0.272,0.1 -0.546,0.197 -0.819,0.293 -0.401,0.139 -0.801,0.272 -1.202,0.401 -0.275,0.085 -0.55,0.171 -0.826,0.252 -0.41,0.121 -0.82,0.23 -1.229,0.335 -0.265,0.069 -0.53,0.139 -0.794,0.2 -0.446,0.105 -0.893,0.191 -1.338,0.277 -0.226,0.043 -0.452,0.094 -0.678,0.131 -0.669,0.113 -1.337,0.207 -2.003,0.271 -0.34,0.034 -0.837,0.116 -1.475,0.239 -0.026,0.004 -0.057,0.011 -0.084,0.015 -0.189,0.037 -0.385,0.076 -0.597,0.121 -0.121,0.026 -0.257,0.055 -0.385,0.082 -0.127,0.026 -0.247,0.051 -0.38,0.08 -0.198,0.043 -0.411,0.092 -0.624,0.139 -0.079,0.018 -0.151,0.033 -0.231,0.051 -0.276,0.062 -0.566,0.129 -0.865,0.199 -0.024,0.006 -0.045,0.01 -0.068,0.016 -2.917,0.677 -6.899,1.679 -11.54,2.886 -0.029,0.008 -0.058,0.077 -0.088,0.084 -1.633,-11.652 -11.329,-43.789 -68.665,-43.789 l -2,0 C 30.348,-39.475 20.651,-7.338 19.019,4.314 18.988,4.307 18.959,4.268 18.93,4.26 14.289,3.053 10.308,2.036 7.391,1.358 7.365,1.353 7.343,1.34 7.318,1.334 7.021,1.266 6.733,1.195 6.459,1.133 6.365,1.113 6.281,1.092 6.19,1.072 5.99,1.027 5.789,0.98 5.603,0.939 5.469,0.912 5.35,0.886 5.223,0.859 5.094,0.832 4.958,0.803 4.837,0.777 4.625,0.732 4.429,0.693 4.24,0.656 4.213,0.652 4.183,0.645 4.156,0.641 3.519,0.518 3.021,0.436 2.682,0.402 2.016,0.338 1.348,0.244 0.678,0.131 0.452,0.094 0.226,0.043 0,0"
             style="fill:#2d3138;fill-opacity:1;fill-rule:nonzero;stroke:none"
             id="path76" /></g><g
           id="g78"
           transform="translate(256,358)"><path
             d="m 0,0 -63,0 c 0,0 4.785,-94.465 11,-114 7,-22.001 14.237,-27.287 30.226,-41 C -8.366,-166.5 0,-165 0,-165 c 0,0 8.366,-1.5 21.774,10 C 37.763,-141.287 46,-136.001 53,-114 59.215,-94.465 63,0 63,0 L 0,0 z"
             style="fill:#ffe9ba;fill-opacity:1;fill-rule:nonzero;stroke:none"
             id="path80" /></g><g
           id="g82"
           transform="translate(197.75,297.5)"><path
             d="m 0,0 c 0,0 -22.743,10.911 -17.273,-16.638 5.467,-27.55 22.017,-23.583 22.017,-23.583 L 0,0 z"
             style="fill:#f9e0a8;fill-opacity:1;fill-rule:nonzero;stroke:none"
             id="path84" /></g><g
           id="g86"
           transform="translate(315.25,297.5)"><path
             d="M 0,0 C 0,0 22.743,10.911 17.273,-16.638 11.806,-44.188 -4.744,-40.221 -4.744,-40.221 L 0,0 z"
             style="fill:#f9e0a8;fill-opacity:1;fill-rule:nonzero;stroke:none"
             id="path88" /></g><g
           id="g90"
           transform="translate(221.125,167.25)"><path
             d="M 0,0 C 2.141,0 3.875,1.734 3.875,3.875 3.875,6.016 2.141,7.75 0,7.75 -2.141,7.75 -3.875,6.016 -3.875,3.875 -3.875,1.734 -2.141,0 0,0"
             style="fill:#f5f7fa;fill-opacity:1;fill-rule:nonzero;stroke:none"
             id="path92" /></g><g
           id="g94"
           transform="translate(222.25,165.125)"><path
             d="M 0,0 C 0,-2.141 1.734,-3.875 3.875,-3.875 6.016,-3.875 7.75,-2.141 7.75,0 7.75,2.141 6.016,3.875 3.875,3.875 1.734,3.875 0,2.141 0,0"
             style="fill:#f5f7fa;fill-opacity:1;fill-rule:nonzero;stroke:none"
             id="path96" /></g><g
           id="g98"
           transform="translate(228.25,159.125)"><path
             d="M 0,0 C 0,-2.141 1.734,-3.875 3.875,-3.875 6.016,-3.875 7.75,-2.141 7.75,0 7.75,2.141 6.016,3.875 3.875,3.875 1.734,3.875 0,2.141 0,0"
             style="fill:#f5f7fa;fill-opacity:1;fill-rule:nonzero;stroke:none"
             id="path100" /></g><g
           id="g102"
           transform="translate(236.9863,150.8965)"><path
             d="m 0,0 c -0.277,0.063 -0.564,0.104 -0.861,0.104 -2.141,0 -3.875,-1.735 -3.875,-3.875 0,-2.141 1.734,-3.875 3.875,-3.875 2.14,0 3.875,1.734 3.875,3.875 0,1.349 -0.691,2.535 -1.737,3.228 0.278,-0.063 0.565,-0.103 0.862,-0.103 2.14,0 3.875,1.734 3.875,3.875 0,2.14 -1.735,3.875 -3.875,3.875 -2.141,0 -3.875,-1.735 -3.875,-3.875 C -1.736,1.879 -1.045,0.693 0,0"
             style="fill:#f5f7fa;fill-opacity:1;fill-rule:nonzero;stroke:none"
             id="path104" /></g><g
           id="g106"
           transform="translate(251,149.125)"><path
             d="M 0,0 C 0,2.141 -1.734,3.875 -3.875,3.875 -6.016,3.875 -7.75,2.141 -7.75,0 c 0,-2.141 1.734,-3.875 3.875,-3.875 C -1.734,-3.875 0,-2.141 0,0"
             style="fill:#f5f7fa;fill-opacity:1;fill-rule:nonzero;stroke:none"
             id="path108" /></g><g
           id="g110"
           transform="translate(210.125,165.25)"><path
             d="M 0,0 C 2.141,0 3.875,1.734 3.875,3.875 3.875,6.016 2.141,7.75 0,7.75 -2.141,7.75 -3.875,6.016 -3.875,3.875 -3.875,1.734 -2.141,0 0,0"
             style="fill:#f5f7fa;fill-opacity:1;fill-rule:nonzero;stroke:none"
             id="path112" /></g><g
           id="g114"
           transform="translate(211.25,163.125)"><path
             d="M 0,0 C 0,-2.141 1.734,-3.875 3.875,-3.875 6.016,-3.875 7.75,-2.141 7.75,0 7.75,2.141 6.016,3.875 3.875,3.875 1.734,3.875 0,2.141 0,0"
             style="fill:#f5f7fa;fill-opacity:1;fill-rule:nonzero;stroke:none"
             id="path116" /></g><g
           id="g118"
           transform="translate(221.125,161)"><path
             d="m 0,0 c -2.141,0 -3.875,-1.734 -3.875,-3.875 0,-2.141 1.734,-3.875 3.875,-3.875 2.141,0 3.875,1.734 3.875,3.875 C 3.875,-1.734 2.141,0 0,0"
             style="fill:#f5f7fa;fill-opacity:1;fill-rule:nonzero;stroke:none"
             id="path120" /></g><g
           id="g122"
           transform="translate(228.125,148.25)"><path
             d="M 0,0 C 2.141,0 3.875,1.734 3.875,3.875 3.875,6.016 2.141,7.75 0,7.75 -2.141,7.75 -3.875,6.016 -3.875,3.875 -3.875,1.734 -2.141,0 0,0"
             style="fill:#f5f7fa;fill-opacity:1;fill-rule:nonzero;stroke:none"
             id="path124" /></g><g
           id="g126"
           transform="translate(206,164.125)"><path
             d="M 0,0 C 0,2.141 -1.734,3.875 -3.875,3.875 -6.016,3.875 -7.75,2.141 -7.75,0 c 0,-2.141 1.734,-3.875 3.875,-3.875 C -1.734,-3.875 0,-2.141 0,0"
             style="fill:#f5f7fa;fill-opacity:1;fill-rule:nonzero;stroke:none"
             id="path128" /></g><g
           id="g130"
           transform="translate(211,158.125)"><path
             d="M 0,0 C 0,2.141 -1.734,3.875 -3.875,3.875 -6.016,3.875 -7.75,2.141 -7.75,0 c 0,-2.141 1.734,-3.875 3.875,-3.875 C -1.734,-3.875 0,-2.141 0,0"
             style="fill:#f5f7fa;fill-opacity:1;fill-rule:nonzero;stroke:none"
             id="path132" /></g><g
           id="g134"
           transform="translate(213.125,156)"><path
             d="m 0,0 c -2.141,0 -3.875,-1.734 -3.875,-3.875 0,-2.141 1.734,-3.875 3.875,-3.875 2.141,0 3.875,1.734 3.875,3.875 C 3.875,-1.734 2.141,0 0,0"
             style="fill:#f5f7fa;fill-opacity:1;fill-rule:nonzero;stroke:none"
             id="path136" /></g><g
           id="g138"
           transform="translate(220.125,151)"><path
             d="m 0,0 c -2.141,0 -3.875,-1.734 -3.875,-3.875 0,-2.141 1.734,-3.875 3.875,-3.875 2.141,0 3.875,1.734 3.875,3.875 C 3.875,-1.734 2.141,0 0,0"
             style="fill:#f5f7fa;fill-opacity:1;fill-rule:nonzero;stroke:none"
             id="path140" /></g><g
           id="g142"
           transform="translate(228.125,146)"><path
             d="m 0,0 c -2.141,0 -3.875,-1.734 -3.875,-3.875 0,-2.141 1.734,-3.875 3.875,-3.875 2.141,0 3.875,1.734 3.875,3.875 C 3.875,-1.734 2.141,0 0,0"
             style="fill:#f5f7fa;fill-opacity:1;fill-rule:nonzero;stroke:none"
             id="path144" /></g><g
           id="g146"
           transform="translate(243.125,146)"><path
             d="m 0,0 c -2.141,0 -3.875,-1.734 -3.875,-3.875 0,-2.141 1.734,-3.875 3.875,-3.875 2.141,0 3.875,1.734 3.875,3.875 C 3.875,-1.734 2.141,0 0,0"
             style="fill:#f5f7fa;fill-opacity:1;fill-rule:nonzero;stroke:none"
             id="path148" /></g><g
           id="g150"
           transform="translate(235.125,141)"><path
             d="m 0,0 c -2.141,0 -3.875,-1.734 -3.875,-3.875 0,-2.141 1.734,-3.875 3.875,-3.875 2.141,0 3.875,1.734 3.875,3.875 C 3.875,-1.734 2.141,0 0,0"
             style="fill:#f5f7fa;fill-opacity:1;fill-rule:nonzero;stroke:none"
             id="path152" /></g><g
           id="g154"
           transform="translate(243.125,137)"><path
             d="m 0,0 c -2.141,0 -3.875,-1.734 -3.875,-3.875 0,-2.141 1.734,-3.875 3.875,-3.875 2.141,0 3.875,1.734 3.875,3.875 C 3.875,-1.734 2.141,0 0,0"
             style="fill:#f5f7fa;fill-opacity:1;fill-rule:nonzero;stroke:none"
             id="path156" /></g><g
           id="g158"
           transform="translate(252.125,145)"><path
             d="m 0,0 c -2.141,0 -3.875,-1.734 -3.875,-3.875 0,-2.141 1.734,-3.875 3.875,-3.875 2.141,0 3.875,1.734 3.875,3.875 C 3.875,-1.734 2.141,0 0,0"
             style="fill:#f5f7fa;fill-opacity:1;fill-rule:nonzero;stroke:none"
             id="path160" /></g><g
           id="g162"
           transform="translate(290.875,167.25)"><path
             d="M 0,0 C -2.141,0 -3.875,1.734 -3.875,3.875 -3.875,6.016 -2.141,7.75 0,7.75 2.141,7.75 3.875,6.016 3.875,3.875 3.875,1.734 2.141,0 0,0"
             style="fill:#f5f7fa;fill-opacity:1;fill-rule:nonzero;stroke:none"
             id="path164" /></g><g
           id="g166"
           transform="translate(289.75,165.125)"><path
             d="m 0,0 c 0,-2.141 -1.734,-3.875 -3.875,-3.875 -2.141,0 -3.875,1.734 -3.875,3.875 0,2.141 1.734,3.875 3.875,3.875 C -1.734,3.875 0,2.141 0,0"
             style="fill:#f5f7fa;fill-opacity:1;fill-rule:nonzero;stroke:none"
             id="path168" /></g><g
           id="g170"
           transform="translate(283.75,159.125)"><path
             d="m 0,0 c 0,-2.141 -1.734,-3.875 -3.875,-3.875 -2.141,0 -3.875,1.734 -3.875,3.875 0,2.141 1.734,3.875 3.875,3.875 C -1.734,3.875 0,2.141 0,0"
             style="fill:#f5f7fa;fill-opacity:1;fill-rule:nonzero;stroke:none"
             id="path172" /></g><g
           id="g174"
           transform="translate(275.0137,150.8965)"><path
             d="m 0,0 c 0.277,0.063 0.564,0.104 0.861,0.104 2.141,0 3.875,-1.735 3.875,-3.875 0,-2.141 -1.734,-3.875 -3.875,-3.875 -2.14,0 -3.875,1.734 -3.875,3.875 0,1.349 0.691,2.535 1.737,3.228 -0.278,-0.063 -0.565,-0.103 -0.862,-0.103 -2.14,0 -3.875,1.734 -3.875,3.875 0,2.14 1.735,3.875 3.875,3.875 2.141,0 3.875,-1.735 3.875,-3.875 C 1.736,1.879 1.045,0.693 0,0"
             style="fill:#f5f7fa;fill-opacity:1;fill-rule:nonzero;stroke:none"
             id="path176" /></g><g
           id="g178"
           transform="translate(261,149.125)"><path
             d="M 0,0 C 0,2.141 1.734,3.875 3.875,3.875 6.016,3.875 7.75,2.141 7.75,0 7.75,-2.141 6.016,-3.875 3.875,-3.875 1.734,-3.875 0,-2.141 0,0"
             style="fill:#f5f7fa;fill-opacity:1;fill-rule:nonzero;stroke:none"
             id="path180" /></g><g
           id="g182"
           transform="translate(301.875,165.25)"><path
             d="M 0,0 C -2.141,0 -3.875,1.734 -3.875,3.875 -3.875,6.016 -2.141,7.75 0,7.75 2.141,7.75 3.875,6.016 3.875,3.875 3.875,1.734 2.141,0 0,0"
             style="fill:#f5f7fa;fill-opacity:1;fill-rule:nonzero;stroke:none"
             id="path184" /></g><g
           id="g186"
           transform="translate(300.75,163.125)"><path
             d="m 0,0 c 0,-2.141 -1.734,-3.875 -3.875,-3.875 -2.141,0 -3.875,1.734 -3.875,3.875 0,2.141 1.734,3.875 3.875,3.875 C -1.734,3.875 0,2.141 0,0"
             style="fill:#f5f7fa;fill-opacity:1;fill-rule:nonzero;stroke:none"
             id="path188" /></g><g
           id="g190"
           transform="translate(290.875,161)"><path
             d="M 0,0 C 2.141,0 3.875,-1.734 3.875,-3.875 3.875,-6.016 2.141,-7.75 0,-7.75 c -2.141,0 -3.875,1.734 -3.875,3.875 C -3.875,-1.734 -2.141,0 0,0"
             style="fill:#f5f7fa;fill-opacity:1;fill-rule:nonzero;stroke:none"
             id="path192" /></g><g
           id="g194"
           transform="translate(283.875,148.25)"><path
             d="M 0,0 C -2.141,0 -3.875,1.734 -3.875,3.875 -3.875,6.016 -2.141,7.75 0,7.75 2.141,7.75 3.875,6.016 3.875,3.875 3.875,1.734 2.141,0 0,0"
             style="fill:#f5f7fa;fill-opacity:1;fill-rule:nonzero;stroke:none"
             id="path196" /></g><g
           id="g198"
           transform="translate(306,164.125)"><path
             d="M 0,0 C 0,2.141 1.734,3.875 3.875,3.875 6.016,3.875 7.75,2.141 7.75,0 7.75,-2.141 6.016,-3.875 3.875,-3.875 1.734,-3.875 0,-2.141 0,0"
             style="fill:#f5f7fa;fill-opacity:1;fill-rule:nonzero;stroke:none"
             id="path200" /></g><g
           id="g202"
           transform="translate(301,158.125)"><path
             d="M 0,0 C 0,2.141 1.734,3.875 3.875,3.875 6.016,3.875 7.75,2.141 7.75,0 7.75,-2.141 6.016,-3.875 3.875,-3.875 1.734,-3.875 0,-2.141 0,0"
             style="fill:#f5f7fa;fill-opacity:1;fill-rule:nonzero;stroke:none"
             id="path204" /></g><g
           id="g206"
           transform="translate(298.875,156)"><path
             d="M 0,0 C 2.141,0 3.875,-1.734 3.875,-3.875 3.875,-6.016 2.141,-7.75 0,-7.75 c -2.141,0 -3.875,1.734 -3.875,3.875 C -3.875,-1.734 -2.141,0 0,0"
             style="fill:#f5f7fa;fill-opacity:1;fill-rule:nonzero;stroke:none"
             id="path208" /></g><g
           id="g210"
           transform="translate(291.875,151)"><path
             d="M 0,0 C 2.141,0 3.875,-1.734 3.875,-3.875 3.875,-6.016 2.141,-7.75 0,-7.75 c -2.141,0 -3.875,1.734 -3.875,3.875 C -3.875,-1.734 -2.141,0 0,0"
             style="fill:#f5f7fa;fill-opacity:1;fill-rule:nonzero;stroke:none"
             id="path212" /></g><g
           id="g214"
           transform="translate(283.875,146)"><path
             d="M 0,0 C 2.141,0 3.875,-1.734 3.875,-3.875 3.875,-6.016 2.141,-7.75 0,-7.75 c -2.141,0 -3.875,1.734 -3.875,3.875 C -3.875,-1.734 -2.141,0 0,0"
             style="fill:#f5f7fa;fill-opacity:1;fill-rule:nonzero;stroke:none"
             id="path216" /></g><g
           id="g218"
           transform="translate(268.875,146)"><path
             d="M 0,0 C 2.141,0 3.875,-1.734 3.875,-3.875 3.875,-6.016 2.141,-7.75 0,-7.75 c -2.141,0 -3.875,1.734 -3.875,3.875 C -3.875,-1.734 -2.141,0 0,0"
             style="fill:#f5f7fa;fill-opacity:1;fill-rule:nonzero;stroke:none"
             id="path220" /></g><g
           id="g222"
           transform="translate(276.875,141)"><path
             d="M 0,0 C 2.141,0 3.875,-1.734 3.875,-3.875 3.875,-6.016 2.141,-7.75 0,-7.75 c -2.141,0 -3.875,1.734 -3.875,3.875 C -3.875,-1.734 -2.141,0 0,0"
             style="fill:#f5f7fa;fill-opacity:1;fill-rule:nonzero;stroke:none"
             id="path224" /></g><g
           id="g226"
           transform="translate(268.875,137)"><path
             d="M 0,0 C 2.141,0 3.875,-1.734 3.875,-3.875 3.875,-6.016 2.141,-7.75 0,-7.75 c -2.141,0 -3.875,1.734 -3.875,3.875 C -3.875,-1.734 -2.141,0 0,0"
             style="fill:#f5f7fa;fill-opacity:1;fill-rule:nonzero;stroke:none"
             id="path228" /></g><g
           id="g230"
           transform="translate(259.875,145)"><path
             d="M 0,0 C 2.141,0 3.875,-1.734 3.875,-3.875 3.875,-6.016 2.141,-7.75 0,-7.75 c -2.141,0 -3.875,1.734 -3.875,3.875 C -3.875,-1.734 -2.141,0 0,0"
             style="fill:#f5f7fa;fill-opacity:1;fill-rule:nonzero;stroke:none"
             id="path232" /></g><g
           id="g234"
           transform="translate(271.5625,121.5625)"><path
             d="m 0,0 c 0,-8.596 -6.967,-15.563 -15.563,-15.563 -8.595,0 -15.562,6.967 -15.562,15.563 0,8.595 6.967,15.563 15.562,15.563 C -6.967,15.563 0,8.595 0,0"
             style="fill:#ffffff;fill-opacity:1;fill-rule:nonzero;stroke:none"
             id="path236" /></g><g
           id="g238"
           transform="translate(206.333,261)"><path
             d="m 0,0 c 0,-4.603 -3.73,-8.333 -8.332,-8.333 -4.604,0 -8.334,3.73 -8.334,8.333 0,4.603 3.73,8.333 8.334,8.333 C -3.73,8.333 0,4.603 0,0"
             style="fill:#ffffff;fill-opacity:1;fill-rule:nonzero;stroke:none"
             id="path240" /></g><g
           id="g242"
           transform="translate(322.333,261)"><path
             d="m 0,0 c 0,-4.603 -3.73,-8.333 -8.332,-8.333 -4.604,0 -8.334,3.73 -8.334,8.333 0,4.603 3.73,8.333 8.334,8.333 C -3.73,8.333 0,4.603 0,0"
             style="fill:#ffffff;fill-opacity:1;fill-rule:nonzero;stroke:none"
             id="path244" /></g><g
           id="g246"
           transform="translate(258.9102,456.333)"><path
             d="M 0,0 C -99.172,0 -50.666,-90.666 -50.666,-90.666 L 0,-64.972 50.666,-90.666 C 50.666,-90.666 99.172,0 0,0"
             style="fill:#2d3138;fill-opacity:1;fill-rule:nonzero;stroke:none"
             id="path248" /></g><g
           id="g250"
           transform="translate(286.7988,411.1348)"><path
             d="m 0,0 c -2.469,1.397 -5.686,8.014 -7.146,14.703 -1.461,6.69 -7.112,12.162 -12.553,12.162 -5.444,0 -11.092,-5.472 -12.555,-12.162 C -33.715,8.014 -36.932,1.397 -39.4,0 c -2.469,-1.396 -4.489,-6.365 -4.489,-11.337 0,-4.972 9.895,-8.798 21.991,-8.798 l 4.398,0 c 12.094,0 21.99,3.826 21.99,8.798 C 4.49,-6.365 2.469,-1.396 0,0"
             style="fill:#f5f7fa;fill-opacity:1;fill-rule:nonzero;stroke:none"
             id="path252" /></g><g
           id="g254"
           transform="translate(264.9004,396)"><path
             d="m 0,0 c -10.059,0 -15.934,2.792 -16.986,4.116 0.078,3.53 1.443,6.176 2.031,6.716 5.031,2.936 8.326,12.641 9.484,17.939 1.03,4.709 4.899,8.229 7.67,8.229 2.772,0 6.639,-3.52 7.668,-8.229 1.156,-5.299 4.451,-15.005 9.485,-17.94 0.589,-0.54 1.955,-3.185 2.033,-6.715 C 20.33,2.792 14.455,0 4.398,0 L 0,0 z"
             style="fill:#e6e9ed;fill-opacity:1;fill-rule:nonzero;stroke:none"
             id="path256" /></g><g
           id="g258"
           transform="translate(280.6602,406.125)"><path
             d="m 0,0 c 0,-1.588 -1.287,-2.875 -2.875,-2.875 -1.588,0 -2.875,1.287 -2.875,2.875 0,1.588 1.287,2.875 2.875,2.875 C -1.287,2.875 0,1.588 0,0"
             style="fill:#ffffff;fill-opacity:1;fill-rule:nonzero;stroke:none"
             id="path260" /></g><g
           id="g262"
           transform="translate(265.4102,412.5)"><path
             d="M 0,0 C 0,-1.933 -1.566,-3.5 -3.5,-3.5 -5.434,-3.5 -7,-1.933 -7,0 -7,1.933 -5.434,3.5 -3.5,3.5 -1.566,3.5 0,1.933 0,0"
             style="fill:#ffffff;fill-opacity:1;fill-rule:nonzero;stroke:none"
             id="path264" /></g><g
           id="g266"
           transform="translate(268.1602,425)"><path
             d="m 0,0 c 0,-2.071 -1.68,-3.75 -3.75,-3.75 -2.072,0 -3.75,1.679 -3.75,3.75 0,2.071 1.678,3.75 3.75,3.75 C -1.68,3.75 0,2.071 0,0"
             style="fill:#ffffff;fill-opacity:1;fill-rule:nonzero;stroke:none"
             id="path268" /></g><g
           id="g270"
           transform="translate(277.1602,413.5)"><path
             d="M 0,0 C 0,-2.485 -2.016,-4.5 -4.5,-4.5 -6.986,-4.5 -9,-2.485 -9,0 -9,2.485 -6.986,4.5 -4.5,4.5 -2.016,4.5 0,2.485 0,0"
             style="fill:#ffffff;fill-opacity:1;fill-rule:nonzero;stroke:none"
             id="path272" /></g><g
           id="g274"
           transform="translate(264.6602,444.25)"><path
             d="m 0,0 c -9.947,0.728 -16.836,-1.443 -21.596,-5.307 -24.846,6.893 -17.84,-20.838 -32.16,-37.693 -15.506,-18.25 -27.744,0 -27.744,0 1.75,-13.75 30.75,-34.5 41,-1 3.029,9.901 6.517,17.1 9.928,22.352 -2.672,-12.675 -0.262,-27.27 -0.928,-33.102 C -32.824,-66.334 -43,-67 -43,-67 c 48.25,-4.25 10.5,56.75 41.5,58.25 31,1.5 29,-43 29,-43 C 27.5,-51.75 41,-3 0,0"
             style="fill:#434a54;fill-opacity:1;fill-rule:nonzero;stroke:none"
             id="path276" /></g><g
           id="g278"
           transform="translate(299.1465,335.2881)"><path
             d="M 0,0 C 0.004,0.003 0.008,0.007 0.014,0.011 1.27,1.06 2.451,2.142 3.564,3.249 5.293,0.963 6.15,-2.5 5.941,-7.628 5.441,-19.846 8.139,-27.339 10.965,-31.781 3.268,-29.053 -11.496,-20.847 0,0 m 16.08,33.265 c -1.59,18.407 -20.203,34.78 -58.816,34.78 -62.629,0 -62.028,-37.666 -62.028,-37.666 -9.715,-6.667 -9.924,-35.105 -5.953,-66.016 l 9.481,-1.985 c 0,0 3.923,1.844 7.058,8.079 21.561,-6.953 28.139,16.485 30.112,29.496 3.142,-0.43 6.474,-0.89 9.941,-1.254 4.756,-17.574 19.859,-47.836 66.578,-32.55 2.295,-2.825 4.311,-3.771 4.311,-3.771 l 9.48,1.985 c 4.154,32.35 -1.047,54.172 -10.164,68.902"
             style="fill:#434a54;fill-opacity:1;fill-rule:nonzero;stroke:none"
             id="path280" /></g><g
           id="g282"
           transform="translate(315.2266,368.5527)"><path
             d="m 0,0 c -1.59,18.407 -20.203,34.78 -58.816,34.78 -62.629,0 -62.028,-37.666 -62.028,-37.666 0.76,0.265 0.133,13.084 22.559,20.382 15.648,1.248 44.896,-0.764 48.158,-32.491 0,0 6.231,27.938 -10.324,37.432 0.544,0.004 1.081,0.01 1.635,0.01 7.849,0 14.858,-0.686 21.08,-1.92 6.435,-6.581 11.063,-18.091 -3.58,-35.522 0,0 25.93,17.722 18.699,30.821 C -8.293,9.366 -0.971,-1.101 0,-12.333 6.25,-22.431 10.66,-35.863 11.477,-53.735 12.49,-29.548 7.613,-12.299 0,0"
             style="fill:#656d78;fill-opacity:1;fill-rule:nonzero;stroke:none"
             id="path284" /></g><g
           id="g286"
           transform="translate(197.4023,366.5449)"><path
             d="M 0,0 C 16.492,19.878 55.842,-11.212 55.842,-11.212 25.176,44.454 0,0 0,0"
             style="fill:#656d78;fill-opacity:1;fill-rule:nonzero;stroke:none"
             id="path288" /></g><g
           id="g290"
           transform="translate(193.4102,318)"><path
             d="M 0,0 C 0,0 29.174,-46.851 41.67,17.241 41.67,17.241 27.166,-15.667 0,0"
             style="fill:#656d78;fill-opacity:1;fill-rule:nonzero;stroke:none"
             id="path292" /></g><g
           id="g294"
           transform="translate(206.9102,319.667)"><path
             d="M 0,0 C 0.332,24.667 22.25,17 22.25,17 -9.168,28.667 0,0 0,0"
             style="fill:#656d78;fill-opacity:1;fill-rule:nonzero;stroke:none"
             id="path296" /></g><g
           id="g298"
           transform="translate(253.2441,332.667)"><path
             d="m 0,0 c 0.666,26.333 -8.223,1.32 -8.223,1.32 0,0 -0.029,-40.32 39.264,-39.32 0,0 -31.707,11.667 -31.041,38"
             style="fill:#656d78;fill-opacity:1;fill-rule:nonzero;stroke:none"
             id="path300" /></g><g
           id="g302"
           transform="translate(275.1602,333.333)"><path
             d="m 0,0 c 2.162,24.667 -10.508,0 -10.508,0 0,0 2.258,-35.15 38.258,-36.075 0,0 -29.912,11.408 -27.75,36.075"
             style="fill:#656d78;fill-opacity:1;fill-rule:nonzero;stroke:none"
             id="path304" /></g></g></g></g></svg>