<?xml version="1.0" encoding="UTF-8" standalone="no"?>
<!-- Created with Inkscape (http://www.inkscape.org/) -->

<svg
   xmlns:dc="http://purl.org/dc/elements/1.1/"
   xmlns:cc="http://creativecommons.org/ns#"
   xmlns:rdf="http://www.w3.org/1999/02/22-rdf-syntax-ns#"
   xmlns:svg="http://www.w3.org/2000/svg"
   xmlns="http://www.w3.org/2000/svg"
   xmlns:sodipodi="http://sodipodi.sourceforge.net/DTD/sodipodi-0.dtd"
   xmlns:inkscape="http://www.inkscape.org/namespaces/inkscape"
   id="svg2"
   version="1.1"
   inkscape:version="0.48.5 r10040"
   width="640"
   height="640"
   xml:space="preserve"
   sodipodi:docname="人物.ai"><metadata
     id="metadata8"><rdf:RDF><cc:Work
         rdf:about=""><dc:format>image/svg+xml</dc:format><dc:type
           rdf:resource="http://purl.org/dc/dcmitype/StillImage" /><dc:title></dc:title></cc:Work></rdf:RDF></metadata><defs
     id="defs6"><clipPath
       clipPathUnits="userSpaceOnUse"
       id="clipPath16"><path
         d="M 0,512 512,512 512,0 0,0 0,512 z"
         id="path18" /></clipPath><clipPath
       clipPathUnits="userSpaceOnUse"
       id="clipPath36"><path
         d="M 0,512 512,512 512,0 0,0 0,512 z"
         id="path38" /></clipPath><clipPath
       clipPathUnits="userSpaceOnUse"
       id="clipPath48"><path
         d="M 0,512 512,512 512,0 0,0 0,512 z"
         id="path50" /></clipPath><clipPath
       clipPathUnits="userSpaceOnUse"
       id="clipPath58"><path
         d="M 0,512 512,512 512,0 0,0 0,512 z"
         id="path60" /></clipPath></defs><sodipodi:namedview
     pagecolor="#ffffff"
     bordercolor="#666666"
     borderopacity="1"
     objecttolerance="10"
     gridtolerance="10"
     guidetolerance="10"
     inkscape:pageopacity="0"
     inkscape:pageshadow="2"
     inkscape:window-width="684"
     inkscape:window-height="480"
     id="namedview4"
     showgrid="false"
     inkscape:zoom="0.36875"
     inkscape:cx="320"
     inkscape:cy="320"
     inkscape:window-x="0"
     inkscape:window-y="25"
     inkscape:window-maximized="0"
     inkscape:current-layer="g10" /><g
     id="g10"
     inkscape:groupmode="layer"
     inkscape:label="人物"
     transform="matrix(1.25,0,0,-1.25,0,640)"><g
       id="g12"><g
         id="g14"
         clip-path="url(#clipPath16)"><path
           d="m 0,512 -512,0 0,512 512,0 0,-512 z"
           style="fill:#ffffff;fill-opacity:1;fill-rule:nonzero;stroke:none"
           id="path20" /><path
           d="m 1024,512 -512,0 0,512 512,0 0,-512 z"
           style="fill:#ffffff;fill-opacity:1;fill-rule:nonzero;stroke:none"
           id="path22" /><path
           d="m 512,512 -512,0 0,512 512,0 0,-512 z"
           style="fill:#ffffff;fill-opacity:1;fill-rule:nonzero;stroke:none"
           id="path24" /></g></g><path
       d="M 0,0 512,0 512,512 0,512 0,0 z"
       style="fill:#ffffff;fill-opacity:1;fill-rule:nonzero;stroke:none"
       id="path26" /><g
       id="g28"
       transform="translate(0,512.0001)"><path
         d="M 0,0 0,-512 0,0 z"
         style="fill:#ffffff;fill-opacity:1;fill-rule:nonzero;stroke:none"
         id="path30" /></g><g
       id="g32"><g
         id="g34"
         clip-path="url(#clipPath36)"><path
           d="m 1024,0 -512,0 0,512 512,0 0,-512 z"
           style="fill:#ffffff;fill-opacity:1;fill-rule:nonzero;stroke:none"
           id="path40" /></g></g><path
       d="M 0,0 512,0 0,0 z"
       style="fill:#ffffff;fill-opacity:1;fill-rule:nonzero;stroke:none"
       id="path42" /><g
       id="g44"><g
         id="g46"
         clip-path="url(#clipPath48)"><path
           d="m 1024,-512 -512,0 0,512 512,0 0,-512 z"
           style="fill:#ffffff;fill-opacity:1;fill-rule:nonzero;stroke:none"
           id="path52" /></g></g><g
       id="g54"><g
         id="g56"
         clip-path="url(#clipPath58)"><g
           id="g62"
           transform="translate(456,256)"><path
             d="m 0,0 c 0,-110.457 -89.543,-200 -200,-200 -110.457,0 -200,89.543 -200,200 0,110.457 89.543,200 200,200 C -89.543,200 0,110.457 0,0"
             style="fill:#da4453;fill-opacity:1;fill-rule:nonzero;stroke:none"
             id="path64" /></g><path
           d="m 333,130 -153,0 0,170 153,0 0,-170 z"
           style="fill:#2d3138;fill-opacity:1;fill-rule:nonzero;stroke:none"
           id="path66" /><g
           id="g68"
           transform="translate(372.668,142.333)"><path
             d="m 0,0 c -7.353,6.355 -19.364,14.481 -30.666,15.586 -0.261,0.025 -0.623,0.081 -1.063,0.081 l -0.005,0 c -0.107,0 -0.213,0.119 -0.329,0.141 -0.005,0.002 -0.011,0.043 -0.016,0.044 -0.172,0.033 -0.36,0.09 -0.553,0.129 -0.025,0.006 -0.049,0.02 -0.074,0.026 -0.003,0 -0.006,0.006 -0.009,0.007 -0.097,0.019 -0.197,0.044 -0.3,0.065 -0.006,0 -0.134,-0.248 -0.141,-0.246 -0.06,0.012 -0.282,-0.024 -0.388,-0.065 -0.005,-0.025 -0.124,-0.049 -0.124,-0.068 l 0,0.062 0,0.406 c 0,-0.009 0.126,-0.155 0.213,-0.234 0,0.295 0.002,0.43 0.005,0.481 -0.099,-0.003 -0.191,-0.078 -0.294,-0.056 -0.024,0.006 -0.043,-0.051 -0.067,-0.046 -0.138,0.032 -0.279,0.032 -0.423,0.064 -0.017,0.004 -0.034,-0.008 -0.049,-0.005 -0.188,0.043 -0.383,0.079 -0.58,0.125 -0.09,0.02 -0.176,0.035 -0.267,0.057 -0.058,0.013 -0.119,0.025 -0.179,0.039 -0.046,0.011 -0.092,0.02 -0.14,0.031 -0.038,0.01 -0.074,0.018 -0.113,0.025 -0.17,0.041 -0.348,0.082 -0.526,0.124 -0.061,0.015 -0.125,0.031 -0.187,0.045 -0.09,0.022 -0.179,0.042 -0.271,0.064 -0.005,0.002 -0.011,0.002 -0.016,0.004 -0.014,0.004 -0.031,0.008 -0.046,0.011 -0.396,0.094 -0.813,0.196 -1.238,0.299 -0.102,0.025 -0.204,0.049 -0.305,0.075 -0.361,0.087 -0.729,0.177 -1.108,0.272 -0.177,0.044 -0.35,0.087 -0.529,0.131 -0.999,0.249 -2.056,0.514 -3.173,0.8 -0.334,0.086 -0.67,0.172 -1.014,0.259 -0.387,0.1 -0.785,0.203 -1.183,0.305 -0.066,0.018 -0.129,0.033 -0.194,0.051 -0.186,0.047 -0.374,0.096 -0.563,0.145 -0.099,0.026 -0.2,0.052 -0.3,0.078 -0.312,0.082 -0.62,0.161 -0.937,0.244 -0.016,0.004 -0.032,0.007 -0.046,0.011 -1.919,3.37 -4.676,6.883 -8.47,10.528 0,0 -9.605,28.223 -28.861,5.825 -1.172,-1.363 -2.383,-2.926 -3.625,-4.681 4.702,-1.306 9.697,-2.689 14.75,-4.077 0.236,-0.064 0.47,-0.13 0.707,-0.194 -0.029,-0.166 -0.065,-0.351 -0.096,-0.523 -0.006,-0.028 -0.011,-0.057 -0.016,-0.087 -2.624,-14.431 -14.65,-50.691 -41.859,-50.691 -0.342,0 -0.672,0.014 -1,0.027 -0.328,-0.013 -0.658,-0.027 -1,-0.027 -27.209,0 -39.235,36.26 -41.859,50.691 -0.037,0.203 -0.078,0.416 -0.112,0.61 0.237,0.064 0.472,0.13 0.708,0.195 5.05,1.387 10.05,2.77 14.75,4.075 -1.243,1.756 -2.454,3.319 -3.626,4.682 -19.255,22.398 -28.861,-5.825 -28.861,-5.825 -3.562,-3.422 -6.209,-6.729 -8.109,-9.909 -0.818,-0.215 -1.623,-0.427 -2.407,-0.63 -0.317,-0.083 -0.625,-0.162 -0.937,-0.244 -0.1,-0.026 -0.201,-0.052 -0.3,-0.078 -0.189,-0.049 -0.377,-0.098 -0.563,-0.145 -0.065,-0.018 -0.128,-0.033 -0.194,-0.051 -0.398,-0.102 -0.796,-0.205 -1.183,-0.305 -0.344,-0.087 -0.68,-0.173 -1.014,-0.259 -1.117,-0.286 -2.174,-0.551 -3.173,-0.8 -0.179,-0.044 -0.352,-0.087 -0.529,-0.131 -0.379,-0.095 -0.747,-0.185 -1.108,-0.272 -0.101,-0.026 -0.203,-0.05 -0.305,-0.075 -0.425,-0.103 -0.842,-0.205 -1.238,-0.299 -0.015,-0.003 -0.032,-0.007 -0.046,-0.011 -0.005,-0.002 -0.011,-0.002 -0.016,-0.004 -0.092,-0.022 -0.181,-0.043 -0.271,-0.065 -0.283,-0.066 -0.56,-0.131 -0.826,-0.193 -0.048,-0.012 -0.093,-0.021 -0.14,-0.033 -0.155,-0.035 -0.299,-0.069 -0.446,-0.102 -0.198,-0.046 -0.393,-0.09 -0.58,-0.133 -0.164,-0.036 -0.615,-0.2 -0.615,-0.188 0,-0.132 -2.741,-0.557 -3.002,-0.582 -11.302,-1.105 -23.313,-9.271 -30.666,-15.626 -13.23,-11.436 -10.856,-25.422 -14.637,-38.15 l -0.004,0.003 0,-0.001 c 0.002,0 0.003,-0.002 0.004,-0.003 -10e-4,-0.005 -0.002,-0.011 -0.004,-0.016 0.006,-0.005 0.013,-10e-4 0.019,-0.006 0.427,-0.372 0.864,-0.727 1.295,-1.094 0.409,-0.347 0.815,-0.699 1.226,-1.045 0.32,-0.27 0.637,-0.544 0.959,-0.811 0.119,-0.098 0.24,-0.193 0.358,-0.291 0.395,-0.328 0.796,-0.65 1.194,-0.975 0.272,-0.22 0.543,-0.444 0.817,-0.665 0.391,-0.316 0.783,-0.635 1.177,-0.948 0.467,-0.371 0.934,-0.74 1.404,-1.107 0.168,-0.131 0.339,-0.258 0.507,-0.389 0.134,-0.104 0.269,-0.205 0.404,-0.309 0.43,-0.333 0.862,-0.666 1.297,-0.994 0.67,-0.509 1.344,-1.013 2.022,-1.513 0.19,-0.139 0.378,-0.28 0.569,-0.418 0.358,-0.263 0.718,-0.523 1.079,-0.784 0.767,-0.554 1.541,-1.105 2.316,-1.649 0.272,-0.191 0.541,-0.383 0.814,-0.571 0.125,-0.088 0.253,-0.172 0.379,-0.258 0.071,-0.049 0.143,-0.097 0.213,-0.146 0.782,-0.538 1.565,-1.072 2.353,-1.598 0.44,-0.295 0.886,-0.584 1.329,-0.875 0.225,-0.149 0.449,-0.297 0.676,-0.445 0.605,-0.394 1.213,-0.788 1.824,-1.176 0.455,-0.289 0.916,-0.572 1.373,-0.858 0.385,-0.24 0.768,-0.482 1.154,-0.72 0.038,-0.023 0.076,-0.047 0.115,-0.071 0.417,-0.256 0.833,-0.512 1.251,-0.765 0.393,-0.237 0.791,-0.465 1.184,-0.7 0.763,-0.453 1.526,-0.905 2.296,-1.348 0.016,-0.009 0.031,-0.018 0.046,-0.027 0.474,-0.273 0.958,-0.531 1.435,-0.8 0.644,-0.364 1.289,-0.723 1.937,-1.08 0.488,-0.268 0.969,-0.547 1.46,-0.813 0.055,-0.029 0.11,-0.058 0.165,-0.087 0.715,-0.385 1.433,-0.764 2.152,-1.14 0.359,-0.187 0.713,-0.38 1.073,-0.566 0.51,-0.264 1.027,-0.519 1.541,-0.777 0.074,-0.037 0.15,-0.075 0.224,-0.112 0.246,-0.125 0.494,-0.246 0.74,-0.368 0.547,-0.272 1.092,-0.549 1.643,-0.816 0.764,-0.371 1.534,-0.732 2.305,-1.093 0.109,-0.053 0.218,-0.105 0.329,-0.156 0.522,-0.244 1.044,-0.491 1.569,-0.731 0.774,-0.354 1.554,-0.699 2.333,-1.044 0.341,-0.15 0.682,-0.298 1.023,-0.447 0.07,-0.031 0.141,-0.062 0.212,-0.093 0.231,-0.099 0.459,-0.203 0.69,-0.302 0.767,-0.329 1.538,-0.652 2.31,-0.972 0.666,-0.277 1.334,-0.55 2.004,-0.819 0.762,-0.306 1.527,-0.608 2.293,-0.905 0.691,-0.267 1.383,-0.529 2.077,-0.79 0.758,-0.284 1.517,-0.565 2.279,-0.841 0.717,-0.257 1.437,-0.509 2.157,-0.759 0.748,-0.26 1.495,-0.522 2.248,-0.774 0.751,-0.25 1.507,-0.491 2.262,-0.733 0.731,-0.236 1.462,-0.474 2.198,-0.701 0.594,-0.184 1.193,-0.358 1.791,-0.534 0.054,-0.015 0.107,-0.032 0.161,-0.047 0.167,-0.049 0.333,-0.1 0.499,-0.149 0.684,-0.201 1.364,-0.408 2.051,-0.603 0.501,-0.141 1.006,-0.272 1.509,-0.41 0.002,-0.001 0.004,-0.001 0.006,-0.002 0.662,-0.181 1.325,-0.362 1.99,-0.536 0.774,-0.204 1.552,-0.401 2.33,-0.595 1.069,-0.268 2.14,-0.536 3.216,-0.786 0.637,-0.148 1.281,-0.283 1.922,-0.425 0.91,-0.202 1.82,-0.407 2.736,-0.596 0.68,-0.141 1.363,-0.271 2.047,-0.404 0.884,-0.174 1.767,-0.348 2.656,-0.509 0.698,-0.128 1.4,-0.246 2.102,-0.366 0.879,-0.151 1.758,-0.299 2.642,-0.438 0.708,-0.111 1.419,-0.217 2.13,-0.321 0.886,-0.13 1.773,-0.255 2.662,-0.372 0.709,-0.094 1.419,-0.185 2.13,-0.272 0.903,-0.109 1.81,-0.213 2.717,-0.31 0.702,-0.076 1.404,-0.151 2.108,-0.219 0.929,-0.091 1.862,-0.171 2.794,-0.248 0.688,-0.058 1.373,-0.117 2.063,-0.167 0.976,-0.071 1.957,-0.129 2.937,-0.187 0.649,-0.037 1.296,-0.08 1.947,-0.111 1.086,-0.053 2.178,-0.09 3.269,-0.125 0.549,-0.017 1.095,-0.043 1.645,-0.057 1.642,-0.04 3.288,-0.062 4.94,-0.062 1.652,0 3.298,0.022 4.94,0.062 0.55,0.014 1.096,0.04 1.645,0.057 1.091,0.035 2.183,0.072 3.27,0.125 0.65,0.031 1.297,0.074 1.946,0.111 0.98,0.058 1.961,0.116 2.937,0.187 0.69,0.05 1.375,0.109 2.063,0.167 0.932,0.077 1.865,0.157 2.794,0.248 0.704,0.068 1.406,0.143 2.108,0.219 0.907,0.097 1.814,0.201 2.717,0.31 0.711,0.087 1.421,0.178 2.13,0.272 0.889,0.117 1.776,0.242 2.662,0.372 0.711,0.104 1.422,0.21 2.13,0.321 0.884,0.139 1.763,0.287 2.642,0.438 0.702,0.12 1.404,0.238 2.102,0.366 0.889,0.161 1.772,0.335 2.656,0.509 0.684,0.133 1.367,0.263 2.047,0.404 0.916,0.189 1.826,0.394 2.736,0.596 0.641,0.142 1.285,0.277 1.922,0.425 1.076,0.25 2.147,0.518 3.216,0.786 0.778,0.194 1.556,0.391 2.33,0.595 0.665,0.174 1.328,0.355 1.99,0.536 0.002,0.001 0.004,0.001 0.006,0.002 0.503,0.138 1.008,0.269 1.509,0.41 0.687,0.195 1.367,0.402 2.051,0.603 0.166,0.049 0.332,0.1 0.499,0.149 0.054,0.015 0.107,0.032 0.161,0.047 0.598,0.176 1.197,0.35 1.791,0.534 0.736,0.227 1.467,0.465 2.198,0.701 0.755,0.242 1.511,0.483 2.262,0.733 0.753,0.252 1.5,0.514 2.248,0.774 0.72,0.25 1.44,0.502 2.157,0.759 0.762,0.276 1.521,0.557 2.279,0.841 0.694,0.261 1.386,0.523 2.077,0.79 0.766,0.297 1.531,0.599 2.293,0.905 0.67,0.269 1.338,0.542 2.004,0.819 0.772,0.32 1.543,0.643 2.31,0.972 0.231,0.099 0.459,0.203 0.69,0.302 0.071,0.031 0.142,0.062 0.212,0.093 0.341,0.149 0.682,0.297 1.023,0.447 0.779,0.345 1.56,0.69 2.333,1.044 0.525,0.24 1.047,0.487 1.569,0.731 0.111,0.051 0.22,0.103 0.329,0.156 0.771,0.361 1.541,0.722 2.305,1.093 0.551,0.267 1.096,0.544 1.643,0.816 0.246,0.122 0.494,0.243 0.74,0.368 0.074,0.037 0.15,0.075 0.225,0.112 0.513,0.258 1.03,0.513 1.541,0.777 0.359,0.186 0.713,0.379 1.072,0.566 0.72,0.376 1.437,0.755 2.152,1.14 0.055,0.029 0.11,0.058 0.165,0.087 0.491,0.266 0.972,0.545 1.46,0.813 0.648,0.357 1.293,0.716 1.937,1.08 0.477,0.269 0.961,0.527 1.435,0.8 0.015,0.009 0.03,0.018 0.046,0.027 0.77,0.443 1.533,0.895 2.296,1.348 0.394,0.235 0.791,0.463 1.184,0.7 0.419,0.253 0.835,0.509 1.252,0.765 0.038,0.024 0.076,0.048 0.114,0.071 0.387,0.238 0.769,0.48 1.154,0.72 0.457,0.286 0.918,0.569 1.373,0.858 0.611,0.388 1.219,0.782 1.824,1.176 0.227,0.148 0.452,0.296 0.676,0.445 0.444,0.291 0.889,0.58 1.329,0.875 0.788,0.526 1.572,1.06 2.353,1.598 0.07,0.049 0.142,0.097 0.213,0.146 0.126,0.086 0.254,0.17 0.379,0.258 0.273,0.188 0.543,0.38 0.814,0.571 0.775,0.544 1.549,1.095 2.316,1.649 0.361,0.261 0.721,0.521 1.08,0.784 0.19,0.138 0.378,0.279 0.568,0.418 0.678,0.5 1.352,1.004 2.022,1.513 0.435,0.328 0.867,0.661 1.297,0.994 0.135,0.104 0.27,0.205 0.404,0.309 0.169,0.131 0.339,0.258 0.507,0.389 0.47,0.367 0.937,0.736 1.404,1.107 0.394,0.313 0.786,0.632 1.177,0.948 0.274,0.221 0.545,0.445 0.817,0.665 0.398,0.325 0.799,0.647 1.194,0.975 0.118,0.098 0.239,0.193 0.358,0.291 0.322,0.267 0.639,0.541 0.96,0.811 0.84,0.708 1.68,1.417 2.509,2.14 0.004,0.002 0.008,0.006 0.011,0.009 0.006,0.005 0.013,0.011 0.019,0.015 l 0,0.001 C 10.854,-25.454 13.235,-11.44 0,0"
             style="fill:#f5f7fa;fill-opacity:1;fill-rule:nonzero;stroke:none"
             id="path70" /></g><g
           id="g72"
           transform="translate(281.8145,175.8867)"><path
             d="M 0,0 C -0.018,-0.112 -0.039,-0.242 -0.062,-0.373 -0.039,-0.238 -0.018,-0.114 0,0"
             style="fill:#d9c392;fill-opacity:1;fill-rule:nonzero;stroke:none"
             id="path74" /></g><g
           id="g76"
           transform="translate(281.8887,176.3701)"><path
             d="M 0,0 C -0.014,-0.1 -0.033,-0.224 -0.055,-0.358 -0.033,-0.22 -0.015,-0.101 0,0"
             style="fill:#d9c392;fill-opacity:1;fill-rule:nonzero;stroke:none"
             id="path78" /></g><g
           id="g80"
           transform="translate(281.9434,176.7656)"><path
             d="M 0,0 C 0,0 -0.004,-0.034 -0.012,-0.09 -0.004,-0.035 0,0 0,0"
             style="fill:#d9c392;fill-opacity:1;fill-rule:nonzero;stroke:none"
             id="path82" /></g><g
           id="g84"
           transform="translate(281.9297,176.6602)"><path
             d="M 0,0 C -0.008,-0.059 -0.02,-0.145 -0.035,-0.252 -0.02,-0.145 -0.008,-0.058 0,0"
             style="fill:#d9c392;fill-opacity:1;fill-rule:nonzero;stroke:none"
             id="path86" /></g><g
           id="g88"
           transform="translate(309.0176,125.1172)"><path
             d="m 0,0 c -3.219,-2.033 -5.518,38.883 -5.518,38.883 9.006,-32.614 -46.5,-24 -46.5,-24 0,0 -55.505,-8.614 -46.5,24 0,0 -3.261,-40.463 -7.453,-37.613 -1.088,-20.34 -0.763,-45.481 -0.03,-63.279 0.663,-0.181 1.325,-0.364 1.99,-0.538 0.775,-0.204 1.552,-0.401 2.33,-0.596 1.07,-0.267 2.14,-0.535 3.216,-0.785 0.638,-0.148 1.281,-0.283 1.922,-0.426 0.91,-0.201 1.82,-0.406 2.736,-0.595 0.68,-0.141 1.364,-0.271 2.047,-0.405 0.884,-0.173 1.768,-0.347 2.656,-0.508 0.699,-0.128 1.401,-0.246 2.102,-0.367 0.879,-0.15 1.759,-0.298 2.643,-0.437 0.708,-0.111 1.419,-0.217 2.13,-0.321 0.885,-0.13 1.772,-0.255 2.662,-0.372 0.709,-0.094 1.419,-0.185 2.129,-0.272 0.904,-0.109 1.81,-0.213 2.717,-0.31 0.702,-0.077 1.405,-0.151 2.109,-0.219 0.928,-0.091 1.861,-0.171 2.794,-0.248 0.687,-0.058 1.373,-0.117 2.062,-0.167 0.977,-0.071 1.957,-0.129 2.938,-0.187 0.648,-0.037 1.296,-0.08 1.946,-0.111 1.087,-0.053 2.179,-0.09 3.269,-0.125 0.549,-0.018 1.095,-0.043 1.645,-0.057 1.643,-0.04 3.288,-0.062 4.94,-0.062 1.653,0 3.298,0.022 4.941,0.062 0.55,0.014 1.096,0.039 1.644,0.057 1.091,0.035 2.183,0.072 3.27,0.125 0.65,0.031 1.298,0.074 1.946,0.111 0.981,0.058 1.961,0.116 2.938,0.187 0.689,0.05 1.375,0.109 2.062,0.167 0.933,0.077 1.865,0.157 2.794,0.248 0.704,0.068 1.406,0.142 2.109,0.219 0.907,0.097 1.813,0.201 2.716,0.31 0.711,0.087 1.421,0.178 2.13,0.272 0.89,0.117 1.777,0.242 2.662,0.372 0.711,0.104 1.422,0.21 2.13,0.321 0.884,0.139 1.764,0.287 2.643,0.437 0.701,0.121 1.403,0.239 2.101,0.367 0.889,0.161 1.773,0.335 2.657,0.508 0.683,0.134 1.367,0.264 2.046,0.405 0.916,0.189 1.827,0.394 2.737,0.595 0.64,0.143 1.284,0.278 1.922,0.426 1.076,0.25 2.146,0.518 3.216,0.785 0.778,0.195 1.555,0.392 2.33,0.596 0.665,0.174 1.327,0.357 1.99,0.538 C 0.684,-44.58 1.007,-19.989 0,0"
             style="fill:#ec87c0;fill-opacity:1;fill-rule:nonzero;stroke:none"
             id="path90" /></g><g
           id="g92"
           transform="translate(299.2637,170.4951)"><path
             d="m 0,0 c -5.053,1.388 -10.048,2.771 -14.75,4.077 -0.936,0.26 -1.88,0.522 -2.789,0.775 0.012,0.062 0.018,0.108 0.028,0.167 0.023,0.13 0.044,0.26 0.062,0.373 0.007,0.043 0.013,0.085 0.019,0.125 0.022,0.134 0.041,0.258 0.055,0.358 0.002,0.013 0.004,0.026 0.006,0.038 0.015,0.108 0.027,0.193 0.035,0.252 0,0 0.002,0.012 0.002,0.016 0.008,0.055 0.012,0.09 0.012,0.09 l 16.306,88.734 -42.25,-5.5 -42.25,5.5 16.307,-88.734 c 0,0 0.088,-0.727 0.312,-1.95 -0.289,-0.08 -0.59,-0.164 -0.881,-0.245 -4.701,-1.305 -9.701,-2.688 -14.75,-4.075 -0.237,-0.065 -0.472,-0.131 -0.708,-0.195 0.033,-0.194 0.074,-0.408 0.111,-0.61 2.624,-14.431 14.65,-50.691 41.859,-50.691 0.342,0 0.672,0.014 1,0.027 0.328,-0.013 0.659,-0.027 1,-0.027 27.209,0 39.236,36.26 41.86,50.691 0.005,0.03 0.009,0.059 0.015,0.087 0.032,0.172 0.068,0.357 0.096,0.523 C 0.471,-0.13 0.236,-0.064 0,0"
             style="fill:#f9e0a8;fill-opacity:1;fill-rule:nonzero;stroke:none"
             id="path94" /></g><g
           id="g96"
           transform="translate(290,250.5)"><path
             d="m 0,0 -69.525,-21.592 7.086,-38.555 c 3.644,-4.494 7.943,-8.858 12.982,-12.699 9.703,-7.397 22.152,-12.857 37.975,-13.566 1.769,4.373 2.686,8.432 3.111,10.728 0.047,0.256 0.088,0.489 0.124,0.698 0.022,0.131 0.044,0.26 0.061,0.373 0.007,0.043 0.014,0.085 0.02,0.125 0.021,0.134 0.041,0.259 0.055,0.358 0.002,0.013 0.004,0.026 0.006,0.038 0.015,0.108 0.027,0.194 0.035,0.252 0,0 0.002,0.012 0.002,0.016 0.007,0.055 0.011,0.09 0.011,0.09 L 4.07,-7.744 C 1.686,-2.947 0,0 0,0"
             style="fill:#d9c392;fill-opacity:1;fill-rule:nonzero;stroke:none"
             id="path98" /></g><g
           id="g100"
           transform="translate(325.4697,162.9004)"><path
             d="m 0,0 c -1.919,3.369 -4.676,6.883 -8.47,10.527 0,0 -9.605,28.224 -28.861,5.826 -1.172,-1.364 -2.383,-2.926 -3.625,-4.681 4.702,-1.307 9.697,-2.69 14.75,-4.077 L -25.295,7.4 c 0,0 -0.096,-0.187 -0.274,-0.529 -0.014,-0.026 -0.028,-0.052 -0.041,-0.08 -2.624,-14.432 -14.651,-50.691 -41.86,-50.691 -0.342,0 -0.672,0.013 -1,0.027 -0.328,-0.014 -0.658,-0.027 -1,-0.027 -27.209,0 -39.235,36.259 -41.859,50.691 -0.15,0.288 -0.248,0.479 -0.29,0.561 -0.016,0.029 -0.026,0.048 -0.026,0.048 l 0.913,0.196 c 5.049,1.386 10.049,2.769 14.75,4.075 -1.244,1.756 -2.455,3.318 -3.626,4.682 -19.256,22.398 -28.862,-5.826 -28.862,-5.826 -3.562,-3.422 -6.209,-6.728 -8.109,-9.909 -11.297,-18.913 4.105,-33.3 14.156,-40.132 4.192,-2.849 7.453,-4.386 7.453,-4.386 -9.006,-32.615 46.5,-24 46.5,-24 0,0 55.506,-8.615 46.5,24 0,0 2.299,1.084 5.518,3.117 C -6.748,-34.652 11.317,-19.867 0,0"
             style="fill:#ecb8d5;fill-opacity:1;fill-rule:nonzero;stroke:none"
             id="path102" /></g><g
           id="g104"
           transform="translate(256,358)"><path
             d="m 0,0 -63,0 c 0,0 4.785,-94.465 11,-114 7,-22.001 14.237,-27.287 30.226,-41 C -8.366,-166.5 0,-165 0,-165 c 0,0 8.366,-1.5 21.774,10 C 37.763,-141.287 46,-136.001 53,-114 59.215,-94.465 63,0 63,0 L 0,0 z"
             style="fill:#ffe9ba;fill-opacity:1;fill-rule:nonzero;stroke:none"
             id="path106" /></g><g
           id="g108"
           transform="translate(197.75,297.5)"><path
             d="m 0,0 c 0,0 -22.743,10.911 -17.273,-16.638 5.467,-27.55 22.017,-23.583 22.017,-23.583 L 0,0 z"
             style="fill:#f9e0a8;fill-opacity:1;fill-rule:nonzero;stroke:none"
             id="path110" /></g><g
           id="g112"
           transform="translate(315.25,297.5)"><path
             d="M 0,0 C 0,0 22.743,10.911 17.273,-16.638 11.806,-44.188 -4.744,-40.221 -4.744,-40.221 L 0,0 z"
             style="fill:#f9e0a8;fill-opacity:1;fill-rule:nonzero;stroke:none"
             id="path114" /></g><g
           id="g116"
           transform="translate(302.2939,381.7871)"><path
             d="m 0,0 c 6.377,-1.448 13.185,-7.747 15.131,-13.997 1.947,-6.251 5.541,-17.797 7.988,-25.654 l 4.962,-15.944 c 2.447,-7.857 9.023,-9.343 14.61,-3.301 l 11.278,12.19 c 5.591,6.043 14.734,15.929 20.325,21.971 l 11.277,12.191 c 5.588,6.042 3.597,12.482 -4.429,14.311 L 64.862,5.475 C 56.838,7.303 45.049,9.988 38.665,11.442 32.282,12.896 25.473,19.195 23.533,25.44 21.595,31.685 18.011,43.224 15.57,51.084 L 10.638,66.972 C 8.195,74.833 1.625,76.322 -3.963,70.28 L -15.24,58.089 C -20.829,52.047 -29.975,42.159 -35.565,36.117 L -46.842,23.926 C -52.431,17.884 -50.438,11.45 -42.41,9.628 L -26.187,5.945 C -18.161,4.123 -6.377,1.448 0,0"
             style="fill:#ec87c0;fill-opacity:1;fill-rule:nonzero;stroke:none"
             id="path118" /></g><g
           id="g120"
           transform="translate(382.4355,383.5537)"><path
             d="m 0,0 -16.279,3.708 c -8.025,1.828 -19.814,4.514 -26.198,5.968 -6.382,1.454 -13.192,7.753 -15.131,13.998 -1.939,6.244 -5.523,17.783 -7.963,25.643 l -4.933,15.888 c -2.442,7.861 -9.013,9.351 -14.6,3.309 L -96.382,56.322 c -5.589,-6.042 -14.734,-15.929 -20.325,-21.971 l -11.276,-12.192 c -0.73,-0.789 -1.324,-1.585 -1.798,-2.377 l 6.074,6.569 c 5.591,6.042 14.736,15.929 20.325,21.971 l 11.278,12.192 c 5.587,6.042 12.158,4.552 14.6,-3.309 l 4.933,-15.888 c 2.44,-7.86 6.024,-19.399 7.963,-25.643 1.939,-6.245 8.749,-12.544 15.131,-13.998 6.384,-1.454 18.173,-4.14 26.198,-5.968 L -7,-8 c 6.979,-1.589 9.388,-6.665 6.229,-11.935 l 5.201,5.624 C 10.018,-8.269 8.026,-1.828 0,0"
             style="fill:#ecb8d5;fill-opacity:1;fill-rule:nonzero;stroke:none"
             id="path122" /></g><g
           id="g124"
           transform="translate(259.2725,407.333)"><path
             d="m 0,0 c -102.271,0 -84.271,-86.133 -84.271,-86.133 5.589,-47.291 -23.334,-45.867 -23.334,-45.867 0,0 38.732,-52.667 137.033,37.333 0,0 12.968,-35.556 58.301,-31.111 0,0 -17.252,6.444 -14.626,30.444 C 75.729,-71.334 102.271,0 0,0"
             style="fill:#434a54;fill-opacity:1;fill-rule:nonzero;stroke:none"
             id="path126" /></g><g
           id="g128"
           transform="translate(294.0459,347.998)"><path
             d="m 0,0 c 0,0 12.951,-56.667 55.953,-52.667 0,0 -32.11,19.628 -55.953,52.667"
             style="fill:#656d78;fill-opacity:1;fill-rule:nonzero;stroke:none"
             id="path130" /></g><g
           id="g132"
           transform="translate(288.7002,351.1328)"><path
             d="m 0,0 c 0.786,1.317 -74.366,-77.802 -129.699,-55.802 0,0 72.731,-39.73 129.699,55.802"
             style="fill:#656d78;fill-opacity:1;fill-rule:nonzero;stroke:none"
             id="path134" /></g><g
           id="g136"
           transform="translate(280.335,365.0137)"><path
             d="m 0,0 c 0,0 -59.332,-66.346 -114.333,-52.681 0,0 67,14.364 114.333,52.681"
             style="fill:#656d78;fill-opacity:1;fill-rule:nonzero;stroke:none"
             id="path138" /></g><g
           id="g140"
           transform="translate(259.2725,381.333)"><path
             d="M 0,0 C 55.772,0 73.233,-21.215 77.159,-44.397 80.956,-14.2 76.776,26 0,26 -94.283,26 -86.35,-47.203 -84.535,-58.639 -80.748,-33.432 -63.718,0 0,0"
             style="fill:#656d78;fill-opacity:1;fill-rule:nonzero;stroke:none"
             id="path142" /></g></g></g></g></svg>