<?xml version="1.0" encoding="UTF-8" standalone="no"?>
<!-- Created with Inkscape (http://www.inkscape.org/) -->

<svg
   xmlns:dc="http://purl.org/dc/elements/1.1/"
   xmlns:cc="http://creativecommons.org/ns#"
   xmlns:rdf="http://www.w3.org/1999/02/22-rdf-syntax-ns#"
   xmlns:svg="http://www.w3.org/2000/svg"
   xmlns="http://www.w3.org/2000/svg"
   xmlns:sodipodi="http://sodipodi.sourceforge.net/DTD/sodipodi-0.dtd"
   xmlns:inkscape="http://www.inkscape.org/namespaces/inkscape"
   id="svg2"
   version="1.1"
   inkscape:version="0.48.5 r10040"
   width="640"
   height="640"
   xml:space="preserve"
   sodipodi:docname="人物.ai"><metadata
     id="metadata8"><rdf:RDF><cc:Work
         rdf:about=""><dc:format>image/svg+xml</dc:format><dc:type
           rdf:resource="http://purl.org/dc/dcmitype/StillImage" /><dc:title></dc:title></cc:Work></rdf:RDF></metadata><defs
     id="defs6"><clipPath
       clipPathUnits="userSpaceOnUse"
       id="clipPath16"><path
         d="M 0,512 512,512 512,0 0,0 0,512 z"
         id="path18" /></clipPath><clipPath
       clipPathUnits="userSpaceOnUse"
       id="clipPath36"><path
         d="M 0,512 512,512 512,0 0,0 0,512 z"
         id="path38" /></clipPath><clipPath
       clipPathUnits="userSpaceOnUse"
       id="clipPath46"><path
         d="M 0,512 512,512 512,0 0,0 0,512 z"
         id="path48" /></clipPath><clipPath
       clipPathUnits="userSpaceOnUse"
       id="clipPath58"><path
         d="M 0,512 512,512 512,0 0,0 0,512 z"
         id="path60" /></clipPath></defs><sodipodi:namedview
     pagecolor="#ffffff"
     bordercolor="#666666"
     borderopacity="1"
     objecttolerance="10"
     gridtolerance="10"
     guidetolerance="10"
     inkscape:pageopacity="0"
     inkscape:pageshadow="2"
     inkscape:window-width="684"
     inkscape:window-height="480"
     id="namedview4"
     showgrid="false"
     inkscape:zoom="0.36875"
     inkscape:cx="320"
     inkscape:cy="320"
     inkscape:window-x="0"
     inkscape:window-y="25"
     inkscape:window-maximized="0"
     inkscape:current-layer="g10" /><g
     id="g10"
     inkscape:groupmode="layer"
     inkscape:label="人物"
     transform="matrix(1.25,0,0,-1.25,0,640)"><g
       id="g12"><g
         id="g14"
         clip-path="url(#clipPath16)"><path
           d="m 512,512 -512,0 0,512 512,0 0,-512 z"
           style="fill:#ffffff;fill-opacity:1;fill-rule:nonzero;stroke:none"
           id="path20" /><path
           d="m 0,512 -512,0 0,512 512,0 0,-512 z"
           style="fill:#ffffff;fill-opacity:1;fill-rule:nonzero;stroke:none"
           id="path22" /><path
           d="m 1024,512 -512,0 0,512 512,0 0,-512 z"
           style="fill:#ffffff;fill-opacity:1;fill-rule:nonzero;stroke:none"
           id="path24" /></g></g><g
       id="g26"
       transform="translate(0,512.0001)"><path
         d="M 0,0 0,-512 0,0 z"
         style="fill:#ffffff;fill-opacity:1;fill-rule:nonzero;stroke:none"
         id="path28" /></g><path
       d="M 0,0 512,0 512,512 0,512 0,0 z"
       style="fill:#ffffff;fill-opacity:1;fill-rule:nonzero;stroke:none"
       id="path30" /><g
       id="g32"><g
         id="g34"
         clip-path="url(#clipPath36)"><path
           d="m 1024,0 -512,0 0,512 512,0 0,-512 z"
           style="fill:#ffffff;fill-opacity:1;fill-rule:nonzero;stroke:none"
           id="path40" /></g></g><g
       id="g42"><g
         id="g44"
         clip-path="url(#clipPath46)"><path
           d="m 1024,-512 -512,0 0,512 512,0 0,-512 z"
           style="fill:#ffffff;fill-opacity:1;fill-rule:nonzero;stroke:none"
           id="path50" /></g></g><path
       d="M 0,0 512,0 0,0 z"
       style="fill:#ffffff;fill-opacity:1;fill-rule:nonzero;stroke:none"
       id="path52" /><g
       id="g54"><g
         id="g56"
         clip-path="url(#clipPath58)"><g
           id="g62"
           transform="translate(456,256)"><path
             d="m 0,0 c 0,-110.457 -89.543,-200 -200,-200 -110.457,0 -200,89.543 -200,200 0,110.457 89.543,200 200,200 C -89.543,200 0,110.457 0,0"
             style="fill:#3db093;fill-opacity:1;fill-rule:nonzero;stroke:none"
             id="path64" /></g><g
           id="g66"
           transform="translate(222.7637,182.375)"><path
             d="m 0,0 2.264,-15.628 30.5,0.19 28.5,-0.096 2.5,15.204 C 58.264,8.795 5.5,9.125 0,0"
             style="fill:#fff6e3;fill-opacity:1;fill-rule:nonzero;stroke:none"
             id="path68" /></g><g
           id="g70"
           transform="translate(219.002,169.999)"><path
             d="m 0,0 3.525,-64.499 33.273,-36.75 27.727,19 6.901,82.912 -24.401,-22.662 -28.75,2 L 0,0 z"
             style="fill:#fff6e4;fill-opacity:1;fill-rule:nonzero;stroke:none"
             id="path72" /></g><path
           d="m 268,57 -26,0 0,93 26,0 0,-93 z"
           style="fill:#e8e0cf;fill-opacity:1;fill-rule:nonzero;stroke:none"
           id="path74" /><g
           id="g76"
           transform="translate(372.668,143.2109)"><path
             d="m 0,0 c -7.353,6.355 -19.364,14.563 -30.666,15.666 -3.894,0.381 -30.357,6.971 -52.203,13 -1.448,-7.658 -16.576,-96.496 -33.799,-107.498 -17.223,11.002 -34.351,99.84 -35.799,107.498 -21.845,-6.029 -46.309,-12.619 -50.203,-13 -11.302,-1.103 -23.313,-9.311 -30.666,-15.666 -13.235,-11.439 -10.854,-25.453 -14.641,-38.188 35.133,-30.605 81.055,-49.144 131.309,-49.144 50.254,0 96.176,18.539 131.309,49.144 C 10.854,-25.453 13.235,-11.439 0,0"
             style="fill:#656d78;fill-opacity:1;fill-rule:nonzero;stroke:none"
             id="path78" /></g><g
           id="g80"
           transform="translate(254.5273,258)"><path
             d="m 0,0 -42.25,5.5 16.307,-88.734 c 0,0 3.666,-30.766 25.943,-30.766 22.277,0 25.943,30.766 25.943,30.766 L 42.25,5.5 0,0 z"
             style="fill:#f9e0a8;fill-opacity:1;fill-rule:nonzero;stroke:none"
             id="path82" /></g><g
           id="g84"
           transform="translate(288.5273,248.5)"><path
             d="m 0,0 -69.525,-21.592 7.086,-38.555 c 10.66,-13.146 26.918,-25.187 50.957,-26.265 2.709,6.691 3.425,12.678 3.425,12.678 L 4.07,-7.744 C 1.686,-2.947 0,0 0,0"
             style="fill:#d9c392;fill-opacity:1;fill-rule:nonzero;stroke:none"
             id="path86" /></g><g
           id="g88"
           transform="translate(222.7637,182.375)"><path
             d="m 0,0 -3.782,-11.713 c 0,0 16.018,-31.662 35.018,-31.662 l 0,14 c 0,0 -20.986,7.25 -31.236,29.375"
             style="fill:#d9c392;fill-opacity:1;fill-rule:nonzero;stroke:none"
             id="path90" /></g><g
           id="g92"
           transform="translate(286.7637,182.375)"><path
             d="m 0,0 4.019,-11.713 c 0,0 -15.783,-31.662 -34.783,-31.662 l 0,14 c 0,0 20.514,7.25 30.764,29.375"
             style="fill:#d9c392;fill-opacity:1;fill-rule:nonzero;stroke:none"
             id="path94" /></g><g
           id="g96"
           transform="translate(256,358)"><path
             d="m 0,0 -63,0 c 0,0 4.785,-94.465 11,-114 7,-22.001 14.237,-27.287 30.226,-41 C -8.366,-166.5 0,-165 0,-165 c 0,0 8.366,-1.5 21.774,10 C 37.763,-141.287 46,-136.001 53,-114 59.215,-94.465 63,0 63,0 L 0,0 z"
             style="fill:#ffe9ba;fill-opacity:1;fill-rule:nonzero;stroke:none"
             id="path98" /></g><g
           id="g100"
           transform="translate(197.75,297.5)"><path
             d="m 0,0 c 0,0 -22.743,10.911 -17.273,-16.638 5.467,-27.55 22.017,-23.583 22.017,-23.583 L 0,0 z"
             style="fill:#f9e0a8;fill-opacity:1;fill-rule:nonzero;stroke:none"
             id="path102" /></g><g
           id="g104"
           transform="translate(315.25,297.5)"><path
             d="M 0,0 C 0,0 22.743,10.911 17.273,-16.638 11.806,-44.188 -4.744,-40.221 -4.744,-40.221 L 0,0 z"
             style="fill:#f9e0a8;fill-opacity:1;fill-rule:nonzero;stroke:none"
             id="path106" /></g><g
           id="g108"
           transform="translate(341.8125,264)"><path
             d="m 0,0 c -17,51.5 15.187,126 -85.813,126 -100.999,0 -68.812,-74.5 -85.812,-126 -10.323,-31.272 5.604,-49.268 22.836,-52.853 l -0.162,-0.159 c -31.639,-55.511 15.639,-131.488 15.639,-131.488 21.151,26.957 7.214,116.648 1.845,133.154 4.556,1.964 8.452,5.26 11.004,9.932 13.975,25.586 -29.673,65.435 -0.651,67.431 29.167,2.005 35.301,31.983 35.301,31.983 0,0 7.135,-29.978 36.302,-31.983 29.022,-1.996 -15.626,-41.845 -1.651,-67.431 2.552,-4.672 6.448,-7.968 11.004,-9.932 -5.369,-16.506 -19.306,-106.197 1.845,-133.154 0,0 47.278,75.977 15.639,131.488 l -0.162,0.159 C -5.604,-49.268 10.323,-31.272 0,0"
             style="fill:#434a54;fill-opacity:1;fill-rule:nonzero;stroke:none"
             id="path110" /></g><g
           id="g112"
           transform="translate(170.1875,246)"><path
             d="m 0,0 c 17,51.5 -15.187,126 85.813,126 100.999,0 68.812,-74.5 85.812,-126 1.076,-3.258 1.851,-6.363 2.385,-9.332 1.6,7.535 1.138,16.658 -2.385,27.332 -17,51.5 15.187,126 -85.812,126 C -15.187,144 17,69.5 0,18 -3.523,7.326 -3.985,-1.797 -2.385,-9.332 -1.851,-6.363 -1.076,-3.258 0,0"
             style="fill:#656d78;fill-opacity:1;fill-rule:nonzero;stroke:none"
             id="path114" /></g><g
           id="g116"
           transform="translate(299.2187,270.1514)"><path
             d="M 0,0 C -5.247,-13.081 -14.838,-30.274 -10.045,-44.2 -5.405,-25.341 9.494,-6.057 0,0"
             style="fill:#656d78;fill-opacity:1;fill-rule:nonzero;stroke:none"
             id="path118" /></g><g
           id="g120"
           transform="translate(222.9248,226.208)"><path
             d="M 0,0 C 4.61,13.81 -4.495,30.771 -9.472,43.745 -18.442,37.505 -4.419,18.576 0,0"
             style="fill:#656d78;fill-opacity:1;fill-rule:nonzero;stroke:none"
             id="path122" /></g><g
           id="g124"
           transform="translate(212.8223,210.7246)"><path
             d="m 0,0 c 0,-3.466 -5.706,-6.275 -12.744,-6.275 -7.039,0 -12.745,2.809 -12.745,6.275 0,3.465 5.706,6.274 12.745,6.274 C -5.706,6.274 0,3.465 0,0"
             style="fill:#ffce54;fill-opacity:1;fill-rule:nonzero;stroke:none"
             id="path126" /></g><g
           id="g128"
           transform="translate(299.1777,210.7246)"><path
             d="m 0,0 c 0,-3.466 5.706,-6.275 12.744,-6.275 7.039,0 12.745,2.809 12.745,6.275 0,3.465 -5.706,6.274 -12.745,6.274 C 5.706,6.274 0,3.465 0,0"
             style="fill:#ffce54;fill-opacity:1;fill-rule:nonzero;stroke:none"
             id="path130" /></g></g></g></g></svg>