<?xml version="1.0" encoding="UTF-8" standalone="no"?>
<!-- Created with Inkscape (http://www.inkscape.org/) -->

<svg
   xmlns:dc="http://purl.org/dc/elements/1.1/"
   xmlns:cc="http://creativecommons.org/ns#"
   xmlns:rdf="http://www.w3.org/1999/02/22-rdf-syntax-ns#"
   xmlns:svg="http://www.w3.org/2000/svg"
   xmlns="http://www.w3.org/2000/svg"
   xmlns:sodipodi="http://sodipodi.sourceforge.net/DTD/sodipodi-0.dtd"
   xmlns:inkscape="http://www.inkscape.org/namespaces/inkscape"
   id="svg2"
   version="1.1"
   inkscape:version="0.48.5 r10040"
   width="640"
   height="640"
   xml:space="preserve"
   sodipodi:docname="3.svg"><metadata
     id="metadata8"><rdf:RDF><cc:Work
         rdf:about=""><dc:format>image/svg+xml</dc:format><dc:type
           rdf:resource="http://purl.org/dc/dcmitype/StillImage" /><dc:title /></cc:Work></rdf:RDF></metadata><defs
     id="defs6"><clipPath
       clipPathUnits="userSpaceOnUse"
       id="clipPath16"><path
         d="M 0,512 512,512 512,0 0,0 0,512 z"
         id="path18" /></clipPath><clipPath
       clipPathUnits="userSpaceOnUse"
       id="clipPath32"><path
         d="M 0,512 512,512 512,0 0,0 0,512 z"
         id="path34" /></clipPath><clipPath
       clipPathUnits="userSpaceOnUse"
       id="clipPath44"><path
         d="M 0,512 512,512 512,0 0,0 0,512 z"
         id="path46" /></clipPath></defs><sodipodi:namedview
     pagecolor="#ffffff"
     bordercolor="#666666"
     borderopacity="1"
     objecttolerance="10"
     gridtolerance="10"
     guidetolerance="10"
     inkscape:pageopacity="0"
     inkscape:pageshadow="2"
     inkscape:window-width="958"
     inkscape:window-height="1024"
     id="namedview4"
     showgrid="false"
     inkscape:zoom="0.36875"
     inkscape:cx="320"
     inkscape:cy="320"
     inkscape:window-x="960"
     inkscape:window-y="25"
     inkscape:window-maximized="0"
     inkscape:current-layer="g10" /><g
     id="g10"
     inkscape:groupmode="layer"
     inkscape:label="人物"
     transform="matrix(1.25,0,0,-1.25,0,640)"><g
       id="g12"><g
         id="g14"
         clip-path="url(#clipPath16)"><path
           d="m 1024,0 -512,0 0,512 512,0 0,-512 z"
           style="fill:#ffffff;fill-opacity:1;fill-rule:nonzero;stroke:none"
           id="path20" /></g></g><path
       d="M 0,0 512,0 512,512 0,512 0,0 z"
       style="fill:#f6d082;fill-opacity:1;fill-rule:nonzero;stroke:none"
       id="path22" /><g
       id="g24"
       transform="translate(0,512.0001)"><path
         d="M 0,0 0,-512 0,0 z"
         style="fill:#ffffff;fill-opacity:1;fill-rule:nonzero;stroke:none"
         id="path26" /></g><g
       id="g28"><g
         id="g30"
         clip-path="url(#clipPath32)"><path
           d="m 1024,-512 -512,0 0,512 512,0 0,-512 z"
           style="fill:#ffffff;fill-opacity:1;fill-rule:nonzero;stroke:none"
           id="path36" /></g></g><path
       d="M 0,0 512,0 0,0 z"
       style="fill:#ffffff;fill-opacity:1;fill-rule:nonzero;stroke:none"
       id="path38" /><g
       id="g40"><g
         id="g42"
         clip-path="url(#clipPath44)"><g
           id="g48"
           transform="translate(456,256)"><path
             d="m 0,0 c 0,-110.457 -89.543,-200 -200,-200 -110.457,0 -200,89.543 -200,200 0,110.457 89.543,200 200,200 C -89.543,200 0,110.457 0,0"
             style="fill:#f6bb42;fill-opacity:1;fill-rule:nonzero;stroke:none"
             id="path50" /></g><g
           id="g52"
           transform="translate(372.668,152.333)"><path
             d="m 0,0 c -7.353,6.355 -19.364,14.562 -30.666,15.666 -7.258,0.709 -86.002,13 -86.002,13 0,0 -78.744,-12.291 -86.002,-13 -11.302,-1.104 -23.313,-9.311 -30.666,-15.666 -13.417,-11.598 -20.781,-25.84 -24.795,-38.712 36.195,-36.218 86.213,-58.621 141.463,-58.621 55.25,0 105.268,22.403 141.463,58.621 C 20.781,-25.84 13.417,-11.598 0,0"
             style="fill:#fff6e3;fill-opacity:1;fill-rule:nonzero;stroke:none"
             id="path54" /></g><g
           id="g56"
           transform="translate(256,259)"><path
             d="m 0,0 -42.25,5.5 16.307,-88.734 c 0,0 3.666,-30.766 25.943,-30.766 22.277,0 25.943,30.766 25.943,30.766 L 42.25,5.5 0,0 z"
             style="fill:#f9e0a8;fill-opacity:1;fill-rule:nonzero;stroke:none"
             id="path58" /></g><g
           id="g60"
           transform="translate(290,249.5)"><path
             d="m 0,0 -69.525,-21.592 7.086,-38.555 c 10.66,-13.146 26.918,-25.187 50.957,-26.265 2.709,6.691 3.425,12.678 3.425,12.678 L 4.07,-7.744 C 1.686,-2.947 0,0 0,0"
             style="fill:#d9c392;fill-opacity:1;fill-rule:nonzero;stroke:none"
             id="path62" /></g><g
           id="g64"
           transform="translate(283.3916,183.5859)"><path
             d="m 0,0 -22.892,-9.117 -4.5,-30.969 -4.5,30.969 L -54.783,0 -60.693,-7.873 -27.392,-82.586 5.91,-7.873 0,0 z"
             style="fill:#fff6e3;fill-opacity:1;fill-rule:nonzero;stroke:none"
             id="path66" /></g><g
           id="g68"
           transform="translate(186,170.2559)"><path
             d="m 0,0 0,-102.651 c 3,-0.865 5,-1.688 7,-2.468 L 7,1.048 7,2.744 0,1.744 0,0 z"
             style="fill:#434a54;fill-opacity:1;fill-rule:nonzero;stroke:none"
             id="path70" /></g><g
           id="g72"
           transform="translate(319,173)"><path
             d="m 0,0 0,-1.696 0,-106.167 c 3,0.78 5,1.603 7,2.467 L 7,-2.744 7,-1 0,0 z"
             style="fill:#434a54;fill-opacity:1;fill-rule:nonzero;stroke:none"
             id="path74" /></g><g
           id="g76"
           transform="translate(315,103)"><path
             d="m 0,0 c 0,-2.75 2.25,-5 5,-5 l 5,0 c 2.75,0 5,2.25 5,5 l 0,7 c 0,2.75 -2.25,5 -5,5 L 5,12 C 2.25,12 0,9.75 0,7 L 0,0 z"
             style="fill:#f9d178;fill-opacity:1;fill-rule:nonzero;stroke:none"
             id="path78" /></g><g
           id="g80"
           transform="translate(197,103)"><path
             d="m 0,0 c 0,-2.75 -2.25,-5 -5,-5 l -5,0 c -2.75,0 -5,2.25 -5,5 l 0,7 c 0,2.75 2.25,5 5,5 l 5,0 C -2.25,12 0,9.75 0,7 L 0,0 z"
             style="fill:#f9d178;fill-opacity:1;fill-rule:nonzero;stroke:none"
             id="path82" /></g><g
           id="g84"
           transform="translate(222.6982,175.7129)"><path
             d="m 0,0 2.97,-30.713 22.666,18.088 7.666,-19.588 -4.5,30.969 L 5.91,7.873 0,0 z"
             style="fill:#ede5d3;fill-opacity:1;fill-rule:nonzero;stroke:none"
             id="path86" /></g><g
           id="g88"
           transform="translate(289.3018,175.7129)"><path
             d="m 0,0 -2.97,-30.713 -22.666,18.088 -7.666,-19.588 4.5,30.969 L -5.91,7.873 0,0 z"
             style="fill:#ede5d3;fill-opacity:1;fill-rule:nonzero;stroke:none"
             id="path90" /></g><g
           id="g92"
           transform="translate(193,296.3789)"><path
             d="M 0,0 C 0,0 -21.309,13.5 -19.104,-14.5 -16.9,-42.5 0,-40.5 0,-40.5 L 0,0 z"
             style="fill:#f9e0a8;fill-opacity:1;fill-rule:nonzero;stroke:none"
             id="path94" /></g><g
           id="g96"
           transform="translate(319,296.3789)"><path
             d="M 0,0 C 0,0 21.31,13.5 19.104,-14.5 16.9,-42.5 0,-40.5 0,-40.5 L 0,0 z"
             style="fill:#f9e0a8;fill-opacity:1;fill-rule:nonzero;stroke:none"
             id="path98" /></g><g
           id="g100"
           transform="translate(256,368.6172)"><path
             d="m 0,0 c -63,0 -63,-34.738 -63,-34.738 l 0,-80 c 0,-20.5 19.237,-36.287 35.226,-50 13.408,-11.5 27.774,-11 27.774,-11 0,0 14.366,-0.5 27.774,11 15.989,13.713 35.226,29.5 35.226,50 l 0,80 C 63,-34.738 63,0 0,0"
             style="fill:#ffe9ba;fill-opacity:1;fill-rule:nonzero;stroke:none"
             id="path102" /></g><g
           id="g104"
           transform="translate(303.4727,255.8574)"><path
             d="M 0,0 C 0,0 4.116,-55.104 -47,-41.479 -98.116,-55.104 -94,0 -94,0 c 0,0 -9.5,7.521 -8.5,23.885 1,16.365 14.271,20.08 4.384,40.945 -12.884,27.191 15.591,32.451 15.591,32.451 0,0 55.525,-47.76 89.205,-14.201 C 8.097,78.512 7.777,72.559 4.116,64.83 -5.771,43.965 7.5,40.25 8.5,23.885 9.5,7.521 0,0 0,0 m -3.152,140.047 c -3.752,5.619 -16.346,9.474 -43.848,9.474 -27.502,0 -40.096,-3.855 -43.848,-9.474 -47.972,-25.951 -28.785,-96.283 -28.785,-96.283 2.572,0.207 9.633,-3.243 9.633,-3.243 -19.265,-124 63,-111.5 63,-111.5 0,0 82.265,-12.5 63,111.5 0,0 7.061,3.45 9.633,3.243 0,0 19.187,70.332 -28.785,96.283"
             style="fill:#434a54;fill-opacity:1;fill-rule:nonzero;stroke:none"
             id="path106" /></g><g
           id="g108"
           transform="translate(220.9473,375.8789)"><path
             d="m 0,0 c 0,0 40.025,-53.5 88.525,-26.5 0,0 -49.55,-11 -88.525,26.5"
             style="fill:#656d78;fill-opacity:1;fill-rule:nonzero;stroke:none"
             id="path110" /></g><g
           id="g112"
           transform="translate(220.9473,384.8789)"><path
             d="M 0,0 C 0,0 55.025,-27.023 85.025,-16.262 85.025,-16.262 19.475,-8.5 0,0"
             style="fill:#656d78;fill-opacity:1;fill-rule:nonzero;stroke:none"
             id="path114" /></g><g
           id="g116"
           transform="translate(216.9727,368.6172)"><path
             d="m 0,0 c 0,0 -29.932,-18.189 -22,-55.738 0,0 -17.5,45.511 22,55.738"
             style="fill:#656d78;fill-opacity:1;fill-rule:nonzero;stroke:none"
             id="path118" /></g></g></g></g></svg>