<?xml version="1.0" encoding="UTF-8" standalone="no"?>
<!-- Created with Inkscape (http://www.inkscape.org/) -->

<svg
   xmlns:dc="http://purl.org/dc/elements/1.1/"
   xmlns:cc="http://creativecommons.org/ns#"
   xmlns:rdf="http://www.w3.org/1999/02/22-rdf-syntax-ns#"
   xmlns:svg="http://www.w3.org/2000/svg"
   xmlns="http://www.w3.org/2000/svg"
   xmlns:sodipodi="http://sodipodi.sourceforge.net/DTD/sodipodi-0.dtd"
   xmlns:inkscape="http://www.inkscape.org/namespaces/inkscape"
   id="svg2"
   version="1.1"
   inkscape:version="0.48.5 r10040"
   width="640"
   height="640"
   xml:space="preserve"
   sodipodi:docname="人物.ai"><metadata
     id="metadata8"><rdf:RDF><cc:Work
         rdf:about=""><dc:format>image/svg+xml</dc:format><dc:type
           rdf:resource="http://purl.org/dc/dcmitype/StillImage" /><dc:title></dc:title></cc:Work></rdf:RDF></metadata><defs
     id="defs6"><clipPath
       clipPathUnits="userSpaceOnUse"
       id="clipPath16"><path
         d="M 0,512 512,512 512,0 0,0 0,512 z"
         id="path18" /></clipPath><clipPath
       clipPathUnits="userSpaceOnUse"
       id="clipPath36"><path
         d="M 0,512 512,512 512,0 0,0 0,512 z"
         id="path38" /></clipPath></defs><sodipodi:namedview
     pagecolor="#ffffff"
     bordercolor="#666666"
     borderopacity="1"
     objecttolerance="10"
     gridtolerance="10"
     guidetolerance="10"
     inkscape:pageopacity="0"
     inkscape:pageshadow="2"
     inkscape:window-width="684"
     inkscape:window-height="480"
     id="namedview4"
     showgrid="false"
     inkscape:zoom="0.36875"
     inkscape:cx="320"
     inkscape:cy="320"
     inkscape:window-x="0"
     inkscape:window-y="25"
     inkscape:window-maximized="0"
     inkscape:current-layer="g10" /><g
     id="g10"
     inkscape:groupmode="layer"
     inkscape:label="人物"
     transform="matrix(1.25,0,0,-1.25,0,640)"><g
       id="g12"><g
         id="g14"
         clip-path="url(#clipPath16)"><path
           d="m 0,512 -512,0 0,512 512,0 0,-512 z"
           style="fill:#ffffff;fill-opacity:1;fill-rule:nonzero;stroke:none"
           id="path20" /><path
           d="m 512,512 -512,0 0,512 512,0 0,-512 z"
           style="fill:#ffffff;fill-opacity:1;fill-rule:nonzero;stroke:none"
           id="path22" /></g></g><g
       id="g24"
       transform="translate(0,512.0001)"><path
         d="M 0,0 0,-512 0,0 z"
         style="fill:#ffffff;fill-opacity:1;fill-rule:nonzero;stroke:none"
         id="path26" /></g><path
       d="M 0,0 512,0 512,512 0,512 0,0 z"
       style="fill:#ffffff;fill-opacity:1;fill-rule:nonzero;stroke:none"
       id="path28" /><path
       d="M 0,0 512,0 0,0 z"
       style="fill:#ffffff;fill-opacity:1;fill-rule:nonzero;stroke:none"
       id="path30" /><g
       id="g32"><g
         id="g34"
         clip-path="url(#clipPath36)"><g
           id="g40"
           transform="translate(456,256)"><path
             d="m 0,0 c 0,-110.457 -89.543,-200 -200,-200 -110.457,0 -200,89.543 -200,200 0,110.457 89.543,200 200,200 C -89.543,200 0,110.457 0,0"
             style="fill:#aab2bd;fill-opacity:1;fill-rule:nonzero;stroke:none"
             id="path42" /></g><g
           id="g44"
           transform="translate(372.668,143.2109)"><path
             d="m 0,0 c -7.353,6.355 -19.364,14.563 -30.666,15.666 -7.258,0.709 -86.002,23 -86.002,23 0,0 -78.744,-22.291 -86.002,-23 -11.302,-1.103 -23.313,-9.311 -30.666,-15.666 -13.235,-11.439 -10.854,-25.453 -14.641,-38.188 35.133,-30.605 81.055,-49.144 131.309,-49.144 50.254,0 96.176,18.539 131.309,49.144 C 10.854,-25.453 13.235,-11.439 0,0"
             style="fill:#4a89dc;fill-opacity:1;fill-rule:nonzero;stroke:none"
             id="path46" /></g><g
           id="g48"
           transform="translate(256,256)"><path
             d="m 0,0 -42.25,5.5 16.307,-88.734 c 0,0 3.666,-30.766 25.943,-30.766 22.277,0 25.943,30.766 25.943,30.766 L 42.25,5.5 0,0 z"
             style="fill:#f9e0a8;fill-opacity:1;fill-rule:nonzero;stroke:none"
             id="path50" /></g><g
           id="g52"
           transform="translate(290,246.5)"><path
             d="m 0,0 -69.525,-21.592 7.086,-38.555 c 10.66,-13.146 26.918,-25.187 50.957,-26.265 2.709,6.691 3.425,12.678 3.425,12.678 L 4.07,-7.744 C 1.686,-2.947 0,0 0,0"
             style="fill:#d9c392;fill-opacity:1;fill-rule:nonzero;stroke:none"
             id="path54" /></g><g
           id="g56"
           transform="translate(226.6875,176.5)"><path
             d="m 0,0 -9.625,-14.412 c 0,0 23.063,-32.838 23.063,-32.088 0,0.467 5.723,3.723 10.054,10.662 L 29.25,-41 28.25,-16.5 0,0 z"
             style="fill:#5d9cec;fill-opacity:1;fill-rule:nonzero;stroke:none"
             id="path58" /></g><g
           id="g60"
           transform="translate(285.3125,176.5)"><path
             d="m 0,0 -28.25,-16.5 -1,-24.5 5.758,5.162 c 4.331,-6.939 10.054,-10.195 10.054,-10.662 0,-0.75 23.063,32.088 23.063,32.088 L 0,0 z"
             style="fill:#5d9cec;fill-opacity:1;fill-rule:nonzero;stroke:none"
             id="path62" /></g><g
           id="g64"
           transform="translate(251,55.9238)"><path
             d="m 0,0 c 1,-0.025 2.663,-0.045 4,-0.045 1.672,0 3,0.024 5,0.065 l 0,93.056 -9,0 L 0,0 z"
             style="fill:#5d9cec;fill-opacity:1;fill-rule:nonzero;stroke:none"
             id="path66" /></g><g
           id="g68"
           transform="translate(256,358)"><path
             d="m 0,0 -63,0 c 0,0 4.785,-94.465 11,-114 7,-22.001 14.237,-27.287 30.226,-41 C -8.366,-166.5 0,-165 0,-165 c 0,0 8.366,-1.5 21.774,10 C 37.763,-141.287 46,-136.001 53,-114 59.215,-94.465 63,0 63,0 L 0,0 z"
             style="fill:#ffe9ba;fill-opacity:1;fill-rule:nonzero;stroke:none"
             id="path70" /></g><g
           id="g72"
           transform="translate(197.75,297.5)"><path
             d="m 0,0 c 0,0 -22.743,10.911 -17.273,-16.638 5.467,-27.55 22.017,-23.583 22.017,-23.583 L 0,0 z"
             style="fill:#f9e0a8;fill-opacity:1;fill-rule:nonzero;stroke:none"
             id="path74" /></g><g
           id="g76"
           transform="translate(315.25,297.5)"><path
             d="M 0,0 C 0,0 22.743,10.911 17.273,-16.638 11.806,-44.188 -4.744,-40.221 -4.744,-40.221 L 0,0 z"
             style="fill:#f9e0a8;fill-opacity:1;fill-rule:nonzero;stroke:none"
             id="path78" /></g><g
           id="g80"
           transform="translate(308.7061,286.127)"><path
             d="m 0,0 -9.852,-10.316 c -2.877,5.793 -8.839,9.784 -15.747,9.784 -8.634,0 -15.803,-6.227 -17.294,-14.433 -2.602,2.364 -6.424,3.41 -9.814,3.479 -3.388,-0.069 -7.211,-1.115 -9.813,-3.479 -1.49,8.206 -8.659,14.433 -17.293,14.433 -6.91,0 -12.87,-3.991 -15.748,-9.784 L -105.412,0 l 0.069,-2.296 c 0,0 6.725,-11.059 8.16,-13.164 -0.132,-0.871 -0.222,-1.757 -0.222,-2.665 0,-9.716 7.875,-17.591 17.592,-17.591 9.559,0 17.321,7.629 17.569,17.13 1.857,3.262 6.042,4.523 9.537,4.593 3.497,-0.07 7.682,-1.331 9.539,-4.593 0.248,-9.501 8.01,-17.13 17.569,-17.13 9.717,0 17.592,7.875 17.592,17.591 0,0.908 -0.09,1.794 -0.222,2.665 1.435,2.105 8.16,13.164 8.16,13.164 L 0,0 z"
             style="fill:#434a54;fill-opacity:1;fill-rule:nonzero;stroke:none"
             id="path82" /></g><g
           id="g84"
           transform="translate(244.1875,268.002)"><path
             d="m 0,0 c 0,-8.446 -6.849,-15.293 -15.295,-15.293 -8.447,0 -15.294,6.847 -15.294,15.293 0,8.448 6.847,15.295 15.294,15.295 C -6.849,15.295 0,8.448 0,0"
             style="fill:#f5f7fa;fill-opacity:1;fill-rule:nonzero;stroke:none"
             id="path86" /></g><g
           id="g88"
           transform="translate(267.8125,268.002)"><path
             d="m 0,0 c 0,-8.446 6.849,-15.293 15.295,-15.293 8.447,0 15.294,6.847 15.294,15.293 0,8.448 -6.847,15.295 -15.294,15.295 C 6.849,15.295 0,8.448 0,0"
             style="fill:#f5f7fa;fill-opacity:1;fill-rule:nonzero;stroke:none"
             id="path90" /></g><g
           id="g92"
           transform="translate(228.8926,283.2969)"><path
             d="m 0,0 c -1.442,0 -2.833,-0.214 -4.156,-0.587 l -8.578,-23.175 c 1.963,-2.947 4.922,-5.167 8.397,-6.193 L 6.254,-1.346 C 4.344,-0.488 2.23,0 0,0"
             style="fill:#e8eaed;fill-opacity:1;fill-rule:nonzero;stroke:none"
             id="path94" /></g><g
           id="g96"
           transform="translate(236.6396,281.1738)"><path
             d="m 0,0 -10.444,-28.215 c 0.878,-0.156 1.776,-0.25 2.697,-0.25 1.247,0 2.452,0.164 3.612,0.446 L 4.662,-4.254 C 3.423,-2.531 1.836,-1.081 0,0"
             style="fill:#e8eaed;fill-opacity:1;fill-rule:nonzero;stroke:none"
             id="path98" /></g><g
           id="g100"
           transform="translate(283.2695,283.2969)"><path
             d="m 0,0 c -1.443,0 -2.833,-0.214 -4.156,-0.587 l -8.576,-23.175 c 1.962,-2.947 4.92,-5.167 8.397,-6.193 L 6.255,-1.346 C 4.344,-0.488 2.231,0 0,0"
             style="fill:#e8eaed;fill-opacity:1;fill-rule:nonzero;stroke:none"
             id="path102" /></g><g
           id="g104"
           transform="translate(291.0176,281.1738)"><path
             d="m 0,0 -10.443,-28.215 c 0.876,-0.156 1.774,-0.25 2.695,-0.25 1.247,0 2.452,0.164 3.613,0.446 L 4.661,-4.254 C 3.422,-2.531 1.835,-1.081 0,0"
             style="fill:#e8eaed;fill-opacity:1;fill-rule:nonzero;stroke:none"
             id="path106" /></g><g
           id="g108"
           transform="translate(206.0234,283.2969)"><path
             d="M 0,0 -1.128,-2.739 1.378,-6.645 3.885,-3.713 0,0 z"
             style="fill:#f5f7fa;fill-opacity:1;fill-rule:nonzero;stroke:none"
             id="path110" /></g><g
           id="g112"
           transform="translate(305.9766,283.2969)"><path
             d="M 0,0 1.128,-2.739 -1.378,-6.645 -3.885,-3.713 0,0 z"
             style="fill:#f5f7fa;fill-opacity:1;fill-rule:nonzero;stroke:none"
             id="path114" /></g><g
           id="g116"
           transform="translate(256,434.666)"><path
             d="m 0,0 c -70,0 -96.024,-49.333 -77.515,-125.333 0,0 35.834,61.333 77.515,61.333 41.682,0 77.515,-61.333 77.515,-61.333 C 96.024,-49.333 70,0 0,0"
             style="fill:#2d3138;fill-opacity:1;fill-rule:nonzero;stroke:none"
             id="path118" /></g><g
           id="g120"
           transform="translate(256,424.666)"><path
             d="M 0,0 C 53.575,0 81.391,-28.898 83.195,-76.533 85.055,-22.976 57.227,10 0,10 -57.227,10 -85.055,-22.976 -83.195,-76.533 -81.391,-28.898 -53.575,0 0,0"
             style="fill:#434a54;fill-opacity:1;fill-rule:nonzero;stroke:none"
             id="path122" /></g><g
           id="g124"
           transform="translate(341.5078,320.335)"><path
             d="m 0,0 c -5.779,13.048 -13.924,25.155 -22.883,36.188 -14.875,18.315 -35.146,33.37 -59.204,35.272 -0.673,0.131 -1.386,0.205 -2.148,0.205 l -2.545,0 c -0.767,0 -1.484,-0.074 -2.159,-0.207 -24.036,-1.914 -44.151,-17.021 -59.194,-35.27 C -157.152,25.247 -165.32,13.013 -171.084,0 c -2.207,-4.983 -1.468,-10.7 3.622,-13.682 4.303,-2.52 11.489,-1.398 13.698,3.588 1.489,3.361 3.249,6.615 5.032,9.825 3.897,7.023 9.666,15.748 13.572,20.7 6.478,8.213 14.441,16.231 22.277,21.564 8.651,5.888 17.569,9.26 27.367,9.63 9.881,-0.373 18.595,-3.824 27.381,-9.63 7.901,-5.221 15.761,-13.425 22.276,-21.564 3.941,-4.924 9.644,-13.697 13.567,-20.7 1.794,-3.203 3.534,-6.466 5.022,-9.825 2.209,-4.986 9.379,-6.108 13.682,-3.588 C 1.502,-10.7 2.207,-4.983 0,0"
             style="fill:#434a54;fill-opacity:1;fill-rule:nonzero;stroke:none"
             id="path126" /></g><g
           id="g128"
           transform="translate(256.0078,373)"><path
             d="m 0,0 -0.016,0 c -98.674,-1 -101.325,-179.98 -73.926,-214.23 27.398,-34.252 52.601,-35.094 52.601,-35.094 16,38.666 -44.666,142.662 -29.417,157.995 7.013,7.051 18.305,26.919 28.459,46.329 l 44.582,0 c 10.155,-19.41 21.446,-39.283 28.459,-46.334 15.249,-15.333 -45.417,-119.334 -29.417,-158 0,0 25.203,0.852 52.602,35.104 C 101.325,-179.98 98.675,-1 0,0"
             style="fill:#ffce54;fill-opacity:1;fill-rule:nonzero;stroke:none"
             id="path130" /></g><g
           id="g132"
           transform="translate(256,372)"><path
             d="m 0,0 c -52.666,0 -59.834,-61.191 -59.834,-61.191 19.203,-21.611 53.926,-22.362 60.744,-22.291 6.818,-0.071 41.584,0.685 60.787,22.295 C 61.697,-61.187 52.666,0 0,0"
             style="fill:#ffd56b;fill-opacity:1;fill-rule:nonzero;stroke:none"
             id="path134" /></g><g
           id="g136"
           transform="translate(251.1729,369.7021)"><path
             d="M 0,0 C 0.462,0.759 0.943,1.492 1.441,2.201 -0.388,2.106 -2.161,1.937 -3.876,1.696 c -14.007,-6.364 -34.18,-23.972 -35.645,-72.583 4.482,-2.408 9.143,-4.259 13.715,-5.676 C -25.182,-56.912 -21.233,-16.605 0,0"
             style="fill:#f6bb42;fill-opacity:1;fill-rule:nonzero;stroke:none"
             id="path138" /></g><g
           id="g140"
           transform="translate(264.5,371.4277)"><path
             d="m 0,0 c -1.326,0.181 -2.682,0.323 -4.074,0.418 0.885,-1.264 1.711,-2.607 2.484,-4.023 19.494,-17.782 23.059,-56.536 23.603,-75.268 4.536,1.295 9.201,3.004 13.726,5.248 C 34.523,-24.167 14.106,-6.383 0,0"
             style="fill:#f6bb42;fill-opacity:1;fill-rule:nonzero;stroke:none"
             id="path142" /></g><g
           id="g144"
           transform="translate(262.9102,367.8223)"><path
             d="m 0,0 c -1.703,1.554 -3.529,2.945 -5.485,4.152 -0.474,0.01 -0.945,0.026 -1.425,0.026 -0.529,0 -1.046,-0.017 -1.567,-0.029 -1.128,-0.696 -2.216,-1.453 -3.26,-2.269 -14.036,-23.037 -12.042,-68.185 -12.257,-79.722 8.503,-1.387 15.349,-1.49 17.994,-1.463 2.558,-0.026 9.049,0.064 17.176,1.327 C 10.949,-66.957 12.899,-23.624 0,0"
             style="fill:#ffce54;fill-opacity:1;fill-rule:nonzero;stroke:none"
             id="path146" /></g><g
           id="g148"
           transform="translate(234.667,144.6758)"><path
             d="M 0,0 C 0,0 -9.488,0.331 -23.142,8.479 -29.62,28.09 -48.1,83.454 -51.333,141.657 c 0,0 -7.019,-55.856 9.171,-118.209 -3.411,3.376 -6.906,7.228 -10.44,11.646 -8.12,10.15 -13.599,33.012 -14.723,60.185 -1.444,-35.982 4.58,-68.505 14.723,-81.185 C -25.203,-20.158 0,-21 0,-21 3.007,-13.734 3.306,-4.162 1.91,6.694 1.47,4.298 0.849,2.052 0,0"
             style="fill:#f6bb42;fill-opacity:1;fill-rule:nonzero;stroke:none"
             id="path150" /></g><g
           id="g152"
           transform="translate(344.6582,239.9551)"><path
             d="m 0,0 c -1.124,-27.173 -6.604,-50.035 -14.724,-60.186 -3.533,-4.418 -7.028,-8.269 -10.44,-11.646 16.191,62.353 9.172,118.21 9.172,118.21 -3.235,-58.207 -21.715,-113.575 -28.194,-133.183 -13.652,-8.15 -23.139,-8.484 -23.139,-8.484 -0.849,2.052 -1.47,4.298 -1.91,6.694 -1.396,-10.856 -1.097,-20.428 1.91,-27.694 0,0 25.203,0.851 52.601,35.103 C -4.58,-68.505 1.443,-35.982 0,0"
             style="fill:#f6bb42;fill-opacity:1;fill-rule:nonzero;stroke:none"
             id="path154" /></g></g></g></g></svg>