<?xml version="1.0" encoding="UTF-8" standalone="no"?>
<!-- Created with Inkscape (http://www.inkscape.org/) -->

<svg
   xmlns:dc="http://purl.org/dc/elements/1.1/"
   xmlns:cc="http://creativecommons.org/ns#"
   xmlns:rdf="http://www.w3.org/1999/02/22-rdf-syntax-ns#"
   xmlns:svg="http://www.w3.org/2000/svg"
   xmlns="http://www.w3.org/2000/svg"
   xmlns:sodipodi="http://sodipodi.sourceforge.net/DTD/sodipodi-0.dtd"
   xmlns:inkscape="http://www.inkscape.org/namespaces/inkscape"
   id="svg2"
   version="1.1"
   inkscape:version="0.48.5 r10040"
   width="640"
   height="640"
   xml:space="preserve"
   sodipodi:docname="31.svg"><metadata
     id="metadata8"><rdf:RDF><cc:Work
         rdf:about=""><dc:format>image/svg+xml</dc:format><dc:type
           rdf:resource="http://purl.org/dc/dcmitype/StillImage" /><dc:title /></cc:Work></rdf:RDF></metadata><defs
     id="defs6"><clipPath
       clipPathUnits="userSpaceOnUse"
       id="clipPath16"><path
         d="M 0,512 512,512 512,0 0,0 0,512 z"
         id="path18" /></clipPath><clipPath
       clipPathUnits="userSpaceOnUse"
       id="clipPath30"><path
         d="M 0,512 512,512 512,0 0,0 0,512 z"
         id="path32" /></clipPath><clipPath
       clipPathUnits="userSpaceOnUse"
       id="clipPath40"><path
         d="M 0,512 512,512 512,0 0,0 0,512 z"
         id="path42" /></clipPath></defs><sodipodi:namedview
     pagecolor="#ffffff"
     bordercolor="#666666"
     borderopacity="1"
     objecttolerance="10"
     gridtolerance="10"
     guidetolerance="10"
     inkscape:pageopacity="0"
     inkscape:pageshadow="2"
     inkscape:window-width="684"
     inkscape:window-height="480"
     id="namedview4"
     showgrid="false"
     inkscape:zoom="0.36875"
     inkscape:cx="320"
     inkscape:cy="320"
     inkscape:window-x="0"
     inkscape:window-y="25"
     inkscape:window-maximized="0"
     inkscape:current-layer="g10" /><g
     id="g10"
     inkscape:groupmode="layer"
     inkscape:label="人物"
     transform="matrix(1.25,0,0,-1.25,0,640)"><g
       id="g12"><g
         id="g14"
         clip-path="url(#clipPath16)"><path
           d="m 512,512 -512,0 0,512 512,0 0,-512 z"
           style="fill:#ffffff;fill-opacity:1;fill-rule:nonzero;stroke:none"
           id="path20" /><path
           d="m 1024,512 -512,0 0,512 512,0 0,-512 z"
           style="fill:#ffffff;fill-opacity:1;fill-rule:nonzero;stroke:none"
           id="path22" /></g></g><path
       d="M 0,0 512,0 512,512 0,512 0,0 z"
       style="fill:#3e91b2;fill-opacity:1;fill-rule:nonzero;stroke:none"
       id="path24" /><g
       id="g26"><g
         id="g28"
         clip-path="url(#clipPath30)"><path
           d="m 1024,0 -512,0 0,512 512,0 0,-512 z"
           style="fill:#ffffff;fill-opacity:1;fill-rule:nonzero;stroke:none"
           id="path34" /></g></g><g
       id="g36"><g
         id="g38"
         clip-path="url(#clipPath40)"><g
           id="g44"
           transform="translate(456,256)"><path
             d="m 0,0 c 0,-110.457 -89.543,-200 -200,-200 -110.457,0 -200,89.543 -200,200 0,110.457 89.543,200 200,200 C -89.543,200 0,110.457 0,0"
             style="fill:#3bafda;fill-opacity:1;fill-rule:nonzero;stroke:none"
             id="path46" /></g><g
           id="g48"
           transform="translate(372.668,143.333)"><path
             d="m 0,0 c -7.354,6.355 -19.364,14.562 -30.666,15.666 -2.679,0.262 -15.099,3.464 -29.701,7.4 -0.705,0.191 -1.414,0.382 -2.129,0.576 -0.018,0.004 -0.033,0.008 -0.051,0.013 -0.878,0.238 -1.762,0.477 -2.652,0.719 -8.923,2.422 -18.324,5.02 -26.62,7.326 -0.182,0.051 -0.363,0.102 -0.542,0.152 -0.467,0.129 -0.93,0.258 -1.389,0.386 -0.219,0.061 -0.436,0.121 -0.652,0.182 -0.409,0.113 -0.811,0.226 -1.211,0.338 -0.238,0.065 -0.475,0.132 -0.709,0.197 -0.354,0.099 -0.7,0.195 -1.047,0.292 -0.697,0.194 -1.381,0.386 -2.053,0.573 -0.121,0.034 -0.246,0.07 -0.367,0.103 -0.223,0.062 -0.44,0.123 -0.66,0.184 -0.387,0.109 -0.77,0.216 -1.147,0.322 -5.434,1.52 -9.816,2.754 -12.425,3.49 -0.016,0.004 -0.03,0.008 -0.045,0.012 -0.411,0.116 -0.766,0.216 -1.084,0.306 -0.106,0.03 -0.205,0.058 -0.301,0.084 -0.315,0.09 -0.555,0.158 -0.75,0.213 -0.297,0.084 -0.467,0.132 -0.467,0.132 0,0 -0.221,-0.062 -0.602,-0.17 -0.032,-0.009 -0.054,-0.016 -0.089,-0.025 -0.079,-0.023 -0.164,-0.047 -0.256,-0.073 -0.09,-0.025 -0.173,-0.048 -0.276,-0.078 -0.134,-0.038 -0.28,-0.079 -0.435,-0.123 -0.244,-0.069 -0.516,-0.145 -0.811,-0.228 -0.129,-0.036 -0.265,-0.075 -0.404,-0.115 -0.066,-0.018 -0.131,-0.037 -0.199,-0.056 -0.414,-0.116 -0.86,-0.241 -1.346,-0.379 -0.113,-0.031 -0.232,-0.065 -0.352,-0.099 -0.008,-0.002 -0.017,-0.005 -0.027,-0.007 -0.341,-0.096 -0.699,-0.197 -1.071,-0.302 -0.142,-0.039 -0.278,-0.078 -0.423,-0.119 -0.145,-0.04 -0.293,-0.082 -0.441,-0.123 -0.043,-0.013 -0.088,-0.026 -0.133,-0.038 -0.031,-0.009 -0.063,-0.018 -0.095,-0.027 -0.29,-0.082 -0.589,-0.166 -0.893,-0.251 -0.014,-0.005 -0.03,-0.009 -0.043,-0.013 -0.045,-0.012 -0.09,-0.025 -0.136,-0.038 -0.107,-0.029 -0.208,-0.057 -0.316,-0.089 -0.175,-0.048 -0.358,-0.1 -0.539,-0.151 -0.98,-0.275 -2.027,-0.569 -3.133,-0.879 -0.164,-0.046 -0.322,-0.09 -0.488,-0.137 -0.379,-0.106 -0.77,-0.215 -1.163,-0.325 -0.079,-0.022 -0.157,-0.045 -0.236,-0.066 -0.388,-0.109 -0.78,-0.219 -1.179,-0.33 -0.227,-0.064 -0.458,-0.129 -0.689,-0.194 -0.338,-0.093 -0.676,-0.188 -1.022,-0.285 -0.193,-0.054 -0.393,-0.11 -0.59,-0.165 -0.583,-0.163 -1.174,-0.328 -1.775,-0.496 -0.381,-0.106 -0.762,-0.213 -1.15,-0.321 -0.219,-0.061 -0.441,-0.122 -0.661,-0.184 -0.414,-0.115 -0.828,-0.231 -1.248,-0.347 -0.275,-0.078 -0.55,-0.155 -0.828,-0.232 -0.392,-0.109 -0.789,-0.22 -1.188,-0.33 -0.284,-0.079 -0.568,-0.158 -0.856,-0.238 -0.272,-0.076 -0.55,-0.154 -0.825,-0.23 -0.137,-0.038 -0.274,-0.076 -0.412,-0.115 -0.037,-0.01 -0.073,-0.019 -0.109,-0.029 -0.249,-0.07 -0.495,-0.138 -0.747,-0.207 -0.321,-0.09 -0.648,-0.181 -0.973,-0.272 -0.044,-0.011 -0.088,-0.023 -0.132,-0.036 -0.271,-0.075 -0.541,-0.149 -0.812,-0.225 -0.211,-0.059 -0.424,-0.118 -0.637,-0.176 -0.529,-0.148 -1.062,-0.295 -1.598,-0.444 -0.221,-0.06 -0.442,-0.123 -0.664,-0.183 -0.469,-0.13 -0.938,-0.26 -1.41,-0.391 -0.275,-0.076 -0.551,-0.152 -0.828,-0.228 -0.539,-0.15 -1.082,-0.299 -1.625,-0.45 -0.241,-0.066 -0.483,-0.132 -0.725,-0.199 -0.125,-0.035 -0.25,-0.069 -0.376,-0.103 -0.026,-0.008 -0.053,-0.015 -0.079,-0.023 -0.474,-0.131 -0.951,-0.261 -1.428,-0.393 -0.322,-0.088 -0.646,-0.178 -0.968,-0.266 -0.428,-0.118 -0.858,-0.236 -1.286,-0.353 -0.31,-0.086 -0.621,-0.171 -0.932,-0.257 -0.439,-0.12 -0.876,-0.241 -1.314,-0.361 -0.293,-0.08 -0.583,-0.16 -0.874,-0.239 -0.651,-0.179 -1.301,-0.356 -1.95,-0.534 -0.074,-0.02 -0.146,-0.04 -0.221,-0.061 -0.729,-0.199 -1.458,-0.398 -2.185,-0.595 -0.243,-0.067 -0.485,-0.133 -0.729,-0.2 -0.478,-0.129 -0.957,-0.26 -1.433,-0.39 -0.035,-0.009 -0.069,-0.018 -0.104,-0.027 -0.274,-0.076 -0.549,-0.15 -0.822,-0.224 -0.416,-0.113 -0.831,-0.226 -1.245,-0.338 -0.31,-0.084 -0.618,-0.168 -0.927,-0.251 -0.51,-0.138 -1.015,-0.274 -1.52,-0.411 -15.167,-4.097 -28.259,-7.486 -31.019,-7.756 -11.302,-1.104 -23.313,-9.311 -30.666,-15.666 -13.235,-11.44 -10.854,-25.454 -14.641,-38.188 35.133,-30.606 81.055,-49.145 131.309,-49.145 50.254,0 96.176,18.539 131.309,49.145 C 10.854,-25.454 13.235,-11.44 0,0"
             style="fill:#f6bb42;fill-opacity:1;fill-rule:nonzero;stroke:none"
             id="path50" /></g><g
           id="g52"
           transform="translate(256,260)"><path
             d="m 0,0 -42.25,5.5 16.307,-88.734 c 0,0 3.666,-30.766 25.943,-30.766 22.277,0 25.943,30.766 25.943,30.766 L 42.25,5.5 0,0 z"
             style="fill:#f9e0a8;fill-opacity:1;fill-rule:nonzero;stroke:none"
             id="path54" /></g><g
           id="g56"
           transform="translate(290,250.5)"><path
             d="m 0,0 -69.525,-21.592 7.086,-38.555 c 10.66,-13.146 26.918,-25.187 50.957,-26.265 2.709,6.691 3.425,12.678 3.425,12.678 L 4.07,-7.744 C 1.686,-2.947 0,0 0,0"
             style="fill:#d9c392;fill-opacity:1;fill-rule:nonzero;stroke:none"
             id="path58" /></g><g
           id="g60"
           transform="translate(293.5312,172.334)"><path
             d="m 0,0 -9.001,14.348 -23.89,-27.016 -4.64,-15 -4.641,15 -23.89,27.016 L -75.063,0 c -1.169,-1.214 -10e-4,-3.209 -10e-4,-3.209 0,0 13.458,-29.875 13.958,-33.875 0.5,-4 2.874,-2.25 2.874,-2.25 0,0 9.265,13.044 11.496,14 1.75,0.75 1.577,-1.443 1.577,-1.443 l 1.958,-43.557 11.34,0 1.959,43.557 c 0,0 -0.175,2.138 1.575,1.388 2.229,-0.956 11.497,-13.972 11.497,-13.972 0,0 2.373,-1.737 2.873,2.263 0.5,4 13.959,33.882 13.959,33.882 0,0 1.168,2.002 -0.002,3.216"
             style="fill:#ffce54;fill-opacity:1;fill-rule:nonzero;stroke:none"
             id="path62" /></g><g
           id="g64"
           transform="translate(256,358)"><path
             d="m 0,0 -63,0 c 0,0 4.785,-94.465 11,-114 7,-22.001 14.237,-27.287 30.226,-41 C -8.366,-166.5 0,-165 0,-165 c 0,0 8.366,-1.5 21.774,10 C 37.763,-141.287 46,-136.001 53,-114 59.215,-94.465 63,0 63,0 L 0,0 z"
             style="fill:#ffe9ba;fill-opacity:1;fill-rule:nonzero;stroke:none"
             id="path66" /></g><g
           id="g68"
           transform="translate(197.75,297.5)"><path
             d="m 0,0 c 0,0 -22.743,10.911 -17.273,-16.638 5.467,-27.55 22.017,-23.583 22.017,-23.583 L 0,0 z"
             style="fill:#f9e0a8;fill-opacity:1;fill-rule:nonzero;stroke:none"
             id="path70" /></g><g
           id="g72"
           transform="translate(315.25,297.5)"><path
             d="M 0,0 C 0,0 22.743,10.911 17.273,-16.638 11.806,-44.188 -4.744,-40.221 -4.744,-40.221 L 0,0 z"
             style="fill:#f9e0a8;fill-opacity:1;fill-rule:nonzero;stroke:none"
             id="path74" /></g><g
           id="g76"
           transform="translate(236.0703,434.3398)"><path
             d="m 0,0 c 0,0 -48.035,-27.865 35.48,-89.425 83.518,-61.56 147.115,17.802 147.115,17.802 0,0 -15.385,-14.923 -31.699,-5.511 0,0 25.868,3.767 25.159,27.373 0,0 -71.563,-42.048 -102.712,8.976 C 42.193,10.238 17.395,8.207 0,0"
             style="fill:#434a54;fill-opacity:1;fill-rule:nonzero;stroke:none"
             id="path78" /></g><g
           id="g80"
           transform="translate(270.2305,399.3789)"><path
             d="m 0,0 c 0,-6.693 -5.426,-12.12 -12.12,-12.12 -6.693,0 -12.12,5.427 -12.12,12.12 0,6.693 5.427,12.12 12.12,12.12 C -5.426,12.12 0,6.693 0,0"
             style="fill:#f6bb42;fill-opacity:1;fill-rule:nonzero;stroke:none"
             id="path82" /></g><g
           id="g84"
           transform="translate(256,400)"><path
             d="m 0,0 c -119,0 -64.939,-120 -64.939,-120 30.273,1.778 42.238,25.814 46.625,39.547 C -0.827,-99.513 31.722,-127.903 64.939,-120 64.939,-120 119,0 0,0"
             style="fill:#434a54;fill-opacity:1;fill-rule:nonzero;stroke:none"
             id="path86" /></g><g
           id="g88"
           transform="translate(227,357.5)"><path
             d="M 0,0 C 0,0 10.379,-100.5 93.939,-77.5 93.939,-77.5 17,-56 0,0"
             style="fill:#656d78;fill-opacity:1;fill-rule:nonzero;stroke:none"
             id="path90" /></g><g
           id="g92"
           transform="translate(220.4746,358)"><path
             d="M 0,0 C 0,0 -27.475,-60.736 -49.975,-58.368 -49.975,-58.368 3.475,-84 0,0"
             style="fill:#656d78;fill-opacity:1;fill-rule:nonzero;stroke:none"
             id="path94" /></g><g
           id="g96"
           transform="translate(252.5,386.0088)"><path
             d="m 0,0 c 45.75,-6.509 79.014,-25.61 80.563,-55.409 1.599,32.78 -11.325,69.4 -77.063,69.4 -65.738,0 -78.662,-36.62 -77.063,-69.4 C -72.014,-25.61 -58.515,8.325 0,0"
             style="fill:#656d78;fill-opacity:1;fill-rule:nonzero;stroke:none"
             id="path98" /></g></g></g></g></svg>