<?xml version="1.0" encoding="UTF-8" standalone="no"?>
<!-- Created with Inkscape (http://www.inkscape.org/) -->

<svg
   xmlns:dc="http://purl.org/dc/elements/1.1/"
   xmlns:cc="http://creativecommons.org/ns#"
   xmlns:rdf="http://www.w3.org/1999/02/22-rdf-syntax-ns#"
   xmlns:svg="http://www.w3.org/2000/svg"
   xmlns="http://www.w3.org/2000/svg"
   xmlns:sodipodi="http://sodipodi.sourceforge.net/DTD/sodipodi-0.dtd"
   xmlns:inkscape="http://www.inkscape.org/namespaces/inkscape"
   id="svg2"
   version="1.1"
   inkscape:version="0.48.5 r10040"
   width="640"
   height="640"
   xml:space="preserve"
   sodipodi:docname="人物.ai"><metadata
     id="metadata8"><rdf:RDF><cc:Work
         rdf:about=""><dc:format>image/svg+xml</dc:format><dc:type
           rdf:resource="http://purl.org/dc/dcmitype/StillImage" /><dc:title></dc:title></cc:Work></rdf:RDF></metadata><defs
     id="defs6"><clipPath
       clipPathUnits="userSpaceOnUse"
       id="clipPath16"><path
         d="M 0,512 512,512 512,0 0,0 0,512 z"
         id="path18" /></clipPath><clipPath
       clipPathUnits="userSpaceOnUse"
       id="clipPath36"><path
         d="M 0,512 512,512 512,0 0,0 0,512 z"
         id="path38" /></clipPath><clipPath
       clipPathUnits="userSpaceOnUse"
       id="clipPath46"><path
         d="M 0,512 512,512 512,0 0,0 0,512 z"
         id="path48" /></clipPath></defs><sodipodi:namedview
     pagecolor="#ffffff"
     bordercolor="#666666"
     borderopacity="1"
     objecttolerance="10"
     gridtolerance="10"
     guidetolerance="10"
     inkscape:pageopacity="0"
     inkscape:pageshadow="2"
     inkscape:window-width="684"
     inkscape:window-height="480"
     id="namedview4"
     showgrid="false"
     inkscape:zoom="0.36875"
     inkscape:cx="320"
     inkscape:cy="320"
     inkscape:window-x="0"
     inkscape:window-y="25"
     inkscape:window-maximized="0"
     inkscape:current-layer="g10" /><g
     id="g10"
     inkscape:groupmode="layer"
     inkscape:label="人物"
     transform="matrix(1.25,0,0,-1.25,0,640)"><g
       id="g12"><g
         id="g14"
         clip-path="url(#clipPath16)"><path
           d="m 0,512 -512,0 0,512 512,0 0,-512 z"
           style="fill:#ffffff;fill-opacity:1;fill-rule:nonzero;stroke:none"
           id="path20" /><path
           d="m 1024,512 -512,0 0,512 512,0 0,-512 z"
           style="fill:#ffffff;fill-opacity:1;fill-rule:nonzero;stroke:none"
           id="path22" /><path
           d="m 512,512 -512,0 0,512 512,0 0,-512 z"
           style="fill:#ffffff;fill-opacity:1;fill-rule:nonzero;stroke:none"
           id="path24" /></g></g><g
       id="g26"
       transform="translate(0,512.0001)"><path
         d="M 0,0 0,-512 0,0 z"
         style="fill:#ffffff;fill-opacity:1;fill-rule:nonzero;stroke:none"
         id="path28" /></g><path
       d="M 0,0 512,0 512,512 0,512 0,0 z"
       style="fill:#ffffff;fill-opacity:1;fill-rule:nonzero;stroke:none"
       id="path30" /><g
       id="g32"><g
         id="g34"
         clip-path="url(#clipPath36)"><path
           d="m 1024,0 -512,0 0,512 512,0 0,-512 z"
           style="fill:#ffffff;fill-opacity:1;fill-rule:nonzero;stroke:none"
           id="path40" /></g></g><g
       id="g42"><g
         id="g44"
         clip-path="url(#clipPath46)"><g
           id="g50"
           transform="translate(456,256)"><path
             d="m 0,0 c 0,-110.457 -89.543,-200 -200,-200 -110.457,0 -200,89.543 -200,200 0,110.457 89.543,200 200,200 C -89.543,200 0,110.457 0,0"
             style="fill:#967adc;fill-opacity:1;fill-rule:nonzero;stroke:none"
             id="path52" /></g><g
           id="g54"
           transform="translate(372.668,143.333)"><path
             d="m 0,0 c -7.353,6.355 -19.364,14.562 -30.666,15.666 -7.258,0.709 -86.002,23 -86.002,23 0,0 -78.744,-22.291 -86.002,-23 -11.302,-1.104 -23.313,-9.311 -30.666,-15.666 -13.235,-11.44 -10.854,-25.454 -14.641,-38.188 35.133,-30.606 81.055,-49.145 131.309,-49.145 50.254,0 96.176,18.539 131.309,49.145 C 10.854,-25.454 13.235,-11.44 0,0"
             style="fill:#656d78;fill-opacity:1;fill-rule:nonzero;stroke:none"
             id="path56" /></g><g
           id="g58"
           transform="translate(256,260)"><path
             d="m 0,0 -42.25,5.5 16.307,-88.734 c 0,0 3.666,-30.766 25.943,-30.766 22.277,0 25.943,30.766 25.943,30.766 L 42.25,5.5 0,0 z"
             style="fill:#f9e0a8;fill-opacity:1;fill-rule:nonzero;stroke:none"
             id="path60" /></g><g
           id="g62"
           transform="translate(290,250.5)"><path
             d="m 0,0 -69.525,-21.592 7.086,-38.555 c 10.66,-13.146 26.918,-25.187 50.957,-26.265 2.709,6.691 3.425,12.678 3.425,12.678 L 4.07,-7.744 C 1.686,-2.947 0,0 0,0"
             style="fill:#d9c392;fill-opacity:1;fill-rule:nonzero;stroke:none"
             id="path64" /></g><g
           id="g66"
           transform="translate(283.6299,185.7773)"><path
             d="m 0,0 c -9.463,-9.463 -27.63,-12.777 -27.63,-12.777 0,0 -18.167,3.314 -27.63,12.777 L -59.261,-8.765 -27.63,-125.49 4.001,-8.765 0,0 z"
             style="fill:#f5f7fa;fill-opacity:1;fill-rule:nonzero;stroke:none"
             id="path68" /></g><g
           id="g70"
           transform="translate(284.4512,183.9775)"><path
             d="M 0,0 3.18,-6.965 -28.451,-123.69 -60.082,-6.965 -56.902,0 c -34.549,-6.978 -12.299,-68.478 -12.299,-68.478 l 10,3.5 -6.375,-10.25 37.125,-50.462 37.125,50.462 -6.375,10.25 10,-3.5 c 0,0 22.25,61.5 -12.299,68.478"
             style="fill:#84888d;fill-opacity:1;fill-rule:nonzero;stroke:none"
             id="path72" /></g><g
           id="g74"
           transform="translate(231.9287,149.1162)"><path
             d="M 0,0 24.071,23.884 48.143,0 24.071,-88.829 0,0 z"
             style="fill:#e6e9ed;fill-opacity:1;fill-rule:nonzero;stroke:none"
             id="path76" /></g><g
           id="g78"
           transform="translate(255.9561,133.9863)"><path
             d="M 0,0 C 0.052,-0.085 0.088,-0.143 0.088,-0.143 0.057,-0.097 0.029,-0.047 0,0"
             style="fill:#ffd56b;fill-opacity:1;fill-rule:nonzero;stroke:none"
             id="path80" /></g><g
           id="g82"
           transform="translate(256,358)"><path
             d="m 0,0 -63,0 c 0,0 4.785,-94.465 11,-114 7,-22.001 14.237,-27.287 30.226,-41 C -8.366,-166.5 0,-165 0,-165 c 0,0 8.366,-1.5 21.774,10 C 37.763,-141.287 46,-136.001 53,-114 59.215,-94.465 63,0 63,0 L 0,0 z"
             style="fill:#ffe9ba;fill-opacity:1;fill-rule:nonzero;stroke:none"
             id="path84" /></g><g
           id="g86"
           transform="translate(197.75,297.5)"><path
             d="m 0,0 c 0,0 -22.743,10.911 -17.273,-16.638 5.467,-27.55 22.017,-23.583 22.017,-23.583 L 0,0 z"
             style="fill:#f9e0a8;fill-opacity:1;fill-rule:nonzero;stroke:none"
             id="path88" /></g><g
           id="g90"
           transform="translate(315.25,297.5)"><path
             d="M 0,0 C 0,0 22.743,10.911 17.273,-16.638 11.806,-44.188 -4.744,-40.221 -4.744,-40.221 L 0,0 z"
             style="fill:#f9e0a8;fill-opacity:1;fill-rule:nonzero;stroke:none"
             id="path92" /></g><g
           id="g94"
           transform="translate(329.3145,254.334)"><path
             d="m 0,0 c 3.879,19.056 11.348,60.102 11.348,93.665 0,45.334 -41,81.666 -91,78 -50,-3.666 -53.506,-46.333 -53.506,-46.333 0,0 -78.373,-14.398 -11.434,-96.199 0,0 13.612,-13.467 5.606,-39.801 0,0 25.993,37.258 23.518,56.258 0,0 42.522,-56.258 113.189,-56.258 0,0 9.293,-1 27.293,3.667 0,0 -11.518,-1.684 -25.014,7.001"
             style="fill:#ffce54;fill-opacity:1;fill-rule:nonzero;stroke:none"
             id="path96" /></g><g
           id="g98"
           transform="translate(199,364.875)"><path
             d="m 0,0 c 0,0 0.662,22.458 50.662,26.124 45.507,3.337 83.554,-26.461 90.025,-66.021 0.61,7.827 0.975,15.607 0.975,23.021 0,45.334 -41,81.666 -91,78 -50,-3.666 -53.506,-46.333 -53.506,-46.333 0,0 -50.882,-9.361 -35.606,-55.806 C -29.878,-12.738 0,0 0,0"
             style="fill:#ffd56b;fill-opacity:1;fill-rule:nonzero;stroke:none"
             id="path100" /></g><g
           id="g102"
           transform="translate(208.1992,340.5)"><path
             d="M 0,0 C 0,0 18.43,-61.832 121.115,-86.166 121.115,-86.166 13.699,-28 0,0"
             style="fill:#ffd56b;fill-opacity:1;fill-rule:nonzero;stroke:none"
             id="path104" /></g><g
           id="g106"
           transform="translate(208.1992,350)"><path
             d="M 0,0 C 0,0 98.965,26.988 125.633,-71.256 125.633,-71.256 99.699,72.5 0,0"
             style="fill:#f6bb42;fill-opacity:1;fill-rule:nonzero;stroke:none"
             id="path108" /></g><g
           id="g110"
           transform="translate(203,345)"><path
             d="m 0,0 c 0,0 -7,-17.5 -14.5,-76 0,0 -25,41 14.5,76"
             style="fill:#f6bb42;fill-opacity:1;fill-rule:nonzero;stroke:none"
             id="path112" /></g></g></g></g></svg>