<?xml version="1.0" encoding="UTF-8" standalone="no"?>
<!-- Created with Inkscape (http://www.inkscape.org/) -->

<svg
   xmlns:dc="http://purl.org/dc/elements/1.1/"
   xmlns:cc="http://creativecommons.org/ns#"
   xmlns:rdf="http://www.w3.org/1999/02/22-rdf-syntax-ns#"
   xmlns:svg="http://www.w3.org/2000/svg"
   xmlns="http://www.w3.org/2000/svg"
   xmlns:sodipodi="http://sodipodi.sourceforge.net/DTD/sodipodi-0.dtd"
   xmlns:inkscape="http://www.inkscape.org/namespaces/inkscape"
   id="svg2"
   version="1.1"
   inkscape:version="0.48.5 r10040"
   width="640"
   height="640"
   xml:space="preserve"
   sodipodi:docname="人物.ai"><metadata
     id="metadata8"><rdf:RDF><cc:Work
         rdf:about=""><dc:format>image/svg+xml</dc:format><dc:type
           rdf:resource="http://purl.org/dc/dcmitype/StillImage" /><dc:title></dc:title></cc:Work></rdf:RDF></metadata><defs
     id="defs6"><clipPath
       clipPathUnits="userSpaceOnUse"
       id="clipPath16"><path
         d="M 0,512 512,512 512,0 0,0 0,512 z"
         id="path18" /></clipPath><clipPath
       clipPathUnits="userSpaceOnUse"
       id="clipPath36"><path
         d="M 0,512 512,512 512,0 0,0 0,512 z"
         id="path38" /></clipPath><clipPath
       clipPathUnits="userSpaceOnUse"
       id="clipPath46"><path
         d="M 0,512 512,512 512,0 0,0 0,512 z"
         id="path48" /></clipPath></defs><sodipodi:namedview
     pagecolor="#ffffff"
     bordercolor="#666666"
     borderopacity="1"
     objecttolerance="10"
     gridtolerance="10"
     guidetolerance="10"
     inkscape:pageopacity="0"
     inkscape:pageshadow="2"
     inkscape:window-width="684"
     inkscape:window-height="480"
     id="namedview4"
     showgrid="false"
     inkscape:zoom="0.36875"
     inkscape:cx="320"
     inkscape:cy="320"
     inkscape:window-x="0"
     inkscape:window-y="25"
     inkscape:window-maximized="0"
     inkscape:current-layer="g10" /><g
     id="g10"
     inkscape:groupmode="layer"
     inkscape:label="人物"
     transform="matrix(1.25,0,0,-1.25,0,640)"><g
       id="g12"><g
         id="g14"
         clip-path="url(#clipPath16)"><path
           d="m 512,512 -512,0 0,512 512,0 0,-512 z"
           style="fill:#ffffff;fill-opacity:1;fill-rule:nonzero;stroke:none"
           id="path20" /><path
           d="m 0,512 -512,0 0,512 512,0 0,-512 z"
           style="fill:#ffffff;fill-opacity:1;fill-rule:nonzero;stroke:none"
           id="path22" /><path
           d="m 1024,512 -512,0 0,512 512,0 0,-512 z"
           style="fill:#ffffff;fill-opacity:1;fill-rule:nonzero;stroke:none"
           id="path24" /></g></g><g
       id="g26"
       transform="translate(0,512.0001)"><path
         d="M 0,0 0,-512 0,0 z"
         style="fill:#ffffff;fill-opacity:1;fill-rule:nonzero;stroke:none"
         id="path28" /></g><path
       d="M 0,0 512,0 512,512 0,512 0,0 z"
       style="fill:#ffffff;fill-opacity:1;fill-rule:nonzero;stroke:none"
       id="path30" /><g
       id="g32"><g
         id="g34"
         clip-path="url(#clipPath36)"><path
           d="m 1024,0 -512,0 0,512 512,0 0,-512 z"
           style="fill:#ffffff;fill-opacity:1;fill-rule:nonzero;stroke:none"
           id="path40" /></g></g><g
       id="g42"><g
         id="g44"
         clip-path="url(#clipPath46)"><g
           id="g50"
           transform="translate(456,256)"><path
             d="m 0,0 c 0,-110.457 -89.543,-200 -200,-200 -110.457,0 -200,89.543 -200,200 0,110.457 89.543,200 200,200 C -89.543,200 0,110.457 0,0"
             style="fill:#f6bb42;fill-opacity:1;fill-rule:nonzero;stroke:none"
             id="path52" /></g><g
           id="g54"
           transform="translate(372.668,142.333)"><path
             d="m 0,0 c -7.354,6.355 -19.364,14.562 -30.666,15.666 -2.679,0.262 -15.099,3.464 -29.701,7.4 -0.705,0.191 -1.414,0.382 -2.129,0.576 -0.018,0.004 -0.033,0.008 -0.051,0.013 -0.878,0.238 -1.762,0.477 -2.652,0.719 -8.923,2.422 -18.324,5.02 -26.62,7.326 -0.182,0.051 -0.363,0.102 -0.542,0.152 -0.467,0.129 -0.93,0.258 -1.389,0.386 -0.219,0.061 -0.436,0.121 -0.652,0.182 -0.409,0.113 -0.811,0.226 -1.211,0.338 -0.238,0.065 -0.475,0.132 -0.709,0.197 -0.354,0.099 -0.7,0.195 -1.047,0.292 -0.697,0.194 -1.381,0.386 -2.053,0.573 -0.121,0.034 -0.246,0.07 -0.367,0.103 -0.223,0.062 -0.44,0.123 -0.66,0.184 -0.387,0.109 -0.77,0.216 -1.147,0.322 -5.434,1.52 -9.816,2.754 -12.425,3.49 -0.016,0.004 -0.03,0.008 -0.045,0.012 -0.411,0.116 -0.766,0.216 -1.084,0.306 -0.106,0.03 -0.205,0.058 -0.301,0.084 -0.315,0.09 -0.555,0.158 -0.75,0.213 -0.297,0.084 -0.467,0.132 -0.467,0.132 0,0 -0.221,-0.062 -0.602,-0.17 -0.032,-0.009 -0.054,-0.016 -0.089,-0.025 -0.079,-0.023 -0.164,-0.047 -0.256,-0.073 -0.09,-0.025 -0.173,-0.048 -0.276,-0.078 -0.134,-0.038 -0.28,-0.079 -0.435,-0.123 -0.244,-0.069 -0.516,-0.145 -0.811,-0.228 -0.129,-0.036 -0.265,-0.075 -0.404,-0.115 -0.066,-0.018 -0.131,-0.037 -0.199,-0.056 -0.414,-0.116 -0.86,-0.241 -1.346,-0.379 -0.113,-0.031 -0.232,-0.065 -0.352,-0.099 -0.008,-0.002 -0.017,-0.005 -0.027,-0.007 -0.341,-0.096 -0.699,-0.197 -1.071,-0.302 -0.142,-0.039 -0.278,-0.078 -0.423,-0.119 -0.145,-0.04 -0.293,-0.082 -0.441,-0.123 -0.043,-0.013 -0.088,-0.026 -0.133,-0.038 -0.031,-0.009 -0.063,-0.018 -0.095,-0.027 -0.29,-0.082 -0.589,-0.166 -0.893,-0.251 -0.014,-0.005 -0.03,-0.009 -0.043,-0.013 -0.045,-0.012 -0.09,-0.025 -0.136,-0.038 -0.107,-0.029 -0.208,-0.057 -0.316,-0.089 -0.175,-0.048 -0.358,-0.1 -0.539,-0.151 -0.98,-0.275 -2.027,-0.569 -3.133,-0.879 -0.164,-0.046 -0.322,-0.09 -0.488,-0.137 -0.379,-0.106 -0.77,-0.215 -1.163,-0.325 -0.079,-0.022 -0.157,-0.045 -0.236,-0.066 -0.388,-0.109 -0.78,-0.219 -1.179,-0.33 -0.227,-0.064 -0.458,-0.129 -0.689,-0.194 -0.338,-0.093 -0.676,-0.188 -1.022,-0.285 -0.193,-0.054 -0.393,-0.11 -0.59,-0.165 -0.583,-0.163 -1.174,-0.328 -1.775,-0.496 -0.381,-0.106 -0.762,-0.213 -1.15,-0.321 -0.219,-0.061 -0.441,-0.122 -0.661,-0.184 -0.414,-0.115 -0.828,-0.231 -1.248,-0.347 -0.275,-0.078 -0.55,-0.155 -0.828,-0.232 -0.392,-0.109 -0.789,-0.22 -1.188,-0.33 -0.284,-0.079 -0.568,-0.158 -0.856,-0.238 -0.272,-0.076 -0.55,-0.154 -0.825,-0.23 -0.137,-0.038 -0.274,-0.076 -0.412,-0.115 -0.037,-0.01 -0.073,-0.019 -0.109,-0.029 -0.249,-0.07 -0.495,-0.138 -0.747,-0.207 -0.321,-0.09 -0.648,-0.181 -0.973,-0.272 -0.044,-0.011 -0.088,-0.023 -0.132,-0.036 -0.271,-0.075 -0.541,-0.149 -0.812,-0.225 -0.211,-0.059 -0.424,-0.118 -0.637,-0.176 -0.529,-0.148 -1.062,-0.295 -1.598,-0.444 -0.221,-0.06 -0.442,-0.123 -0.664,-0.183 -0.469,-0.13 -0.938,-0.26 -1.41,-0.391 -0.275,-0.076 -0.551,-0.152 -0.828,-0.228 -0.539,-0.15 -1.082,-0.299 -1.625,-0.45 -0.241,-0.066 -0.483,-0.132 -0.725,-0.199 -0.125,-0.035 -0.25,-0.069 -0.376,-0.103 -0.026,-0.008 -0.053,-0.015 -0.079,-0.023 -0.474,-0.131 -0.951,-0.261 -1.428,-0.393 -0.322,-0.088 -0.646,-0.178 -0.968,-0.266 -0.428,-0.118 -0.858,-0.236 -1.286,-0.353 -0.31,-0.086 -0.621,-0.171 -0.932,-0.257 -0.439,-0.12 -0.876,-0.241 -1.314,-0.361 -0.293,-0.08 -0.583,-0.16 -0.874,-0.239 -0.651,-0.179 -1.301,-0.356 -1.95,-0.534 -0.074,-0.02 -0.146,-0.04 -0.221,-0.061 -0.729,-0.199 -1.458,-0.398 -2.185,-0.595 -0.243,-0.067 -0.485,-0.133 -0.729,-0.2 -0.478,-0.129 -0.957,-0.26 -1.433,-0.39 -0.035,-0.009 -0.069,-0.018 -0.104,-0.027 -0.274,-0.076 -0.549,-0.15 -0.822,-0.224 -0.416,-0.113 -0.831,-0.226 -1.245,-0.338 -0.31,-0.084 -0.618,-0.168 -0.927,-0.251 -0.51,-0.138 -1.015,-0.274 -1.52,-0.411 -15.167,-4.097 -28.259,-7.486 -31.019,-7.756 -11.302,-1.104 -23.313,-9.311 -30.666,-15.666 -13.235,-11.44 -10.854,-15.454 -14.641,-28.187 35.133,-30.607 81.055,-49.146 131.309,-49.146 50.254,0 96.176,18.539 131.309,49.146 C 10.854,-15.454 13.235,-11.44 0,0"
             style="fill:#ffe9ba;fill-opacity:1;fill-rule:nonzero;stroke:none"
             id="path56" /></g><g
           id="g58"
           transform="translate(196.4478,165.9531)"><path
             d="m 0,0 -11.781,-78.953 c 0,0 14.333,6.666 15.667,11.666 1.333,5 -3.886,6 -3.886,6 0,0 3.655,2.666 4.104,7.333 0.448,4.667 -5.34,6.001 -5.34,6.001 0,0 4.607,4.459 5.364,11.062 0.758,6.604 -5.364,1.604 -5.364,1.604 0,0 5.403,6.667 5.429,11.667 0.026,5 -5.429,0 -5.429,0 0,0 5.403,6.332 5.429,9.666 0.026,3.334 -4.193,1 -4.193,1 0,0 14.886,22.767 0,12.954"
             style="fill:#656d78;fill-opacity:1;fill-rule:nonzero;stroke:none"
             id="path60" /></g><g
           id="g62"
           transform="translate(186.75,163)"><path
             d="m 0,0 c 0,0 -8.457,3.603 -9.27,0 -0.813,-3.603 4.635,-10.334 4.635,-10.334 0,0 -3.987,0.666 -4.718,-3.667 -0.73,-4.333 2.23,-6.666 2.23,-6.666 0,0 -7.294,-0.626 -6.294,-5.146 1,-4.521 6.258,-4.521 6.258,-4.521 0,0 -9.611,-0.635 -7.434,-6.317 2.176,-5.683 5.306,-5.351 5.306,-5.351 0,0 -7.125,-0.332 -5.627,-5.999 1.497,-5.667 5.644,-7.333 5.644,-7.333 0,0 -8.813,6.667 -9.147,-3 -0.333,-9.667 7.167,-23.667 7.167,-23.667 L 0,0 z"
             style="fill:#656d78;fill-opacity:1;fill-rule:nonzero;stroke:none"
             id="path64" /></g><g
           id="g66"
           transform="translate(315.5522,165.9531)"><path
             d="m 0,0 11.781,-78.953 c 0,0 -14.333,6.666 -15.667,11.666 -1.333,5 3.886,6 3.886,6 0,0 -3.655,2.666 -4.104,7.333 -0.448,4.667 5.34,6.001 5.34,6.001 0,0 -4.607,4.459 -5.364,11.062 -0.758,6.604 5.364,1.604 5.364,1.604 0,0 -5.403,6.667 -5.429,11.667 -0.026,5 5.429,0 5.429,0 0,0 -5.403,6.332 -5.429,9.666 -0.026,3.334 4.193,1 4.193,1 0,0 -14.886,22.767 0,12.954"
             style="fill:#656d78;fill-opacity:1;fill-rule:nonzero;stroke:none"
             id="path68" /></g><g
           id="g70"
           transform="translate(325.25,163)"><path
             d="m 0,0 c 0,0 8.457,3.603 9.27,0 0.813,-3.603 -4.635,-10.334 -4.635,-10.334 0,0 3.987,0.666 4.718,-3.667 0.73,-4.333 -2.23,-6.666 -2.23,-6.666 0,0 7.294,-0.626 6.294,-5.146 -1,-4.521 -6.258,-4.521 -6.258,-4.521 0,0 9.611,-0.635 7.434,-6.317 -2.176,-5.683 -5.306,-5.351 -5.306,-5.351 0,0 7.125,-0.332 5.627,-5.999 -1.497,-5.667 -5.644,-7.333 -5.644,-7.333 0,0 8.813,6.667 9.147,-3 0.333,-9.667 -7.167,-23.667 -7.167,-23.667 L 0,0 z"
             style="fill:#656d78;fill-opacity:1;fill-rule:nonzero;stroke:none"
             id="path72" /></g><g
           id="g74"
           transform="translate(139.332,142.333)"><path
             d="m 0,0 c 0,0 -10.668,31 0,28.667 10.668,-2.333 13.668,-32 13.668,-32 0,0 -3.667,27.843 6,24.088 9.667,-3.755 6,-24.088 6,-24.088 0,0 1.334,8.333 8.667,6 7.333,-2.333 1.833,-58 1.833,-58 l -32.167,28 L 0,0 z"
             style="fill:#f5f7fa;fill-opacity:1;fill-rule:nonzero;stroke:none"
             id="path76" /></g><g
           id="g78"
           transform="translate(372.668,142.333)"><path
             d="m 0,0 c 0,0 10.668,31 0,28.667 -10.668,-2.333 -13.668,-32 -13.668,-32 0,0 3.667,27.843 -6,24.088 -9.667,-3.755 -6,-24.088 -6,-24.088 0,0 -1.334,8.333 -8.667,6 -7.333,-2.333 -1.833,-58 -1.833,-58 l 32.167,28 L 0,0 z"
             style="fill:#f5f7fa;fill-opacity:1;fill-rule:nonzero;stroke:none"
             id="path80" /></g><g
           id="g82"
           transform="translate(186.75,163)"><path
             d="m 0,0 -11.25,-76 c 0,0 12.716,1.91 13,2 0.284,0.09 7.948,76.953 7.948,76.953 L 0,0 z"
             style="fill:#434a54;fill-opacity:1;fill-rule:nonzero;stroke:none"
             id="path84" /></g><g
           id="g86"
           transform="translate(325.25,163)"><path
             d="m 0,0 11.25,-76 c 0,0 -12.716,1.91 -13,2 -0.284,0.09 -7.948,76.953 -7.948,76.953 L 0,0 z"
             style="fill:#434a54;fill-opacity:1;fill-rule:nonzero;stroke:none"
             id="path88" /></g><g
           id="g90"
           transform="translate(256,259)"><path
             d="m 0,0 -42.25,5.5 16.307,-88.734 c 0,0 3.666,-30.766 25.943,-30.766 22.277,0 25.943,30.766 25.943,30.766 L 42.25,5.5 0,0 z"
             style="fill:#f9e0a8;fill-opacity:1;fill-rule:nonzero;stroke:none"
             id="path92" /></g><g
           id="g94"
           transform="translate(290,249.5)"><path
             d="m 0,0 -69.525,-21.592 7.086,-38.555 c 10.66,-13.146 26.918,-25.187 50.957,-26.265 2.709,6.691 3.425,12.678 3.425,12.678 L 4.07,-7.744 C 1.686,-2.947 0,0 0,0"
             style="fill:#d9c392;fill-opacity:1;fill-rule:nonzero;stroke:none"
             id="path96" /></g><g
           id="g98"
           transform="translate(281.8145,174.8867)"><path
             d="M 0,0 C -0.018,-0.112 -0.039,-0.242 -0.062,-0.373 -0.039,-0.238 -0.018,-0.114 0,0"
             style="fill:#d9c392;fill-opacity:1;fill-rule:nonzero;stroke:none"
             id="path100" /></g><g
           id="g102"
           transform="translate(281.8887,175.3701)"><path
             d="M 0,0 C -0.014,-0.1 -0.033,-0.224 -0.055,-0.358 -0.033,-0.22 -0.015,-0.101 0,0"
             style="fill:#d9c392;fill-opacity:1;fill-rule:nonzero;stroke:none"
             id="path104" /></g><g
           id="g106"
           transform="translate(281.9434,175.7656)"><path
             d="M 0,0 C 0,0 -0.004,-0.034 -0.012,-0.09 -0.004,-0.035 0,0 0,0"
             style="fill:#d9c392;fill-opacity:1;fill-rule:nonzero;stroke:none"
             id="path108" /></g><g
           id="g110"
           transform="translate(281.9297,175.6602)"><path
             d="M 0,0 C -0.008,-0.059 -0.02,-0.145 -0.035,-0.252 -0.02,-0.145 -0.008,-0.058 0,0"
             style="fill:#d9c392;fill-opacity:1;fill-rule:nonzero;stroke:none"
             id="path112" /></g><g
           id="g114"
           transform="translate(291.5254,134.999)"><path
             d="m 0,0 c 9.525,7.667 -9.025,34.249 -9.025,34.249 l -0.5,11.752 -0.098,0 1.556,2.964 c 0.253,1.422 14.792,22.33 14.792,22.33 0,0 -10.001,1.373 -14.792,-7.294 0,0 -9.459,0.204 -14.125,-7.064 l -10.698,-10.936 -5.271,0 -10.697,10.936 c -4.667,7.268 -14.125,7.064 -14.125,7.064 -4.792,8.667 -14.792,7.294 -14.792,7.294 0,0 14.538,-20.908 14.792,-22.33 l 1.555,-2.964 -0.097,0 -0.5,-11.752 c 0,0 -18.551,-26.582 -9.026,-34.249 0,0 -25.308,-27.333 -6.724,-45 6.035,-5.737 11.551,-7.113 16.25,-6.358 l 0,-15.641 52,0 0,15.641 C -4.827,-52.113 0.689,-50.737 6.725,-45 25.308,-27.333 0,0 0,0"
             style="fill:#f5f7fa;fill-opacity:1;fill-rule:nonzero;stroke:none"
             id="path116" /></g><path
           d="m 245,71 5,0 0,100 -5,0 0,-100 z"
           style="fill:#ffffff;fill-opacity:1;fill-rule:nonzero;stroke:none"
           id="path118" /><path
           d="m 263,71 4,0 0,100 -4,0 0,-100 z"
           style="fill:#ffffff;fill-opacity:1;fill-rule:nonzero;stroke:none"
           id="path120" /><g
           id="g122"
           transform="translate(283.458,183.9639)"><path
             d="m 0,0 c 0,0 -7.708,-3.964 -27.458,-3.964 -19.75,0 -27.458,3.964 -27.458,3.964 -7.458,-4.536 -3.88,-11.731 -3.88,-11.731 6.412,-6.268 31.338,-9.233 31.338,-9.233 0,0 24.926,2.965 31.338,9.233 0,0 3.578,7.195 -3.88,11.731"
             style="fill:#434a54;fill-opacity:1;fill-rule:nonzero;stroke:none"
             id="path124" /></g><g
           id="g126"
           transform="translate(372.668,142.333)"><path
             d="m 0,0 c 0,0 -35.668,-19.333 -36.168,-55.333 0,0 -43,26 -80.5,-8.5 -37.5,34.5 -80.5,8.5 -80.5,8.5 -0.5,36 -36.168,55.333 -36.168,55.333 -17.277,-2.535 -29.029,-8.188 -36.848,-15.515 36.688,-43.89 91.837,-71.818 153.516,-71.818 61.679,0 116.828,27.928 153.516,71.818 C 29.029,-8.188 17.277,-2.535 0,0"
             style="fill:#434a54;fill-opacity:1;fill-rule:nonzero;stroke:none"
             id="path128" /></g><g
           id="g130"
           transform="translate(372.668,142.333)"><path
             d="m 0,0 c 0,0 -35.668,-19.333 -36.168,-55.333 0,0 -43,26 -80.5,-8.5 -37.5,34.5 -80.5,8.5 -80.5,8.5 -0.5,36 -36.168,55.333 -36.168,55.333 -17.277,-2.535 -29.029,-8.188 -36.848,-15.515 36.688,-43.89 91.837,-71.818 153.516,-71.818 61.679,0 116.828,27.928 153.516,71.818 C 29.029,-8.188 17.277,-2.535 0,0"
             style="fill:#434a54;fill-opacity:1;fill-rule:nonzero;stroke:none"
             id="path132" /></g><g
           id="g134"
           transform="translate(139.332,127.333)"><path
             d="m 0,0 c 0,0 35.668,-19.333 36.168,-55.333 0,0 43,26 80.5,-8.5 37.5,34.5 80.5,8.5 80.5,8.5 0.5,36 36.168,55.333 36.168,55.333 12.177,-1.787 21.6,-5.128 28.845,-9.507 2.753,2.919 5.428,5.912 8.003,8.992 -7.819,7.327 -19.571,12.98 -36.848,15.515 0,0 -35.668,-19.333 -36.168,-55.333 0,0 -43,26 -80.5,-8.5 -37.5,34.5 -80.5,8.5 -80.5,8.5 C 35.668,-4.333 0,15 0,15 -17.277,12.465 -29.029,6.812 -36.848,-0.515 c 2.575,-3.08 5.25,-6.073 8.003,-8.992 C -21.6,-5.128 -12.177,-1.787 0,0"
             style="fill:#2d3138;fill-opacity:1;fill-rule:nonzero;stroke:none"
             id="path136" /></g><g
           id="g138"
           transform="translate(228.3643,161.4277)"><path
             d="m 0,0 c -3.667,-0.211 -7.762,2.635 -6.902,6.736 1.213,5.788 15.161,4.979 19.24,4.941 3.528,-0.032 7.781,-0.297 11.408,-0.66 C 20.065,8.401 15.787,5.786 11.791,3.74 8.143,1.874 4.133,0.236 0,0 M 62.174,6.736 C 63.406,3.006 59.11,0.176 56.017,-0.002 51.723,-0.25 47.218,1.896 43.481,3.74 39.47,5.721 35.19,8.38 31.52,11.01 c 3.628,0.355 7.88,0.605 11.414,0.667 4.625,0.081 17.32,0.869 19.24,-4.941 m -2.876,-71.468 c -4.228,5.214 -9.704,8.625 -11.666,15.416 -1.099,3.806 -0.476,7.892 0.473,11.644 0.689,2.725 2.245,5.215 2.464,8.05 0.714,9.205 -5.097,18.566 -9.771,26.034 -1.905,3.043 -3.935,6.031 -6.062,8.947 11.379,-7.071 28.867,-14.932 30.532,0.231 1.411,12.865 -29.134,9.119 -37.33,8.007 -0.101,0.02 -0.202,0.024 -0.302,0.016 -0.105,0.008 -0.211,0.002 -0.317,-0.021 C 20.647,14.475 13.864,14.87 7.142,14.603 1.419,14.374 -10.074,13.576 -9.996,5.59 -9.896,-4.685 2.225,-3.418 8.637,-0.951 12.701,0.611 16.619,2.707 20.356,5.079 18.518,2.534 16.749,-0.061 15.047,-2.688 10.161,-10.232 4.454,-19.55 4.644,-28.874 c 0.041,-1.989 0.739,-3.747 1.465,-5.571 1.72,-4.32 2.504,-9.033 1.799,-13.647 -1.082,-7.085 -6.861,-10.685 -11.168,-15.695 -6.299,-7.325 -13.903,-20.729 -8.65,-30.398 0.924,-1.7 3.514,-0.186 2.591,1.514 -5.579,10.27 5.692,25.14 12.999,31.545 3.996,3.503 6.517,8.28 7.314,13.499 0.933,6.106 -1.459,11.28 -3.097,16.981 -2.439,8.49 5.473,19.746 9.74,26.443 3.055,4.797 6.405,9.459 9.998,13.879 3.368,-4.155 6.488,-8.528 9.425,-12.991 4.758,-7.233 11.744,-17.493 10.461,-26.632 -0.404,-2.878 -1.983,-5.642 -2.7,-8.475 -0.726,-2.871 -0.856,-5.871 -0.597,-8.806 0.444,-5.03 3.039,-9.409 6.44,-13.007 4.27,-4.52 8.194,-8.383 11.228,-13.955 2.835,-5.206 5.787,-12.796 2.698,-18.481 -0.923,-1.7 1.667,-3.214 2.591,-1.514 5.09,9.37 -1.965,22.154 -7.883,29.453"
             style="fill:#2d3138;fill-opacity:1;fill-rule:nonzero;stroke:none"
             id="path140" /></g><g
           id="g142"
           transform="translate(256,358)"><path
             d="m 0,0 -63,0 c 0,0 4.785,-94.465 11,-114 7,-22.001 14.237,-27.287 30.226,-41 C -8.366,-166.5 0,-165 0,-165 c 0,0 8.366,-1.5 21.774,10 C 37.763,-141.287 46,-136.001 53,-114 59.215,-94.465 63,0 63,0 L 0,0 z"
             style="fill:#ffe9ba;fill-opacity:1;fill-rule:nonzero;stroke:none"
             id="path144" /></g><g
           id="g146"
           transform="translate(197.75,297.5)"><path
             d="m 0,0 c 0,0 -22.743,10.911 -17.273,-16.638 5.467,-27.55 22.017,-23.583 22.017,-23.583 L 0,0 z"
             style="fill:#f9e0a8;fill-opacity:1;fill-rule:nonzero;stroke:none"
             id="path148" /></g><g
           id="g150"
           transform="translate(315.25,297.5)"><path
             d="M 0,0 C 0,0 22.743,10.911 17.273,-16.638 11.806,-44.188 -4.744,-40.221 -4.744,-40.221 L 0,0 z"
             style="fill:#f9e0a8;fill-opacity:1;fill-rule:nonzero;stroke:none"
             id="path152" /></g><g
           id="g154"
           transform="translate(208.4746,387)"><path
             d="m 0,0 c 0,0 -38.975,38.5 -71.975,-12 -33,-50.5 67.5,-157.5 12,-143 0,0 32.5,-25.5 37.5,33.5 5,59 43.5,64 43.5,64 L 0,0 z"
             style="fill:#434a54;fill-opacity:1;fill-rule:nonzero;stroke:none"
             id="path156" /></g><g
           id="g158"
           transform="translate(192.6211,326.4668)"><path
             d="m 0,0 c -0.131,-1.46 -0.406,-2.926 -0.862,-3.83 -0.23,-0.441 -0.438,-0.597 -0.492,-0.62 -0.032,0.008 -0.05,0 -0.073,-0.025 -0.048,0.011 -0.09,0.007 -0.135,-0.013 l -0.675,-0.021 -0.759,-0.053 c -1.93,-0.191 -3.723,-0.633 -5.475,-1.326 -0.156,-0.062 -0.309,-0.136 -0.465,-0.203 0.041,0.036 0.086,0.068 0.127,0.105 1.48,1.345 2.772,3.066 3.496,5.064 0.769,1.984 0.885,4.139 0.655,6.123 -0.238,1.998 -0.836,3.857 -1.58,5.589 -0.026,0.06 -0.054,0.116 -0.08,0.176 0.156,0.038 0.312,0.077 0.468,0.112 1.675,0.373 3.442,0.647 5.18,0.829 C -0.309,9.492 -0.05,7.019 0.061,4.612 0.125,3.045 0.125,1.485 0,0 m -9.708,-24.125 c 0.419,-0.477 0.722,-0.995 0.778,-1.201 0.006,-0.02 0.004,-0.013 0.007,-0.023 -0.003,-0.002 -10e-4,-0.001 -0.003,-0.004 -0.173,-0.192 -0.692,-0.527 -1.309,-0.778 -0.618,-0.264 -1.327,-0.496 -2.062,-0.706 -0.737,-0.21 -1.506,-0.4 -2.289,-0.584 l -1.186,-0.272 -0.299,-0.068 -0.397,-0.103 c -0.199,-0.056 -0.374,-0.095 -0.684,-0.209 -2.126,-0.743 -3.644,-1.941 -4.994,-3.348 -1.322,-1.406 -2.344,-3.041 -3.067,-4.838 -0.117,-0.305 -0.222,-0.62 -0.32,-0.937 -0.065,0.071 -0.128,0.144 -0.193,0.216 l -1.751,1.923 -0.875,0.958 c -0.296,0.322 -0.488,0.591 -0.741,0.885 -0.898,1.191 -1.449,2.569 -1.682,4.022 -0.224,1.46 -0.08,2.993 0.262,4.502 0.612,2.5 1.821,4.919 3.37,7.09 0.264,-0.041 0.546,-0.076 0.777,-0.093 0.846,-0.053 1.694,0.005 2.505,0.171 3.278,0.699 5.766,2.779 7.593,5.089 0.75,0.958 1.397,1.986 1.946,3.063 0.207,0.087 0.415,0.167 0.621,0.259 0.028,0.012 0.055,0.028 0.084,0.041 -0.696,-0.673 -1.355,-1.467 -1.859,-2.452 -0.545,-1.056 -0.869,-2.374 -0.763,-3.664 0.1,-1.286 0.559,-2.459 1.14,-3.39 0.585,-0.937 1.266,-1.716 1.975,-2.391 1.499,-1.34 2.548,-2.1 3.416,-3.158 m -21.346,-22.273 c -0.425,-1.043 -1.209,-1.858 -2.098,-2.54 l -0.75,-0.404 c -0.126,-0.064 -0.248,-0.149 -0.377,-0.198 l -0.394,-0.121 -0.788,-0.263 c -0.309,-0.055 -0.645,-0.086 -0.966,-0.129 l -0.921,-0.111 c -0.355,-0.035 -0.708,-0.044 -1.064,-0.122 -0.71,-0.095 -1.414,-0.347 -2.084,-0.653 -0.66,-0.344 -1.267,-0.797 -1.769,-1.348 -0.493,-0.559 -0.859,-1.201 -1.13,-1.863 -0.136,-0.346 -0.243,-0.697 -0.329,-1.049 -0.124,0.42 -0.252,0.838 -0.406,1.252 -0.755,2.013 -1.905,3.912 -3.406,5.501 -0.374,0.396 -0.787,0.755 -1.182,1.133 l -1.1,1.01 c -0.366,0.343 -0.651,0.678 -0.983,1.011 -0.319,0.339 -0.615,0.725 -0.924,1.083 -2.388,2.971 -3.804,6.647 -4.091,10.383 -0.284,3.723 0.616,7.555 2.691,10.472 1.045,1.436 2.353,2.664 3.895,3.418 0.751,0.417 1.583,0.651 2.41,0.867 0.428,0.051 0.841,0.173 1.279,0.181 l 1.516,0.12 1.514,0.137 c 0.53,0.069 1.16,0.239 1.736,0.365 l 0.88,0.213 c 0.28,0.095 0.546,0.213 0.82,0.32 0.088,0.039 0.179,0.072 0.269,0.108 -0.347,-0.396 -0.679,-0.804 -0.979,-1.24 -0.854,-1.245 -1.543,-2.645 -1.868,-4.195 -0.339,-1.534 -0.323,-3.221 0.21,-4.761 0.506,-1.545 1.443,-2.891 2.547,-3.928 0.289,-0.265 0.602,-0.519 0.905,-0.772 0.288,-0.221 0.542,-0.383 0.815,-0.579 l 1.534,-1.095 c 1.893,-1.469 3.463,-3.354 4.385,-5.52 0.866,-2.154 1.1,-4.628 0.203,-6.683 m -2.945,16.65 c 0.177,-0.918 0.468,-1.819 0.849,-2.68 -0.2,0.185 -0.399,0.369 -0.605,0.545 l -1.604,1.263 c -0.251,0.196 -0.538,0.403 -0.76,0.593 l -0.559,0.533 c -0.764,0.791 -1.306,1.699 -1.572,2.658 -0.555,1.91 0.08,4.103 1.412,5.867 1.307,1.772 3.28,3.163 5.298,3.676 0.101,0.025 0.202,0.039 0.303,0.061 -1.19,-2.071 -2.115,-4.309 -2.642,-6.713 -0.38,-1.867 -0.486,-3.847 -0.12,-5.803 m -2.122,34.107 -1.309,1.118 -1.133,0.946 c -0.499,0.503 -1.093,1.118 -1.556,1.836 -0.47,0.706 -0.89,1.46 -1.212,2.275 -1.339,3.236 -1.551,7.079 -0.813,10.583 0.372,1.755 1.016,3.426 1.905,4.828 0.903,1.377 2.049,2.469 3.332,2.89 0.156,0.071 0.321,0.108 0.486,0.143 0.164,0.039 0.325,0.089 0.498,0.093 0.261,0.036 0.899,0.087 1.369,0.116 0.498,0.033 1.002,0.066 1.598,0.151 0.571,0.073 1.144,0.135 1.706,0.265 0.563,0.109 1.127,0.223 1.704,0.415 0.287,0.088 0.573,0.164 0.859,0.268 l 0.858,0.357 c 0.577,0.211 1.115,0.578 1.666,0.877 0.508,0.364 1.052,0.716 1.501,1.137 1.87,1.666 3.097,3.587 4.183,5.394 1.077,1.824 2.033,3.621 3.001,5.4 l 0.723,1.327 0.312,0.569 0.394,0.65 c 0.142,0.253 0.237,0.344 0.342,0.487 0.111,0.135 0.182,0.276 0.324,0.412 l 0.376,0.42 0.403,0.36 c 1.09,0.908 2.379,1.297 3.926,1.236 1.972,-0.085 4.155,-0.915 6.192,-2.063 -0.332,-0.188 -0.663,-0.377 -0.997,-0.575 -1.57,-0.932 -3.091,-1.961 -4.543,-3.109 -2.883,-2.294 -5.604,-5.068 -7.361,-8.673 -0.869,-1.792 -1.451,-3.792 -1.597,-5.84 -0.158,-2.048 0.145,-4.103 0.734,-6.002 0.583,-1.916 1.53,-3.61 2.527,-5.229 l 0.815,-1.153 0.766,-1.063 0.77,-1.044 c 0.115,-0.157 0.216,-0.308 0.316,-0.458 -0.667,-0.333 -1.33,-0.719 -1.984,-1.193 -0.66,-0.483 -1.309,-1.052 -1.888,-1.776 -0.565,-0.725 -1.083,-1.595 -1.327,-2.59 -0.159,-0.488 -0.186,-0.993 -0.233,-1.494 0.004,-0.497 0.016,-0.963 0.107,-1.469 0.051,-0.255 0.11,-0.509 0.173,-0.761 0.03,-0.114 0.068,-0.277 0.096,-0.35 l 0.086,-0.23 0.38,-0.996 c 0.825,-1.972 1.015,-4.23 0.63,-6.446 -0.159,-0.933 -0.438,-1.852 -0.786,-2.746 -0.7,-0.244 -1.413,-0.461 -2.13,-0.643 l -0.247,-0.065 -0.155,-0.047 -0.311,-0.094 c -0.09,-0.024 -0.217,-0.069 -0.369,-0.129 l -0.421,-0.168 c -0.301,-0.115 -0.502,-0.232 -0.739,-0.349 -0.235,-0.114 -0.455,-0.238 -0.666,-0.369 -0.868,-0.508 -1.64,-1.085 -2.365,-1.698 -1.211,-1.017 -2.28,-2.139 -3.259,-3.328 -1.413,0.197 -2.824,0.057 -4.104,-0.317 -0.411,-0.116 -0.806,-0.258 -1.193,-0.416 0.515,0.641 0.97,1.331 1.339,2.066 1.109,2.2 1.462,4.723 1.154,7.098 -0.112,0.586 -0.166,1.194 -0.342,1.76 l -0.556,1.693 c -0.5,1.065 -1,2.139 -1.705,3.071 l -0.497,0.721 c -0.18,0.227 -0.38,0.435 -0.571,0.654 -0.393,0.422 -0.76,0.879 -1.182,1.267 m 27.094,0.296 c 0.433,-2.889 -0.488,-5.536 -2.65,-7.517 -0.251,-0.236 -0.517,-0.459 -0.792,-0.676 0.381,2.671 0.152,5.501 -0.874,8.106 l -0.103,0.272 -0.027,0.067 -0.012,0.034 c -0.017,0.041 0.095,-0.242 0.043,-0.108 l -0.04,0.116 -0.163,0.463 -0.081,0.232 c -0.029,0.081 -0.009,0.083 -0.018,0.127 -0.004,0.068 -0.014,0.133 -0.03,0.2 -0.023,0.134 -0.016,0.33 -0.024,0.482 0.038,0.148 0.018,0.305 0.087,0.438 0.131,0.546 0.662,1.16 1.467,1.733 0.484,0.342 1.04,0.646 1.636,0.923 0.774,-1.611 1.35,-3.265 1.581,-4.892 M 3.779,14.998 3.389,17.117 1.262,16.976 c -2.821,-0.188 -5.457,-0.562 -8.186,-1.18 -0.583,-0.135 -1.166,-0.29 -1.749,-0.454 -0.075,0.117 -0.145,0.234 -0.221,0.351 -0.252,0.384 -0.511,0.803 -0.762,1.157 l -0.753,1.056 -0.402,0.565 -0.333,0.488 -0.669,0.975 c -0.786,1.336 -1.522,2.698 -1.918,4.113 -0.839,2.817 -0.64,5.701 0.679,8.336 1.29,2.642 3.514,4.974 6.037,6.949 1.266,0.991 2.622,1.898 4.03,2.726 1.387,0.815 2.913,1.609 4.294,2.193 l 3.779,1.599 -3.117,2.564 c -0.95,0.781 -1.794,1.366 -2.739,1.975 -0.929,0.593 -1.894,1.14 -2.907,1.629 -2.021,0.964 -4.253,1.748 -6.775,1.88 -1.254,0.063 -2.583,-0.068 -3.864,-0.479 -1.283,-0.403 -2.489,-1.088 -3.494,-1.936 l -0.724,-0.66 -0.639,-0.712 c -0.216,-0.224 -0.409,-0.521 -0.608,-0.787 -0.192,-0.267 -0.415,-0.572 -0.517,-0.764 l -0.391,-0.653 -0.148,-0.259 -0.091,-0.168 -0.181,-0.336 -0.724,-1.347 c -0.96,-1.786 -1.901,-3.573 -2.877,-5.243 -0.976,-1.668 -2.004,-3.186 -3.172,-4.225 -1.141,-1.057 -2.576,-1.608 -4.312,-1.968 -0.426,-0.105 -0.863,-0.149 -1.296,-0.209 -0.406,-0.069 -0.914,-0.107 -1.427,-0.143 -0.541,-0.04 -0.914,-0.063 -1.659,-0.155 -0.335,-0.027 -0.663,-0.11 -0.992,-0.191 -0.33,-0.076 -0.656,-0.163 -0.968,-0.292 -2.591,-0.911 -4.462,-2.863 -5.746,-4.857 -1.262,-2.042 -2.026,-4.237 -2.465,-6.452 -0.84,-4.421 -0.547,-9.034 1.264,-13.29 0.444,-1.062 1.023,-2.085 1.693,-3.051 0.664,-0.972 1.466,-1.842 2.443,-2.725 l 2.236,-1.82 c 0.328,-0.29 0.595,-0.633 0.901,-0.944 0.145,-0.16 0.304,-0.312 0.442,-0.478 l 0.367,-0.529 c 2.099,-2.734 2.665,-6.456 1.32,-9.34 -0.679,-1.428 -1.786,-2.677 -3.27,-3.477 -0.345,-0.232 -0.772,-0.35 -1.152,-0.539 -0.196,-0.083 -0.39,-0.182 -0.586,-0.256 l -0.596,-0.152 c -0.412,-0.096 -0.753,-0.238 -1.224,-0.316 l -1.51,-0.175 -0.644,-0.077 -0.867,-0.083 c -0.578,-0.036 -1.148,-0.197 -1.72,-0.295 -1.125,-0.311 -2.248,-0.681 -3.265,-1.268 -2.076,-1.096 -3.769,-2.777 -5.046,-4.644 -2.517,-3.808 -3.332,-8.393 -2.862,-12.71 0.488,-4.332 2.288,-8.486 5.103,-11.745 0.365,-0.396 0.704,-0.804 1.093,-1.19 0.393,-0.374 0.794,-0.788 1.186,-1.119 l 1.187,-0.992 c 0.348,-0.31 0.719,-0.599 1.055,-0.923 1.346,-1.301 2.416,-2.888 3.165,-4.636 1.511,-3.512 1.733,-7.567 1.106,-11.442 -0.64,-3.882 -2.121,-7.697 -4.51,-10.876 -1.186,-1.588 -2.638,-3.006 -4.383,-3.97 -1.723,-1.006 -3.803,-1.365 -5.802,-0.967 1.951,-0.532 4.138,-0.319 5.985,0.606 1.875,0.881 3.491,2.251 4.827,3.826 2.666,3.172 4.429,7.044 5.333,11.103 0.215,0.989 0.373,1.996 0.472,3.014 0.679,-2.117 1.589,-4.151 2.834,-5.968 -1.294,2.279 -2.096,4.797 -2.563,7.332 -0.066,0.398 -0.121,0.802 -0.169,1.206 -0.009,0.772 -0.046,1.543 -0.136,2.313 0.014,1.373 0.222,2.709 0.776,3.89 0.263,0.531 0.59,1.016 0.994,1.414 0.414,0.388 0.89,0.693 1.408,0.92 0.537,0.192 1.087,0.361 1.681,0.404 0.288,0.05 0.594,0.036 0.89,0.05 0.435,0.014 0.684,0.042 1.034,0.062 0.329,0.025 0.649,0.035 0.985,0.072 l 1.102,0.266 0.552,0.144 c 0.178,0.057 0.338,0.147 0.508,0.221 l 1.005,0.475 c 1.243,0.811 2.375,1.894 3.037,3.261 1.372,2.71 1.222,5.889 0.26,8.585 -0.184,0.498 -0.402,0.977 -0.637,1.448 l 1.604,-1.639 c 0.59,-0.607 1.177,-1.216 1.754,-1.829 0.006,-0.465 0.04,-0.937 0.116,-1.413 0.167,-1.053 0.541,-2.118 1.133,-3.058 0.586,-0.944 1.375,-1.742 2.235,-2.353 0.427,-0.323 0.883,-0.557 1.334,-0.803 l 1.186,-0.522 c 0.007,-0.003 0.011,-0.005 0.018,-0.008 0.241,-0.626 0.398,-1.249 0.41,-1.851 0.057,-1.327 -0.73,-2.51 -2.029,-3.389 -1.243,-0.931 -2.848,-1.398 -4.496,-2.201 -3.263,-1.58 -6.071,-3.903 -8.28,-6.693 -2.186,-2.784 -3.825,-6.091 -4.21,-9.636 -0.166,-1.761 -0.022,-3.574 0.602,-5.225 0.581,-1.668 1.662,-3.11 2.945,-4.261 -1.205,1.236 -2.163,2.724 -2.615,4.369 -0.494,1.632 -0.511,3.366 -0.243,5.024 0.58,3.336 2.292,6.391 4.509,8.906 2.233,2.508 5.005,4.552 8.034,5.86 1.478,0.656 3.287,1.083 4.899,2.153 0.806,0.508 1.594,1.159 2.194,2.038 0.523,0.748 0.848,1.671 0.94,2.591 1.239,-1.745 2.009,-4.079 2.382,-6.401 0.247,-1.502 0.31,-3.042 0.247,-4.556 -0.082,-1.501 -0.333,-3.02 -0.859,-4.248 -0.26,-0.595 -0.617,-1.108 -0.912,-1.3 -0.149,-0.072 -0.25,-0.161 -0.397,-0.144 -0.357,-0.026 -0.787,-0.008 -1.223,-0.032 -1.143,-0.107 -2.178,-0.409 -3.136,-1.126 -0.972,-0.723 -1.522,-1.939 -1.637,-3.008 -0.226,-2.213 0.639,-3.948 1.522,-5.471 0.924,-1.525 2.067,-2.816 3.237,-4.057 l 1.782,-1.737 c 0.595,-0.579 1.18,-1.157 1.661,-1.751 1.048,-1.154 1.942,-2.511 2.781,-3.861 0.764,-1.397 1.504,-2.832 1.961,-4.366 0.289,-0.752 0.412,-1.542 0.613,-2.32 0.091,-0.791 0.255,-1.584 0.234,-2.383 0.051,-1.592 -0.145,-3.227 -0.811,-4.698 -0.637,-1.478 -1.692,-2.778 -3.036,-3.745 1.417,0.846 2.619,2.076 3.414,3.563 0.824,1.478 1.196,3.183 1.264,4.869 0.08,0.85 -0.029,1.691 -0.07,2.541 -0.15,0.83 -0.227,1.684 -0.472,2.495 -0.372,1.66 -1.04,3.227 -1.75,4.769 -0.796,1.504 -1.648,2.959 -2.734,4.317 -0.523,0.715 -1.076,1.325 -1.628,1.93 l -1.655,1.812 c -1.018,1.214 -1.995,2.468 -2.703,3.813 -0.693,1.316 -1.201,2.801 -0.986,3.903 0.102,0.539 0.307,0.937 0.692,1.189 0.381,0.26 0.982,0.403 1.475,0.445 0.385,0.006 0.781,-0.033 1.246,-0.025 0.686,-0.034 1.376,0.224 1.939,0.541 1.112,0.696 1.678,1.637 2.133,2.507 0.851,1.775 1.185,3.552 1.375,5.322 0.165,1.771 0.144,3.542 -0.084,5.301 -0.232,1.757 -0.611,3.513 -1.293,5.22 -0.676,1.699 -1.617,3.39 -3.069,4.798 -0.346,0.366 -0.757,0.663 -1.176,0.989 -0.477,0.315 -1.017,0.646 -1.334,0.779 l -0.959,0.459 c -0.763,1.227 -1.606,2.364 -2.482,3.455 -0.245,2.316 1.007,5.13 2.882,7.03 0.476,0.485 0.992,0.921 1.533,1.284 0.272,0.179 0.548,0.339 0.828,0.479 0.279,0.133 0.582,0.262 0.78,0.325 0.074,0.039 0.3,0.092 0.499,0.142 l 0.15,-0.113 0.048,-0.139 0.004,0 0.304,0.214 1.227,0.331 c 0.824,0.178 1.658,0.402 2.51,0.626 0.851,0.227 1.718,0.503 2.625,0.866 0.898,0.375 1.872,0.823 2.878,1.79 0.493,0.487 0.989,1.214 1.224,2.07 0.241,0.852 0.191,1.752 0.005,2.445 -0.391,1.387 -1.051,2.258 -1.67,3.046 -1.215,1.513 -2.841,2.727 -3.776,3.597 -0.966,0.921 -1.59,1.944 -1.603,2.648 -0.022,0.358 0.056,0.699 0.263,1.104 0.206,0.4 0.555,0.834 1.003,1.241 0.896,0.823 2.142,1.52 3.459,2.026 1.312,0.516 2.753,0.849 4.1,0.971 l 0.474,0.034 0.559,0.015 c 0.364,0.019 0.732,0.055 1.093,0.106 0.371,0.093 0.746,0.212 1.105,0.348 1.469,0.654 2.368,1.843 2.897,2.849 1.018,2.062 1.247,3.918 1.421,5.723 0.138,1.798 0.121,3.539 0.04,5.261 -0.187,3.449 -0.605,6.755 -1.232,10.154"
             style="fill:#2d3138;fill-opacity:1;fill-rule:nonzero;stroke:none"
             id="path160" /></g><g
           id="g162"
           transform="translate(189.2119,406.333)"><path
             d="m 0,0 c 0,0 -46.545,-24.768 -58.212,-15.884 0,0 0.126,-22.909 24.397,-12.679 0,0 -26.73,-24.105 -39.397,-17.771 0,0 11.879,-26 36.606,-11 0,0 -18.939,-20.666 -31.606,-17.666 0,0 26.064,-28.333 66.865,15 C 39.455,-16.667 0,0 0,0"
             style="fill:#da4453;fill-opacity:1;fill-rule:nonzero;stroke:none"
             id="path164" /></g><g
           id="g166"
           transform="translate(200.2119,390.333)"><path
             d="m 0,0 c 0,0 -46.545,-24.768 -58.212,-15.884 0,0 0.126,-22.909 24.397,-12.679 0,0 -26.73,-24.105 -39.397,-17.771 0,0 11.879,-26 36.606,-11 0,0 -18.939,-20.666 -31.606,-17.666 0,0 26.064,-28.333 66.865,15 C 39.455,-16.667 0,0 0,0"
             style="fill:#a6343f;fill-opacity:1;fill-rule:nonzero;stroke:none"
             id="path168" /></g><g
           id="g170"
           transform="translate(303.5254,387)"><path
             d="m 0,0 c 0,0 38.975,38.5 71.975,-12 33,-50.5 -67.5,-157.5 -12,-143 0,0 -32.5,-25.5 -37.5,33.5 -5,59 -43.5,64 -43.5,64 L 0,0 z"
             style="fill:#434a54;fill-opacity:1;fill-rule:nonzero;stroke:none"
             id="path172" /></g><g
           id="g174"
           transform="translate(363.1025,271.2676)"><path
             d="M 0,0 C -0.086,0.353 -0.192,0.703 -0.329,1.049 -0.6,1.711 -0.966,2.354 -1.459,2.912 -1.961,3.463 -2.567,3.916 -3.228,4.26 -3.897,4.566 -4.602,4.818 -5.312,4.913 -5.668,4.991 -6.021,5 -6.375,5.035 l -0.921,0.111 c -0.322,0.043 -0.658,0.075 -0.967,0.129 l -0.788,0.263 -0.393,0.121 c -0.13,0.049 -0.252,0.134 -0.377,0.198 l -0.751,0.404 c -0.888,0.682 -1.673,1.497 -2.097,2.54 -0.897,2.055 -0.664,4.529 0.202,6.683 0.922,2.166 2.492,4.051 4.385,5.52 l 1.534,1.096 c 0.273,0.195 0.527,0.357 0.816,0.578 0.303,0.254 0.616,0.508 0.904,0.772 1.104,1.037 2.041,2.383 2.548,3.928 0.532,1.54 0.549,3.227 0.21,4.762 -0.326,1.549 -1.014,2.949 -1.868,4.194 -0.3,0.437 -0.633,0.845 -0.979,1.24 0.089,-0.036 0.18,-0.069 0.269,-0.108 0.273,-0.107 0.54,-0.225 0.819,-0.32 l 0.881,-0.212 c 0.575,-0.126 1.205,-0.297 1.735,-0.366 l 1.514,-0.136 1.516,-0.12 c 0.438,-0.008 0.851,-0.13 1.28,-0.182 0.826,-0.216 1.658,-0.449 2.41,-0.866 1.541,-0.755 2.849,-1.983 3.894,-3.418 2.076,-2.917 2.975,-6.749 2.692,-10.473 C 11.806,17.638 10.389,13.961 8.001,10.99 7.692,10.632 7.396,10.246 7.078,9.907 6.745,9.574 6.46,9.239 6.095,8.896 L 4.994,7.887 C 4.599,7.508 4.187,7.149 3.813,6.753 2.312,5.164 1.161,3.266 0.407,1.252 0.252,0.838 0.124,0.42 0,0 m -15.372,21.101 -0.875,-0.958 -1.751,-1.924 c -0.064,-0.072 -0.128,-0.145 -0.192,-0.216 -0.099,0.317 -0.204,0.632 -0.321,0.937 -0.722,1.797 -1.744,3.432 -3.067,4.838 -1.35,1.408 -2.867,2.605 -4.994,3.348 -0.31,0.114 -0.485,0.153 -0.684,0.209 l -0.396,0.103 -0.299,0.068 -1.186,0.272 c -0.783,0.184 -1.552,0.374 -2.29,0.584 -0.735,0.21 -1.444,0.443 -2.061,0.706 -0.617,0.251 -1.137,0.586 -1.309,0.779 -0.003,0.003 -0.001,0.002 -0.003,0.004 0.002,0.009 0,0.003 0.006,0.022 0.056,0.206 0.359,0.725 0.778,1.201 0.868,1.058 1.918,1.819 3.416,3.158 0.709,0.675 1.391,1.455 1.975,2.391 0.582,0.932 1.041,2.105 1.141,3.391 0.106,1.289 -0.219,2.607 -0.764,3.663 -0.504,0.985 -1.162,1.779 -1.858,2.452 0.028,-0.013 0.055,-0.028 0.084,-0.041 0.205,-0.092 0.414,-0.172 0.621,-0.259 0.548,-1.077 1.195,-2.104 1.945,-3.062 1.828,-2.311 4.315,-4.391 7.593,-5.09 0.812,-0.166 1.659,-0.224 2.506,-0.171 0.231,0.017 0.512,0.053 0.776,0.094 1.549,-2.172 2.759,-4.591 3.371,-7.091 0.342,-1.509 0.485,-3.042 0.262,-4.502 -0.234,-1.452 -0.785,-2.831 -1.683,-4.022 -0.252,-0.294 -0.445,-0.563 -0.741,-0.884 m -25.356,29.536 -0.758,0.053 -0.675,0.021 c -0.046,0.02 -0.088,0.024 -0.136,0.014 -0.023,0.024 -0.041,0.032 -0.072,0.024 -0.055,0.023 -0.263,0.179 -0.493,0.62 -0.455,0.904 -0.731,2.37 -0.862,3.83 -0.125,1.486 -0.125,3.045 -0.061,4.613 0.111,2.406 0.37,4.879 0.731,7.294 1.739,-0.182 3.506,-0.456 5.18,-0.829 0.157,-0.035 0.312,-0.074 0.469,-0.112 -0.026,-0.06 -0.055,-0.116 -0.081,-0.176 -0.744,-1.732 -1.342,-3.591 -1.58,-5.589 -0.229,-1.984 -0.113,-4.139 0.655,-6.123 0.724,-1.998 2.016,-3.718 3.496,-5.064 0.041,-0.037 0.086,-0.068 0.127,-0.105 -0.155,0.067 -0.309,0.141 -0.465,0.204 -1.751,0.692 -3.545,1.134 -5.475,1.325 m 8.681,1.7 c -2.162,1.981 -3.083,4.628 -2.649,7.517 0.23,1.627 0.806,3.281 1.58,4.892 0.596,-0.277 1.152,-0.581 1.637,-0.923 0.804,-0.573 1.335,-1.186 1.467,-1.733 0.069,-0.133 0.048,-0.29 0.087,-0.438 -0.009,-0.152 -10e-4,-0.347 -0.024,-0.482 -0.016,-0.066 -0.027,-0.132 -0.031,-0.2 -0.009,-0.044 0.011,-0.046 -0.018,-0.127 l -0.081,-0.232 -0.162,-0.463 -0.041,-0.116 c -0.052,-0.134 0.06,0.15 0.044,0.109 l -0.013,-0.035 -0.026,-0.067 -0.104,-0.271 c -1.026,-2.606 -1.255,-5.436 -0.874,-8.107 -0.275,0.217 -0.54,0.441 -0.792,0.676 m 2.465,18.067 0.767,1.063 0.815,1.153 c 0.996,1.619 1.944,3.314 2.526,5.23 0.59,1.898 0.892,3.953 0.734,6.002 -0.145,2.047 -0.728,4.047 -1.596,5.839 -1.758,3.605 -4.478,6.379 -7.361,8.673 -1.453,1.149 -2.974,2.177 -4.543,3.11 -0.334,0.197 -0.666,0.386 -0.998,0.574 2.037,1.148 4.22,1.978 6.192,2.063 1.547,0.061 2.837,-0.328 3.926,-1.236 l 0.403,-0.359 0.376,-0.42 c 0.142,-0.137 0.214,-0.278 0.324,-0.412 0.105,-0.144 0.201,-0.235 0.342,-0.488 l 0.394,-0.65 0.312,-0.568 0.723,-1.328 c 0.969,-1.779 1.924,-3.576 3.002,-5.4 1.085,-1.807 2.312,-3.728 4.182,-5.394 0.449,-0.42 0.993,-0.773 1.501,-1.137 0.552,-0.299 1.089,-0.665 1.666,-0.877 l 0.858,-0.357 c 0.286,-0.104 0.572,-0.179 0.859,-0.268 0.577,-0.192 1.141,-0.306 1.705,-0.415 0.562,-0.13 1.134,-0.192 1.705,-0.265 0.597,-0.085 1.1,-0.118 1.598,-0.15 0.47,-0.03 1.108,-0.08 1.369,-0.116 0.173,-0.004 0.335,-0.055 0.498,-0.094 0.165,-0.034 0.331,-0.072 0.486,-0.143 1.284,-0.421 2.43,-1.513 3.333,-2.889 0.889,-1.403 1.533,-3.074 1.904,-4.829 0.739,-3.503 0.526,-7.347 -0.813,-10.583 C -2.714,64.918 -3.135,64.164 -3.604,63.458 -4.067,62.74 -4.662,62.125 -5.16,61.622 L -6.294,60.676 -7.603,59.559 C -8.025,59.17 -8.392,58.713 -8.785,58.291 -8.976,58.072 -9.176,57.864 -9.356,57.638 l -0.497,-0.722 c -0.704,-0.932 -1.205,-2.006 -1.705,-3.07 l -0.555,-1.694 c -0.177,-0.566 -0.231,-1.173 -0.343,-1.759 -0.307,-2.375 0.045,-4.899 1.155,-7.099 0.368,-0.734 0.823,-1.425 1.338,-2.065 -0.387,0.158 -0.782,0.299 -1.192,0.416 -1.281,0.374 -2.692,0.513 -4.105,0.316 -0.978,1.189 -2.048,2.311 -3.259,3.328 -0.725,0.613 -1.496,1.19 -2.364,1.698 -0.211,0.131 -0.432,0.255 -0.667,0.369 -0.237,0.118 -0.438,0.234 -0.739,0.349 l -0.42,0.168 c -0.152,0.061 -0.28,0.106 -0.37,0.129 l -0.31,0.095 -0.155,0.047 -0.248,0.064 c -0.717,0.183 -1.429,0.399 -2.129,0.644 -0.349,0.893 -0.627,1.812 -0.787,2.746 -0.384,2.215 -0.194,4.473 0.63,6.445 l 0.381,0.996 0.085,0.231 c 0.029,0.072 0.066,0.235 0.096,0.349 0.064,0.252 0.122,0.506 0.174,0.761 0.09,0.506 0.103,0.973 0.106,1.47 -0.047,0.501 -0.074,1.005 -0.232,1.493 -0.244,0.995 -0.762,1.865 -1.328,2.591 -0.579,0.723 -1.227,1.293 -1.888,1.775 -0.654,0.475 -1.317,0.86 -1.983,1.193 0.099,0.15 0.2,0.301 0.315,0.458 l 0.77,1.044 z m 19.737,-39.15 c -0.527,2.404 -1.452,4.642 -2.641,6.713 0.101,-0.022 0.201,-0.035 0.302,-0.061 2.018,-0.512 3.992,-1.904 5.298,-3.676 1.332,-1.764 1.968,-3.957 1.412,-5.867 -0.266,-0.959 -0.807,-1.867 -1.572,-2.658 l -0.559,-0.533 c -0.221,-0.19 -0.509,-0.397 -0.76,-0.593 l -1.604,-1.263 c -0.206,-0.175 -0.405,-0.36 -0.604,-0.545 0.38,0.861 0.671,1.762 0.848,2.68 0.367,1.956 0.261,3.937 -0.12,5.803 m 19.941,-57.055 c -1.746,0.964 -3.198,2.382 -4.384,3.97 -2.388,3.18 -3.87,6.994 -4.51,10.876 C 0.575,-7.08 0.798,-3.024 2.308,0.487 3.057,2.235 4.127,3.822 5.474,5.123 5.809,5.447 6.18,5.736 6.529,6.046 l 1.187,0.992 c 0.391,0.331 0.793,0.745 1.186,1.119 0.389,0.386 0.727,0.794 1.092,1.191 2.816,3.258 4.616,7.412 5.103,11.744 0.47,4.317 -0.345,8.902 -2.862,12.71 -1.277,1.867 -2.97,3.549 -5.046,4.644 -1.016,0.587 -2.139,0.957 -3.264,1.268 -0.572,0.099 -1.143,0.26 -1.721,0.295 l -0.867,0.083 -0.644,0.077 -1.51,0.175 c -0.471,0.078 -0.812,0.22 -1.224,0.316 l -0.595,0.153 c -0.197,0.074 -0.391,0.172 -0.587,0.255 -0.38,0.189 -0.806,0.307 -1.152,0.539 -1.484,0.8 -2.591,2.049 -3.27,3.477 -1.344,2.884 -0.779,6.606 1.32,9.34 l 0.367,0.529 c 0.138,0.166 0.297,0.318 0.442,0.479 0.306,0.31 0.574,0.653 0.902,0.943 l 2.235,1.82 c 0.977,0.883 1.779,1.753 2.443,2.725 0.67,0.967 1.249,1.989 1.694,3.052 1.811,4.256 2.104,8.868 1.263,13.29 -0.439,2.215 -1.202,4.409 -2.464,6.451 -1.285,1.994 -3.156,3.946 -5.747,4.857 -0.311,0.129 -0.638,0.216 -0.968,0.292 -0.328,0.081 -0.657,0.164 -0.992,0.192 -0.745,0.092 -1.118,0.114 -1.659,0.154 -0.513,0.036 -1.021,0.074 -1.426,0.144 -0.434,0.059 -0.871,0.103 -1.296,0.209 -1.737,0.359 -3.172,0.911 -4.313,1.967 -1.167,1.039 -2.196,2.557 -3.172,4.225 -0.975,1.67 -1.917,3.457 -2.877,5.243 l -0.724,1.347 -0.181,0.337 -0.091,0.168 -0.148,0.258 -0.39,0.653 c -0.103,0.192 -0.326,0.497 -0.518,0.764 -0.199,0.266 -0.392,0.563 -0.607,0.788 l -0.639,0.711 -0.725,0.661 c -1.005,0.847 -2.211,1.532 -3.493,1.935 -1.282,0.411 -2.611,0.542 -3.865,0.48 -2.522,-0.133 -4.753,-0.916 -6.775,-1.881 -1.013,-0.488 -1.977,-1.035 -2.907,-1.629 -0.945,-0.609 -1.789,-1.193 -2.738,-1.975 l -3.118,-2.564 3.78,-1.599 c 1.38,-0.584 2.907,-1.378 4.293,-2.193 1.408,-0.827 2.764,-1.735 4.03,-2.726 2.523,-1.974 4.748,-4.306 6.038,-6.949 1.318,-2.635 1.518,-5.519 0.678,-8.336 -0.396,-1.415 -1.132,-2.777 -1.918,-4.113 l -0.669,-0.975 -0.333,-0.488 -0.402,-0.565 -0.752,-1.056 c -0.252,-0.354 -0.51,-0.773 -0.763,-1.156 -0.076,-0.118 -0.146,-0.235 -0.22,-0.352 -0.584,0.164 -1.167,0.319 -1.75,0.454 -2.728,0.618 -5.365,0.992 -8.186,1.18 l -2.127,0.141 -0.39,-2.119 c -0.627,-3.399 -1.045,-6.705 -1.232,-10.154 -0.08,-1.722 -0.098,-3.463 0.041,-5.261 0.173,-1.804 0.402,-3.661 1.42,-5.722 0.53,-1.006 1.429,-2.196 2.897,-2.85 0.359,-0.136 0.734,-0.255 1.105,-0.348 0.361,-0.05 0.729,-0.087 1.093,-0.106 l 0.56,-0.015 0.473,-0.034 c 1.348,-0.122 2.789,-0.455 4.101,-0.971 1.316,-0.506 2.562,-1.203 3.459,-2.026 0.447,-0.407 0.796,-0.841 1.002,-1.241 0.207,-0.405 0.285,-0.745 0.264,-1.104 -0.013,-0.704 -0.638,-1.726 -1.604,-2.647 -0.935,-0.87 -2.56,-2.084 -3.775,-3.597 -0.62,-0.788 -1.28,-1.657 -1.67,-3.045 -0.187,-0.692 -0.236,-1.59 0.005,-2.442 0.234,-0.856 0.731,-1.578 1.224,-2.065 1.005,-0.967 1.98,-1.406 2.878,-1.78 0.906,-0.364 1.773,-0.621 2.625,-0.848 0.851,-0.223 1.685,-0.411 2.509,-0.587 l 1.227,-0.408 0.305,-0.214 0.003,0 0.049,0.139 0.149,0.038 c 0.2,-0.05 0.426,-0.065 0.499,-0.104 0.199,-0.063 0.501,-0.173 0.78,-0.306 0.281,-0.141 0.556,-0.292 0.828,-0.47 0.541,-0.363 1.057,-0.795 1.534,-1.28 1.874,-1.899 3.126,-4.712 2.881,-7.026 -0.876,-1.092 -1.719,-2.228 -2.481,-3.454 l -0.96,-0.458 c -0.316,-0.135 -0.857,-0.464 -1.333,-0.78 -0.42,-0.326 -0.831,-0.623 -1.177,-0.989 -1.452,-1.408 -2.392,-3.099 -3.069,-4.798 -0.681,-1.707 -1.061,-3.463 -1.293,-5.22 -0.228,-1.758 -0.249,-3.53 -0.084,-5.3 0.19,-1.771 0.524,-3.548 1.375,-5.323 0.456,-0.87 1.021,-1.811 2.134,-2.506 0.562,-0.318 1.253,-0.576 1.939,-0.541 0.465,-0.008 0.86,0.03 1.246,0.024 0.493,-0.042 1.094,-0.185 1.474,-0.444 0.386,-0.252 0.59,-0.651 0.692,-1.19 0.216,-1.101 -0.293,-2.587 -0.986,-3.903 -0.708,-1.345 -1.685,-2.599 -2.702,-3.813 l -1.655,-1.812 c -0.552,-0.605 -1.105,-1.215 -1.628,-1.93 -1.087,-1.358 -1.939,-2.812 -2.735,-4.317 -0.71,-1.542 -1.377,-3.109 -1.75,-4.769 -0.244,-0.81 -0.322,-1.665 -0.471,-2.495 -0.042,-0.85 -0.151,-1.69 -0.071,-2.541 0.068,-1.685 0.441,-3.391 1.264,-4.869 0.796,-1.486 1.998,-2.717 3.414,-3.563 -1.343,0.967 -2.398,2.267 -3.035,3.746 -0.667,1.47 -0.863,3.105 -0.811,4.697 -0.022,0.8 0.142,1.593 0.234,2.384 0.2,0.777 0.323,1.567 0.612,2.319 0.458,1.534 1.198,2.97 1.961,4.366 0.839,1.35 1.733,2.707 2.781,3.861 0.481,0.594 1.067,1.172 1.661,1.751 l 1.782,1.737 c 1.17,1.241 2.313,2.532 3.237,4.057 0.883,1.523 1.748,3.258 1.522,5.471 -0.114,1.069 -0.664,2.285 -1.636,3.008 -0.959,0.718 -1.994,1.019 -3.137,1.126 -0.436,0.024 -0.865,0.006 -1.223,0.032 -0.147,-0.016 -0.247,0.072 -0.396,0.145 -0.296,0.191 -0.653,0.704 -0.913,1.299 -0.526,1.228 -0.777,2.748 -0.859,4.248 -0.062,1.514 0,3.054 0.247,4.556 0.373,2.322 1.143,4.656 2.382,6.402 0.092,-0.92 0.417,-1.844 0.94,-2.591 0.6,-0.88 1.388,-1.531 2.194,-2.038 1.613,-1.071 3.421,-1.497 4.899,-2.154 3.029,-1.307 5.802,-3.352 8.034,-5.86 2.217,-2.515 3.929,-5.569 4.509,-8.905 0.268,-1.659 0.251,-3.393 -0.242,-5.025 -0.452,-1.645 -1.41,-3.133 -2.616,-4.369 1.283,1.151 2.364,2.593 2.946,4.261 0.623,1.651 0.767,3.464 0.601,5.225 -0.384,3.545 -2.024,6.852 -4.21,9.636 -2.209,2.79 -5.017,5.113 -8.279,6.694 -1.648,0.802 -3.254,1.269 -4.497,2.201 -1.298,0.879 -2.085,2.061 -2.028,3.388 0.011,0.602 0.169,1.225 0.409,1.851 0.007,0.003 0.011,0.005 0.018,0.008 l 1.186,0.522 c 0.452,0.246 0.907,0.481 1.334,0.803 0.86,0.611 1.649,1.409 2.235,2.354 0.592,0.939 0.967,2.004 1.134,3.057 0.076,0.477 0.109,0.948 0.116,1.413 0.576,0.613 1.163,1.222 1.753,1.829 l 1.604,1.639 c -0.234,-0.471 -0.453,-0.95 -0.637,-1.447 -0.961,-2.697 -1.111,-5.876 0.261,-8.586 0.661,-1.366 1.793,-2.449 3.036,-3.261 l 1.005,-0.475 c 0.17,-0.074 0.329,-0.164 0.508,-0.221 l 0.552,-0.144 1.102,-0.265 c 0.337,-0.038 0.656,-0.047 0.985,-0.073 0.351,-0.02 0.599,-0.048 1.034,-0.062 0.297,-0.014 0.602,0 0.89,-0.05 C -4.95,3.249 -4.4,3.08 -3.863,2.889 -3.345,2.661 -2.869,2.356 -2.456,1.968 -2.052,1.57 -1.725,1.085 -1.461,0.555 -0.907,-0.627 -0.7,-1.963 -0.686,-3.336 -0.775,-4.105 -0.812,-4.877 -0.821,-5.648 -0.87,-6.053 -0.924,-6.457 -0.99,-6.854 c -0.468,-2.536 -1.27,-5.054 -2.564,-7.333 1.245,1.817 2.156,3.851 2.834,5.968 0.099,-1.017 0.257,-2.025 0.472,-3.013 0.904,-4.06 2.667,-7.932 5.333,-11.104 1.336,-1.575 2.952,-2.945 4.827,-3.826 1.848,-0.925 4.035,-1.138 5.985,-0.606 -1.998,-0.398 -4.078,-0.039 -5.801,0.967"
             style="fill:#2d3138;fill-opacity:1;fill-rule:nonzero;stroke:none"
             id="path176" /></g><g
           id="g178"
           transform="translate(180.3354,387.2051)"><path
             d="m 0,0 0,0 c -0.038,-0.011 -0.062,-0.018 0,0 m 21.34,-1.389 c -1.618,1.1 -3.278,2.147 -5.01,3.107 C 14.6,2.681 12.804,3.566 10.901,4.311 9.003,5.058 6.994,5.672 4.814,5.972 3.726,6.119 2.595,6.192 1.42,6.104 0.871,6.086 0.167,5.968 -0.489,5.846 L -1.189,5.668 -1.359,5.624 -1.445,5.602 -1.631,5.547 -1.68,5.529 -2.069,5.386 c -2.083,-0.663 -4.12,-1.845 -5.81,-3.308 -1.704,-1.46 -2.996,-3.216 -4.086,-4.702 -1.092,-1.502 -2.056,-2.661 -3.049,-3.259 -0.259,-0.103 -0.541,-0.283 -0.769,-0.35 -0.111,-0.029 -0.218,-0.064 -0.325,-0.107 l -0.162,-0.07 -0.346,-0.045 -0.698,0.101 -0.327,0.149 -0.01,0 -0.19,-0.206 c -0.507,-0.045 -1.01,-0.162 -1.52,-0.23 -2.031,-0.223 -4.097,-0.692 -6.103,-1.422 -4.041,-1.418 -7.627,-4.292 -10.029,-7.673 -1.193,-1.631 -2.309,-3.636 -3.056,-5.238 -0.928,-2.019 -1.496,-3.883 -1.99,-5.807 -0.972,-3.793 -1.493,-7.528 -2.527,-10.839 -0.517,-1.645 -1.177,-3.165 -2.088,-4.318 -0.892,-1.177 -2.065,-1.919 -3.493,-2.355 -0.359,-0.071 -0.58,-0.176 -1.108,-0.234 l -0.349,-0.052 -0.173,-0.025 -0.044,-0.007 c -0.09,-0.011 0.075,0.007 0.039,0.003 l -0.099,-0.017 -0.791,-0.135 c -0.525,-0.1 -1.056,-0.165 -1.573,-0.304 l -1.531,-0.506 c -1.985,-0.796 -3.916,-1.891 -5.39,-3.497 -3.063,-3.081 -4.46,-7.617 -3.948,-11.738 0.15,-2.09 0.837,-4.046 1.615,-5.906 0.42,-0.916 0.942,-1.773 1.416,-2.654 0.568,-0.84 1.175,-1.658 1.765,-2.477 0.615,-0.735 1.247,-1.41 1.87,-2.117 l 0.955,-1.049 c 0.31,-0.318 0.59,-0.66 0.862,-1.01 1.107,-1.378 2.038,-2.902 2.751,-4.529 1.433,-3.257 1.967,-6.916 1.672,-10.533 -0.3,-3.619 -1.427,-7.202 -3.281,-10.387 -1.862,-3.144 -4.514,-6.025 -8.053,-7.382 3.639,1.078 6.609,3.81 8.781,6.918 2.153,3.163 3.564,6.837 4.135,10.668 0.577,3.828 0.226,7.857 -1.18,11.556 -0.696,1.849 -1.647,3.607 -2.804,5.217 -0.285,0.407 -0.579,0.806 -0.904,1.18 l -0.885,1.081 c -0.579,0.731 -1.194,1.462 -1.743,2.195 l -1.38,2.189 c -0.368,0.794 -0.806,1.558 -1.132,2.36 -0.59,1.617 -1.104,3.275 -1.14,4.947 -0.113,0.836 0.02,1.654 0.072,2.473 0.031,0.409 0.177,0.795 0.254,1.193 l 0.136,0.593 c 0.051,0.195 0.149,0.375 0.219,0.562 0.502,1.54 1.496,2.847 2.615,3.95 1.114,1.142 2.585,1.866 4.074,2.404 1.563,0.594 2.919,0.453 5.37,0.998 2.186,0.548 4.367,1.861 5.796,3.654 1.468,1.766 2.339,3.746 3.008,5.648 1.306,3.83 1.919,7.553 2.926,10.999 0.244,0.862 0.515,1.698 0.811,2.51 0.148,0.406 0.304,0.805 0.471,1.192 0.079,0.198 0.165,0.389 0.255,0.576 l 0.24,0.509 c 0.89,1.774 1.656,3.041 2.689,4.433 2.009,2.688 4.614,4.645 7.683,5.681 1.532,0.526 3.174,0.839 4.872,0.995 0.421,0.049 0.858,0.057 1.285,0.089 l 0.523,0.038 0.35,0.038 0.699,0.077 0.352,0.04 0.516,0.119 c 0.345,0.084 0.688,0.176 1.029,0.275 0.667,0.208 1.208,0.504 1.8,0.784 2.27,1.324 3.665,3.206 4.813,4.684 1.144,1.52 2.155,2.764 3.311,3.748 1.153,0.969 2.422,1.725 3.923,2.188 L 0.069,0.016 0.087,0.022 0.255,0.064 0.919,0.229 C 1.19,0.246 1.41,0.308 1.8,0.316 2.498,0.37 3.25,0.319 4.018,0.21 c 1.54,-0.218 3.147,-0.7 4.732,-1.34 1.589,-0.63 3.163,-1.415 4.705,-2.286 1.58,-0.893 3.154,-1.893 4.677,-2.952 -0.342,-0.167 -0.685,-0.33 -1.023,-0.511 -1.989,-1.064 -3.924,-2.365 -5.638,-4.104 -1.692,-1.726 -3.205,-3.965 -3.812,-6.598 -0.302,-1.296 -0.432,-2.651 -0.313,-3.946 0.049,-0.647 0.145,-1.287 0.275,-1.905 l 0.391,-1.588 0.375,-1.479 0.213,-1.245 c 0.093,-0.407 0.097,-0.832 0.136,-1.251 l 0.051,-0.628 -0.025,-0.585 c -0.073,-1.578 -0.447,-2.771 -1.279,-3.487 -0.816,-0.757 -2.238,-1.321 -3.949,-1.52 l -1.305,-0.117 -1.357,-0.035 -1.394,0.039 -0.887,0.01 c -0.107,0.005 -0.285,-0.004 -0.474,-0.018 l -0.545,-0.039 c -2.672,-0.263 -4.916,-1.207 -6.945,-2.437 -2.02,-1.233 -3.782,-2.771 -5.289,-4.548 -1.505,-1.775 -2.759,-3.809 -3.568,-6.135 -0.795,-2.306 -1.084,-5.06 -0.235,-7.696 0.416,-1.303 1.102,-2.535 1.968,-3.539 l 0.442,-0.553 0.237,-0.295 0.13,-0.208 c 0.178,-0.238 0.377,-0.615 0.576,-0.962 0.735,-1.457 1.182,-3.164 1.363,-4.93 0.328,-3.534 -0.287,-7.312 -1.899,-10.447 -1.597,-3.147 -4.314,-5.467 -7.613,-5.836 -0.9,-0.121 -2.022,-0.215 -3.066,-0.375 -1.054,-0.15 -2.114,-0.326 -3.198,-0.587 -1.083,-0.263 -2.186,-0.583 -3.329,-1.132 -0.57,-0.281 -1.154,-0.62 -1.722,-1.111 -0.568,-0.456 -1.106,-1.149 -1.455,-1.931 -0.372,-0.796 -0.444,-1.674 -0.398,-2.437 0.062,-0.767 0.249,-1.447 0.488,-2.041 0.475,-1.204 1.107,-2.169 1.759,-3.079 1.328,-1.786 2.795,-3.313 4.304,-4.766 1.497,-1.445 3.107,-2.813 4.624,-4.123 1.529,-1.324 2.965,-2.647 4.347,-4.08 1.368,-1.421 2.658,-2.905 3.728,-4.49 1.039,-1.575 1.913,-3.311 1.958,-4.956 0.016,-0.814 -0.175,-1.575 -0.597,-2.255 -0.437,-0.673 -1.093,-1.261 -1.865,-1.739 -0.772,-0.482 -1.65,-0.859 -2.564,-1.164 -0.456,-0.154 -0.922,-0.294 -1.397,-0.414 l -0.356,-0.09 -0.178,-0.045 -0.111,-0.029 -0.045,-0.014 -0.091,-0.029 c -0.248,-0.08 -0.477,-0.139 -0.74,-0.236 -0.293,-0.134 -0.586,-0.273 -0.867,-0.422 -0.249,-0.182 -0.502,-0.359 -0.737,-0.556 -0.207,-0.229 -0.434,-0.446 -0.611,-0.694 -0.154,-0.263 -0.347,-0.511 -0.454,-0.789 -0.499,-1.1 -0.582,-2.251 -0.53,-3.328 0.148,-2.164 0.789,-4.162 1.538,-6.081 1.563,-3.819 3.617,-7.369 5.887,-10.751 -2.001,3.541 -3.766,7.236 -4.999,11.068 -0.612,1.906 -1.089,3.881 -1.093,5.797 0.012,0.947 0.167,1.879 0.567,2.616 0.085,0.195 0.234,0.338 0.339,0.512 0.128,0.156 0.29,0.278 0.425,0.423 l 0.505,0.331 c 0.177,0.071 0.35,0.14 0.518,0.22 0.217,0.067 0.487,0.121 0.727,0.182 l 0.093,0.023 0.029,0.007 c -0.006,-0.002 -0.008,-0.003 -0.001,-0.001 l 0.195,0.036 0.39,0.072 c 0.519,0.099 1.039,0.213 1.555,0.359 1.032,0.287 2.063,0.658 3.052,1.201 0.983,0.541 1.939,1.271 2.669,2.274 0.723,1.007 1.118,2.282 1.148,3.503 0.032,2.476 -0.984,4.556 -2.05,6.416 -1.117,1.851 -2.417,3.529 -3.805,5.102 -1.38,1.559 -2.882,3.06 -4.374,4.463 -1.508,1.415 -2.948,2.747 -4.325,4.189 -1.366,1.426 -2.661,2.911 -3.7,4.44 -0.503,0.761 -0.945,1.545 -1.183,2.251 -0.249,0.723 -0.228,1.241 -0.079,1.461 0.125,0.246 0.541,0.64 1.267,0.95 0.704,0.314 1.57,0.555 2.47,0.742 0.903,0.189 1.857,0.319 2.822,0.427 0.973,0.12 1.884,0.163 3.006,0.276 1.206,0.092 2.402,0.418 3.552,0.836 1.148,0.441 2.214,1.06 3.198,1.769 1.952,1.455 3.462,3.336 4.592,5.353 2.212,4.063 3.129,8.621 2.782,13.188 -0.194,2.285 -0.72,4.596 -1.78,6.803 -0.291,0.546 -0.555,1.076 -0.967,1.67 l -0.289,0.431 -0.235,0.304 -0.234,0.302 -0.19,0.24 -0.078,0.106 c -0.455,0.545 -0.758,1.142 -0.949,1.779 -0.38,1.268 -0.265,2.775 0.288,4.292 0.558,1.513 1.482,3 2.636,4.302 1.147,1.307 2.517,2.453 3.99,3.311 1.45,0.866 3.096,1.437 4.485,1.566 l 0.217,0.02 c 0.064,0.01 0.139,0.02 0.288,0.014 l 0.639,-0.007 1.659,-0.056 1.694,0.033 c 0.574,0.033 1.159,0.096 1.737,0.147 0.591,0.085 1.189,0.193 1.785,0.306 0.613,0.178 1.214,0.302 1.831,0.548 0.617,0.256 1.231,0.476 1.834,0.869 0.3,0.186 0.607,0.345 0.893,0.565 l 0.841,0.704 c 0.287,0.225 0.524,0.513 0.761,0.8 0.233,0.288 0.484,0.569 0.686,0.875 0.343,0.634 0.784,1.272 0.973,1.938 l 0.34,0.998 c 0.103,0.332 0.137,0.652 0.204,0.981 l 0.166,0.982 0.045,0.939 0.034,0.939 -0.057,0.896 c -0.047,0.595 -0.066,1.191 -0.185,1.782 l -0.308,1.764 -0.367,1.482 -0.333,1.378 c -0.077,0.377 -0.129,0.749 -0.155,1.115 -0.07,0.736 0.022,1.432 0.178,2.113 0.311,1.358 1.145,2.638 2.29,3.802 1.151,1.164 2.634,2.163 4.218,3.032 0.797,0.43 1.63,0.823 2.48,1.175 0.826,0.345 1.778,0.688 2.513,0.899 l 5.489,1.576 -4.33,3.567 c -1.597,1.316 -3.122,2.429 -4.75,3.548"
             style="fill:#656d78;fill-opacity:1;fill-rule:nonzero;stroke:none"
             id="path180" /></g><g
           id="g182"
           transform="translate(331.6641,387.2051)"><path
             d="m 0,0 0,0 c 0.062,-0.018 0.038,-0.011 0,0 m 55.132,-76.018 c 0.272,0.35 0.551,0.692 0.861,1.01 l 0.956,1.049 c 0.623,0.707 1.254,1.382 1.87,2.117 0.589,0.819 1.197,1.637 1.764,2.477 0.475,0.881 0.997,1.738 1.417,2.654 0.777,1.86 1.465,3.816 1.615,5.906 0.512,4.121 -0.885,8.657 -3.948,11.738 -1.474,1.606 -3.405,2.701 -5.39,3.497 l -1.532,0.506 c -0.516,0.139 -1.047,0.204 -1.573,0.304 l -0.791,0.135 -0.098,0.017 c -0.036,0.004 0.129,-0.014 0.038,-0.003 l -0.043,0.007 -0.174,0.025 -0.348,0.051 c -0.528,0.059 -0.75,0.163 -1.108,0.234 -1.428,0.436 -2.601,1.178 -3.494,2.355 -0.911,1.153 -1.57,2.671 -2.087,4.316 -1.034,3.311 -1.555,7.043 -2.528,10.836 -0.494,1.924 -1.061,3.782 -1.99,5.802 -0.747,1.601 -1.863,3.594 -3.056,5.224 -2.401,3.381 -5.987,6.232 -10.029,7.651 -2.006,0.729 -4.071,1.15 -6.103,1.374 -0.509,0.067 -1.012,0.28 -1.52,0.325 l -0.189,0.206 -0.011,0 -0.327,-0.149 -0.697,-0.005 -0.347,-0.003 -0.161,0.046 c -0.107,0.043 -0.215,0.066 -0.326,0.094 -0.228,0.068 -0.509,0.242 -0.768,0.345 -0.994,0.598 -1.958,1.754 -3.05,3.256 C 10.876,-1.135 9.584,0.619 7.88,2.08 6.189,3.543 4.152,4.724 2.069,5.387 L 1.681,5.529 1.632,5.547 1.445,5.602 1.36,5.624 1.19,5.668 0.489,5.846 C -0.167,5.968 -0.87,6.086 -1.42,6.104 -2.594,6.192 -3.725,6.119 -4.813,5.972 -6.994,5.672 -9.003,5.058 -10.9,4.311 c -1.904,-0.745 -3.699,-1.63 -5.429,-2.593 -1.733,-0.96 -3.393,-2.007 -5.011,-3.107 -1.628,-1.119 -3.153,-2.232 -4.749,-3.548 l -4.33,-3.567 5.488,-1.576 c 0.735,-0.211 1.687,-0.554 2.513,-0.899 0.851,-0.352 1.683,-0.745 2.48,-1.175 1.585,-0.869 3.067,-1.868 4.218,-3.032 1.146,-1.164 1.979,-2.444 2.29,-3.802 0.156,-0.681 0.248,-1.377 0.179,-2.113 -0.026,-0.366 -0.079,-0.738 -0.156,-1.115 l -0.333,-1.378 -0.366,-1.482 -0.308,-1.764 c -0.119,-0.591 -0.138,-1.187 -0.186,-1.782 l -0.056,-0.896 0.034,-0.939 0.044,-0.939 0.166,-0.982 c 0.068,-0.329 0.101,-0.649 0.205,-0.981 l 0.34,-0.998 c 0.188,-0.666 0.629,-1.304 0.973,-1.938 0.202,-0.306 0.453,-0.587 0.686,-0.875 0.237,-0.287 0.473,-0.575 0.761,-0.8 l 0.84,-0.704 c 0.287,-0.22 0.593,-0.379 0.893,-0.565 0.603,-0.393 1.217,-0.613 1.835,-0.869 0.616,-0.246 1.218,-0.37 1.831,-0.548 0.595,-0.113 1.194,-0.221 1.784,-0.306 0.578,-0.051 1.164,-0.114 1.737,-0.147 l 1.695,-0.033 1.659,0.056 0.639,0.007 c 0.148,0.006 0.224,-0.004 0.288,-0.014 l 0.216,-0.02 c 1.39,-0.129 3.035,-0.7 4.485,-1.566 1.473,-0.858 2.844,-2.004 3.99,-3.311 1.155,-1.302 2.078,-2.789 2.636,-4.302 0.553,-1.517 0.669,-3.024 0.288,-4.292 -0.19,-0.637 -0.493,-1.234 -0.949,-1.779 l -0.077,-0.106 -0.191,-0.24 -0.234,-0.302 -0.235,-0.304 -0.288,-0.431 c -0.412,-0.594 -0.676,-1.124 -0.967,-1.67 -1.06,-2.207 -1.586,-4.518 -1.781,-6.803 -0.346,-4.567 0.57,-9.125 2.783,-13.188 1.129,-2.017 2.64,-3.898 4.591,-5.353 0.985,-0.709 2.051,-1.328 3.199,-1.769 1.149,-0.418 2.345,-0.744 3.552,-0.836 1.122,-0.113 2.033,-0.156 3.006,-0.276 0.964,-0.108 1.919,-0.238 2.821,-0.427 0.901,-0.187 1.767,-0.428 2.47,-0.742 0.726,-0.31 1.142,-0.704 1.268,-0.95 0.148,-0.22 0.169,-0.738 -0.079,-1.461 -0.238,-0.706 -0.68,-1.49 -1.184,-2.251 -1.039,-1.529 -2.333,-3.014 -3.7,-4.44 -1.376,-1.442 -2.816,-2.774 -4.324,-4.189 -1.492,-1.403 -2.995,-2.904 -4.375,-4.463 -1.388,-1.573 -2.688,-3.251 -3.804,-5.102 -1.066,-1.86 -2.083,-3.94 -2.051,-6.416 0.03,-1.221 0.425,-2.496 1.148,-3.503 0.73,-1.003 1.687,-1.733 2.67,-2.274 0.989,-0.543 2.019,-0.914 3.051,-1.201 0.516,-0.146 1.037,-0.26 1.556,-0.359 l 0.389,-0.072 0.195,-0.036 c 0.007,-0.002 0.005,-0.001 0,0.001 l 0.028,-0.007 0.093,-0.023 c 0.241,-0.061 0.51,-0.115 0.728,-0.182 0.168,-0.08 0.34,-0.149 0.518,-0.22 l 0.505,-0.331 c 0.135,-0.145 0.297,-0.267 0.424,-0.423 0.106,-0.174 0.254,-0.317 0.34,-0.512 0.399,-0.737 0.555,-1.669 0.566,-2.616 -0.004,-1.916 -0.481,-3.891 -1.092,-5.797 -1.233,-3.832 -2.998,-7.527 -5,-11.068 2.271,3.382 4.324,6.932 5.888,10.751 0.749,1.919 1.39,3.917 1.537,6.081 0.052,1.077 -0.031,2.228 -0.529,3.328 -0.108,0.278 -0.301,0.526 -0.455,0.789 -0.176,0.248 -0.404,0.465 -0.611,0.694 -0.235,0.197 -0.488,0.374 -0.737,0.556 -0.281,0.149 -0.574,0.288 -0.867,0.422 -0.262,0.097 -0.492,0.156 -0.739,0.236 l -0.091,0.029 -0.046,0.014 -0.11,0.029 -0.179,0.045 -0.356,0.09 c -0.474,0.12 -0.941,0.26 -1.397,0.414 -0.914,0.305 -1.791,0.682 -2.564,1.164 -0.771,0.478 -1.427,1.066 -1.864,1.739 -0.423,0.68 -0.614,1.441 -0.597,2.255 0.045,1.645 0.918,3.381 1.957,4.956 1.07,1.585 2.361,3.069 3.729,4.49 1.381,1.433 2.818,2.756 4.347,4.08 1.516,1.31 3.126,2.678 4.623,4.123 1.509,1.453 2.976,2.98 4.305,4.766 0.652,0.91 1.284,1.875 1.759,3.079 0.238,0.594 0.426,1.274 0.488,2.041 0.046,0.763 -0.026,1.641 -0.399,2.437 -0.348,0.782 -0.886,1.475 -1.454,1.931 -0.569,0.491 -1.153,0.83 -1.723,1.111 -1.143,0.549 -2.246,0.869 -3.329,1.132 -1.083,0.261 -2.144,0.437 -3.197,0.587 -1.045,0.16 -2.166,0.254 -3.066,0.375 -3.299,0.369 -6.016,2.689 -7.614,5.836 -1.612,3.135 -2.226,6.913 -1.898,10.447 0.18,1.766 0.628,3.473 1.362,4.93 0.199,0.347 0.399,0.724 0.576,0.962 l 0.131,0.208 0.237,0.295 0.442,0.553 c 0.865,1.004 1.551,2.236 1.967,3.539 0.85,2.636 0.561,5.39 -0.234,7.696 -0.81,2.326 -2.063,4.36 -3.568,6.135 -1.507,1.777 -3.27,3.315 -5.289,4.548 -2.03,1.23 -4.274,2.174 -6.946,2.437 l -0.544,0.039 c -0.19,0.014 -0.368,0.023 -0.474,0.018 l -0.888,-0.01 -1.393,-0.039 -1.358,0.035 -1.304,0.117 c -1.712,0.199 -3.133,0.763 -3.95,1.52 -0.831,0.716 -1.205,1.909 -1.278,3.487 l -0.025,0.585 0.05,0.628 c 0.039,0.419 0.043,0.844 0.136,1.251 l 0.213,1.245 0.376,1.479 0.39,1.588 c 0.131,0.618 0.226,1.258 0.276,1.905 0.118,1.295 -0.011,2.65 -0.314,3.946 -0.607,2.633 -2.12,4.872 -3.812,6.598 -1.714,1.739 -3.649,3.04 -5.637,4.104 -0.339,0.181 -0.682,0.344 -1.024,0.511 1.523,1.059 3.097,2.059 4.677,2.952 1.542,0.871 3.117,1.656 4.705,2.286 1.586,0.64 3.193,1.122 4.733,1.34 0.767,0.109 1.52,0.16 2.217,0.106 0.39,-0.008 0.61,-0.07 0.881,-0.087 l 0.664,-0.165 0.168,-0.042 0.019,-0.006 0.27,-0.104 c 1.501,-0.463 2.77,-1.219 3.924,-2.188 1.156,-0.984 2.167,-2.228 3.311,-3.748 1.147,-1.478 2.543,-3.36 4.812,-4.684 0.592,-0.28 1.134,-0.576 1.801,-0.784 0.34,-0.099 0.684,-0.191 1.028,-0.275 l 0.516,-0.119 0.352,-0.04 0.7,-0.077 0.349,-0.038 0.524,-0.038 c 0.427,-0.032 0.863,-0.04 1.284,-0.089 1.699,-0.156 3.341,-0.469 4.872,-0.995 3.069,-1.036 5.675,-2.993 7.683,-5.681 1.033,-1.392 1.799,-2.659 2.689,-4.433 l 0.24,-0.509 c 0.09,-0.187 0.176,-0.378 0.255,-0.576 0.168,-0.387 0.323,-0.786 0.471,-1.192 0.297,-0.812 0.567,-1.648 0.811,-2.51 1.008,-3.446 1.62,-7.169 2.926,-10.999 0.669,-1.902 1.54,-3.882 3.009,-5.648 1.428,-1.793 3.609,-3.106 5.796,-3.654 2.451,-0.545 3.806,-0.404 5.369,-0.998 1.489,-0.538 2.96,-1.262 4.074,-2.404 1.12,-1.103 2.114,-2.41 2.615,-3.95 0.071,-0.187 0.169,-0.367 0.219,-0.562 l 0.136,-0.593 c 0.078,-0.398 0.223,-0.784 0.255,-1.193 0.052,-0.819 0.185,-1.637 0.072,-2.473 -0.037,-1.672 -0.551,-3.33 -1.141,-4.947 -0.326,-0.802 -0.763,-1.566 -1.131,-2.36 l -1.38,-2.189 c -0.55,-0.733 -1.164,-1.464 -1.743,-2.195 l -0.885,-1.081 c -0.326,-0.374 -0.619,-0.773 -0.904,-1.18 -1.157,-1.61 -2.108,-3.368 -2.804,-5.217 -1.407,-3.699 -1.758,-7.728 -1.18,-11.556 0.57,-3.831 1.982,-7.505 4.134,-10.668 2.173,-3.108 5.142,-5.84 8.781,-6.918 -3.538,1.357 -6.19,4.238 -8.052,7.382 -1.855,3.185 -2.981,6.768 -3.281,10.387 -0.296,3.617 0.239,7.276 1.671,10.533 0.714,1.627 1.645,3.151 2.752,4.529"
             style="fill:#656d78;fill-opacity:1;fill-rule:nonzero;stroke:none"
             id="path184" /></g><g
           id="g186"
           transform="translate(322.7881,406.333)"><path
             d="m 0,0 c 0,0 46.545,-24.768 58.212,-15.884 0,0 -0.126,-22.909 -24.397,-12.679 0,0 26.73,-24.105 39.397,-17.771 0,0 -11.879,-26 -36.606,-11 0,0 18.939,-20.666 31.606,-17.666 0,0 -26.064,-28.333 -66.865,15 C -39.455,-16.667 0,0 0,0"
             style="fill:#da4453;fill-opacity:1;fill-rule:nonzero;stroke:none"
             id="path188" /></g><g
           id="g190"
           transform="translate(311.7881,390.333)"><path
             d="m 0,0 c 0,0 46.545,-24.768 58.212,-15.884 0,0 -0.126,-22.909 -24.397,-12.679 0,0 26.73,-24.105 39.397,-17.771 0,0 -11.879,-26 -36.606,-11 0,0 18.939,-20.666 31.606,-17.666 0,0 -26.064,-28.333 -66.865,15 C -39.455,-16.667 0,0 0,0"
             style="fill:#a6343f;fill-opacity:1;fill-rule:nonzero;stroke:none"
             id="path192" /></g><g
           id="g194"
           transform="translate(256,425.999)"><path
             d="M 0,0 C -148.333,-10.333 -61.485,-134.341 -61.127,-135.452 L 0,-47.999 61.127,-135.452 C 61.485,-134.341 148.333,-10.333 0,0"
             style="fill:#f5f7fa;fill-opacity:1;fill-rule:nonzero;stroke:none"
             id="path196" /></g><g
           id="g198"
           transform="translate(331.1333,329.4248)"><path
             d="m 0,0 -1.5,38.363 c 0,0 28.367,33.878 20.367,38.878 -8,5 -18.023,-9.166 -18.023,-9.166 0,0 8.356,29.833 -8.311,35.833 -16.666,6 -31.046,-12.999 -31.046,-12.999 0,0 3.38,31.665 -35.62,31.665 -39,0 -35.62,-31.665 -35.62,-31.665 0,0 -14.38,18.999 -31.047,12.999 -16.666,-6 -8.31,-35.833 -8.31,-35.833 0,0 -10.023,14.166 -18.023,9.166 -8,-5 20.366,-38.878 20.366,-38.878 L -148.267,0 c 0,0 -17.204,8.346 -18.866,2.908 -1.662,-5.437 11.667,-13.334 11.667,-13.334 0,0 -7.334,-0.333 -6.053,-5.219 1.282,-4.885 11.013,-6.447 11.013,-6.447 0,0 -8.294,-1 -7.471,-5.667 0.824,-4.667 18.904,-2.034 18.904,-2.034 -27.411,92.552 64.94,97.368 64.94,97.368 0,0 92.35,-4.816 64.939,-97.368 0,0 18.081,-2.633 18.904,2.034 0.823,4.667 -7.471,5.667 -7.471,5.667 0,0 9.732,1.562 11.013,6.447 1.281,4.886 -6.052,5.219 -6.052,5.219 0,0 13.329,7.897 11.667,13.334 C 17.205,8.346 0,0 0,0"
             style="fill:#2d3138;fill-opacity:1;fill-rule:nonzero;stroke:none"
             id="path200" /></g><g
           id="g202"
           transform="translate(350,406.666)"><path
             d="m 0,0 c -8,5 -18.023,-9.166 -18.023,-9.166 0,0 8.356,29.833 -8.31,35.833 -16.667,6 -31.047,-12.999 -31.047,-12.999 0,0 3.38,31.665 -35.62,31.665 -39,0 -35.62,-31.665 -35.62,-31.665 0,0 -14.38,18.999 -31.047,12.999 -16.666,-6 -8.31,-35.833 -8.31,-35.833 0,0 -10.023,14.166 -18.023,9.166 -3.203,-2.002 -0.572,-8.635 3.73,-15.867 0.195,0.799 0.593,1.443 1.27,1.867 8,5 18.023,-9.166 18.023,-9.166 0,0 -8.356,29.833 8.31,35.833 16.667,6 31.047,-12.999 31.047,-12.999 0,0 -3.08,28.882 30.62,31.477 33.7,-2.595 30.62,-31.477 30.62,-31.477 0,0 14.38,18.999 31.047,12.999 16.666,-6 8.31,-35.833 8.31,-35.833 0,0 10.023,14.166 18.023,9.166 0.677,-0.424 1.075,-1.068 1.27,-1.867 C 0.572,-8.635 3.203,-2.002 0,0"
             style="fill:#434a54;fill-opacity:1;fill-rule:nonzero;stroke:none"
             id="path204" /></g><g
           id="g206"
           transform="translate(256,397.5)"><path
             d="m 0,0 c 0,0 -77.745,-2 -76.373,-46 1.373,-44 19.827,-68.446 19.827,-68.446 l 12.58,-2 c -2.298,9.179 -5.534,25.946 -5.534,25.946 l 10.059,-26.666 12.441,-1.978 -5,28.144 7.5,-28.144 c 0,0 8.5,-8.403 24.5,-8.403 16,0 24.5,8.403 24.5,8.403 L 32,-91 27,-119.144 39.441,-117.166 49.5,-90.5 c 0,0 -3.236,-16.767 -5.534,-25.946 l 12.58,2 C 56.546,-114.446 75,-90 76.373,-46 77.745,-2 0,0 0,0"
             style="fill:#434a54;fill-opacity:1;fill-rule:nonzero;stroke:none"
             id="path208" /></g><g
           id="g210"
           transform="translate(316.7881,369)"><path
             d="m 0,0 c 0,0 -8.818,-12.553 -11.981,-17.255 2.03,4.609 2.693,14.922 2.693,14.922 0,0 -16.167,-19 -13.5,-14.667 2.666,4.333 4.25,17 4.25,17 0,0 -22.917,-20 -20.584,-16 2.333,4 -3,17.334 -3,17.334 -2.333,-4 -7.666,-16.667 -7.666,-16.667 -1.334,4.333 -11,18.333 -11,18.333 0,0 -9.667,-14 -11,-18.333 0,0 -5.333,12.667 -7.667,16.667 0,0 -5.333,-13.334 -3,-17.334 2.333,-4 -20.583,16 -20.583,16 0,0 1.583,-12.667 4.25,-17 2.666,-4.333 -13.5,14.667 -13.5,14.667 0,0 0.663,-10.313 2.693,-14.922 -3.163,4.702 -11.981,17.255 -11.981,17.255 0,0 -7.455,-34 0,-46 0,0 5.776,11 7.282,18 0,0 7.839,-16.999 15.172,-23.666 0,0 7,17.332 6.334,23.666 0,0 6.333,-22.514 11.333,-29.924 0,0 2.282,2.078 4.706,5.852 5.088,-6.739 10.744,-13.305 15.961,-17.296 5.217,3.991 10.873,10.557 15.96,17.296 2.425,-3.774 4.706,-5.852 4.706,-5.852 5,7.41 11.334,29.924 11.334,29.924 -0.667,-6.334 6.333,-23.666 6.333,-23.666 C -15.121,-44.999 -7.282,-28 -7.282,-28 -5.776,-35 0,-46 0,-46 7.455,-34 0,0 0,0"
             style="fill:#656d78;fill-opacity:1;fill-rule:nonzero;stroke:none"
             id="path212" /></g></g></g></g></svg>