<?xml version="1.0" encoding="UTF-8" standalone="no"?>
<!-- Created with Inkscape (http://www.inkscape.org/) -->

<svg
   xmlns:dc="http://purl.org/dc/elements/1.1/"
   xmlns:cc="http://creativecommons.org/ns#"
   xmlns:rdf="http://www.w3.org/1999/02/22-rdf-syntax-ns#"
   xmlns:svg="http://www.w3.org/2000/svg"
   xmlns="http://www.w3.org/2000/svg"
   xmlns:sodipodi="http://sodipodi.sourceforge.net/DTD/sodipodi-0.dtd"
   xmlns:inkscape="http://www.inkscape.org/namespaces/inkscape"
   id="svg2"
   version="1.1"
   inkscape:version="0.48.5 r10040"
   width="640"
   height="640"
   xml:space="preserve"
   sodipodi:docname="34.svg"><metadata
     id="metadata8"><rdf:RDF><cc:Work
         rdf:about=""><dc:format>image/svg+xml</dc:format><dc:type
           rdf:resource="http://purl.org/dc/dcmitype/StillImage" /><dc:title /></cc:Work></rdf:RDF></metadata><defs
     id="defs6"><clipPath
       clipPathUnits="userSpaceOnUse"
       id="clipPath16"><path
         d="M 0,512 512,512 512,0 0,0 0,512 z"
         id="path18" /></clipPath><clipPath
       clipPathUnits="userSpaceOnUse"
       id="clipPath34"><path
         d="M 0,512 512,512 512,0 0,0 0,512 z"
         id="path36" /></clipPath><clipPath
       clipPathUnits="userSpaceOnUse"
       id="clipPath46"><path
         d="M 0,512 512,512 512,0 0,0 0,512 z"
         id="path48" /></clipPath></defs><sodipodi:namedview
     pagecolor="#ffffff"
     bordercolor="#666666"
     borderopacity="1"
     objecttolerance="10"
     gridtolerance="10"
     guidetolerance="10"
     inkscape:pageopacity="0"
     inkscape:pageshadow="2"
     inkscape:window-width="684"
     inkscape:window-height="480"
     id="namedview4"
     showgrid="false"
     inkscape:zoom="0.36875"
     inkscape:cx="320"
     inkscape:cy="320"
     inkscape:window-x="0"
     inkscape:window-y="25"
     inkscape:window-maximized="0"
     inkscape:current-layer="g10" /><g
     id="g10"
     inkscape:groupmode="layer"
     inkscape:label="人物"
     transform="matrix(1.25,0,0,-1.25,0,640)"><g
       id="g12"><g
         id="g14"
         clip-path="url(#clipPath16)"><path
           d="m 0,512 -512,0 0,512 512,0 0,-512 z"
           style="fill:#ffffff;fill-opacity:1;fill-rule:nonzero;stroke:none"
           id="path20" /><path
           d="m 512,512 -512,0 0,512 512,0 0,-512 z"
           style="fill:#ffffff;fill-opacity:1;fill-rule:nonzero;stroke:none"
           id="path22" /><path
           d="m 1024,512 -512,0 0,512 512,0 0,-512 z"
           style="fill:#ffffff;fill-opacity:1;fill-rule:nonzero;stroke:none"
           id="path24" /></g></g><g
       id="g26"
       transform="translate(0,512.0001)"><path
         d="M 0,0 0,-512 0,0 z"
         style="fill:#ffffff;fill-opacity:1;fill-rule:nonzero;stroke:none"
         id="path28" /></g><g
       id="g30"><g
         id="g32"
         clip-path="url(#clipPath34)"><path
           d="m 1024,0 -512,0 0,512 512,0 0,-512 z"
           style="fill:#ffffff;fill-opacity:1;fill-rule:nonzero;stroke:none"
           id="path38" /></g></g><path
       d="M 0,0 512,0 512,512 0,512 0,0 z"
       style="fill:#82b250;fill-opacity:1;fill-rule:nonzero;stroke:none"
       id="path40" /><g
       id="g42"><g
         id="g44"
         clip-path="url(#clipPath46)"><g
           id="g50"
           transform="translate(456,256)"><path
             d="m 0,0 c 0,-110.457 -89.543,-200 -200,-200 -110.457,0 -200,89.543 -200,200 0,110.457 89.543,200 200,200 C -89.543,200 0,110.457 0,0"
             style="fill:#8cc152;fill-opacity:1;fill-rule:nonzero;stroke:none"
             id="path52" /></g><g
           id="g54"
           transform="translate(364.6782,321.3203)"><path
             d="m 0,0 c 2.498,16.773 2.194,33.709 -2.677,48.18 -17,50.5 -59.001,19.747 -59.001,19.747 L -75.442,-41.32 c 0,0 12.203,-39.5 31.703,-40.5 3.038,-0.157 6.538,1.668 10.219,5.046 9.612,-7.136 19.625,4.325 38.842,37.954 C 16.557,-19.16 8.883,-6.937 0,0"
             style="fill:#2d3138;fill-opacity:1;fill-rule:nonzero;stroke:none"
             id="path56" /></g><g
           id="g58"
           transform="translate(209,389.2471)"><path
             d="m 0,0 c 0,0 -42.001,30.753 -59.001,-19.747 -4.872,-14.471 -5.175,-31.406 -2.677,-48.18 -8.884,-6.937 -16.557,-19.16 -5.322,-38.82 19.217,-33.629 29.23,-45.09 38.841,-37.954 3.681,-3.378 7.182,-5.202 10.22,-5.046 19.5,1 31.703,40.5 31.703,40.5 L 0,0 z"
             style="fill:#2d3138;fill-opacity:1;fill-rule:nonzero;stroke:none"
             id="path60" /></g><g
           id="g62"
           transform="translate(364.6782,296.3203)"><path
             d="M 0,0 C 2.973,-2.321 5.806,-5.238 7.844,-8.824 14.748,6.92 8.913,17.342 1.461,23.795 1.734,16.015 1.19,7.99 0,0"
             style="fill:#434a54;fill-opacity:1;fill-rule:nonzero;stroke:none"
             id="path64" /></g><g
           id="g66"
           transform="translate(303,364.2471)"><path
             d="m 0,0 c 0,0 42.001,30.753 59.001,-19.747 1.734,-5.152 2.88,-10.621 3.536,-16.28 1.464,14.469 0.668,28.793 -3.536,41.28 C 42.001,55.753 0,25 0,25 L -13.764,-84.247 c 0,0 0.806,-2.607 2.332,-6.493 L 0,0 z"
             style="fill:#434a54;fill-opacity:1;fill-rule:nonzero;stroke:none"
             id="path68" /></g><g
           id="g70"
           transform="translate(149.999,344.5)"><path
             d="m 0,0 c 17,50.5 59.001,19.747 59.001,19.747 l 11.432,-90.74 c 1.525,3.887 2.332,6.493 2.332,6.493 L 59.001,44.747 C 59.001,44.747 17,75.5 0,25 -4.204,12.513 -5,-1.811 -3.536,-16.28 -2.88,-10.621 -1.734,-5.152 0,0"
             style="fill:#434a54;fill-opacity:1;fill-rule:nonzero;stroke:none"
             id="path72" /></g><g
           id="g74"
           transform="translate(147.3218,296.3203)"><path
             d="M 0,0 C -1.19,7.99 -1.734,16.015 -1.461,23.795 -8.913,17.342 -14.748,6.92 -7.844,-8.824 -5.806,-5.238 -2.973,-2.321 0,0"
             style="fill:#434a54;fill-opacity:1;fill-rule:nonzero;stroke:none"
             id="path76" /></g><g
           id="g78"
           transform="translate(162,292)"><path
             d="M 0,0 C 0.18,-1.657 -13.666,32.668 6.667,46.334 6.667,46.334 -3,27.666 0,0"
             style="fill:#434a54;fill-opacity:1;fill-rule:nonzero;stroke:none"
             id="path80" /></g><g
           id="g82"
           transform="translate(167,281)"><path
             d="M 0,0 C 0,0 -6.916,30.277 14.709,34.139 14.709,34.139 -2.667,13 0,0"
             style="fill:#434a54;fill-opacity:1;fill-rule:nonzero;stroke:none"
             id="path84" /></g><g
           id="g86"
           transform="translate(173.8281,267)"><path
             d="m 0,0 c 0,0 -13.37,4.001 -16.266,-2.666 0,0 -1.742,12.922 16.266,2.666"
             style="fill:#434a54;fill-opacity:1;fill-rule:nonzero;stroke:none"
             id="path88" /></g><g
           id="g90"
           transform="translate(163.1147,279.334)"><path
             d="m 0,0 c 0,0 -7.782,9.667 -14.115,0 0,0 6.896,3.667 14.115,0"
             style="fill:#434a54;fill-opacity:1;fill-rule:nonzero;stroke:none"
             id="path92" /></g><g
           id="g94"
           transform="translate(350,292)"><path
             d="M 0,0 C -0.18,-1.657 13.666,32.668 -6.667,46.334 -6.667,46.334 3,27.666 0,0"
             style="fill:#434a54;fill-opacity:1;fill-rule:nonzero;stroke:none"
             id="path96" /></g><g
           id="g98"
           transform="translate(345,281)"><path
             d="M 0,0 C 0,0 6.916,30.277 -14.709,34.139 -14.709,34.139 2.667,13 0,0"
             style="fill:#434a54;fill-opacity:1;fill-rule:nonzero;stroke:none"
             id="path100" /></g><g
           id="g102"
           transform="translate(338.1719,267)"><path
             d="m 0,0 c 0,0 13.37,4.001 16.266,-2.666 0,0 1.742,12.922 -16.266,2.666"
             style="fill:#434a54;fill-opacity:1;fill-rule:nonzero;stroke:none"
             id="path104" /></g><g
           id="g106"
           transform="translate(348.8853,279.334)"><path
             d="M 0,0 C 0,0 7.782,9.667 14.115,0 14.115,0 7.219,3.667 0,0"
             style="fill:#434a54;fill-opacity:1;fill-rule:nonzero;stroke:none"
             id="path108" /></g><g
           id="g110"
           transform="translate(218.6279,171.4434)"><path
             d="m 0,0 -61.852,-18.443 c 0,0 -12.778,8.544 10.556,14.438 0,0 2.668,21.563 45.668,8.062 L 0,0 z"
             style="fill:#f5f7fa;fill-opacity:1;fill-rule:nonzero;stroke:none"
             id="path112" /></g><g
           id="g114"
           transform="translate(218.6279,171.4434)"><path
             d="m 0,0 -61.852,-18.443 c 0,0 -12.778,8.544 10.556,14.438 0,0 2.668,21.563 45.668,8.062 L 0,0 z"
             style="fill:#f5f7fa;fill-opacity:1;fill-rule:nonzero;stroke:none"
             id="path116" /></g><g
           id="g118"
           transform="translate(254.5273,258)"><path
             d="m 0,0 -42.25,5.5 16.307,-88.734 c 0,0 3.666,-30.766 25.943,-30.766 22.277,0 25.943,30.766 25.943,30.766 L 42.25,5.5 0,0 z"
             style="fill:#f9e0a8;fill-opacity:1;fill-rule:nonzero;stroke:none"
             id="path120" /></g><g
           id="g122"
           transform="translate(288.5273,248.5)"><path
             d="m 0,0 -69.525,-21.592 7.086,-38.555 c 10.66,-13.146 26.918,-25.187 50.957,-26.265 2.709,6.691 3.425,12.678 3.425,12.678 L 4.07,-7.744 C 1.686,-2.947 0,0 0,0"
             style="fill:#d9c392;fill-opacity:1;fill-rule:nonzero;stroke:none"
             id="path124" /></g><g
           id="g126"
           transform="translate(372.668,143.2109)"><path
             d="m 0,0 c -7.353,6.355 -19.364,14.563 -30.666,15.666 -3.6,0.352 -26.496,6.013 -47.197,11.631 l -2.207,4.992 -24.598,6.377 c 0,0 -45,-5.377 -47.099,-6.377 -0.539,-0.257 -1.355,-1.834 -2.273,-4.057 -21.432,-5.908 -44.83,-12.194 -48.63,-12.566 -11.302,-1.103 -23.313,-9.311 -30.666,-15.666 -13.235,-11.439 -10.854,-25.453 -14.641,-38.188 35.133,-30.605 81.055,-49.144 131.309,-49.144 50.254,0 96.176,18.539 131.309,49.144 C 10.854,-25.453 13.235,-11.439 0,0"
             style="fill:#f5f7fa;fill-opacity:1;fill-rule:nonzero;stroke:none"
             id="path128" /></g><g
           id="g130"
           transform="translate(312.9785,165.7051)"><path
             d="m 0,0 c -5.889,1.516 -12.123,3.16 -18.173,4.803 l -2.208,4.992 -24.598,6.377 c 0,0 -45,-5.377 -47.099,-6.377 -0.538,-0.257 -1.354,-1.834 -2.273,-4.057 -6.697,-1.846 -13.587,-3.729 -20.011,-5.458 10.924,-7.723 32.513,-12.985 57.383,-12.985 24.568,0 45.933,5.135 56.979,12.705"
             style="fill:#e6e9ed;fill-opacity:1;fill-rule:nonzero;stroke:none"
             id="path132" /></g><g
           id="g134"
           transform="translate(300,175.25)"><path
             d="m 0,0 c 0,-5.661 -4.589,-10.25 -10.25,-10.25 l -67.5,0 C -83.411,-10.25 -88,-5.661 -88,0 l 0,0.5 c 0,5.661 4.589,10.25 10.25,10.25 l 67.5,0 C -4.589,10.75 0,6.161 0,0.5 L 0,0 z"
             style="fill:#f5f7fa;fill-opacity:1;fill-rule:nonzero;stroke:none"
             id="path136" /></g><g
           id="g138"
           transform="translate(169.3604,75.582)"><path
             d="m 0,0 c 3.553,11.775 7.364,25.701 5.64,26.084 -3,0.667 -11,-18 -11,-18 l 7,35.212 C -3.36,42.175 -10.783,7.751 -10.783,7.751 l 5.089,51.666 c -3.387,0 -7.3,-33.003 -9.131,-51.489 C -10.008,5.086 -5.064,2.438 0,0"
             style="fill:#e6e9ed;fill-opacity:1;fill-rule:nonzero;stroke:none"
             id="path140" /></g><g
           id="g142"
           transform="translate(292.3721,171.4434)"><path
             d="m 0,0 61.852,-18.443 c 0,0 12.778,8.544 -10.556,14.438 0,0 -2.668,21.563 -45.668,8.062 L 0,0 z"
             style="fill:#f5f7fa;fill-opacity:1;fill-rule:nonzero;stroke:none"
             id="path144" /></g><g
           id="g146"
           transform="translate(342.6396,75.582)"><path
             d="m 0,0 c -3.553,11.775 -7.364,25.701 -5.64,26.084 3,0.667 11,-18 11,-18 l -7,35.212 C 3.36,42.175 10.783,7.751 10.783,7.751 L 5.694,59.417 c 3.387,0 7.3,-33.003 9.131,-51.489 C 10.008,5.086 5.064,2.438 0,0"
             style="fill:#e6e9ed;fill-opacity:1;fill-rule:nonzero;stroke:none"
             id="path148" /></g><g
           id="g150"
           transform="translate(256,358)"><path
             d="m 0,0 -63,0 c 0,0 4.785,-94.465 11,-114 7,-22.001 14.237,-27.287 30.226,-41 C -8.366,-166.5 0,-165 0,-165 c 0,0 8.366,-1.5 21.774,10 C 37.763,-141.287 46,-136.001 53,-114 59.215,-94.465 63,0 63,0 L 0,0 z"
             style="fill:#ffe9ba;fill-opacity:1;fill-rule:nonzero;stroke:none"
             id="path152" /></g><g
           id="g154"
           transform="translate(197.75,294.5)"><path
             d="m 0,0 c 0,0 -22.743,10.911 -17.273,-16.638 5.467,-27.55 22.017,-23.583 22.017,-23.583 L 0,0 z"
             style="fill:#f9e0a8;fill-opacity:1;fill-rule:nonzero;stroke:none"
             id="path156" /></g><g
           id="g158"
           transform="translate(315.25,297.5)"><path
             d="M 0,0 C 0,0 22.743,10.911 17.273,-16.638 11.806,-44.188 -4.744,-40.221 -4.744,-40.221 L 0,0 z"
             style="fill:#f9e0a8;fill-opacity:1;fill-rule:nonzero;stroke:none"
             id="path160" /></g><g
           id="g162"
           transform="translate(256,393.8018)"><path
             d="m 0,0 c -18.115,1.462 -109.361,8.931 -59.627,-96.302 0,0 47.087,3.586 59.627,36.227 C 12.539,-92.716 59.627,-96.302 59.627,-96.302 109.36,8.931 18.115,1.462 0,0"
             style="fill:#434a54;fill-opacity:1;fill-rule:nonzero;stroke:none"
             id="path164" /></g><g
           id="g166"
           transform="translate(256,383.8018)"><path
             d="M 0,0 C 13.829,1.116 70.263,5.725 74.079,-38.963 78.268,16.376 14.785,11.193 0,10 -14.785,11.193 -78.268,16.376 -74.08,-38.962 -70.263,5.725 -13.828,1.116 0,0"
             style="fill:#656d78;fill-opacity:1;fill-rule:nonzero;stroke:none"
             id="path168" /></g><g
           id="g170"
           transform="translate(189.313,314.1729)"><path
             d="M 0,0 C 0,0 -0.313,56.396 64.687,50.111 64.687,50.111 8.245,35.99 0,0"
             style="fill:#656d78;fill-opacity:1;fill-rule:nonzero;stroke:none"
             id="path172" /></g><g
           id="g174"
           transform="translate(322.687,314.1729)"><path
             d="M 0,0 C 0,0 0.313,56.396 -64.687,50.111 -64.687,50.111 -8.245,35.99 0,0"
             style="fill:#656d78;fill-opacity:1;fill-rule:nonzero;stroke:none"
             id="path176" /></g></g></g></g></svg>