<?xml version="1.0" encoding="UTF-8" standalone="no"?>
<!-- Created with Inkscape (http://www.inkscape.org/) -->

<svg
   xmlns:dc="http://purl.org/dc/elements/1.1/"
   xmlns:cc="http://creativecommons.org/ns#"
   xmlns:rdf="http://www.w3.org/1999/02/22-rdf-syntax-ns#"
   xmlns:svg="http://www.w3.org/2000/svg"
   xmlns="http://www.w3.org/2000/svg"
   xmlns:sodipodi="http://sodipodi.sourceforge.net/DTD/sodipodi-0.dtd"
   xmlns:inkscape="http://www.inkscape.org/namespaces/inkscape"
   id="svg2"
   version="1.1"
   inkscape:version="0.48.5 r10040"
   width="640"
   height="640"
   xml:space="preserve"
   sodipodi:docname="人物.ai"><metadata
     id="metadata8"><rdf:RDF><cc:Work
         rdf:about=""><dc:format>image/svg+xml</dc:format><dc:type
           rdf:resource="http://purl.org/dc/dcmitype/StillImage" /><dc:title></dc:title></cc:Work></rdf:RDF></metadata><defs
     id="defs6"><clipPath
       clipPathUnits="userSpaceOnUse"
       id="clipPath16"><path
         d="M 0,512 512,512 512,0 0,0 0,512 z"
         id="path18" /></clipPath><clipPath
       clipPathUnits="userSpaceOnUse"
       id="clipPath34"><path
         d="M 0,512 512,512 512,0 0,0 0,512 z"
         id="path36" /></clipPath></defs><sodipodi:namedview
     pagecolor="#ffffff"
     bordercolor="#666666"
     borderopacity="1"
     objecttolerance="10"
     gridtolerance="10"
     guidetolerance="10"
     inkscape:pageopacity="0"
     inkscape:pageshadow="2"
     inkscape:window-width="684"
     inkscape:window-height="480"
     id="namedview4"
     showgrid="false"
     inkscape:zoom="0.36875"
     inkscape:cx="320"
     inkscape:cy="320"
     inkscape:window-x="0"
     inkscape:window-y="25"
     inkscape:window-maximized="0"
     inkscape:current-layer="g10" /><g
     id="g10"
     inkscape:groupmode="layer"
     inkscape:label="人物"
     transform="matrix(1.25,0,0,-1.25,0,640)"><g
       id="g12"><g
         id="g14"
         clip-path="url(#clipPath16)"><path
           d="m 0,512 -512,0 0,512 512,0 0,-512 z"
           style="fill:#ffffff;fill-opacity:1;fill-rule:nonzero;stroke:none"
           id="path20" /><path
           d="m 512,512 -512,0 0,512 512,0 0,-512 z"
           style="fill:#ffffff;fill-opacity:1;fill-rule:nonzero;stroke:none"
           id="path22" /></g></g><path
       d="M 0,0 512,0 512,512 0,512 0,0 z"
       style="fill:#ffffff;fill-opacity:1;fill-rule:nonzero;stroke:none"
       id="path24" /><g
       id="g26"
       transform="translate(0,512.0001)"><path
         d="M 0,0 0,-512 0,0 z"
         style="fill:#ffffff;fill-opacity:1;fill-rule:nonzero;stroke:none"
         id="path28" /></g><g
       id="g30"><g
         id="g32"
         clip-path="url(#clipPath34)"><g
           id="g38"
           transform="translate(456,256)"><path
             d="m 0,0 c 0,-110.457 -89.543,-200 -200,-200 -110.457,0 -200,89.543 -200,200 0,110.457 89.543,200 200,200 C -89.543,200 0,110.457 0,0"
             style="fill:#434a54;fill-opacity:1;fill-rule:nonzero;stroke:none"
             id="path40" /></g><g
           id="g42"
           transform="translate(238.5,387)"><path
             d="m 0,0 c 0,0 -15.898,36.391 17.5,39 32,2.5 23,-35.5 48,-47 25,-11.5 50,-69.838 41.5,-121.919 C 98.5,-182 91.5,-188.246 110.5,-205.123 129.5,-222 99.328,-272 86.164,-280.5 73,-289 41.5,-250.5 42,-249 c 0.5,1.5 29.611,28.5 16.306,59 C 45,-159.5 28.25,-151.5 52.5,-120.5 76.75,-89.5 0,0 0,0"
             style="fill:#f6bb42;fill-opacity:1;fill-rule:nonzero;stroke:none"
             id="path44" /></g><g
           id="g46"
           transform="translate(300.1729,177.4805)"><path
             d="m 0,0 c -1.561,-21.693 -19.283,-38.313 -19.673,-39.48 -0.083,-0.249 0.714,-1.512 2.153,-3.404 C -12.118,-36.614 1.446,-19.926 0,0"
             style="fill:#ffce54;fill-opacity:1;fill-rule:nonzero;stroke:none"
             id="path48" /></g><g
           id="g50"
           transform="translate(337.0137,201.6064)"><path
             d="m 0,0 c -0.755,-11.02 2.082,-16.932 11.986,-25.729 3.675,-3.264 5.504,-7.771 5.979,-12.973 0.632,7.722 -0.951,14.507 -5.979,18.973 C 4.04,-12.671 0.644,-7.471 0,0"
             style="fill:#ffce54;fill-opacity:1;fill-rule:nonzero;stroke:none"
             id="path52" /></g><g
           id="g54"
           transform="translate(295.6084,279.1934)"><path
             d="m 0,0 c -0.399,-4.845 -1.839,-9.153 -4.608,-12.693 -10.192,-13.028 -13.14,-21.994 -12.148,-30.275 0.799,6.724 4.353,14.31 12.148,24.275 C -0.742,-13.751 0.548,-7.316 0,0"
             style="fill:#ffce54;fill-opacity:1;fill-rule:nonzero;stroke:none"
             id="path56" /></g><g
           id="g58"
           transform="translate(256,420)"><path
             d="M 0,0 C 32,2.5 23,-35.5 48,-47 69.103,-56.707 90.205,-99.787 91.159,-144.308 92.095,-97.722 70.05,-51.143 48,-41 23,-29.5 32,8.5 0,6 -18.964,4.519 -22.032,-7.854 -21.144,-18.271 -20.312,-9.585 -15.396,-1.203 0,0"
             style="fill:#ffce54;fill-opacity:1;fill-rule:nonzero;stroke:none"
             id="path60" /></g><g
           id="g62"
           transform="translate(269,397)"><path
             d="m 0,0 c 0,-6.627 -5.373,-12 -12,-12 l -2,0 c -6.627,0 -12,5.373 -12,12 l 0,2 c 0,6.627 5.373,12 12,12 l 2,0 C -5.373,14 0,8.627 0,2 L 0,0 z"
             style="fill:#3db093;fill-opacity:1;fill-rule:nonzero;stroke:none"
             id="path64" /></g><g
           id="g66"
           transform="translate(309,315)"><path
             d="m 0,0 c 0,0 10.333,-15.667 20.333,-16.667 10,-1 6.333,-21.397 5,-28.865 C 24,-53 20,-67.667 32.333,-80 c 0,0 -13.333,19.999 0,48.333 C 45.666,-3.333 0,0 0,0"
             style="fill:#ffce54;fill-opacity:1;fill-rule:nonzero;stroke:none"
             id="path68" /></g><g
           id="g70"
           transform="translate(329,278.3564)"><path
             d="m 0,0 c 0,0 -20,-34.356 16.667,-50.689 36.667,-16.333 15.666,-38.334 15.666,-38.334 3,7 7,25 -19.666,33.667 -24.999,8.125 -31.249,48.769 -31.242,54.661 0,0.392 0.028,0.631 0.081,0.695 L -23,-30.023 c -4.752,-11.03 4.488,-21.982 15.939,-30.666 14.504,-11 14.746,-22.462 8.394,-33.667 -5.669,-10 -14.666,-32.333 -14.666,-32.333 -2.666,20.667 10.134,39.908 -5.373,51.626 -17.294,13.07 -15.81,34.209 -17.071,41.69 -0.151,0.893 -0.223,1.428 -0.223,1.517 L 0,0 z"
             style="fill:#ffce54;fill-opacity:1;fill-rule:nonzero;stroke:none"
             id="path72" /></g><g
           id="g74"
           transform="translate(372.668,143.2109)"><path
             d="m 0,0 c -7.353,6.355 -19.364,14.563 -30.666,15.666 -7.258,0.709 -86.002,23 -86.002,23 0,0 -78.744,-22.291 -86.002,-23 -11.302,-1.103 -23.313,-9.311 -30.666,-15.666 -13.235,-11.439 -10.854,-25.453 -14.641,-38.188 35.133,-30.605 81.055,-49.144 131.309,-49.144 50.254,0 96.176,18.539 131.309,49.144 C 10.854,-25.453 13.235,-11.439 0,0"
             style="fill:#f9e0a8;fill-opacity:1;fill-rule:nonzero;stroke:none"
             id="path76" /></g><g
           id="g78"
           transform="translate(270.585,107.0059)"><path
             d="m 0,0 c -0.555,-0.244 -1.191,-0.605 -1.927,-1.026 -0.724,-0.433 -1.528,-0.96 -2.362,-1.598 -0.407,-0.333 -0.831,-0.681 -1.27,-1.04 -0.419,-0.382 -0.835,-0.797 -1.274,-1.218 -0.842,-0.87 -1.686,-1.843 -2.465,-2.921 -0.783,-1.075 -1.507,-2.25 -2.156,-3.49 -0.633,-1.246 -1.195,-2.554 -1.657,-3.893 -0.74,-2.172 -1.224,-4.41 -1.474,-6.575 -0.25,2.165 -0.734,4.403 -1.474,6.575 -0.462,1.339 -1.024,2.647 -1.657,3.893 -0.649,1.24 -1.373,2.415 -2.156,3.49 -0.779,1.078 -1.623,2.051 -2.465,2.921 -0.439,0.421 -0.855,0.836 -1.274,1.218 -0.439,0.359 -0.863,0.707 -1.27,1.04 -0.834,0.638 -1.638,1.165 -2.362,1.598 -0.736,0.421 -1.372,0.782 -1.927,1.026 -1.106,0.494 -1.749,0.727 -1.749,0.727 0,0 0.459,-0.531 1.282,-1.372 0.417,-0.412 0.861,-0.985 1.418,-1.561 0.282,-0.286 0.536,-0.639 0.824,-0.983 0.277,-0.357 0.608,-0.684 0.889,-1.089 0.296,-0.385 0.605,-0.786 0.923,-1.201 0.299,-0.427 0.606,-0.867 0.923,-1.32 0.613,-0.914 1.224,-1.891 1.806,-2.926 0.3,-0.511 0.557,-1.059 0.849,-1.591 0.275,-0.544 0.518,-1.113 0.795,-1.665 0.484,-1.144 0.978,-2.304 1.37,-3.507 0.431,-1.188 0.768,-2.412 1.093,-3.621 0.308,-1.215 0.582,-2.424 0.802,-3.61 0.449,-2.369 0.737,-4.633 0.924,-6.598 0.205,-1.968 0.295,-3.636 0.359,-4.818 0.049,-1.19 0.077,-1.871 0.077,-1.871 0,0 0.319,0.617 0.706,1.76 0.39,1.141 0.854,2.808 1.165,4.861 0.052,0.331 0.089,0.688 0.129,1.037 0.04,-0.349 0.077,-0.706 0.129,-1.037 0.311,-2.053 0.775,-3.72 1.165,-4.861 0.387,-1.143 0.706,-1.76 0.706,-1.76 0,0 0.028,0.681 0.077,1.871 0.064,1.182 0.154,2.85 0.359,4.818 0.187,1.965 0.475,4.229 0.924,6.598 0.22,1.186 0.495,2.395 0.802,3.61 0.325,1.209 0.662,2.433 1.093,3.621 0.392,1.203 0.886,2.363 1.37,3.507 0.277,0.552 0.521,1.121 0.795,1.665 0.292,0.532 0.549,1.08 0.849,1.591 0.582,1.035 1.193,2.012 1.806,2.926 0.317,0.453 0.624,0.893 0.923,1.32 0.318,0.415 0.627,0.816 0.923,1.201 0.281,0.405 0.612,0.732 0.889,1.089 0.288,0.344 0.542,0.697 0.824,0.983 0.557,0.576 1.001,1.149 1.418,1.561 C 1.29,0.196 1.749,0.727 1.749,0.727 1.749,0.727 1.106,0.494 0,0"
             style="fill:#d9c392;fill-opacity:1;fill-rule:nonzero;stroke:none"
             id="path80" /></g><g
           id="g82"
           transform="translate(256,256)"><path
             d="m 0,0 -42.25,5.5 16.307,-88.734 c 0,0 3.666,-30.766 25.943,-30.766 22.277,0 25.943,30.766 25.943,30.766 L 42.25,5.5 0,0 z"
             style="fill:#f9e0a8;fill-opacity:1;fill-rule:nonzero;stroke:none"
             id="path84" /></g><g
           id="g86"
           transform="translate(290,246.5)"><path
             d="m 0,0 -69.525,-21.592 7.086,-38.555 c 10.66,-13.146 26.918,-25.187 50.957,-26.265 2.709,6.691 3.425,12.678 3.425,12.678 L 4.07,-7.744 C 1.686,-2.947 0,0 0,0"
             style="fill:#d9c392;fill-opacity:1;fill-rule:nonzero;stroke:none"
             id="path88" /></g><g
           id="g90"
           transform="translate(256,55.8789)"><path
             d="m 0,0 c 37.587,0 72.75,10.373 102.788,28.408 l -0.25,0.319 C 88.693,46.375 87.07,89.299 86.914,102.875 c -0.304,0.039 -0.609,0.094 -0.912,0.123 -1.017,0.1 -3.439,0.623 -6.849,1.449 l 0.183,-1.194 0.139,-0.878 C 80.388,96.629 82.527,83.17 73.561,59.044 61.193,25.767 12.238,24.08 2.551,24.08 c -1.518,0 -2.381,0.036 -2.418,0.038 l -0.134,0.006 -0.131,-0.006 c -0.037,-0.002 -0.902,-0.038 -2.419,-0.038 -9.687,0 -58.641,1.685 -71.01,34.964 -8.966,24.126 -6.827,37.585 -5.914,43.331 l 0.139,0.878 0.183,1.194 c -3.41,-0.826 -5.832,-1.349 -6.849,-1.449 -0.303,-0.029 -0.608,-0.084 -0.912,-0.123 -0.156,-13.576 -1.779,-56.5 -15.624,-74.148 l -0.25,-0.319 C -72.75,10.373 -37.587,0 0,0"
             style="fill:#379e84;fill-opacity:1;fill-rule:nonzero;stroke:none"
             id="path92" /></g><g
           id="g94"
           transform="translate(339.9082,159.2383)"><path
             d="m 0,0 c -0.477,0.099 -1.014,0.215 -1.606,0.348 0.872,-5.7 3.768,-19.615 -5.929,-45.708 -14.728,-39.628 -76.373,-36.878 -76.373,-36.878 0,0 -61.646,-2.75 -76.373,36.878 -9.698,26.093 -6.801,40.008 -5.929,45.708 -0.593,-0.133 -1.13,-0.249 -1.606,-0.348 -0.137,-14.463 -1.784,-58.019 -16.27,-76.484 29.458,-17.085 63.673,-26.875 100.178,-26.875 36.505,0 70.72,9.79 100.178,26.875 C 1.783,-58.019 0.137,-14.463 0,0"
             style="fill:#3db093;fill-opacity:1;fill-rule:nonzero;stroke:none"
             id="path96" /></g><g
           id="g98"
           transform="translate(245,70.3828)"><path
             d="M 0,0 6.128,-10.05 34.072,1.471 6.863,-5.393 0,0 z"
             style="fill:#ffffff;fill-opacity:1;fill-rule:nonzero;stroke:none"
             id="path100" /></g><g
           id="g102"
           transform="translate(256,358)"><path
             d="m 0,0 -63,0 c 0,0 4.785,-94.465 11,-114 7,-22.001 14.237,-27.287 30.226,-41 C -8.366,-166.5 0,-165 0,-165 c 0,0 8.366,-1.5 21.774,10 C 37.763,-141.287 46,-136.001 53,-114 59.215,-94.465 63,0 63,0 L 0,0 z"
             style="fill:#ffe9ba;fill-opacity:1;fill-rule:nonzero;stroke:none"
             id="path104" /></g><g
           id="g106"
           transform="translate(197.75,297.5)"><path
             d="m 0,0 c 0,0 -22.743,10.911 -17.273,-16.638 5.467,-27.55 22.017,-23.583 22.017,-23.583 L 0,0 z"
             style="fill:#f9e0a8;fill-opacity:1;fill-rule:nonzero;stroke:none"
             id="path108" /></g><g
           id="g110"
           transform="translate(315.25,297.5)"><path
             d="M 0,0 C 0,0 22.743,10.911 17.273,-16.638 11.806,-44.188 -4.744,-40.221 -4.744,-40.221 L 0,0 z"
             style="fill:#f9e0a8;fill-opacity:1;fill-rule:nonzero;stroke:none"
             id="path112" /></g><g
           id="g114"
           transform="translate(256.5,400.0225)"><path
             d="m 0,0 c -7.415,0.277 -96.867,1.511 -58.75,-102.772 0,0 -3.25,23.125 10.25,29.125 l -2.5,18.062 c 0,0 9.854,20.207 50.5,8.834 l 0,-0.271 c 0.171,0.048 0.33,0.087 0.5,0.135 0.17,-0.048 0.5,0.136 0.5,0.136 40.646,11.373 50.5,-8.834 50.5,-8.834 l -2.5,-18.062 c 13.5,-6 10.25,-29.125 10.25,-29.125 C 96.867,1.511 7.415,0.277 0,0"
             style="fill:#ffce54;fill-opacity:1;fill-rule:nonzero;stroke:none"
             id="path116" /></g><g
           id="g118"
           transform="translate(232.8711,397.542)"><path
             d="m 0,0 c -6.929,-1.642 -14.462,-4.331 -21.334,-8.719 -2.509,-15.544 4.62,-26.28 12.1,-33.026 2.386,0.49 5.061,0.814 8.048,0.908 C -7.748,-25.299 -2.952,-7.972 0,0"
             style="fill:#ffd56b;fill-opacity:1;fill-rule:nonzero;stroke:none"
             id="path120" /></g><g
           id="g122"
           transform="translate(193.1582,367.71)"><path
             d="m 0,0 c -2.401,-5.416 -4.038,-11.728 -4.604,-19.097 5.013,-2.375 11.439,-5.273 17.412,-7.539 l -0.466,3.364 c 0,0 1.088,2.209 3.995,4.752 C 9.772,-14.16 3.249,-8.188 0,0"
             style="fill:#f6bb42;fill-opacity:1;fill-rule:nonzero;stroke:none"
             id="path124" /></g><g
           id="g126"
           transform="translate(188.9951,331.9277)"><path
             d="m 0,0 c 0.481,-4.136 1.247,-8.53 2.308,-13.182 l 9.293,0.328 c 1.152,2.243 2.706,4.246 4.779,5.766 L 0,0 z"
             style="fill:#ffd56b;fill-opacity:1;fill-rule:nonzero;stroke:none"
             id="path128" /></g><g
           id="g130"
           transform="translate(280.1289,397.542)"><path
             d="m 0,0 c 6.929,-1.642 14.462,-4.331 21.334,-8.719 2.509,-15.544 -4.62,-26.28 -12.1,-33.026 -2.386,0.49 -5.061,0.814 -8.048,0.908 C 7.748,-25.299 2.952,-7.972 0,0"
             style="fill:#ffd56b;fill-opacity:1;fill-rule:nonzero;stroke:none"
             id="path132" /></g><g
           id="g134"
           transform="translate(319.8418,367.71)"><path
             d="m 0,0 c 2.401,-5.416 4.038,-11.728 4.604,-19.097 -5.013,-2.375 -11.439,-5.273 -17.412,-7.539 l 0.466,3.364 c 0,0 -1.088,2.209 -3.995,4.752 C -9.772,-14.16 -3.249,-8.188 0,0"
             style="fill:#f6bb42;fill-opacity:1;fill-rule:nonzero;stroke:none"
             id="path136" /></g><g
           id="g138"
           transform="translate(324.0049,331.9277)"><path
             d="m 0,0 c -0.481,-4.136 -1.247,-8.53 -2.308,-13.182 l -9.293,0.328 c -1.152,2.243 -2.706,4.246 -4.779,5.766 L 0,0 z"
             style="fill:#ffd56b;fill-opacity:1;fill-rule:nonzero;stroke:none"
             id="path140" /></g><g
           id="g142"
           transform="translate(276.8242,325.915)"><path
             d="m 0,0 c -0.547,1.157 -1.292,2.2 -2.226,3.136 -0.241,0.224 -0.5,0.485 -0.733,0.676 l -0.683,0.533 -1.335,1.053 c -0.437,0.318 -0.828,0.706 -1.22,1.089 -0.388,0.392 -0.818,0.726 -1.173,1.156 l -1.11,1.231 c -0.366,0.416 -0.695,0.869 -1.043,1.301 -0.709,0.852 -1.311,1.807 -1.958,2.716 -0.601,0.948 -1.236,1.872 -1.792,2.853 -0.588,0.958 -1.114,1.96 -1.657,2.948 -0.513,1.007 -1.029,2.012 -1.504,3.039 -0.491,1.019 -0.97,2.045 -1.42,3.082 -0.449,1.03 -0.893,2.098 -1.267,3.114 l -0.32,0.867 c 16.557,20.679 17.633,35.775 16.259,43.953 -8.283,1.427 -15.002,1.441 -17.533,1.379 l -0.109,-0.041 -0.11,0.041 c -2.531,0.062 -9.25,0.048 -17.533,-1.379 -1.376,-8.189 -0.294,-23.314 16.326,-44.035 -1.66,-0.283 -3.231,-0.685 -4.818,-1.188 -2.026,-0.647 -4.011,-1.451 -5.895,-2.478 -3.761,-2.02 -7.185,-4.987 -9.288,-8.839 -1.052,-1.912 -1.755,-4.002 -2.133,-6.128 -0.364,-2.134 -0.364,-4.286 -0.2,-6.401 0.14,-1.052 0.227,-2.104 0.471,-3.149 l 0.323,-1.562 0.407,-1.482 c 0.558,-2.035 1.187,-3.932 1.76,-5.909 1.16,-3.919 2.257,-7.853 3.193,-11.818 0.472,-1.982 0.88,-3.975 1.219,-5.977 0.338,-2.002 0.591,-4.016 0.68,-6.035 0.086,-2.016 0.033,-4.043 -0.335,-6.015 -0.365,-1.967 -1.046,-3.877 -2.11,-5.573 -1.089,-1.677 -2.55,-3.106 -4.219,-4.243 -1.676,-1.147 -3.524,-1.99 -5.456,-2.689 l 0.104,-0.282 c 1.937,0.633 3.877,1.441 5.622,2.559 1.75,1.113 3.321,2.551 4.519,4.278 1.174,1.743 1.954,3.736 2.399,5.779 0.448,2.047 0.567,4.142 0.544,6.217 -0.028,2.078 -0.222,4.144 -0.501,6.192 -0.283,2.047 -0.633,4.082 -1.049,6.099 -0.827,4.038 -1.857,8.021 -2.925,11.986 -0.522,1.97 -1.132,3.98 -1.611,5.909 l -0.372,1.491 -0.26,1.453 c -0.204,0.958 -0.26,1.954 -0.37,2.936 -0.104,1.967 -0.056,3.937 0.314,5.844 0.386,1.898 1.051,3.722 2.014,5.376 1.911,3.336 5.019,5.867 8.498,7.614 1.741,0.885 3.593,1.572 5.484,2.115 1.497,0.434 3.076,0.768 4.596,0.99 0.276,-0.73 0.558,-1.449 0.856,-2.169 0.452,-1.086 0.92,-2.165 1.428,-3.225 0.507,-1.063 1.057,-2.104 1.606,-3.146 0.579,-1.027 1.139,-2.063 1.77,-3.064 0.599,-1.018 1.272,-1.997 1.934,-2.98 0.722,-0.947 1.392,-1.926 2.189,-2.823 0.392,-0.452 0.761,-0.921 1.172,-1.358 l 1.255,-1.296 c 0.4,-0.446 0.892,-0.818 1.337,-1.225 0.456,-0.398 0.907,-0.801 1.422,-1.14 L -5.131,2.337 -4.422,1.84 c 0.22,-0.164 0.367,-0.318 0.559,-0.473 0.732,-0.659 1.385,-1.485 1.901,-2.377 1.035,-1.808 1.477,-3.993 1.568,-6.198 0.074,-2.218 -0.199,-4.475 -0.619,-6.71 -0.218,-1.117 -0.491,-2.228 -0.807,-3.329 -0.326,-1.096 -0.655,-2.202 -1.068,-3.271 l 0.272,-0.128 c 1.107,2.051 1.963,4.224 2.659,6.461 0.695,2.239 1.163,4.573 1.255,6.974 C 1.374,-4.823 1.095,-2.313 0,0"
             style="fill:#f6bb42;fill-opacity:1;fill-rule:nonzero;stroke:none"
             id="path144" /></g></g></g></g></svg>