<?xml version="1.0" encoding="UTF-8" standalone="no"?>
<!-- Created with Inkscape (http://www.inkscape.org/) -->

<svg
   xmlns:dc="http://purl.org/dc/elements/1.1/"
   xmlns:cc="http://creativecommons.org/ns#"
   xmlns:rdf="http://www.w3.org/1999/02/22-rdf-syntax-ns#"
   xmlns:svg="http://www.w3.org/2000/svg"
   xmlns="http://www.w3.org/2000/svg"
   xmlns:sodipodi="http://sodipodi.sourceforge.net/DTD/sodipodi-0.dtd"
   xmlns:inkscape="http://www.inkscape.org/namespaces/inkscape"
   id="svg2"
   version="1.1"
   inkscape:version="0.48.5 r10040"
   width="640"
   height="640"
   xml:space="preserve"
   sodipodi:docname="4.svg"><metadata
     id="metadata8"><rdf:RDF><cc:Work
         rdf:about=""><dc:format>image/svg+xml</dc:format><dc:type
           rdf:resource="http://purl.org/dc/dcmitype/StillImage" /><dc:title /></cc:Work></rdf:RDF></metadata><defs
     id="defs6"><clipPath
       clipPathUnits="userSpaceOnUse"
       id="clipPath16"><path
         d="M 0,512 512,512 512,0 0,0 0,512 z"
         id="path18" /></clipPath><clipPath
       clipPathUnits="userSpaceOnUse"
       id="clipPath36"><path
         d="M 0,512 512,512 512,0 0,0 0,512 z"
         id="path38" /></clipPath></defs><sodipodi:namedview
     pagecolor="#ffffff"
     bordercolor="#666666"
     borderopacity="1"
     objecttolerance="10"
     gridtolerance="10"
     guidetolerance="10"
     inkscape:pageopacity="0"
     inkscape:pageshadow="2"
     inkscape:window-width="684"
     inkscape:window-height="480"
     id="namedview4"
     showgrid="false"
     inkscape:zoom="0.36875"
     inkscape:cx="320"
     inkscape:cy="320"
     inkscape:window-x="923"
     inkscape:window-y="193"
     inkscape:window-maximized="0"
     inkscape:current-layer="g10" /><g
     id="g10"
     inkscape:groupmode="layer"
     inkscape:label="人物"
     transform="matrix(1.25,0,0,-1.25,0,640)"><g
       id="g12"><g
         id="g14"
         clip-path="url(#clipPath16)"><path
           d="m 1024,-512 -512,0 0,512 512,0 0,-512 z"
           style="fill:#ffffff;fill-opacity:1;fill-rule:nonzero;stroke:none"
           id="path20" /><path
           d="m 1024,0 -512,0 0,512 512,0 0,-512 z"
           style="fill:#ffffff;fill-opacity:1;fill-rule:nonzero;stroke:none"
           id="path22" /></g></g><path
       d="M 0,0 512,0 512,512 0,512 0,0 z"
       style="fill:#494c54;fill-opacity:1;fill-rule:nonzero;stroke:none"
       id="path24" /><g
       id="g26"
       transform="translate(0,512.0001)"><path
         d="M 0,0 0,-512 0,0 z"
         style="fill:#ffffff;fill-opacity:1;fill-rule:nonzero;stroke:none"
         id="path28" /></g><path
       d="M 0,0 512,0 0,0 z"
       style="fill:#ffffff;fill-opacity:1;fill-rule:nonzero;stroke:none"
       id="path30" /><g
       id="g32"><g
         id="g34"
         clip-path="url(#clipPath36)"><g
           id="g40"
           transform="translate(456,256)"><path
             d="m 0,0 c 0,-110.457 -89.543,-200 -200,-200 -110.457,0 -200,89.543 -200,200 0,110.457 89.543,200 200,200 C -89.543,200 0,110.457 0,0"
             style="fill:#da4453;fill-opacity:1;fill-rule:nonzero;stroke:none"
             id="path42" /></g><g
           id="g44"
           transform="translate(372.668,153.2109)"><path
             d="m 0,0 c -7.353,6.355 -19.364,14.563 -30.666,15.666 -7.258,0.709 -86.002,13 -86.002,13 0,0 -78.744,-12.291 -86.002,-13 -11.302,-1.103 -23.313,-9.311 -30.666,-15.666 -13.417,-11.598 -20.781,-25.84 -24.795,-38.711 36.195,-36.219 86.213,-58.621 141.463,-58.621 55.25,0 105.268,22.402 141.463,58.621 C 20.781,-25.84 13.417,-11.598 0,0"
             style="fill:#434a54;fill-opacity:1;fill-rule:nonzero;stroke:none"
             id="path46" /></g><g
           id="g48"
           transform="translate(229.0566,176.6445)"><path
             d="m 0,0 -3.025,16.465 c -4.22,1.055 -22.441,4.68 -23.031,-11.233 -0.667,-17.998 51.999,-58.998 51.999,-58.998 L 15.654,-28.129 C 2.475,-20.687 0,0 0,0"
             style="fill:#434a54;fill-opacity:1;fill-rule:nonzero;stroke:none"
             id="path50" /></g><g
           id="g52"
           transform="translate(280.9434,176.6445)"><path
             d="m 0,0 3.025,16.465 c 4.22,1.055 22.441,4.68 23.031,-11.233 0.667,-17.998 -51.999,-58.998 -51.999,-58.998 l 10.289,25.637 C -2.475,-20.687 0,0 0,0"
             style="fill:#434a54;fill-opacity:1;fill-rule:nonzero;stroke:none"
             id="path54" /></g><g
           id="g56"
           transform="translate(348,174.8789)"><path
             d="m 0,0 c -5.5,18.5 -27.955,10.777 -27.955,10.777 -10.543,22.401 -33.758,11.485 -35.492,10.631 l -0.584,-3.178 c 4.219,1.055 22.44,4.68 23.03,-11.232 C -40.334,-11 -93,-52 -93,-52 c 0,0 -52.666,41 -51.999,58.998 0.59,15.912 18.811,12.287 23.03,11.232 l -0.584,3.178 c -1.734,0.854 -24.949,11.77 -35.492,-10.631 0,0 -22.455,7.723 -27.955,-10.777 0,0 -17,3.221 -17.5,-10.867 -0.5,-14.088 110.445,-47.012 110.445,-47.012 l 0.11,0 c 0,0 110.945,32.924 110.445,47.012 C 17,3.221 0,0 0,0"
             style="fill:#656d78;fill-opacity:1;fill-rule:nonzero;stroke:none"
             id="path58" /></g><g
           id="g60"
           transform="translate(243.375,125.5039)"><path
             d="m 0,0 c 0,-1.656 -1.344,-3 -3,-3 -1.656,0 -3,1.344 -3,3 0,1.656 1.344,3 3,3 1.656,0 3,-1.344 3,-3"
             style="fill:#434a54;fill-opacity:1;fill-rule:nonzero;stroke:none"
             id="path62" /></g><g
           id="g64"
           transform="translate(268.625,125.5039)"><path
             d="M 0,0 C 0,-1.656 1.344,-3 3,-3 4.656,-3 6,-1.656 6,0 6,1.656 4.656,3 3,3 1.344,3 0,1.656 0,0"
             style="fill:#434a54;fill-opacity:1;fill-rule:nonzero;stroke:none"
             id="path66" /></g><g
           id="g68"
           transform="translate(273,125)"><path
             d="m 0,0 0,-89 c 0,-2 -3,-2 -3,0 l 0,89 c 0,2 3,2 3,0 0,0 0,2 0,0"
             style="fill:#e6e9ed;fill-opacity:1;fill-rule:nonzero;stroke:none"
             id="path70" /></g><g
           id="g72"
           transform="translate(239,125)"><path
             d="m 0,0 0,-89 c 0,-2 3,-2 3,0 L 3,0 C 3,2 0,2 0,0 0,0 0,2 0,0"
             style="fill:#e6e9ed;fill-opacity:1;fill-rule:nonzero;stroke:none"
             id="path74" /></g><g
           id="g76"
           transform="translate(255,259.8789)"><path
             d="m 0,0 -42.25,5.5 16.307,-88.734 c 0,0 3.666,-30.766 25.943,-30.766 22.277,0 25.943,30.766 25.943,30.766 L 42.25,5.5 0,0 z"
             style="fill:#ab7049;fill-opacity:1;fill-rule:nonzero;stroke:none"
             id="path78" /></g><g
           id="g80"
           transform="translate(289,250.3789)"><path
             d="m 0,0 -69.525,-21.592 7.086,-38.556 c 10.66,-13.145 26.918,-25.186 50.957,-26.264 2.709,6.691 3.425,12.678 3.425,12.678 L 4.07,-7.744 C 1.686,-2.947 0,0 0,0"
             style="fill:#8c5c3c;fill-opacity:1;fill-rule:nonzero;stroke:none"
             id="path82" /></g><g
           id="g84"
           transform="translate(193,296.3789)"><path
             d="M 0,0 C 0,0 -21.309,13.5 -19.104,-14.5 -16.9,-42.5 0,-40.5 0,-40.5 L 0,0 z"
             style="fill:#ab7049;fill-opacity:1;fill-rule:nonzero;stroke:none"
             id="path86" /></g><g
           id="g88"
           transform="translate(319,296.3789)"><path
             d="M 0,0 C 0,0 21.31,13.5 19.104,-14.5 16.9,-42.5 0,-40.5 0,-40.5 L 0,0 z"
             style="fill:#ab7049;fill-opacity:1;fill-rule:nonzero;stroke:none"
             id="path90" /></g><g
           id="g92"
           transform="translate(256,368.6172)"><path
             d="m 0,0 c -63,0 -63,-34.738 -63,-34.738 l 0,-80 c 0,-20.5 19.237,-36.287 35.226,-50 13.408,-11.5 27.774,-11 27.774,-11 0,0 14.366,-0.5 27.774,11 15.989,13.713 35.226,29.5 35.226,50 l 0,80 C 63,-34.738 63,0 0,0"
             style="fill:#ba7a50;fill-opacity:1;fill-rule:nonzero;stroke:none"
             id="path94" /></g><g
           id="g96"
           transform="translate(319.4727,255.8789)"><path
             d="m 0,0 c 0,0 -17.453,-44.584 -43.119,-42.25 l -6.843,8.957 c 0,0 6.962,-21.375 -13.038,-21.375 -20,0 -13.038,21.375 -13.038,21.375 l -6.843,-8.957 C -108.547,-44.584 -126,0 -126,0 -127.431,-40.166 -75.666,-61.668 -75.666,-61.668 -68.314,-66.668 -63,-69 -63,-69 c 0,0 5.314,2.332 12.666,7.332 0,0 51.765,21.502 50.334,61.668"
             style="fill:#434a54;fill-opacity:1;fill-rule:nonzero;stroke:none"
             id="path98" /></g><g
           id="g100"
           transform="translate(302.1387,256.2109)"><path
             d="m 0,0 c -21.099,0 -35.999,12.605 -40.881,34.584 -0.386,1.734 -2.934,3.141 -4.788,3.844 -1.84,-0.699 -4.396,-2.108 -4.782,-3.844 C -55.333,12.605 -70.233,0 -91.332,0 c -10.593,0 -16.288,4.674 -19.202,8.594 -9.406,12.66 -3.358,34.002 -2.637,36.392 l 0.704,2.34 2.279,0.881 c 0.963,0.373 24.054,9.127 64.522,9.127 40.468,0 63.559,-8.754 64.521,-9.127 l 2.28,-0.881 0.704,-2.34 C 22.56,42.596 28.608,21.254 19.202,8.594 16.288,4.674 10.593,0 0,0"
             style="fill:#434a54;fill-opacity:1;fill-rule:nonzero;stroke:none"
             id="path102" /></g><g
           id="g104"
           transform="translate(261,313.4941)"><path
             d="M 0,0 C -1,0.029 -3.299,0.051 -5,0.051 -6.701,0.051 -8,0.029 -10,0 l 0,-23.596 c 1,0.299 0.384,0.594 0.451,0.897 0.386,1.736 3.061,3.144 4.901,3.844 1.853,-0.704 4.224,-2.11 4.611,-3.844 C 0.029,-23.002 0,-23.297 0,-23.596 L 0,0 z"
             style="fill:#656d78;fill-opacity:1;fill-rule:nonzero;stroke:none"
             id="path106" /></g><g
           id="g108"
           transform="translate(319.1904,299.7559)"><path
             d="m 0,0 c 0,0 -22.718,8.789 -62.718,8.789 -40,0 -62.718,-8.789 -62.718,-8.789 0,0 -11.614,-38.545 17.052,-38.545 28.666,0 34.667,24.666 36,30.668 1.333,6 9.666,8 9.666,8 0,0 8.333,-2 9.666,-8 1.333,-6.002 7.334,-30.668 36,-30.668 C 11.614,-38.545 0,0 0,0"
             style="fill:#f6bb42;fill-opacity:1;fill-rule:nonzero;stroke:none"
             id="path110" /></g><g
           id="g112"
           transform="translate(202.498,302.3926)"><path
             d="m 0,0 -10.865,-23.072 c 0.687,-6.752 3.27,-13.309 9.987,-16.348 L 19.477,3.807 C 11.237,2.633 4.701,1.211 0,0"
             style="fill:#ffce54;fill-opacity:1;fill-rule:nonzero;stroke:none"
             id="path114" /></g><g
           id="g116"
           transform="translate(231.3477,307.3262)"><path
             d="m 0,0 -21.703,-46.09 c 0.381,-0.014 0.766,-0.025 1.162,-0.025 2.434,0 4.691,0.191 6.809,0.519 L 8.051,0.666 C 5.245,0.48 2.565,0.256 0,0"
             style="fill:#ffd56b;fill-opacity:1;fill-rule:nonzero;stroke:none"
             id="path118" /></g><g
           id="g120"
           transform="translate(277.0156,307.7402)"><path
             d="m 0,0 -9.649,-20.492 c 1.469,-4.686 4.301,-11.303 9.821,-16.699 L 16.763,-1.959 C 11.839,-1.189 6.24,-0.498 0,0"
             style="fill:#ffce54;fill-opacity:1;fill-rule:nonzero;stroke:none"
             id="path122" /></g><g
           id="g124"
           transform="translate(301.9365,304.3281)"><path
             d="m 0,0 -18.211,-38.674 c 1.933,-1.09 4.065,-2.031 6.439,-2.758 L 7.005,-1.557 C 4.962,-1.053 2.624,-0.525 0,0"
             style="fill:#ffd56b;fill-opacity:1;fill-rule:nonzero;stroke:none"
             id="path126" /></g><g
           id="g128"
           transform="translate(342.6797,451.2227)"><path
             d="m 0,0 c -12.515,13.184 -29.687,22.047 -49.217,23.779 -14.977,1.328 -29.328,-1.72 -41.81,-8.066 -10.474,6.322 -22.507,10.428 -35.515,11.582 -45.66,4.051 -85.96,-29.68 -90.012,-75.34 -0.599,-6.76 -0.352,-13.396 0.62,-19.82 -9.375,-9.115 -15.663,-21.492 -16.91,-35.539 -1.447,-16.315 4.189,-31.617 14.354,-42.891 -0.973,-28.805 20.744,-53.674 49.802,-56.252 6.648,-0.59 13.122,0.04 19.206,1.699 -0.125,1.153 -0.198,2.32 -0.198,3.504 l 0,2 c 0,0 -16.9,-2 -19.104,26 -2.204,28 19.104,14.5 19.104,14.5 l 0,23.837 c 6.044,2.3 10.201,8.286 9.861,15.093 -0.095,1.883 -0.54,3.66 -1.245,5.295 0.214,0.004 0.428,0.006 0.645,0.015 5.288,0.266 10.036,2.409 13.638,5.749 8.066,-10.327 20.855,-16.704 34.935,-15.999 14.328,0.717 26.6,8.594 33.534,19.991 5.593,-5.592 13.438,-8.887 21.958,-8.461 2.554,0.129 5.012,0.586 7.34,1.324 1.095,-1.996 2.569,-3.744 4.327,-5.152 -0.229,-1.246 -0.334,-2.532 -0.268,-3.852 0.099,-1.976 0.556,-3.845 1.275,-5.571 l 0,-32.269 c 0,0 21.309,13.5 19.105,-14.5 -2.204,-28 -19.105,-26 -19.105,-26 l 0,-2 c 0,-4.832 -1.068,-9.398 -2.896,-13.74 9.113,1.035 16.935,6.897 20.542,15.178 21.593,1.291 39.57,18.215 41.54,40.412 0.686,7.738 -0.659,15.183 -3.588,21.822 3.554,5.766 5.986,12.332 6.95,19.428 11.623,10.734 19.45,25.654 20.959,42.656 C 63.047,-35.301 36.27,-3.273 0,0"
             style="fill:#434a54;fill-opacity:1;fill-rule:nonzero;stroke:none"
             id="path130" /></g><g
           id="g132"
           transform="translate(120.8359,317.8184)"><path
             d="m 0,0 c 1.247,14.047 7.535,26.424 16.91,35.539 -0.972,6.424 -1.22,13.061 -0.62,19.82 4.052,45.661 44.352,79.391 90.012,75.34 13.008,-1.154 25.041,-5.26 35.514,-11.582 12.483,6.346 26.833,9.395 41.811,8.067 19.529,-1.733 36.702,-10.596 49.217,-23.78 20.51,-1.851 37.98,-12.902 48.711,-28.715 -3.259,30.706 -27.808,55.836 -59.711,58.715 -12.515,13.184 -29.688,22.047 -49.217,23.78 -14.978,1.328 -29.328,-1.721 -41.811,-8.067 -10.473,6.322 -22.506,10.428 -35.514,11.582 C 49.642,164.75 9.342,131.02 5.29,85.359 4.69,78.6 4.937,71.963 5.91,65.539 -3.465,56.424 -9.753,44.047 -11,30 -12.273,15.643 -8.058,2.072 -0.102,-8.66 -0.282,-5.818 -0.26,-2.926 0,0"
             style="fill:#656d78;fill-opacity:1;fill-rule:nonzero;stroke:none"
             id="path134" /></g><g
           id="g136"
           transform="translate(195.0937,375.8984)"><path
             d="m 0,0 c 2.938,0.146 5.769,-0.301 8.377,-1.234 0.789,2.98 1.908,5.83 3.306,8.515 C 9.558,7.85 7.314,8.115 5,8 -4.048,7.547 -11.516,1.605 -14.354,-6.439 -10.678,-2.705 -5.646,-0.283 0,0"
             style="fill:#656d78;fill-opacity:1;fill-rule:nonzero;stroke:none"
             id="path138" /></g><g
           id="g140"
           transform="translate(345.4111,347.5293)"><path
             d="m 0,0 c 0.36,1.531 0.527,3.137 0.444,4.787 -0.372,7.422 -5.414,13.488 -12.132,15.543 0.15,1.457 0.192,2.945 0.117,4.453 -0.802,15.996 -14.418,28.315 -30.415,27.514 -7.062,-0.354 -13.405,-3.207 -18.219,-7.658 -7.467,13.461 -22.129,22.252 -38.54,21.431 -15.836,-0.793 -29.152,-10.334 -35.531,-23.705 7.19,9.047 18.081,15.082 30.531,15.705 16.411,0.821 31.073,-7.97 38.54,-21.431 4.814,4.451 11.157,7.304 18.219,7.658 15.997,0.801 29.613,-11.518 30.415,-27.514 0.075,-1.508 0.033,-2.996 -0.117,-4.453 C -9.97,10.275 -4.928,4.209 -4.556,-3.213 -4.473,-4.863 -4.64,-6.469 -5,-8 c 3.24,-2.867 5.372,-6.98 5.605,-11.643 0.092,-1.839 -0.129,-3.617 -0.597,-5.298 3.652,3.24 5.86,8.043 5.597,13.298 C 5.372,-6.98 3.24,-2.867 0,0"
             style="fill:#656d78;fill-opacity:1;fill-rule:nonzero;stroke:none"
             id="path142" /></g></g></g></g></svg>