<?xml version="1.0" encoding="UTF-8" standalone="no"?>
<!-- Created with Inkscape (http://www.inkscape.org/) -->

<svg
   xmlns:dc="http://purl.org/dc/elements/1.1/"
   xmlns:cc="http://creativecommons.org/ns#"
   xmlns:rdf="http://www.w3.org/1999/02/22-rdf-syntax-ns#"
   xmlns:svg="http://www.w3.org/2000/svg"
   xmlns="http://www.w3.org/2000/svg"
   xmlns:sodipodi="http://sodipodi.sourceforge.net/DTD/sodipodi-0.dtd"
   xmlns:inkscape="http://www.inkscape.org/namespaces/inkscape"
   id="svg2"
   version="1.1"
   inkscape:version="0.48.5 r10040"
   width="640"
   height="640"
   xml:space="preserve"
   sodipodi:docname="人物.ai"><metadata
     id="metadata8"><rdf:RDF><cc:Work
         rdf:about=""><dc:format>image/svg+xml</dc:format><dc:type
           rdf:resource="http://purl.org/dc/dcmitype/StillImage" /><dc:title></dc:title></cc:Work></rdf:RDF></metadata><defs
     id="defs6"><clipPath
       clipPathUnits="userSpaceOnUse"
       id="clipPath24"><path
         d="M 0,512 512,512 512,0 0,0 0,512 z"
         id="path26" /></clipPath></defs><sodipodi:namedview
     pagecolor="#ffffff"
     bordercolor="#666666"
     borderopacity="1"
     objecttolerance="10"
     gridtolerance="10"
     guidetolerance="10"
     inkscape:pageopacity="0"
     inkscape:pageshadow="2"
     inkscape:window-width="684"
     inkscape:window-height="480"
     id="namedview4"
     showgrid="false"
     inkscape:zoom="0.36875"
     inkscape:cx="320"
     inkscape:cy="320"
     inkscape:window-x="0"
     inkscape:window-y="25"
     inkscape:window-maximized="0"
     inkscape:current-layer="g10" /><g
     id="g10"
     inkscape:groupmode="layer"
     inkscape:label="人物"
     transform="matrix(1.25,0,0,-1.25,0,640)"><path
       d="M 0,0 512,0 0,0 z"
       style="fill:#ffffff;fill-opacity:1;fill-rule:nonzero;stroke:none"
       id="path12" /><path
       d="M 0,0 512,0 512,512 0,512 0,0 z"
       style="fill:#ffffff;fill-opacity:1;fill-rule:nonzero;stroke:none"
       id="path14" /><g
       id="g16"
       transform="translate(0,512.0001)"><path
         d="M 0,0 0,-512 0,0 z"
         style="fill:#ffffff;fill-opacity:1;fill-rule:nonzero;stroke:none"
         id="path18" /></g><g
       id="g20"><g
         id="g22"
         clip-path="url(#clipPath24)"><g
           id="g28"
           transform="translate(456,256)"><path
             d="m 0,0 c 0,-110.457 -89.543,-200 -200,-200 -110.457,0 -200,89.543 -200,200 0,110.457 89.543,200 200,200 C -89.543,200 0,110.457 0,0"
             style="fill:#967adc;fill-opacity:1;fill-rule:nonzero;stroke:none"
             id="path30" /></g><g
           id="g32"
           transform="translate(256,259.8789)"><path
             d="m 0,0 -42.25,5.5 16.307,-88.734 c 0,0 3.666,-30.766 25.943,-30.766 22.277,0 25.943,30.766 25.943,30.766 L 42.25,5.5 0,0 z"
             style="fill:#f9e0a8;fill-opacity:1;fill-rule:nonzero;stroke:none"
             id="path34" /></g><g
           id="g36"
           transform="translate(290,250.3789)"><path
             d="m 0,0 -69.525,-21.592 7.086,-38.556 c 10.66,-13.145 26.918,-25.186 50.957,-26.264 2.709,6.691 3.425,12.678 3.425,12.678 L 4.07,-7.744 C 1.686,-2.947 0,0 0,0"
             style="fill:#d9c392;fill-opacity:1;fill-rule:nonzero;stroke:none"
             id="path38" /></g><g
           id="g40"
           transform="translate(372.668,153.2109)"><path
             d="m 0,0 c -7.353,6.355 -19.364,14.563 -30.666,15.666 -4.147,0.406 -31.615,4.59 -54.412,8.104 l -3.96,8.675 c -2.667,-2.668 -6.026,-4.845 -9.475,-6.599 -8.786,-4.469 -18.155,-6.178 -18.155,-6.178 0,0 -9.369,1.709 -18.155,6.178 -3.448,1.754 -6.808,3.931 -9.475,6.599 l -3.96,-8.675 c -22.797,-3.514 -50.265,-7.698 -54.412,-8.104 -11.302,-1.103 -23.313,-9.311 -30.666,-15.666 -13.417,-11.598 -20.781,-25.84 -24.795,-38.711 36.195,-36.219 86.213,-58.621 141.463,-58.621 55.25,0 105.268,22.402 141.463,58.621 C 20.781,-25.84 13.417,-11.598 0,0"
             style="fill:#48cfad;fill-opacity:1;fill-rule:nonzero;stroke:none"
             id="path42" /></g><g
           id="g44"
           transform="translate(259.2383,65.4023)"><path
             d="m 0,0 c 26.753,22.74 32.602,99.848 33.303,110.816 -1.667,0.256 -3.322,0.51 -4.951,0.762 l -3.96,8.676 c -2.667,-2.668 -6.027,-4.846 -9.475,-6.6 -8.786,-4.468 -18.155,-6.177 -18.155,-6.177 0,0 -9.369,1.709 -18.156,6.177 -3.448,1.754 -6.807,3.932 -9.474,6.6 l -3.96,-8.676 c -1.63,-0.252 -3.284,-0.506 -4.951,-0.762 C -39.078,99.848 -33.229,22.74 -6.477,0 L -3.238,-2.754 0,0 z"
             style="fill:#3aa68b;fill-opacity:1;fill-rule:nonzero;stroke:none"
             id="path46" /></g><g
           id="g48"
           transform="translate(283.6299,185.6562)"><path
             d="m 0,0 c -2.667,-2.668 -6.026,-4.846 -9.475,-6.6 -8.786,-4.468 -18.155,-6.177 -18.155,-6.177 0,0 -9.369,1.709 -18.155,6.177 -3.448,1.754 -6.808,3.932 -9.475,6.6 l -3.951,-8.656 c 0.23,-3.742 5.525,-85.641 31.581,-107.789 C -1.574,-94.297 3.722,-12.398 3.951,-8.656 L 0,0 z"
             style="fill:#e6e9ed;fill-opacity:1;fill-rule:nonzero;stroke:none"
             id="path50" /></g><g
           id="g52"
           transform="translate(245.834,139.5449)"><path
             d="m 0,0 -21.415,37.455 3.951,8.656 c 0,0 19.796,-10.945 27.63,-12.777 L 0,0 z"
             style="fill:#f5f7fa;fill-opacity:1;fill-rule:nonzero;stroke:none"
             id="path54" /></g><g
           id="g56"
           transform="translate(266.166,139.5449)"><path
             d="m 0,0 21.415,37.455 -3.951,8.656 c 0,0 -19.796,-10.945 -27.63,-12.777 L 0,0 z"
             style="fill:#f5f7fa;fill-opacity:1;fill-rule:nonzero;stroke:none"
             id="path58" /></g><g
           id="g60"
           transform="translate(193,296.3789)"><path
             d="M 0,0 C 0,0 -21.309,13.5 -19.104,-14.5 -16.9,-42.5 0,-40.5 0,-40.5 L 0,0 z"
             style="fill:#f9e0a8;fill-opacity:1;fill-rule:nonzero;stroke:none"
             id="path62" /></g><g
           id="g64"
           transform="translate(319,296.3789)"><path
             d="M 0,0 C 0,0 21.31,13.5 19.104,-14.5 16.9,-42.5 0,-40.5 0,-40.5 L 0,0 z"
             style="fill:#f9e0a8;fill-opacity:1;fill-rule:nonzero;stroke:none"
             id="path66" /></g><g
           id="g68"
           transform="translate(256,368.6172)"><path
             d="m 0,0 c -63,0 -63,-34.738 -63,-34.738 l 0,-80 c 0,-20.5 19.237,-36.287 35.226,-50 13.408,-11.5 27.774,-11 27.774,-11 0,0 14.366,-0.5 27.774,11 15.989,13.713 35.226,29.5 35.226,50 l 0,80 C 63,-34.738 63,0 0,0"
             style="fill:#ffe9ba;fill-opacity:1;fill-rule:nonzero;stroke:none"
             id="path70" /></g><g
           id="g72"
           transform="translate(257.4727,250.3789)"><path
             d="m 0,0 c -49,0 -29.373,-55.068 -23,-54 6.373,1.068 -1,24.5 -0.5,32 0.5,7.5 23.5,6 23.5,6 0,0 23,1.5 23.5,-6 C 24,-29.5 16.627,-52.932 23,-54 29.373,-55.068 49,0 0,0"
             style="fill:#f5f7fa;fill-opacity:1;fill-rule:nonzero;stroke:none"
             id="path74" /></g><g
           id="g76"
           transform="translate(193.5391,331.8789)"><path
             d="m 0,0 c -24.742,-20.092 -2.663,-39.813 -0.444,-41.673 0.111,-0.35 -0.095,-0.55 -0.095,-0.55 l 0,-26.795 c 0,0 15.683,-3.031 3.167,29.396 C 16.699,-26.7 0,0 0,0"
             style="fill:#f5f7fa;fill-opacity:1;fill-rule:nonzero;stroke:none"
             id="path78" /></g><g
           id="g80"
           transform="translate(319.5391,331.8789)"><path
             d="m 0,0 c 24.744,-20.092 2.124,-39.813 -0.095,-41.673 -0.111,-0.35 -0.444,-0.55 -0.444,-0.55 l 0,-26.795 c 0,0 -15.144,-3.031 -2.628,29.396 C -17.238,-26.7 0,0 0,0"
             style="fill:#f5f7fa;fill-opacity:1;fill-rule:nonzero;stroke:none"
             id="path82" /></g></g></g></g></svg>