<?xml version="1.0" encoding="UTF-8" standalone="no"?>
<!-- Created with Inkscape (http://www.inkscape.org/) -->

<svg
   xmlns:dc="http://purl.org/dc/elements/1.1/"
   xmlns:cc="http://creativecommons.org/ns#"
   xmlns:rdf="http://www.w3.org/1999/02/22-rdf-syntax-ns#"
   xmlns:svg="http://www.w3.org/2000/svg"
   xmlns="http://www.w3.org/2000/svg"
   xmlns:sodipodi="http://sodipodi.sourceforge.net/DTD/sodipodi-0.dtd"
   xmlns:inkscape="http://www.inkscape.org/namespaces/inkscape"
   id="svg2"
   version="1.1"
   inkscape:version="0.48.5 r10040"
   width="640"
   height="640"
   xml:space="preserve"
   sodipodi:docname="人物.ai"><metadata
     id="metadata8"><rdf:RDF><cc:Work
         rdf:about=""><dc:format>image/svg+xml</dc:format><dc:type
           rdf:resource="http://purl.org/dc/dcmitype/StillImage" /><dc:title></dc:title></cc:Work></rdf:RDF></metadata><defs
     id="defs6"><clipPath
       clipPathUnits="userSpaceOnUse"
       id="clipPath16"><path
         d="M 0,512 512,512 512,0 0,0 0,512 z"
         id="path18" /></clipPath><clipPath
       clipPathUnits="userSpaceOnUse"
       id="clipPath28"><path
         d="M 0,512 512,512 512,0 0,0 0,512 z"
         id="path30" /></clipPath><clipPath
       clipPathUnits="userSpaceOnUse"
       id="clipPath44"><path
         d="M 0,512 512,512 512,0 0,0 0,512 z"
         id="path46" /></clipPath></defs><sodipodi:namedview
     pagecolor="#ffffff"
     bordercolor="#666666"
     borderopacity="1"
     objecttolerance="10"
     gridtolerance="10"
     guidetolerance="10"
     inkscape:pageopacity="0"
     inkscape:pageshadow="2"
     inkscape:window-width="684"
     inkscape:window-height="480"
     id="namedview4"
     showgrid="false"
     inkscape:zoom="0.36875"
     inkscape:cx="320"
     inkscape:cy="320"
     inkscape:window-x="0"
     inkscape:window-y="25"
     inkscape:window-maximized="0"
     inkscape:current-layer="g10" /><g
     id="g10"
     inkscape:groupmode="layer"
     inkscape:label="人物"
     transform="matrix(1.25,0,0,-1.25,0,640)"><g
       id="g12"><g
         id="g14"
         clip-path="url(#clipPath16)"><path
           d="m 1024,-512 -512,0 0,512 512,0 0,-512 z"
           style="fill:#ffffff;fill-opacity:1;fill-rule:nonzero;stroke:none"
           id="path20" /></g></g><path
       d="M 0,0 512,0 0,0 z"
       style="fill:#ffffff;fill-opacity:1;fill-rule:nonzero;stroke:none"
       id="path22" /><g
       id="g24"><g
         id="g26"
         clip-path="url(#clipPath28)"><path
           d="m 1024,512 -512,0 0,512 512,0 0,-512 z"
           style="fill:#ffffff;fill-opacity:1;fill-rule:nonzero;stroke:none"
           id="path32" /><path
           d="m 512,512 -512,0 0,512 512,0 0,-512 z"
           style="fill:#ffffff;fill-opacity:1;fill-rule:nonzero;stroke:none"
           id="path34" /><path
           d="m 1024,0 -512,0 0,512 512,0 0,-512 z"
           style="fill:#ffffff;fill-opacity:1;fill-rule:nonzero;stroke:none"
           id="path36" /></g></g><path
       d="M 0,0 512,0 512,512 0,512 0,0 z"
       style="fill:#ffffff;fill-opacity:1;fill-rule:nonzero;stroke:none"
       id="path38" /><g
       id="g40"><g
         id="g42"
         clip-path="url(#clipPath44)"><g
           id="g48"
           transform="translate(456,256)"><path
             d="m 0,0 c 0,-110.457 -89.543,-200 -200,-200 -110.457,0 -200,89.543 -200,200 0,110.457 89.543,200 200,200 C -89.543,200 0,110.457 0,0"
             style="fill:#3db093;fill-opacity:1;fill-rule:nonzero;stroke:none"
             id="path50" /></g><g
           id="g52"
           transform="translate(256.4727,259)"><path
             d="m 0,0 -42.25,5.5 16.307,-88.734 c 0,0 3.666,-30.766 25.943,-30.766 22.277,0 25.943,30.766 25.943,30.766 L 42.25,5.5 0,0 z"
             style="fill:#f9e0a8;fill-opacity:1;fill-rule:nonzero;stroke:none"
             id="path54" /></g><g
           id="g56"
           transform="translate(290.4727,249.5)"><path
             d="m 0,0 -69.525,-21.592 7.086,-38.555 c 10.66,-13.146 26.918,-25.187 50.957,-26.265 2.709,6.691 3.425,12.678 3.425,12.678 L 4.07,-7.744 C 1.686,-2.947 0,0 0,0"
             style="fill:#d9c392;fill-opacity:1;fill-rule:nonzero;stroke:none"
             id="path58" /></g><g
           id="g60"
           transform="translate(373.1406,152.333)"><path
             d="m 0,0 c -4.934,4.265 -11.967,9.353 -19.473,12.579 -3.681,1.582 -7.474,2.724 -11.193,3.087 -2.043,0.199 -9.75,1.317 -19.771,2.819 -11.352,1.702 -25.67,3.899 -38.09,5.815 0.618,4.043 0.868,7.991 -0.749,7.015 -4.393,-2.649 -27.392,-1.649 -27.392,-1.649 0,0 -22.999,-1 -27.392,1.649 -1.617,0.976 -1.367,-2.972 -0.749,-7.015 -12.42,-1.916 -26.738,-4.113 -38.09,-5.815 -10.021,-1.502 -17.728,-2.62 -19.771,-2.819 -3.719,-0.363 -7.512,-1.505 -11.193,-3.087 -7.506,-3.226 -14.539,-8.314 -19.473,-12.579 -13.417,-11.598 -20.781,-25.84 -24.795,-38.712 36.196,-36.218 86.213,-58.621 141.463,-58.621 55.25,0 105.267,22.403 141.463,58.621 C 20.781,-25.84 13.417,-11.598 0,0"
             style="fill:#434a54;fill-opacity:1;fill-rule:nonzero;stroke:none"
             id="path62" /></g><g
           id="g64"
           transform="translate(139.8047,137.333)"><path
             d="m 0,0 c 4.934,4.265 11.967,9.353 19.473,12.579 3.681,1.582 7.474,2.724 11.193,3.087 2.043,0.199 9.75,1.317 19.771,2.819 11.352,1.702 25.67,3.899 38.09,5.815 -0.618,4.043 -1.617,15.975 0,15 4.393,-2.65 51.889,-2.65 56.282,0 1.617,0.975 0.618,-10.957 0,-15 12.42,-1.916 26.738,-4.113 38.09,-5.815 10.021,-1.502 17.728,-2.62 19.771,-2.819 3.719,-0.363 7.512,-1.505 11.193,-3.087 7.506,-3.226 14.539,-8.314 19.473,-12.579 9.694,-8.38 16.217,-18.14 20.61,-27.766 1.412,1.333 2.812,2.681 4.185,4.054 -4.014,12.872 -11.378,27.114 -24.795,38.712 -4.934,4.265 -11.967,9.353 -19.473,12.579 -3.681,1.582 -7.474,2.724 -11.193,3.087 -2.043,0.199 -9.75,1.317 -19.771,2.819 -11.352,1.703 -25.67,3.899 -38.09,5.815 0.618,4.043 0.868,7.991 -0.749,7.015 -4.393,-2.649 -27.392,-1.649 -27.392,-1.649 0,0 -22.999,-1 -27.392,1.649 C 87.659,47.291 87.909,43.343 88.527,39.3 76.107,37.384 61.789,35.188 50.437,33.485 40.416,31.983 32.709,30.865 30.666,30.666 26.947,30.303 23.154,29.161 19.473,27.579 11.967,24.353 4.934,19.265 0,15 -13.417,3.402 -20.781,-10.84 -24.795,-23.712 c 1.373,-1.373 2.773,-2.721 4.185,-4.054 C -16.217,-18.14 -9.694,-8.38 0,0"
             style="fill:#656d78;fill-opacity:1;fill-rule:nonzero;stroke:none"
             id="path66" /></g><g
           id="g68"
           transform="translate(193,296.3789)"><path
             d="M 0,0 C 0,0 -21.309,13.5 -19.104,-14.5 -16.9,-42.5 0,-40.5 0,-40.5 L 0,0 z"
             style="fill:#f9e0a8;fill-opacity:1;fill-rule:nonzero;stroke:none"
             id="path70" /></g><g
           id="g72"
           transform="translate(319,296.3789)"><path
             d="M 0,0 C 0,0 21.31,13.5 19.104,-14.5 16.9,-42.5 0,-40.5 0,-40.5 L 0,0 z"
             style="fill:#f9e0a8;fill-opacity:1;fill-rule:nonzero;stroke:none"
             id="path74" /></g><g
           id="g76"
           transform="translate(256,368.6172)"><path
             d="m 0,0 c -63,0 -63,-34.738 -63,-34.738 l 0,-80 c 0,-20.5 19.237,-36.287 35.226,-50 13.408,-11.5 27.774,-11 27.774,-11 0,0 14.366,-0.5 27.774,11 15.989,13.713 35.226,29.5 35.226,50 l 0,80 C 63,-34.738 63,0 0,0"
             style="fill:#ffe9ba;fill-opacity:1;fill-rule:nonzero;stroke:none"
             id="path78" /></g><g
           id="g80"
           transform="translate(320.6309,295.127)"><path
             d="m 0,0 -24.189,-9.623 c -2.682,5.404 -8.242,9.127 -14.686,9.127 -8.054,0 -14.74,-5.807 -16.131,-13.461 -2.427,2.203 -5.99,3.18 -9.152,3.242 -3.162,-0.062 -6.728,-1.039 -9.153,-3.242 -1.39,7.654 -8.076,13.461 -16.129,13.461 -6.445,0 -12.005,-3.723 -14.69,-9.127 L -128.316,0 l 0.062,-2.143 c 0,0 21.275,-10.312 22.613,-12.277 -0.124,-0.812 -0.208,-1.637 -0.208,-2.484 0,-9.063 7.345,-16.409 16.409,-16.409 8.917,0 16.153,7.116 16.386,15.977 1.733,3.043 5.634,4.219 8.896,4.285 3.262,-0.066 7.164,-1.242 8.895,-4.285 0.232,-8.861 7.471,-15.977 16.388,-15.977 9.063,0 16.407,7.346 16.407,16.409 0,0.847 -0.084,1.672 -0.207,2.484 1.338,1.965 22.61,12.277 22.61,12.277 L 0,0 z"
             style="fill:#656d78;fill-opacity:1;fill-rule:nonzero;stroke:none"
             id="path82" /></g><g
           id="g84"
           transform="translate(245.4551,278.2227)"><path
             d="m 0,0 c 0,-7.879 -6.388,-14.264 -14.265,-14.264 -7.88,0 -14.266,6.385 -14.266,14.264 0,7.879 6.386,14.266 14.266,14.266 C -6.388,14.266 0,7.879 0,0"
             style="fill:#f5f7fa;fill-opacity:1;fill-rule:nonzero;stroke:none"
             id="path86" /></g><g
           id="g88"
           transform="translate(267.4912,278.2227)"><path
             d="m 0,0 c 0,-7.879 6.387,-14.264 14.265,-14.264 7.879,0 14.266,6.385 14.266,14.264 0,7.879 -6.387,14.266 -14.266,14.266 C 6.387,14.266 0,7.879 0,0"
             style="fill:#f5f7fa;fill-opacity:1;fill-rule:nonzero;stroke:none"
             id="path90" /></g><g
           id="g92"
           transform="translate(231.1904,292.4883)"><path
             d="m 0,0 c -1.347,0 -2.643,-0.199 -3.878,-0.547 l -8.001,-21.615 c 1.831,-2.75 4.592,-4.82 7.833,-5.777 L 5.833,-1.256 C 4.049,-0.455 2.078,0 0,0"
             style="fill:#e8eaed;fill-opacity:1;fill-rule:nonzero;stroke:none"
             id="path94" /></g><g
           id="g96"
           transform="translate(238.4141,290.5078)"><path
             d="m 0,0 -9.74,-26.316 c 0.818,-0.145 1.656,-0.233 2.516,-0.233 1.162,0 2.286,0.153 3.37,0.416 L 4.349,-3.969 C 3.193,-2.361 1.714,-1.01 0,0"
             style="fill:#e8eaed;fill-opacity:1;fill-rule:nonzero;stroke:none"
             id="path98" /></g><g
           id="g100"
           transform="translate(281.9072,292.4883)"><path
             d="m 0,0 c -1.346,0 -2.642,-0.199 -3.876,-0.547 l -8,-21.615 c 1.832,-2.75 4.59,-4.82 7.833,-5.777 L 5.833,-1.256 C 4.052,-0.455 2.081,0 0,0"
             style="fill:#e8eaed;fill-opacity:1;fill-rule:nonzero;stroke:none"
             id="path102" /></g><g
           id="g104"
           transform="translate(289.1338,290.5078)"><path
             d="m 0,0 -9.74,-26.316 c 0.816,-0.145 1.656,-0.233 2.513,-0.233 1.164,0 2.289,0.153 3.371,0.416 L 4.346,-3.969 C 3.191,-2.361 1.711,-1.01 0,0"
             style="fill:#e8eaed;fill-opacity:1;fill-rule:nonzero;stroke:none"
             id="path106" /></g><g
           id="g108"
           transform="translate(268.6777,222.1406)"><path
             d="M 0,0 C -2.051,-3.98 -11.58,-5.27 -12.205,-5.246 -12.83,-5.27 -22.359,-3.98 -24.41,0 c -2.833,5.5 -7.962,5.231 -7.962,5.231 0,0 13.893,1.628 19.167,6.628 l 2,0 C -5.932,6.859 7.962,5.231 7.962,5.231 7.962,5.231 2.833,5.5 0,0 M 32.059,32.707 C 29.809,7.596 25.989,7.426 18.677,10.238 c 0,0 10.226,17 -30.941,17 -41.167,0 -30.97,-17 -30.97,-17 -7.313,-2.812 -11.472,-2.642 -13.722,22.469 -1.405,15.684 -18.722,13.531 -18.722,13.531 l 0,-23 c 19,-65 63,-53.5 63,-53.5 0,0 45,-11.5 63,53.5 l 0,23 c 0,0 -16.858,2.153 -18.263,-13.531"
             style="fill:#ccd1d9;fill-opacity:1;fill-rule:nonzero;stroke:none"
             id="path110" /></g><g
           id="g112"
           transform="translate(325.9727,311.6348)"><path
             d="m 0,0 c -6.5,12.244 3,28.744 -6.5,33.744 -9.5,5 -11.5,39.5 -63,39.5 -51.5,0 -53.5,-34.5 -63,-39.5 -9.5,-5 0,-21.5 -6.5,-33.744 -6.5,-12.244 6.5,-25.256 6.5,-25.256 l 8.5,-11.5 c -2.099,11.311 6.96,12.444 4,20 -22.133,56.5 26.5,69 26.5,69 3.5,-9.988 15.5,-2 15.5,-7 0,-5 8.5,-10 8.5,-10 0,0 8.5,5 8.5,10 0,5 12,-2.988 15.5,7 0,0 48.633,-12.5 26.5,-69 -2.96,-7.556 6.099,-8.689 4,-20 l 8.5,11.5 c 0,0 13,13.012 6.5,25.256"
             style="fill:#ccd1d9;fill-opacity:1;fill-rule:nonzero;stroke:none"
             id="path114" /></g></g></g></g></svg>