<?xml version="1.0" encoding="UTF-8" standalone="no"?>
<!-- Created with Inkscape (http://www.inkscape.org/) -->

<svg
   xmlns:dc="http://purl.org/dc/elements/1.1/"
   xmlns:cc="http://creativecommons.org/ns#"
   xmlns:rdf="http://www.w3.org/1999/02/22-rdf-syntax-ns#"
   xmlns:svg="http://www.w3.org/2000/svg"
   xmlns="http://www.w3.org/2000/svg"
   xmlns:sodipodi="http://sodipodi.sourceforge.net/DTD/sodipodi-0.dtd"
   xmlns:inkscape="http://www.inkscape.org/namespaces/inkscape"
   id="svg2"
   version="1.1"
   inkscape:version="0.48.5 r10040"
   width="640"
   height="640"
   xml:space="preserve"
   sodipodi:docname="7.svg"><metadata
     id="metadata8"><rdf:RDF><cc:Work
         rdf:about=""><dc:format>image/svg+xml</dc:format><dc:type
           rdf:resource="http://purl.org/dc/dcmitype/StillImage" /><dc:title /></cc:Work></rdf:RDF></metadata><defs
     id="defs6"><clipPath
       clipPathUnits="userSpaceOnUse"
       id="clipPath16"><path
         d="M 0,512 512,512 512,0 0,0 0,512 z"
         id="path18" /></clipPath><clipPath
       clipPathUnits="userSpaceOnUse"
       id="clipPath28"><path
         d="M 0,512 512,512 512,0 0,0 0,512 z"
         id="path30" /></clipPath><clipPath
       clipPathUnits="userSpaceOnUse"
       id="clipPath50"><path
         d="M 0,512 512,512 512,0 0,0 0,512 z"
         id="path52" /></clipPath></defs><sodipodi:namedview
     pagecolor="#ffffff"
     bordercolor="#666666"
     borderopacity="1"
     objecttolerance="10"
     gridtolerance="10"
     guidetolerance="10"
     inkscape:pageopacity="0"
     inkscape:pageshadow="2"
     inkscape:window-width="684"
     inkscape:window-height="480"
     id="namedview4"
     showgrid="false"
     inkscape:zoom="0.36875"
     inkscape:cx="320"
     inkscape:cy="320"
     inkscape:window-x="0"
     inkscape:window-y="25"
     inkscape:window-maximized="0"
     inkscape:current-layer="g10" /><g
     id="g10"
     inkscape:groupmode="layer"
     inkscape:label="人物"
     transform="matrix(1.25,0,0,-1.25,0,640)"><g
       id="g12"><g
         id="g14"
         clip-path="url(#clipPath16)"><path
           d="m 1024,-512 -512,0 0,512 512,0 0,-512 z"
           style="fill:#ffffff;fill-opacity:1;fill-rule:nonzero;stroke:none"
           id="path20" /></g></g><path
       d="M 0,0 512,0 0,0 z"
       style="fill:#ffffff;fill-opacity:1;fill-rule:nonzero;stroke:none"
       id="path22" /><g
       id="g24"><g
         id="g26"
         clip-path="url(#clipPath28)"><path
           d="m 1024,512 -512,0 0,512 512,0 0,-512 z"
           style="fill:#ffffff;fill-opacity:1;fill-rule:nonzero;stroke:none"
           id="path32" /><path
           d="m 512,512 -512,0 0,512 512,0 0,-512 z"
           style="fill:#ffffff;fill-opacity:1;fill-rule:nonzero;stroke:none"
           id="path34" /><path
           d="m 0,512 -512,0 0,512 512,0 0,-512 z"
           style="fill:#ffffff;fill-opacity:1;fill-rule:nonzero;stroke:none"
           id="path36" /><path
           d="m 1024,0 -512,0 0,512 512,0 0,-512 z"
           style="fill:#ffffff;fill-opacity:1;fill-rule:nonzero;stroke:none"
           id="path38" /></g></g><path
       d="M 0,0 512,0 512,512 0,512 0,0 z"
       style="fill:#dcdcdc;fill-opacity:1;fill-rule:nonzero;stroke:none"
       id="path40" /><g
       id="g42"
       transform="translate(0,512.0001)"><path
         d="M 0,0 0,-512 0,0 z"
         style="fill:#ffffff;fill-opacity:1;fill-rule:nonzero;stroke:none"
         id="path44" /></g><g
       id="g46"><g
         id="g48"
         clip-path="url(#clipPath50)"><g
           id="g54"
           transform="translate(456,256)"><path
             d="m 0,0 c 0,-110.457 -89.543,-200 -200,-200 -110.457,0 -200,89.543 -200,200 0,110.457 89.543,200 200,200 C -89.543,200 0,110.457 0,0"
             style="fill:#967adc;fill-opacity:1;fill-rule:nonzero;stroke:none"
             id="path56" /></g><g
           id="g58"
           transform="translate(396.5571,112.7344)"><path
             d="m 0,0 c -4.248,12.583 -11.4,29.09 -23.417,39.477 -7.352,6.355 -19.364,14.562 -30.666,15.666 -7.257,0.709 -86.001,13 -86.001,13 0,0 -78.745,-12.291 -86.002,-13 -11.302,-1.104 -23.314,-9.311 -30.666,-15.666 -12.241,-10.581 -19.433,-27.508 -23.65,-40.172 36.063,-35.282 85.409,-57.039 139.845,-57.039 C -85.763,-57.734 -36.123,-35.691 0,0"
             style="fill:#e6e9ed;fill-opacity:1;fill-rule:nonzero;stroke:none"
             id="path60" /></g><g
           id="g62"
           transform="translate(256.4727,258.8789)"><path
             d="m 0,0 -42.25,5.5 16.307,-88.734 c 0,0 3.666,-30.766 25.943,-30.766 22.277,0 25.943,30.766 25.943,30.766 L 42.25,5.5 0,0 z"
             style="fill:#f9e0a8;fill-opacity:1;fill-rule:nonzero;stroke:none"
             id="path64" /></g><g
           id="g66"
           transform="translate(244.4727,149)"><path
             d="M 0,0 21,0 12,-91.5 0,0 z"
             style="fill:#f9e0a8;fill-opacity:1;fill-rule:nonzero;stroke:none"
             id="path68" /></g><g
           id="g70"
           transform="translate(290.4727,249.3789)"><path
             d="m 0,0 -69.525,-21.592 7.086,-38.556 c 10.66,-13.145 26.918,-25.186 50.957,-26.264 2.709,6.691 3.425,12.678 3.425,12.678 L 4.07,-7.744 C 1.686,-2.947 0,0 0,0"
             style="fill:#d9c392;fill-opacity:1;fill-rule:nonzero;stroke:none"
             id="path72" /></g><g
           id="g74"
           transform="translate(214.2227,174.3418)"><path
             d="m 0,0 13.811,14.889 22.439,-29.352 6,-102.5 -11.5,82.926 L 15.195,-54.574 0,0 z"
             style="fill:#f5f7fa;fill-opacity:1;fill-rule:nonzero;stroke:none"
             id="path76" /></g><g
           id="g78"
           transform="translate(298.7227,174.3418)"><path
             d="m 0,0 -13.811,14.889 -22.439,-29.352 -6,-102.5 11.5,82.926 15.555,-20.537 L 0,0 z"
             style="fill:#f5f7fa;fill-opacity:1;fill-rule:nonzero;stroke:none"
             id="path80" /></g><g
           id="g82"
           transform="translate(193,296.3789)"><path
             d="M 0,0 C 0,0 -21.309,13.5 -19.104,-14.5 -16.9,-42.5 0,-40.5 0,-40.5 L 0,0 z"
             style="fill:#f9e0a8;fill-opacity:1;fill-rule:nonzero;stroke:none"
             id="path84" /></g><g
           id="g86"
           transform="translate(319,296.3789)"><path
             d="M 0,0 C 0,0 21.31,13.5 19.104,-14.5 16.9,-42.5 0,-40.5 0,-40.5 L 0,0 z"
             style="fill:#f9e0a8;fill-opacity:1;fill-rule:nonzero;stroke:none"
             id="path88" /></g><g
           id="g90"
           transform="translate(256,368.6172)"><path
             d="m 0,0 c -63,0 -63,-34.738 -63,-34.738 l 0,-80 c 0,-20.5 19.237,-36.287 35.226,-50 13.408,-11.5 27.774,-11 27.774,-11 0,0 14.366,-0.5 27.774,11 15.989,13.713 35.226,29.5 35.226,50 l 0,80 C 63,-34.738 63,0 0,0"
             style="fill:#ffe9ba;fill-opacity:1;fill-rule:nonzero;stroke:none"
             id="path92" /></g><g
           id="g94"
           transform="translate(193.4727,296.3789)"><path
             d="m 0,0 c 0,0 1,-14 11,-26 0,0 -17,50 5,56 0,0 -1.5,-11.5 30.5,-29 0,0 -16.5,24.5 -2.5,29 0,0 45.5,-38 42.5,-56 0,0 15,21.5 2.5,41 0,0 28,-24.5 21.5,-52 0,0 15.5,23 15.5,37 0,0 6,-17.5 15.5,-15 0,0 -12.301,15.5 -3.15,18 0,0 8.65,10 14.65,-7.5 0,0 10.5,11 -7.735,24 C 131.427,29.365 158,48 174,22 c 0,0 -1.5,78.5 -57.5,74.5 0,0 32.5,34.5 2.5,50 0,0 19,-34.5 -34.5,-44 0,0 18.896,31.297 -34.5,38.5 0,0 42,-19.5 4,-30.5 0,0 -30.5,14 -54,-11.5 0,0 4.5,15 16,21 0,0 -28.264,-1 -25.632,-30 0,0 -25.368,-1.5 -20.368,-22.5 5,-21 -12,-15 -12,-15 0,0 9.971,-14.5 22.735,-1 0,0 -11.235,-7 -10.735,-19.5 0.5,-12.5 -3.5,-19.5 -12,-19 0,0 9.471,-15 22.735,10.5 0,0 -9.82,-16.682 -3.235,-34.5 0,0 1.236,14.008 12.868,14.254 C 2,3.5 -12.5,-21.5 -27.5,-16 c 0,0 19,-11 27.5,16"
             style="fill:#434a54;fill-opacity:1;fill-rule:nonzero;stroke:none"
             id="path96" /></g><g
           id="g98"
           transform="translate(168.7266,296.9746)"><path
             d="m 0,0 c 0.127,-3.693 0.775,-7.615 2.246,-11.596 0,0 0.536,6.059 4.211,10.278 0.994,6.636 3.273,11.8 4.389,14.025 C 6.809,5.27 3.14,1.572 0,0"
             style="fill:#656d78;fill-opacity:1;fill-rule:nonzero;stroke:none"
             id="path100" /></g><g
           id="g102"
           transform="translate(191.1865,290.5117)"><path
             d="m 0,0 c -0.407,0.08 -0.844,0.131 -1.346,0.121 -1.356,-0.029 -2.567,-0.252 -3.655,-0.609 -1.702,-2.965 -4.449,-5.967 -7.76,-7.989 -0.555,-1.373 -0.905,-2.666 -1.123,-3.671 C -9.207,-11.41 -3.973,-8.367 0,0"
             style="fill:#656d78;fill-opacity:1;fill-rule:nonzero;stroke:none"
             id="path104" /></g><g
           id="g106"
           transform="translate(215.4727,407.3789)"><path
             d="M 0,0 C -11.5,-6 -16,-21 -16,-21 7.5,4.5 38,-9.5 38,-9.5 59.411,-3.303 55.424,5.594 47.862,12.18 48.375,7.699 44.559,3.135 32,-0.5 32,-0.5 11.051,9.115 -9.501,-2.107 -4.364,-0.162 0,0 0,0"
             style="fill:#656d78;fill-opacity:1;fill-rule:nonzero;stroke:none"
             id="path108" /></g><g
           id="g110"
           transform="translate(315.9727,383.8789)"><path
             d="M 0,0 C 18.135,1.295 30.549,-6.066 39.053,-16.605 32.404,-4.57 22.21,5.678 6.586,8.42 3.151,3.346 0,0 0,0"
             style="fill:#656d78;fill-opacity:1;fill-rule:nonzero;stroke:none"
             id="path112" /></g><g
           id="g114"
           transform="translate(340.9463,314.1895)"><path
             d="M 0,0 C -0.365,-2.479 0.707,-5.113 3.791,-7.311 5.431,-8.48 6.83,-9.633 8.034,-10.762 7.122,-7.564 4.802,-3.893 0,0"
             style="fill:#656d78;fill-opacity:1;fill-rule:nonzero;stroke:none"
             id="path116" /></g><g
           id="g118"
           transform="translate(287.1885,400.9414)"><path
             d="m 0,0 c -0.321,-6.268 -3.216,-11.063 -3.216,-11.063 53.5,9.501 34.5,44.001 34.5,44.001 2.323,-1.202 4.27,-2.516 5.888,-3.918 -1.471,4.869 -5.054,9.386 -11.888,12.918 C 25.284,41.938 41.979,11.621 0,0"
             style="fill:#656d78;fill-opacity:1;fill-rule:nonzero;stroke:none"
             id="path120" /></g><g
           id="g122"
           transform="translate(259.4111,426.582)"><path
             d="M 0,0 C 10.06,-2.342 16.669,-5.744 20.9,-9.551 18.265,-1.279 9.132,7.414 -15.938,10.797 -15.938,10.797 -5.809,6.09 0,0"
             style="fill:#656d78;fill-opacity:1;fill-rule:nonzero;stroke:none"
             id="path124" /></g><g
           id="g126"
           transform="translate(169.0937,311.6816)"><path
             d="M 0,0 C 0.359,2.266 0.494,4.828 0.379,7.697 0.087,14.994 3.794,20.414 6.931,23.664 2.299,20.686 -1.802,21.127 -4.961,22.6 c -0.483,-1.805 -0.745,-3.772 -0.66,-5.903 0.5,-12.5 -3.5,-19.5 -12,-19 0,0 7.103,-11.244 17.621,2.303"
             style="fill:#656d78;fill-opacity:1;fill-rule:nonzero;stroke:none"
             id="path128" /></g><g
           id="g130"
           transform="translate(325.4727,287.3789)"><path
             d="M 0,0 C 0,-0.574 -0.035,-1.166 -0.085,-1.768 0.375,-2.316 0.86,-2.836 1.368,-3.318 0.475,-1.385 0,0 0,0"
             style="fill:#656d78;fill-opacity:1;fill-rule:nonzero;stroke:none"
             id="path132" /></g><g
           id="g134"
           transform="translate(309.6777,268.8184)"><path
             d="m 0,0 c -2.274,9.184 -7.237,17.277 -11.801,23.217 5.155,-9.096 8.948,-20.586 6.096,-32.656 0,0 2.62,3.888 5.705,9.439"
             style="fill:#656d78;fill-opacity:1;fill-rule:nonzero;stroke:none"
             id="path136" /></g><g
           id="g138"
           transform="translate(282.4209,274.6328)"><path
             d="m 0,0 c -1.657,3.018 -3.779,6.162 -6.178,9.318 2.821,-5.052 4.365,-9.761 3.73,-13.572 0,0 1.096,1.578 2.448,4.254"
             style="fill:#656d78;fill-opacity:1;fill-rule:nonzero;stroke:none"
             id="path140" /></g><g
           id="g142"
           transform="translate(169.8877,344.2559)"><path
             d="m 0,0 c 0.712,2.377 0.739,5.773 -0.415,10.623 -5,21 20.368,22.5 20.368,22.5 -0.735,8.098 0.943,14.008 3.737,18.328 0.729,2.207 5.39,15.192 15.895,20.672 0,0 -28.264,-1 -25.632,-30 0,0 -25.368,-1.5 -20.368,-22.5 5,-21 -12,-15 -12,-15 0,0 7.792,-11.314 18.415,-4.623"
             style="fill:#656d78;fill-opacity:1;fill-rule:nonzero;stroke:none"
             id="path144" /></g><g
           id="g146"
           transform="translate(346.2617,292.4551)"><path
             d="m 0,0 c 0.07,-0.195 0.142,-0.375 0.211,-0.576 0,0 0.094,0.097 0.248,0.287 C 0.306,-0.186 0.152,-0.088 0,0"
             style="fill:#656d78;fill-opacity:1;fill-rule:nonzero;stroke:none"
             id="path148" /></g><g
           id="g150"
           transform="translate(199.4727,287.3789)"><path
             d="M 0,0 C -0.637,-2.023 -1.338,-3.809 -2.08,-5.424 -0.462,-9.141 1.81,-13.172 5,-17 5,-17 4.906,-16.723 4.744,-16.219 0.54,-7.496 0,0 0,0"
             style="fill:#656d78;fill-opacity:1;fill-rule:nonzero;stroke:none"
             id="path152" /></g><g
           id="g154"
           transform="translate(169.8633,344.1758)"><path
             d="M 0,0 C -1.072,-1.129 -2.201,-2.506 -3.208,-4.125 -1.818,-3.373 -0.645,-2.084 0,0"
             style="fill:#656d78;fill-opacity:1;fill-rule:nonzero;stroke:none"
             id="path156" /></g><g
           id="g158"
           transform="translate(176.3467,278.2402)"><path
             d="M 0,0 C -0.251,0.811 -0.463,1.615 -0.651,2.418 -3.675,1.213 -7.011,0.904 -10.374,2.139 -10.374,2.139 -5.726,-0.547 0,0"
             style="fill:#656d78;fill-opacity:1;fill-rule:nonzero;stroke:none"
             id="path160" /></g><g
           id="g162"
           transform="translate(200.9326,342.1387)"><path
             d="m 0,0 c 0,0 12.54,27.24 64.54,4.24 52,-23 44.205,2.494 44.205,2.494 0,0 -5.383,-15.494 -40.294,-0.494 C 33.54,21.24 15.46,29.262 0,0"
             style="fill:#656d78;fill-opacity:1;fill-rule:nonzero;stroke:none"
             id="path164" /></g><g
           id="g166"
           transform="translate(199.4727,357.8789)"><path
             d="M 0,0 C 0,0 13.178,49.289 80.839,9.395 80.839,9.395 20,34 0,0"
             style="fill:#656d78;fill-opacity:1;fill-rule:nonzero;stroke:none"
             id="path168" /></g></g></g></g></svg>