<?xml version="1.0" encoding="UTF-8" standalone="no"?>
<!-- Created with Inkscape (http://www.inkscape.org/) -->

<svg
   xmlns:dc="http://purl.org/dc/elements/1.1/"
   xmlns:cc="http://creativecommons.org/ns#"
   xmlns:rdf="http://www.w3.org/1999/02/22-rdf-syntax-ns#"
   xmlns:svg="http://www.w3.org/2000/svg"
   xmlns="http://www.w3.org/2000/svg"
   xmlns:sodipodi="http://sodipodi.sourceforge.net/DTD/sodipodi-0.dtd"
   xmlns:inkscape="http://www.inkscape.org/namespaces/inkscape"
   id="svg2"
   version="1.1"
   inkscape:version="0.48.5 r10040"
   width="640"
   height="640"
   xml:space="preserve"
   sodipodi:docname="人物.ai"><metadata
     id="metadata8"><rdf:RDF><cc:Work
         rdf:about=""><dc:format>image/svg+xml</dc:format><dc:type
           rdf:resource="http://purl.org/dc/dcmitype/StillImage" /><dc:title></dc:title></cc:Work></rdf:RDF></metadata><defs
     id="defs6"><clipPath
       clipPathUnits="userSpaceOnUse"
       id="clipPath16"><path
         d="M 0,512 512,512 512,0 0,0 0,512 z"
         id="path18" /></clipPath><clipPath
       clipPathUnits="userSpaceOnUse"
       id="clipPath28"><path
         d="M 0,512 512,512 512,0 0,0 0,512 z"
         id="path30" /></clipPath><clipPath
       clipPathUnits="userSpaceOnUse"
       id="clipPath50"><path
         d="M 0,512 512,512 512,0 0,0 0,512 z"
         id="path52" /></clipPath></defs><sodipodi:namedview
     pagecolor="#ffffff"
     bordercolor="#666666"
     borderopacity="1"
     objecttolerance="10"
     gridtolerance="10"
     guidetolerance="10"
     inkscape:pageopacity="0"
     inkscape:pageshadow="2"
     inkscape:window-width="684"
     inkscape:window-height="480"
     id="namedview4"
     showgrid="false"
     inkscape:zoom="0.36875"
     inkscape:cx="320"
     inkscape:cy="320"
     inkscape:window-x="0"
     inkscape:window-y="25"
     inkscape:window-maximized="0"
     inkscape:current-layer="g10" /><g
     id="g10"
     inkscape:groupmode="layer"
     inkscape:label="人物"
     transform="matrix(1.25,0,0,-1.25,0,640)"><g
       id="g12"><g
         id="g14"
         clip-path="url(#clipPath16)"><path
           d="m 1024,-512 -512,0 0,512 512,0 0,-512 z"
           style="fill:#ffffff;fill-opacity:1;fill-rule:nonzero;stroke:none"
           id="path20" /></g></g><path
       d="M 0,0 512,0 0,0 z"
       style="fill:#ffffff;fill-opacity:1;fill-rule:nonzero;stroke:none"
       id="path22" /><g
       id="g24"><g
         id="g26"
         clip-path="url(#clipPath28)"><path
           d="m 1024,512 -512,0 0,512 512,0 0,-512 z"
           style="fill:#ffffff;fill-opacity:1;fill-rule:nonzero;stroke:none"
           id="path32" /><path
           d="m 512,512 -512,0 0,512 512,0 0,-512 z"
           style="fill:#ffffff;fill-opacity:1;fill-rule:nonzero;stroke:none"
           id="path34" /><path
           d="m 0,512 -512,0 0,512 512,0 0,-512 z"
           style="fill:#ffffff;fill-opacity:1;fill-rule:nonzero;stroke:none"
           id="path36" /><path
           d="m 1024,0 -512,0 0,512 512,0 0,-512 z"
           style="fill:#ffffff;fill-opacity:1;fill-rule:nonzero;stroke:none"
           id="path38" /></g></g><path
       d="M 0,0 512,0 512,512 0,512 0,0 z"
       style="fill:#ffffff;fill-opacity:1;fill-rule:nonzero;stroke:none"
       id="path40" /><g
       id="g42"
       transform="translate(0,512.0001)"><path
         d="M 0,0 0,-512 0,0 z"
         style="fill:#ffffff;fill-opacity:1;fill-rule:nonzero;stroke:none"
         id="path44" /></g><g
       id="g46"><g
         id="g48"
         clip-path="url(#clipPath50)"><g
           id="g54"
           transform="translate(456,256)"><path
             d="m 0,0 c 0,-110.457 -89.543,-200 -200,-200 -110.457,0 -200,89.543 -200,200 0,110.457 89.543,200 200,200 C -89.543,200 0,110.457 0,0"
             style="fill:#d770ad;fill-opacity:1;fill-rule:nonzero;stroke:none"
             id="path56" /></g><g
           id="g58"
           transform="translate(372.668,152.2109)"><path
             d="m 0,0 c -7.353,6.355 -19.364,14.563 -30.666,15.666 -7.258,0.709 -86.002,13 -86.002,13 0,0 -78.744,-12.291 -86.002,-13 -11.302,-1.103 -23.313,-9.311 -30.666,-15.666 -13.417,-11.598 -20.781,-25.84 -24.795,-38.711 36.195,-36.219 86.213,-58.621 141.463,-58.621 55.25,0 105.268,22.402 141.463,58.621 C 20.781,-25.84 13.417,-11.598 0,0"
             style="fill:#e6e9ed;fill-opacity:1;fill-rule:nonzero;stroke:none"
             id="path60" /></g><g
           id="g62"
           transform="translate(230.3838,176.9023)"><path
             d="m 0,0 -2.823,12.078 c 0,0 -7.931,-2.797 -14.412,-14.732 -5.491,-10.11 -9.941,-26.776 -7.649,-53.869 0,0 12.793,0.437 13.647,-2.563 0.853,-3 -5.397,-9.969 -5.397,-9.969 l 16.313,-51.297 c 1.97,-0.255 3.937,-0.482 5.937,-0.679 l 0,97.008 L 0,0 z"
             style="fill:#f5f7fa;fill-opacity:1;fill-rule:nonzero;stroke:none"
             id="path64" /></g><g
           id="g66"
           transform="translate(281.6162,176.9023)"><path
             d="m 0,0 2.824,12.078 c 0,0 7.93,-2.797 14.411,-14.732 5.491,-10.11 9.942,-26.776 7.649,-53.869 0,0 -12.793,0.437 -13.647,-2.563 -0.853,-3 5.397,-9.969 5.397,-9.969 L 0.321,-120.352 c -1.969,-0.255 -3.937,-0.482 -5.937,-0.679 l 0,97.008 L 0,0 z"
             style="fill:#f5f7fa;fill-opacity:1;fill-rule:nonzero;stroke:none"
             id="path68" /></g><g
           id="g70"
           transform="translate(256,258.8789)"><path
             d="m 0,0 -42.25,5.5 16.308,-88.734 c 0,0 -0.079,-33.202 17.834,-37.311 l 9.38,-17.667 13.666,16.333 c 13.84,7.063 11.005,38.645 11.005,38.645 L 42.25,5.5 0,0 z"
             style="fill:#f9e0a8;fill-opacity:1;fill-rule:nonzero;stroke:none"
             id="path72" /></g><g
           id="g74"
           transform="translate(290,249.3789)"><path
             d="m 0,0 -69.525,-21.592 7.086,-38.556 c 10.661,-13.145 26.918,-25.186 50.957,-26.264 2.709,6.691 3.425,12.678 3.425,12.678 L 4.07,-7.744 C 1.686,-2.947 0,0 0,0"
             style="fill:#d9c392;fill-opacity:1;fill-rule:nonzero;stroke:none"
             id="path76" /></g><g
           id="g78"
           transform="translate(290,178.8906)"><path
             d="m 0,0 -5.56,10.34 -19.098,-26.352 -4.342,-5.99 -4.907,-26.457 -0.093,-0.162 -0.146,0.449 -4.854,26.17 -4.341,5.99 L -62.439,10.34 -68,0 l -4,-46.012 18,7.66 0,-84.554 c 7,-0.727 13.25,-1.106 20,-1.106 7.437,0 15,0.467 22,1.348 l 0,83.461 L 4,-46.012 0,0 z"
             style="fill:#c93f4d;fill-opacity:1;fill-rule:nonzero;stroke:none"
             id="path80" /></g><g
           id="g82"
           transform="translate(193,296.3789)"><path
             d="M 0,0 C 0,0 -21.309,13.5 -19.104,-14.5 -16.9,-42.5 0,-40.5 0,-40.5 L 0,0 z"
             style="fill:#f9e0a8;fill-opacity:1;fill-rule:nonzero;stroke:none"
             id="path84" /></g><g
           id="g86"
           transform="translate(319,296.3789)"><path
             d="M 0,0 C 0,0 21.31,13.5 19.104,-14.5 16.9,-42.5 0,-40.5 0,-40.5 L 0,0 z"
             style="fill:#f9e0a8;fill-opacity:1;fill-rule:nonzero;stroke:none"
             id="path88" /></g><g
           id="g90"
           transform="translate(256,368.6172)"><path
             d="m 0,0 c -63,0 -63,-34.738 -63,-34.738 l 0,-80 c 0,-20.5 19.237,-36.287 35.226,-50 13.408,-11.5 27.774,-11 27.774,-11 0,0 14.366,-0.5 27.774,11 15.989,13.713 35.226,29.5 35.226,50 l 0,80 C 63,-34.738 63,0 0,0"
             style="fill:#ffe9ba;fill-opacity:1;fill-rule:nonzero;stroke:none"
             id="path92" /></g><g
           id="g94"
           transform="translate(318.9746,255.8906)"><path
             d="m 0,0 c 0,0 -8.975,-38.512 -51.214,-50.262 0,0 0.239,15.25 -11.761,15.25 -12,0 -11.76,-15.25 -11.76,-15.25 -42.24,11.75 -51.214,50.262 -51.214,50.262 -3.475,-27.988 39.34,-55.182 46.474,-63.016 7.135,-7.832 16.5,-19.996 16.5,-19.996 0,0 9.366,12.164 16.5,19.996 C -39.34,-55.182 3.475,-27.988 0,0"
             style="fill:#ffce54;fill-opacity:1;fill-rule:nonzero;stroke:none"
             id="path96" /></g><g
           id="g98"
           transform="translate(232.6836,209.8398)"><path
             d="m 0,0 c -2.158,0.986 -4.21,2.041 -6.15,3.158 -0.179,-2.976 0.065,-6.304 1.023,-9.929 2.366,-1.961 4.55,-3.731 6.423,-5.278 C 0.528,-8.277 -0.049,-4.09 0,0"
             style="fill:#f6bb42;fill-opacity:1;fill-rule:nonzero;stroke:none"
             id="path100" /></g><g
           id="g102"
           transform="translate(217.6787,219.0391)"><path
             d="M 0,0 C -2.527,2.018 -4.812,4.119 -6.874,6.258 -7.038,4.117 -7.145,1.855 -7.104,-0.453 -5.071,-2.584 -2.976,-4.635 -0.88,-6.586 -0.946,-4.342 -0.714,-2.092 0,0"
             style="fill:#ffd56b;fill-opacity:1;fill-rule:nonzero;stroke:none"
             id="path104" /></g><g
           id="g106"
           transform="translate(204.6885,232.5098)"><path
             d="M 0,0 C -1.898,2.557 -3.513,5.064 -4.88,7.441 -5.06,5.205 -5.112,2.568 -4.916,-0.451 -3.564,-2.568 -2.067,-4.645 -0.463,-6.668 -0.471,-4.312 -0.344,-2.02 0,0"
             style="fill:#f6bb42;fill-opacity:1;fill-rule:nonzero;stroke:none"
             id="path108" /></g><g
           id="g110"
           transform="translate(279.3164,209.8398)"><path
             d="M 0,0 C 2.158,0.986 4.21,2.041 6.15,3.158 6.329,0.182 6.085,-3.146 5.127,-6.771 2.761,-8.732 0.577,-10.502 -1.296,-12.049 -0.528,-8.277 0.049,-4.09 0,0"
             style="fill:#f6bb42;fill-opacity:1;fill-rule:nonzero;stroke:none"
             id="path112" /></g><g
           id="g114"
           transform="translate(294.3213,219.0391)"><path
             d="M 0,0 C 2.527,2.018 4.812,4.119 6.874,6.258 7.038,4.117 7.145,1.855 7.104,-0.453 5.071,-2.584 2.976,-4.635 0.88,-6.586 0.946,-4.342 0.714,-2.092 0,0"
             style="fill:#ffd56b;fill-opacity:1;fill-rule:nonzero;stroke:none"
             id="path116" /></g><g
           id="g118"
           transform="translate(307.3115,232.5098)"><path
             d="M 0,0 C 1.898,2.557 3.513,5.064 4.88,7.441 5.06,5.205 5.112,2.568 4.916,-0.451 3.564,-2.568 2.067,-4.645 0.463,-6.668 0.471,-4.312 0.344,-2.02 0,0"
             style="fill:#f6bb42;fill-opacity:1;fill-rule:nonzero;stroke:none"
             id="path120" /></g><g
           id="g122"
           transform="translate(263.1357,218.2754)"><path
             d="m 0,0 c -1.688,1.549 -3.988,2.604 -7.136,2.604 -3.147,0 -5.447,-1.055 -7.135,-2.604 -2.174,-9.934 -0.35,-25.687 2,-38.883 3.002,-3.744 5.135,-6.513 5.135,-6.513 0,0 2.133,2.769 5.136,6.513 C 0.35,-25.687 2.174,-9.934 0,0"
             style="fill:#ffd56b;fill-opacity:1;fill-rule:nonzero;stroke:none"
             id="path124" /></g><g
           id="g126"
           transform="translate(319.0869,292.5449)"><path
             d="m 0,0 -0.175,3.652 c 0,0 -12.254,0.036 -12.534,-0.016 l -34.628,-6.283 c -2.705,-0.495 -5.182,-1.664 -5.502,-2.626 -0.32,-0.963 -2.738,-2.179 -5.371,-2.717 -2.634,-0.537 -6.944,-0.531 -9.578,0.006 -2.633,0.537 -5.051,1.767 -5.371,2.73 -0.32,0.963 -2.797,2.156 -5.502,2.65 l -34.516,6.33 c -0.336,0.061 -12.822,-0.074 -12.822,-0.074 l -0.175,-3.742 6.659,-8.268 9.485,-14.759 c 1.485,-2.315 4.948,-4.093 7.695,-3.965 l 22.105,1.027 c 2.747,0.127 5.469,2.434 6.049,5.121 l 0.442,2.052 c 0.58,2.689 3.185,5.114 5.79,5.112 2.604,-0.001 4.784,0.225 4.843,0.225 l 0.214,0 c 0.059,0 2.239,-0.226 4.843,-0.224 2.605,0.002 5.21,-2.309 5.79,-4.999 l 0.442,-2.105 c 0.58,-2.689 3.302,-5.02 6.049,-5.148 l 22.105,-1.036 c 2.748,-0.127 6.21,1.655 7.695,3.969 l 9.485,14.779 c 0.129,0.203 0.239,0.43 0.351,0.654 L 0,0 z"
             style="fill:#434a54;fill-opacity:1;fill-rule:nonzero;stroke:none"
             id="path128" /></g><g
           id="g130"
           transform="translate(263,285.2344)"><path
             d="m 0,0 c -1,-0.268 -1.403,-0.504 -2.212,-0.668 -2.634,-0.537 -6.989,-0.537 -9.622,0 -0.741,0.15 -1.166,0.359 -2.166,0.6 l 0,-6.881 c 1,0.273 1.384,0.492 2.049,0.491 2.604,-0.002 4.873,0.224 4.931,0.224 l 0.215,0 c 0.059,0 2.15,-0.226 4.754,-0.224 C -1.321,-6.457 -1,-6.711 0,-7.029 L 0,0 z"
             style="fill:#656d78;fill-opacity:1;fill-rule:nonzero;stroke:none"
             id="path132" /></g><g
           id="g134"
           transform="translate(268.7832,274.0859)"><path
             d="M 0,0 0.441,-2.051 C 0.83,-3.852 2.787,-5.506 4.629,-5.592 l 22.104,-1.021 0.188,-0.006 c 2.042,0 4.666,1.404 5.731,3.064 l 9.485,14.782 c 1.124,1.75 1.386,4.861 0.563,6.658 -0.616,1.34 -2.407,2.392 -4.077,2.392 -0.23,0 -0.455,-0.021 -0.669,-0.06 L 3.326,13.889 C 1.191,13.5 -0.315,10.727 -0.72,10.361 L 0,0 z"
             style="fill:#fc6e51;fill-opacity:1;fill-rule:nonzero;stroke:none"
             id="path136" /></g><g
           id="g138"
           transform="translate(290.0273,291.25)"><path
             d="M 0,0 9.755,-22.35 C 8.531,-23.201 6.986,-23.783 5.677,-23.783 L 5.489,-23.777 1.571,-23.596 -8.084,-1.479 0,0 z"
             style="fill:#fc8f79;fill-opacity:1;fill-rule:nonzero;stroke:none"
             id="path140" /></g><g
           id="g142"
           transform="translate(272.1094,287.9746)"><path
             d="m 0,0 2.76,0.506 8.933,-20.467 -4.454,0.205 -8.411,19.272 C -0.805,-0.262 -0.419,-0.076 0,0"
             style="fill:#fca897;fill-opacity:1;fill-rule:nonzero;stroke:none"
             id="path144" /></g><g
           id="g146"
           transform="translate(243.3926,274.0859)"><path
             d="M 0,0 -0.441,-2.051 C -0.83,-3.852 -2.787,-5.506 -4.629,-5.592 l -22.104,-1.021 -0.188,-0.006 c -2.042,0 -4.666,1.404 -5.731,3.064 l -9.485,14.782 c -1.124,1.75 -1.386,4.861 -0.563,6.658 0.616,1.34 2.407,2.392 4.077,2.392 0.23,0 0.455,-0.021 0.669,-0.06 L -3.326,13.889 C -1.191,13.5 0.315,10.727 0.72,10.361 L 0,0 z"
             style="fill:#fc6e51;fill-opacity:1;fill-rule:nonzero;stroke:none"
             id="path148" /></g><g
           id="g150"
           transform="translate(222.1484,291.25)"><path
             d="m 0,0 -9.755,-22.35 c 1.224,-0.851 2.769,-1.433 4.078,-1.433 l 0.188,0.006 3.918,0.181 L 8.084,-1.479 0,0 z"
             style="fill:#fc8f79;fill-opacity:1;fill-rule:nonzero;stroke:none"
             id="path152" /></g><g
           id="g154"
           transform="translate(240.0664,287.9746)"><path
             d="m 0,0 -2.76,0.506 -8.933,-20.467 4.454,0.205 8.411,19.272 C 0.805,-0.262 0.419,-0.076 0,0"
             style="fill:#fca897;fill-opacity:1;fill-rule:nonzero;stroke:none"
             id="path156" /></g><g
           id="g158"
           transform="translate(305.9043,224.0664)"><path
             d="m 0,0 -0.004,0.002 c -0.011,0.012 -0.021,0.021 -0.032,0.033 4.973,-4.996 19.734,-21.777 16.604,-42.224 0,0 6.556,-3.27 13.407,0.748 C 29.548,-13.316 0,0 0,0"
             style="fill:#ffce54;fill-opacity:1;fill-rule:nonzero;stroke:none"
             id="path160" /></g><g
           id="g162"
           transform="translate(311.2866,231.4092)"><path
             d="M 0,0 C -0.217,-0.319 -0.44,-0.636 -0.664,-0.952 14.214,-6.813 27.312,-22.723 34.824,-33.437 37.583,-17.764 20.729,-0.759 0,0"
             style="fill:#ffce54;fill-opacity:1;fill-rule:nonzero;stroke:none"
             id="path164" /></g><g
           id="g166"
           transform="translate(341.2915,187.584)"><path
             d="m 0,0 c 0.098,0.129 0.194,0.264 0.291,0.397 0.233,0.32 0.465,0.654 0.694,1.001 0.108,0.163 0.216,0.327 0.322,0.497 0.227,0.359 0.451,0.737 0.673,1.125 0.095,0.166 0.192,0.326 0.286,0.498 0.31,0.563 0.616,1.15 0.915,1.773 0.24,0.501 0.449,1.006 0.642,1.514 0.057,0.148 0.108,0.298 0.161,0.447 0.134,0.377 0.256,0.756 0.365,1.136 0.043,0.151 0.088,0.301 0.128,0.452 0.13,0.498 0.246,0.998 0.335,1.498 0.003,0.016 0.007,0.031 0.01,0.047 -7.511,10.714 -20.611,26.627 -35.491,32.488 -1.501,-2.119 -3.153,-4.182 -4.915,-6.193 0.049,-0.049 0.108,-0.111 0.161,-0.162 0.011,-0.012 0.021,-0.022 0.032,-0.034 l 0.004,-0.002 c 0,0 29.548,-13.316 29.974,-41.441 0.003,0.002 0.006,0.004 0.009,0.005 0.35,0.206 0.701,0.433 1.052,0.679 0.038,0.025 0.076,0.052 0.113,0.08 0.332,0.235 0.663,0.49 0.994,0.763 0.034,0.03 0.068,0.055 0.101,0.083 0.724,0.609 1.443,1.312 2.151,2.121 0.045,0.052 0.089,0.11 0.134,0.162 C -0.57,-0.729 -0.284,-0.373 0,0"
             style="fill:#f6bb42;fill-opacity:1;fill-rule:nonzero;stroke:none"
             id="path168" /></g><g
           id="g170"
           transform="translate(319.623,375.1289)"><path
             d="m 0,0 -0.012,-0.023 c -3.891,16.091 -18.273,34.273 -63.43,34.273 -45.677,0 -59.94,-18.375 -63.657,-34.527 L -127.246,0 c -18,-18.334 0.804,-78.75 0.804,-78.75 0,0 0,1.498 5.667,9.498 3.347,4.727 3.67,22.01 3.374,35.369 20.381,-17.201 53.959,-24.867 53.959,-24.867 0,0 33.175,7.576 53.59,24.561 -0.284,-13.317 0.06,-30.374 3.381,-35.063 5.667,-8 5.667,-9.498 5.667,-9.498 0,0 18.804,60.416 0.804,78.75"
             style="fill:#ffce54;fill-opacity:1;fill-rule:nonzero;stroke:none"
             id="path172" /></g><g
           id="g174"
           transform="translate(202.2471,392.8535)"><path
             d="m 0,0 c 1.062,-37.873 13.233,-57.139 25.748,-66.924 12.662,-5.535 24.131,-8.555 27.311,-9.34 C 5.572,-38.037 15.4,-1.982 22.494,12.652 12.23,9.656 5.024,5.156 0,0"
             style="fill:#f6bb42;fill-opacity:1;fill-rule:nonzero;stroke:none"
             id="path176" /></g><g
           id="g178"
           transform="translate(201.7861,318.8457)"><path
             d="m 0,0 -15.803,10.367 c 0.768,-5.525 1.765,-10.826 2.773,-15.498 L -0.805,-6.508 C -0.461,-4.578 -0.197,-2.375 0,0"
             style="fill:#f6bb42;fill-opacity:1;fill-rule:nonzero;stroke:none"
             id="path180" /></g><g
           id="g182"
           transform="translate(184.624,344.7227)"><path
             d="m 0,0 c 0.107,-3.885 0.424,-7.84 0.878,-11.736 l 16.716,-5.977 c 0.047,1.678 0.073,3.377 0.084,5.072 L 0,0 z"
             style="fill:#ffd56b;fill-opacity:1;fill-rule:nonzero;stroke:none"
             id="path184" /></g><g
           id="g186"
           transform="translate(274.9551,408.1582)"><path
             d="m 0,0 c -5.581,0.783 -11.804,1.221 -18.774,1.221 -6.971,0 -13.194,-0.438 -18.775,-1.221 -3.311,-15.125 -0.75,-42.436 18.562,-91.73 0.134,-0.032 0.213,-0.049 0.213,-0.049 0,0 0.078,0.017 0.212,0.049 C 0.75,-42.436 3.312,-15.125 0,0"
             style="fill:#ffd56b;fill-opacity:1;fill-rule:nonzero;stroke:none"
             id="path188" /></g><g
           id="g190"
           transform="translate(310.1143,392.8535)"><path
             d="m 0,0 c -1.062,-37.873 -13.233,-57.139 -25.748,-66.924 -12.662,-5.535 -24.131,-8.555 -27.311,-9.34 47.487,38.227 37.659,74.282 30.565,88.916 C -12.23,9.656 -5.024,5.156 0,0"
             style="fill:#f6bb42;fill-opacity:1;fill-rule:nonzero;stroke:none"
             id="path192" /></g><g
           id="g194"
           transform="translate(311.1709,311.5273)"><path
             d="m 0,0 11.888,1.34 c 1.028,4.687 2.06,10.053 2.863,15.67 L -0.907,6.738 C -0.686,4.25 -0.391,1.961 0,0"
             style="fill:#f6bb42;fill-opacity:1;fill-rule:nonzero;stroke:none"
             id="path196" /></g><g
           id="g198"
           transform="translate(327.3691,344.459)"><path
             d="m 0,0 -17.669,-12.635 c 0.013,-1.752 0.043,-3.506 0.095,-5.232 l 16.652,5.953 C -0.451,-7.965 -0.119,-3.947 0,0"
             style="fill:#ffd56b;fill-opacity:1;fill-rule:nonzero;stroke:none"
             id="path200" /></g></g></g></g></svg>