<?xml version="1.0" encoding="UTF-8" standalone="no"?>
<!-- Created with Inkscape (http://www.inkscape.org/) -->

<svg
   xmlns:dc="http://purl.org/dc/elements/1.1/"
   xmlns:cc="http://creativecommons.org/ns#"
   xmlns:rdf="http://www.w3.org/1999/02/22-rdf-syntax-ns#"
   xmlns:svg="http://www.w3.org/2000/svg"
   xmlns="http://www.w3.org/2000/svg"
   xmlns:sodipodi="http://sodipodi.sourceforge.net/DTD/sodipodi-0.dtd"
   xmlns:inkscape="http://www.inkscape.org/namespaces/inkscape"
   id="svg2"
   version="1.1"
   inkscape:version="0.48.5 r10040"
   width="640"
   height="640"
   xml:space="preserve"
   sodipodi:docname="人物.ai"><metadata
     id="metadata8"><rdf:RDF><cc:Work
         rdf:about=""><dc:format>image/svg+xml</dc:format><dc:type
           rdf:resource="http://purl.org/dc/dcmitype/StillImage" /><dc:title></dc:title></cc:Work></rdf:RDF></metadata><defs
     id="defs6"><clipPath
       clipPathUnits="userSpaceOnUse"
       id="clipPath16"><path
         d="M 0,512 512,512 512,0 0,0 0,512 z"
         id="path18" /></clipPath><clipPath
       clipPathUnits="userSpaceOnUse"
       id="clipPath28"><path
         d="M 0,512 512,512 512,0 0,0 0,512 z"
         id="path30" /></clipPath><clipPath
       clipPathUnits="userSpaceOnUse"
       id="clipPath50"><path
         d="M 0,512 512,512 512,0 0,0 0,512 z"
         id="path52" /></clipPath></defs><sodipodi:namedview
     pagecolor="#ffffff"
     bordercolor="#666666"
     borderopacity="1"
     objecttolerance="10"
     gridtolerance="10"
     guidetolerance="10"
     inkscape:pageopacity="0"
     inkscape:pageshadow="2"
     inkscape:window-width="684"
     inkscape:window-height="480"
     id="namedview4"
     showgrid="false"
     inkscape:zoom="0.36875"
     inkscape:cx="320"
     inkscape:cy="320"
     inkscape:window-x="0"
     inkscape:window-y="25"
     inkscape:window-maximized="0"
     inkscape:current-layer="g10" /><g
     id="g10"
     inkscape:groupmode="layer"
     inkscape:label="人物"
     transform="matrix(1.25,0,0,-1.25,0,640)"><g
       id="g12"><g
         id="g14"
         clip-path="url(#clipPath16)"><path
           d="m 1024,-512 -512,0 0,512 512,0 0,-512 z"
           style="fill:#ffffff;fill-opacity:1;fill-rule:nonzero;stroke:none"
           id="path20" /></g></g><path
       d="M 0,0 512,0 0,0 z"
       style="fill:#ffffff;fill-opacity:1;fill-rule:nonzero;stroke:none"
       id="path22" /><g
       id="g24"><g
         id="g26"
         clip-path="url(#clipPath28)"><path
           d="m 1024,0 -512,0 0,512 512,0 0,-512 z"
           style="fill:#ffffff;fill-opacity:1;fill-rule:nonzero;stroke:none"
           id="path32" /><path
           d="m 1024,512 -512,0 0,512 512,0 0,-512 z"
           style="fill:#ffffff;fill-opacity:1;fill-rule:nonzero;stroke:none"
           id="path34" /><path
           d="m 512,512 -512,0 0,512 512,0 0,-512 z"
           style="fill:#ffffff;fill-opacity:1;fill-rule:nonzero;stroke:none"
           id="path36" /><path
           d="m 0,512 -512,0 0,512 512,0 0,-512 z"
           style="fill:#ffffff;fill-opacity:1;fill-rule:nonzero;stroke:none"
           id="path38" /></g></g><path
       d="M 0,0 512,0 512,512 0,512 0,0 z"
       style="fill:#ffffff;fill-opacity:1;fill-rule:nonzero;stroke:none"
       id="path40" /><g
       id="g42"
       transform="translate(0,512.0001)"><path
         d="M 0,0 0,-512 0,0 z"
         style="fill:#ffffff;fill-opacity:1;fill-rule:nonzero;stroke:none"
         id="path44" /></g><g
       id="g46"><g
         id="g48"
         clip-path="url(#clipPath50)"><g
           id="g54"
           transform="translate(456,256)"><path
             d="m 0,0 c 0,-110.457 -89.543,-200 -200,-200 -110.457,0 -200,89.543 -200,200 0,110.457 89.543,200 200,200 C -89.543,200 0,110.457 0,0"
             style="fill:#3bafda;fill-opacity:1;fill-rule:nonzero;stroke:none"
             id="path56" /></g><g
           id="g58"
           transform="translate(269.375,129.625)"><path
             d="m 0,0 1.775,0.877 c 0.062,0.486 0.1,0.748 0.1,0.748 3.377,10.014 5.268,19.758 6.564,27.933 1.24,7.81 2.867,17.985 2.867,17.985 -13.925,2.152 -24.681,3.831 -24.681,3.831 0,0 -10.756,-1.679 -24.681,-3.831 0,0 1.627,-10.175 2.867,-17.985 1.296,-8.175 3.187,-17.919 6.564,-27.933 0,0 0.038,-0.262 0.1,-0.748 L -26.75,0 c 0,0 6.699,-52.506 -9.259,-73.343 7.431,-0.837 14.98,-1.282 22.634,-1.282 7.654,0 15.203,0.445 22.634,1.282 C -6.699,-52.506 0,0 0,0"
             style="fill:#434a54;fill-opacity:1;fill-rule:nonzero;stroke:none"
             id="path60" /></g><g
           id="g62"
           transform="translate(291.8867,174.249)"><path
             d="m 0,0 0.213,1.158 c -18.998,2.923 -36.1,5.592 -36.1,5.592 0,0 -17.038,-2.659 -35.993,-5.575 L -71.664,0 c 1.746,-13.772 11.385,-39.249 35.832,-39.249 24.445,0 34.086,25.477 35.832,39.249"
             style="fill:#656d78;fill-opacity:1;fill-rule:nonzero;stroke:none"
             id="path64" /></g><g
           id="g66"
           transform="translate(240.8496,130.502)"><path
             d="m 0,0 -30.501,-70.263 c 7.518,-1.755 15.201,-3.076 23.018,-3.957 15.958,20.837 9.258,73.343 9.258,73.343 L 0,0 z"
             style="fill:#f5f7fa;fill-opacity:1;fill-rule:nonzero;stroke:none"
             id="path68" /></g><g
           id="g70"
           transform="translate(256,259)"><path
             d="m 0,0 -42.25,5.5 16.307,-88.734 c 0,0 3.666,-30.766 25.943,-30.766 22.277,0 25.943,30.766 25.943,30.766 L 42.25,5.5 0,0 z"
             style="fill:#f9e0a8;fill-opacity:1;fill-rule:nonzero;stroke:none"
             id="path72" /></g><g
           id="g74"
           transform="translate(290,249.5)"><path
             d="m 0,0 -69.525,-21.592 7.086,-38.555 c 10.66,-13.146 26.918,-25.187 50.957,-26.265 2.709,6.691 3.425,12.678 3.425,12.678 L 4.07,-7.744 C 1.686,-2.947 0,0 0,0"
             style="fill:#d9c392;fill-opacity:1;fill-rule:nonzero;stroke:none"
             id="path76" /></g><g
           id="g78"
           transform="translate(171.75,148.75)"><path
             d="M 0,0 44.941,7.51 C 43.512,14.907 42.314,21.942 41.698,25.666 21.821,22.619 1.744,19.591 -1.752,19.249 -13.054,18.145 -25.065,9.938 -32.418,3.583 -45.835,-8.015 -53.199,-22.257 -57.213,-35.129 -41.758,-50.594 -23.781,-63.534 -3.955,-73.29 13.977,-43.453 0,0 0,0"
             style="fill:#f5f7fa;fill-opacity:1;fill-rule:nonzero;stroke:none"
             id="path80" /></g><g
           id="g82"
           transform="translate(214.5879,167.7246)"><path
             d="m 0,0 c -14.678,-2.179 -42.791,-6.431 -46.79,-7.62 -4.321,-1.284 -32.977,-19.605 -42.399,-56.566 1.978,-1.707 3.99,-3.375 6.035,-5.003 7.718,35.584 34.974,53.807 38.358,54.86 3.068,0.911 26.831,4.587 46.035,7.437 C 0.785,-4.437 0.367,-2.1 0,0"
             style="fill:#da4453;fill-opacity:1;fill-rule:nonzero;stroke:none"
             id="path84" /></g><g
           id="g86"
           transform="translate(223.207,131.0059)"><path
             d="m 0,0 c -1.972,3.451 -4.479,14.716 -6.516,25.254 l -44.941,-7.51 c 0,0 13.977,-43.453 -3.955,-73.29 19.665,-9.676 41.149,-16.22 63.804,-18.975 C 22.945,-47.404 18.407,-6.5 17.643,-0.504 7.309,-6.233 0,0 0,0"
             style="fill:#da4453;fill-opacity:1;fill-rule:nonzero;stroke:none"
             id="path88" /></g><g
           id="g90"
           transform="translate(240.75,131.25)"><path
             d="m 0,0 c -3.377,10.014 -5.268,19.758 -6.564,27.933 -1.24,7.81 -2.867,17.985 -2.867,17.985 0,0 -1.319,2.707 -9.694,0.957 -8.375,-1.75 -8.177,-3.709 -8.177,-3.709 0.616,-3.724 1.814,-10.759 3.243,-18.156 2.037,-10.538 4.544,-21.803 6.516,-25.254 0,0 7.309,-6.234 17.643,-0.504 C 0.038,-0.262 0,0 0,0"
             style="fill:#ed5565;fill-opacity:1;fill-rule:nonzero;stroke:none"
             id="path92" /></g><g
           id="g94"
           transform="translate(224.5439,178.5947)"><path
             d="m 0,0 c -0.605,-0.065 -1.276,-0.168 -1.99,-0.297 1.037,-24.144 6.195,-41.612 9.34,-50.212 0.666,-0.01 1.362,0.024 2.088,0.11 C 6.372,-42.171 1.028,-24.593 0,0"
             style="fill:#f5f7fa;fill-opacity:1;fill-rule:nonzero;stroke:none"
             id="path96" /></g><g
           id="g98"
           transform="translate(271.1504,130.502)"><path
             d="M 0,0 30.501,-70.263 C 22.983,-72.018 15.3,-73.339 7.483,-74.22 -8.475,-53.383 -1.775,-0.877 -1.775,-0.877 L 0,0 z"
             style="fill:#f5f7fa;fill-opacity:1;fill-rule:nonzero;stroke:none"
             id="path100" /></g><g
           id="g102"
           transform="translate(340.25,148.75)"><path
             d="m 0,0 -44.941,7.51 c 1.429,7.397 2.627,14.432 3.243,18.156 19.877,-3.047 39.954,-6.075 43.45,-6.417 C 13.054,18.145 25.065,9.938 32.418,3.583 45.835,-8.015 53.199,-22.257 57.213,-35.129 41.758,-50.594 23.781,-63.534 3.955,-73.29 -13.977,-43.453 0,0 0,0"
             style="fill:#f5f7fa;fill-opacity:1;fill-rule:nonzero;stroke:none"
             id="path104" /></g><g
           id="g106"
           transform="translate(288.793,131.0059)"><path
             d="m 0,0 c 1.972,3.451 4.479,14.716 6.516,25.254 l 44.941,-7.51 c 0,0 -13.977,-43.453 3.955,-73.29 C 35.747,-65.222 14.263,-71.766 -8.392,-74.521 -22.945,-47.404 -18.407,-6.5 -17.643,-0.504 -7.309,-6.233 0,0 0,0"
             style="fill:#da4453;fill-opacity:1;fill-rule:nonzero;stroke:none"
             id="path108" /></g><g
           id="g110"
           transform="translate(271.25,131.25)"><path
             d="m 0,0 c 3.377,10.014 5.268,19.758 6.564,27.933 1.24,7.81 2.867,17.985 2.867,17.985 0,0 1.319,2.707 9.694,0.957 8.375,-1.75 8.177,-3.709 8.177,-3.709 C 26.686,39.442 25.488,32.407 24.059,25.01 22.022,14.472 19.515,3.207 17.543,-0.244 c 0,0 -7.309,-6.234 -17.643,-0.504 C -0.038,-0.262 0,0 0,0"
             style="fill:#ed5565;fill-opacity:1;fill-rule:nonzero;stroke:none"
             id="path112" /></g><g
           id="g114"
           transform="translate(287.4561,178.5947)"><path
             d="m 0,0 c 0.605,-0.065 1.276,-0.168 1.99,-0.297 -1.037,-24.144 -6.195,-41.612 -9.34,-50.212 -0.666,-0.01 -1.362,0.024 -2.088,0.11 C -6.372,-42.171 -1.028,-24.593 0,0"
             style="fill:#f5f7fa;fill-opacity:1;fill-rule:nonzero;stroke:none"
             id="path116" /></g><g
           id="g118"
           transform="translate(297.4121,167.7246)"><path
             d="m 0,0 c 14.678,-2.179 42.791,-6.431 46.79,-7.62 4.321,-1.284 32.977,-19.605 42.399,-56.566 -1.978,-1.707 -3.99,-3.375 -6.035,-5.003 -7.718,35.584 -34.974,53.807 -38.358,54.86 -3.068,0.911 -26.831,4.587 -46.035,7.437 C -0.785,-4.437 -0.367,-2.1 0,0"
             style="fill:#da4453;fill-opacity:1;fill-rule:nonzero;stroke:none"
             id="path120" /></g><g
           id="g122"
           transform="translate(193,296.3789)"><path
             d="M 0,0 C 0,0 -21.309,13.5 -19.104,-14.5 -16.9,-42.5 0,-40.5 0,-40.5 L 0,0 z"
             style="fill:#f9e0a8;fill-opacity:1;fill-rule:nonzero;stroke:none"
             id="path124" /></g><g
           id="g126"
           transform="translate(319,296.3789)"><path
             d="M 0,0 C 0,0 21.31,13.5 19.104,-14.5 16.9,-42.5 0,-40.5 0,-40.5 L 0,0 z"
             style="fill:#f9e0a8;fill-opacity:1;fill-rule:nonzero;stroke:none"
             id="path128" /></g><g
           id="g130"
           transform="translate(256,368.6172)"><path
             d="m 0,0 c -63,0 -63,-34.738 -63,-34.738 l 0,-80 c 0,-20.5 19.237,-36.287 35.226,-50 13.408,-11.5 27.774,-11 27.774,-11 0,0 14.366,-0.5 27.774,11 15.989,13.713 35.226,29.5 35.226,50 l 0,80 C 63,-34.738 63,0 0,0"
             style="fill:#ffe9ba;fill-opacity:1;fill-rule:nonzero;stroke:none"
             id="path132" /></g><g
           id="g134"
           transform="translate(319.2061,296.6465)"><path
             d="m 0,0 -16.202,2.394 0.077,-0.04 -0.005,0 c -3.221,0 -9.457,0.797 -14.122,0.816 -1.396,0.006 -2.366,-0.016 -2.597,-0.02 -0.23,0.006 -1.2,0.017 -2.595,0.022 -4.663,0.018 -10.899,-0.1 -14.124,-0.736 -2.314,-0.459 -5.624,-1.432 -7.643,-4.561 -0.06,-0.093 -0.116,-0.19 -0.173,-0.285 -0.52,-0.182 -1.099,-0.47 -1.673,-0.925 -1.789,-1.42 -1.602,-1.212 -4.128,-1.212 -2.523,0 -2.358,-0.21 -4.149,1.21 -0.58,0.462 -1.168,0.751 -1.697,0.933 -0.056,0.093 -0.111,0.185 -0.169,0.277 -2.02,3.129 -5.329,4.101 -7.643,4.559 -3.225,0.638 -9.461,0.752 -14.124,0.734 -1.396,-0.005 -2.364,-0.021 -2.596,-0.027 -0.23,0.004 -1.2,0.037 -2.595,0.031 -4.665,-0.019 -10.903,-0.816 -14.124,-0.816 l -0.005,0 0.078,0.04 -16.202,-2.382 -0.947,-7.052 c 0,0 1.991,-2.128 5.024,-1.265 1.03,0.293 2.016,-0.996 2.614,-2.013 -0.002,-0.402 0.002,-0.813 0.015,-1.241 0.059,-2.015 1.466,-10.329 4.851,-16.624 1.912,-3.551 4.167,-5.27 8.892,-6.969 4.555,-1.637 9.411,-1.966 12.552,-1.954 3.151,0.011 7.86,0.377 12.395,2.049 4.697,1.731 6.774,3.465 8.659,7.035 2.752,5.207 4.362,11.791 4.866,15.067 1.806,2.83 4.305,2.6 4.305,2.6 0,0 2.457,0.228 4.256,-2.552 0.495,-3.259 2.109,-9.882 4.874,-15.115 1.885,-3.57 3.962,-5.304 8.658,-7.036 4.536,-1.671 9.244,-2.037 12.397,-2.048 3.14,-0.012 7.996,0.317 12.552,1.954 4.723,1.698 6.978,3.417 8.889,6.968 3.387,6.295 4.793,14.61 4.853,16.623 0.014,0.428 0.016,0.838 0.016,1.241 0.597,1.017 1.583,2.304 2.612,2.011 3.034,-0.862 5.024,1.262 5.024,1.262 L 0,0 z"
             style="fill:#434a54;fill-opacity:1;fill-rule:nonzero;stroke:none"
             id="path136" /></g><g
           id="g138"
           transform="translate(241.75,295.9814)"><path
             d="m 0,0 c -4.453,0.882 -16.094,0.647 -16.094,0.647 0,0 -11.65,0.147 -16.095,-0.768 -5.476,-1.126 -7.105,-3.89 -6.905,-10.682 0.151,-5.124 0.996,-11.278 3.374,-15.697 3.333,-6.196 12.389,-8.232 19.759,-8.205 7.417,0.028 16.247,2.132 19.534,8.353 2.345,4.437 3.296,10.597 3.408,15.723 C 7.131,-3.835 5.484,-1.085 0,0"
             style="fill:#31363d;fill-opacity:1;fill-rule:nonzero;stroke:none"
             id="path140" /></g><g
           id="g142"
           transform="translate(302.4404,295.8604)"><path
             d="m 0,0 c -4.446,0.915 -16.096,0.769 -16.096,0.769 0,0 -11.64,0.234 -16.094,-0.648 -5.483,-1.085 -7.129,-3.835 -6.981,-10.629 0.111,-5.126 1.065,-11.286 3.408,-15.722 3.286,-6.222 12.117,-8.326 19.534,-8.354 7.371,-0.027 16.426,2.009 19.76,8.205 2.377,4.419 3.223,10.573 3.373,15.697 C 7.104,-3.89 5.475,-1.126 0,0"
             style="fill:#31363d;fill-opacity:1;fill-rule:nonzero;stroke:none"
             id="path144" /></g><g
           id="g146"
           transform="translate(226.9199,296.6465)"><path
             d="m 0,0 -17.897,-30.686 c 2.735,-2.212 6.466,-3.515 10.306,-4.162 L 12.528,-0.352 C 8.511,0.035 2.569,0.025 0,0"
             style="fill:#656d78;fill-opacity:1;fill-rule:nonzero;stroke:none"
             id="path148" /></g><g
           id="g150"
           transform="translate(243.6133,295.4971)"><path
             d="m 0,0 -19.927,-34.166 c 0.711,-0.035 1.415,-0.058 2.103,-0.055 0.836,0.003 1.691,0.037 2.553,0.096 L 3.362,-2.176 C 2.567,-1.195 1.472,-0.494 0,0"
             style="fill:#7c8694;fill-opacity:1;fill-rule:nonzero;stroke:none"
             id="path152" /></g><g
           id="g154"
           transform="translate(286.3447,296.6289)"><path
             d="M 0,0 C 0,0 -1.882,0.038 -4.421,0.025 L -19.896,-26.51 c 0.079,-0.16 0.147,-0.333 0.229,-0.489 1.67,-3.161 4.773,-5.256 8.394,-6.559 L 8.243,-0.094 C 4.023,0.051 0,0 0,0"
             style="fill:#656d78;fill-opacity:1;fill-rule:nonzero;stroke:none"
             id="path156" /></g><g
           id="g158"
           transform="translate(302.4404,295.8604)"><path
             d="M 0,0 C -0.885,0.183 -2.058,0.321 -3.364,0.429 L -23.38,-33.888 c 1.42,-0.284 2.865,-0.473 4.293,-0.582 L 0.894,-0.21 C 0.606,-0.135 0.312,-0.063 0,0"
             style="fill:#7c8694;fill-opacity:1;fill-rule:nonzero;stroke:none"
             id="path160" /></g><g
           id="g162"
           transform="translate(207.5996,222.6855)"><path
             d="m 0,0 c -0.536,-9.611 0.734,-21.006 7.149,-30.686 0,0 -2.337,10.832 0.363,20.257 C 7.354,-9.203 7.234,-8.081 7.148,-7.088 4.674,-4.793 2.266,-2.434 0,0"
             style="fill:#ffce54;fill-opacity:1;fill-rule:nonzero;stroke:none"
             id="path164" /></g><g
           id="g166"
           transform="translate(224.2617,207.1904)"><path
             d="m 0,0 c -2.781,2.384 -5.61,4.833 -8.379,7.36 -0.38,0.348 -0.758,0.698 -1.135,1.047 0.086,-0.993 0.205,-2.115 0.364,-3.341 1.1,-8.51 4.185,-21.941 12.859,-30.756 0,0 -5.639,16.164 -3.709,25.69"
             style="fill:#f6bb42;fill-opacity:1;fill-rule:nonzero;stroke:none"
             id="path168" /></g><g
           id="g170"
           transform="translate(297.3027,216.2148)"><path
             d="m 0,0 c -0.09,-1.134 -0.225,-2.473 -0.416,-3.958 2.7,-9.425 0.362,-20.257 0.362,-20.257 C 6.52,-14.298 7.693,-2.577 7.055,7.178 4.833,4.713 2.454,2.323 0,0"
             style="fill:#ffce54;fill-opacity:1;fill-rule:nonzero;stroke:none"
             id="path172" /></g><g
           id="g174"
           transform="translate(295.9492,214.9482)"><path
             d="m 0,0 c -2.729,-2.53 -5.531,-4.983 -8.301,-7.369 2.172,-9.468 -3.621,-26.079 -3.621,-26.079 8.674,8.815 11.759,22.246 12.859,30.757 0.192,1.485 0.327,2.824 0.417,3.958 C 0.905,0.843 0.453,0.421 0,0"
             style="fill:#f6bb42;fill-opacity:1;fill-rule:nonzero;stroke:none"
             id="path176" /></g><g
           id="g178"
           transform="translate(319.623,375.25)"><path
             d="m 0,0 -0.012,-0.022 c -3.891,16.091 24.07,76.772 -63.43,76.772 -87.5,0 -59.94,-60.874 -63.657,-77.027 L -127.246,0 c -18,-18.333 0.804,-78.75 0.804,-78.75 0,0 0,1.499 5.667,9.499 3.347,4.726 3.67,22.01 3.374,35.369 20.381,-17.201 53.959,-28.868 53.959,-28.868 0,0 33.175,11.576 53.59,28.561 -0.284,-13.317 0.06,-30.373 3.381,-35.062 5.667,-8 5.667,-9.499 5.667,-9.499 0,0 18.804,60.417 0.804,78.75"
             style="fill:#ffce54;fill-opacity:1;fill-rule:nonzero;stroke:none"
             id="path180" /></g><g
           id="g182"
           transform="translate(201.7861,318.9668)"><path
             d="m 0,0 -15.803,10.367 c 0.768,-5.524 1.765,-10.826 2.773,-15.497 L -0.805,-6.508 C -0.461,-4.578 -0.197,-2.375 0,0"
             style="fill:#ffd56b;fill-opacity:1;fill-rule:nonzero;stroke:none"
             id="path184" /></g><g
           id="g186"
           transform="translate(184.624,344.8437)"><path
             d="m 0,0 c 0.107,-3.884 0.424,-7.84 0.878,-11.736 l 16.716,-5.976 c 0.047,1.677 0.073,3.376 0.084,5.071 L 0,0 z"
             style="fill:#f6bb42;fill-opacity:1;fill-rule:nonzero;stroke:none"
             id="path188" /></g><g
           id="g190"
           transform="translate(276.0771,450.3252)"><path
             d="m 0,0 c -5.863,1.079 -12.453,1.675 -19.896,1.675 -7.441,0 -14.031,-0.598 -19.897,-1.677 -0.845,-37.997 3.625,-82.637 19.637,-137.595 0.156,-0.136 0.26,-0.228 0.26,-0.228 0,0 0.103,0.092 0.259,0.231 C -3.624,-82.635 0.846,-37.995 0,0"
             style="fill:#ffd56b;fill-opacity:1;fill-rule:nonzero;stroke:none"
             id="path192" /></g><g
           id="g194"
           transform="translate(249.4092,315.0703)"><path
             d="M 0,0 C 0,0 -54.087,53.264 -28.754,130.93 -28.754,130.93 -99.439,83.736 0,0"
             style="fill:#f6bb42;fill-opacity:1;fill-rule:nonzero;stroke:none"
             id="path196" /></g><g
           id="g198"
           transform="translate(202.2217,341.3682)"><path
             d="M 0,0 C 0,0 -9.273,13.159 -9.845,33.882 -9.845,33.882 -23.859,15.561 0,0"
             style="fill:#ffd56b;fill-opacity:1;fill-rule:nonzero;stroke:none"
             id="path200" /></g><g
           id="g202"
           transform="translate(262.5908,315.0703)"><path
             d="M 0,0 C 0,0 54.087,53.264 28.754,130.93 28.754,130.93 99.439,83.736 0,0"
             style="fill:#f6bb42;fill-opacity:1;fill-rule:nonzero;stroke:none"
             id="path204" /></g><g
           id="g206"
           transform="translate(309.7783,341.3682)"><path
             d="M 0,0 C 0,0 9.273,13.159 9.845,33.882 9.845,33.882 23.859,15.561 0,0"
             style="fill:#ffd56b;fill-opacity:1;fill-rule:nonzero;stroke:none"
             id="path208" /></g><g
           id="g210"
           transform="translate(310.2139,318.9668)"><path
             d="M 0,0 15.803,10.367 C 15.035,4.843 14.038,-0.459 13.03,-5.13 L 0.805,-6.508 C 0.461,-4.578 0.197,-2.375 0,0"
             style="fill:#ffd56b;fill-opacity:1;fill-rule:nonzero;stroke:none"
             id="path212" /></g><g
           id="g214"
           transform="translate(327.376,344.8437)"><path
             d="m 0,0 c -0.107,-3.884 -0.424,-7.84 -0.878,-11.736 l -16.716,-5.976 c -0.047,1.677 -0.073,3.376 -0.084,5.071 L 0,0 z"
             style="fill:#f6bb42;fill-opacity:1;fill-rule:nonzero;stroke:none"
             id="path216" /></g></g></g></g></svg>